%TF.GenerationSoftware,KiCad,Pcbnew,7.0.9*%
%TF.CreationDate,2024-04-23T16:01:33+08:00*%
%TF.ProjectId,radio-9014x1-ss-wide-transistor,72616469-6f2d-4393-9031-3478312d7373,rev?*%
%TF.SameCoordinates,Original*%
%TF.FileFunction,Profile,NP*%
%FSLAX46Y46*%
G04 Gerber Fmt 4.6, Leading zero omitted, Abs format (unit mm)*
G04 Created by KiCad (PCBNEW 7.0.9) date 2024-04-23 16:01:33*
%MOMM*%
%LPD*%
G01*
G04 APERTURE LIST*
%TA.AperFunction,Profile*%
%ADD10C,0.100000*%
%TD*%
G04 APERTURE END LIST*
D10*
X103625000Y-118400000D02*
G75*
G03*
X103625000Y-118400000I-1700000J0D01*
G01*
X89600000Y-139500000D02*
G75*
G03*
X89600000Y-139500000I-1600000J0D01*
G01*
X176548146Y-120000000D02*
G75*
G03*
X176548146Y-120000000I-673146J0D01*
G01*
X171523146Y-115000000D02*
G75*
G03*
X171523146Y-115000000I-673146J0D01*
G01*
X103575000Y-104825000D02*
G75*
G03*
X103575000Y-104825000I-1700000J0D01*
G01*
X98320362Y-126825000D02*
G75*
G03*
X98320362Y-126825000I-1345362J0D01*
G01*
X179048146Y-109975000D02*
G75*
G03*
X179048146Y-109975000I-673146J0D01*
G01*
X144770362Y-138775000D02*
G75*
G03*
X144770362Y-138775000I-1345362J0D01*
G01*
X180289200Y-112795600D02*
X180289200Y-87195600D01*
X179100000Y-90000000D02*
G75*
G03*
X179100000Y-90000000I-1600000J0D01*
G01*
X179289200Y-112795600D02*
G75*
G03*
X178895479Y-113195667I10800J-404400D01*
G01*
X179289182Y-117201626D02*
X180289200Y-117195600D01*
X116000000Y-92500000D02*
X124000000Y-92500000D01*
X124000000Y-96500000D01*
X116000000Y-96500000D01*
X116000000Y-92500000D01*
X180289200Y-112795600D02*
X179289200Y-112795600D01*
X179100000Y-139500000D02*
G75*
G03*
X179100000Y-139500000I-1600000J0D01*
G01*
X176548146Y-109975000D02*
G75*
G03*
X176548146Y-109975000I-673146J0D01*
G01*
X165500000Y-92500000D02*
X173500000Y-92500000D01*
X173500000Y-96500000D01*
X165500000Y-96500000D01*
X165500000Y-92500000D01*
X89600000Y-90000000D02*
G75*
G03*
X89600000Y-90000000I-1600000J0D01*
G01*
X85289200Y-87195600D02*
X85289200Y-142195600D01*
X178889200Y-113195600D02*
X178889200Y-116795600D01*
X178889202Y-116795600D02*
G75*
G03*
X179289182Y-117201625I401198J-4800D01*
G01*
X106589342Y-111650000D02*
G75*
G03*
X106589342Y-111650000I-4700000J0D01*
G01*
X180289200Y-142195600D02*
X180289200Y-117195600D01*
X180289200Y-87195600D02*
X85289200Y-87195600D01*
X179048146Y-120000000D02*
G75*
G03*
X179048146Y-120000000I-673146J0D01*
G01*
X85289200Y-142195600D02*
X180289200Y-142195600D01*
M02*
