%TF.GenerationSoftware,KiCad,Pcbnew,7.0.9*%
%TF.CreationDate,2024-04-23T16:01:50+08:00*%
%TF.ProjectId,radio-9014x1-ss-wide-transistor,72616469-6f2d-4393-9031-3478312d7373,rev?*%
%TF.SameCoordinates,Original*%
%TF.FileFunction,Drillmap*%
%TF.FilePolarity,Positive*%
%FSLAX45Y45*%
G04 Gerber Fmt 4.5, Leading zero omitted, Abs format (unit mm)*
G04 Created by KiCad (PCBNEW 7.0.9) date 2024-04-23 16:01:50*
%MOMM*%
%LPD*%
G01*
G04 APERTURE LIST*
%ADD10C,0.100000*%
%ADD11C,0.200000*%
%ADD12C,0.102000*%
%ADD13C,0.110000*%
%ADD14C,0.119380*%
%ADD15C,0.150000*%
%ADD16C,0.120000*%
%ADD17C,0.264000*%
G04 APERTURE END LIST*
D10*
X10362500Y-11840000D02*
G75*
G03*
X10362500Y-11840000I-170000J0D01*
G01*
X8960000Y-13950000D02*
G75*
G03*
X8960000Y-13950000I-160000J0D01*
G01*
X17654815Y-12000000D02*
G75*
G03*
X17654815Y-12000000I-67315J0D01*
G01*
X17152315Y-11500000D02*
G75*
G03*
X17152315Y-11500000I-67315J0D01*
G01*
X10357500Y-10482500D02*
G75*
G03*
X10357500Y-10482500I-170000J0D01*
G01*
X9832036Y-12682500D02*
G75*
G03*
X9832036Y-12682500I-134536J0D01*
G01*
X17904815Y-10997500D02*
G75*
G03*
X17904815Y-10997500I-67315J0D01*
G01*
X14477036Y-13877500D02*
G75*
G03*
X14477036Y-13877500I-134536J0D01*
G01*
X18028920Y-11279560D02*
X18028920Y-8719560D01*
X17910000Y-9000000D02*
G75*
G03*
X17910000Y-9000000I-160000J0D01*
G01*
X17928920Y-11279560D02*
G75*
G03*
X17889548Y-11319567I1080J-40440D01*
G01*
X17928918Y-11720163D02*
X18028920Y-11719560D01*
X11600000Y-9250000D02*
X12400000Y-9250000D01*
X12400000Y-9650000D01*
X11600000Y-9650000D01*
X11600000Y-9250000D01*
X18028920Y-11279560D02*
X17928920Y-11279560D01*
X17910000Y-13950000D02*
G75*
G03*
X17910000Y-13950000I-160000J0D01*
G01*
X17654815Y-10997500D02*
G75*
G03*
X17654815Y-10997500I-67315J0D01*
G01*
X16550000Y-9250000D02*
X17350000Y-9250000D01*
X17350000Y-9650000D01*
X16550000Y-9650000D01*
X16550000Y-9250000D01*
X8960000Y-9000000D02*
G75*
G03*
X8960000Y-9000000I-160000J0D01*
G01*
X8528920Y-8719560D02*
X8528920Y-14219560D01*
X17888920Y-11319560D02*
X17888920Y-11679560D01*
X17888920Y-11679560D02*
G75*
G03*
X17928918Y-11720162I40120J-480D01*
G01*
X10658934Y-11165000D02*
G75*
G03*
X10658934Y-11165000I-470000J0D01*
G01*
X18028920Y-14219560D02*
X18028920Y-11719560D01*
X18028920Y-8719560D02*
X8528920Y-8719560D01*
X17904815Y-12000000D02*
G75*
G03*
X17904815Y-12000000I-67315J0D01*
G01*
X8528920Y-14219560D02*
X18028920Y-14219560D01*
D11*
D10*
X17066960Y-10978200D02*
X17106960Y-11018200D01*
X17106960Y-10978200D02*
X17066960Y-11018200D01*
X17136960Y-10978200D02*
X17036960Y-10978200D01*
X17036960Y-10978200D02*
G75*
G03*
X17036960Y-11018200I0J-20000D01*
G01*
X17036960Y-11018200D02*
X17136960Y-11018200D01*
X17136960Y-11018200D02*
G75*
G03*
X17136960Y-10978200I0J20000D01*
G01*
X17066960Y-11978200D02*
X17106960Y-12018200D01*
X17106960Y-11978200D02*
X17066960Y-12018200D01*
X17036960Y-12018200D02*
X17136960Y-12018200D01*
X17136960Y-12018200D02*
G75*
G03*
X17136960Y-11978200I0J20000D01*
G01*
X17136960Y-11978200D02*
X17036960Y-11978200D01*
X17036960Y-11978200D02*
G75*
G03*
X17036960Y-12018200I0J-20000D01*
G01*
X17566960Y-11478200D02*
X17606960Y-11518200D01*
X17606960Y-11478200D02*
X17566960Y-11518200D01*
X17606960Y-11548200D02*
X17606960Y-11448200D01*
X17606960Y-11448200D02*
G75*
G03*
X17566960Y-11448200I-20000J0D01*
G01*
X17566960Y-11448200D02*
X17566960Y-11548200D01*
X17566960Y-11548200D02*
G75*
G03*
X17606960Y-11548200I20000J0D01*
G01*
X12030000Y-11299000D02*
G75*
G03*
X12030000Y-11299000I-40000J0D01*
G01*
X12030000Y-12061000D02*
G75*
G03*
X12030000Y-12061000I-40000J0D01*
G01*
X12400000Y-11560000D02*
G75*
G03*
X12400000Y-11560000I-40000J0D01*
G01*
X12400000Y-12060000D02*
G75*
G03*
X12400000Y-12060000I-40000J0D01*
G01*
X12554000Y-10821000D02*
G75*
G03*
X12554000Y-10821000I-40000J0D01*
G01*
X12554000Y-11075000D02*
G75*
G03*
X12554000Y-11075000I-40000J0D01*
G01*
X12554000Y-11329000D02*
G75*
G03*
X12554000Y-11329000I-40000J0D01*
G01*
X12739000Y-12040000D02*
G75*
G03*
X12739000Y-12040000I-40000J0D01*
G01*
X13367000Y-11610000D02*
G75*
G03*
X13367000Y-11610000I-40000J0D01*
G01*
X13501000Y-12040000D02*
G75*
G03*
X13501000Y-12040000I-40000J0D01*
G01*
X14383000Y-11610000D02*
G75*
G03*
X14383000Y-11610000I-40000J0D01*
G01*
X14665000Y-12035000D02*
G75*
G03*
X14665000Y-12035000I-40000J0D01*
G01*
X14765000Y-10715000D02*
G75*
G03*
X14765000Y-10715000I-40000J0D01*
G01*
X14765000Y-11223000D02*
G75*
G03*
X14765000Y-11223000I-40000J0D01*
G01*
X14915000Y-12035000D02*
G75*
G03*
X14915000Y-12035000I-40000J0D01*
G01*
X15350000Y-12525000D02*
G75*
G03*
X15350000Y-12525000I-40000J0D01*
G01*
X15437000Y-10385000D02*
G75*
G03*
X15437000Y-10385000I-40000J0D01*
G01*
X15700000Y-10850000D02*
G75*
G03*
X15700000Y-10850000I-40000J0D01*
G01*
X15850000Y-12525000D02*
G75*
G03*
X15850000Y-12525000I-40000J0D01*
G01*
X16200000Y-10850000D02*
G75*
G03*
X16200000Y-10850000I-40000J0D01*
G01*
X16453000Y-10385000D02*
G75*
G03*
X16453000Y-10385000I-40000J0D01*
G01*
X17126960Y-11248200D02*
G75*
G03*
X17126960Y-11248200I-40000J0D01*
G01*
X17121960Y-11208200D02*
X17051960Y-11208200D01*
X17051960Y-11208200D02*
G75*
G03*
X17051960Y-11288200I0J-40000D01*
G01*
X17051960Y-11288200D02*
X17121960Y-11288200D01*
X17121960Y-11288200D02*
G75*
G03*
X17121960Y-11208200I0J40000D01*
G01*
X17126960Y-11748200D02*
G75*
G03*
X17126960Y-11748200I-40000J0D01*
G01*
X17051960Y-11788200D02*
X17121960Y-11788200D01*
X17121960Y-11788200D02*
G75*
G03*
X17121960Y-11708200I0J40000D01*
G01*
X17121960Y-11708200D02*
X17051960Y-11708200D01*
X17051960Y-11708200D02*
G75*
G03*
X17051960Y-11788200I0J-40000D01*
G01*
X15410000Y-13275000D02*
X15410000Y-13365000D01*
X15365000Y-13320000D02*
X15455000Y-13320000D01*
X15610000Y-13275000D02*
X15610000Y-13365000D01*
X15565000Y-13320000D02*
X15655000Y-13320000D01*
X15810000Y-13275000D02*
X15810000Y-13365000D01*
X15765000Y-13320000D02*
X15855000Y-13320000D01*
X12005356Y-10235356D02*
X12005356Y-10164644D01*
X11934644Y-10164644D01*
X11934644Y-10235356D01*
X12005356Y-10235356D01*
X12305356Y-10235356D02*
X12305356Y-10164644D01*
X12234644Y-10164644D01*
X12234644Y-10235356D01*
X12305356Y-10235356D01*
X12755356Y-10235356D02*
X12755356Y-10164644D01*
X12684644Y-10164644D01*
X12684644Y-10235356D01*
X12755356Y-10235356D01*
X13305356Y-10235356D02*
X13305356Y-10164644D01*
X13234644Y-10164644D01*
X13234644Y-10235356D01*
X13305356Y-10235356D01*
X13905356Y-10235356D02*
X13905356Y-10164644D01*
X13834644Y-10164644D01*
X13834644Y-10235356D01*
X13905356Y-10235356D01*
X17055356Y-10235356D02*
X17055356Y-10164644D01*
X16984644Y-10164644D01*
X16984644Y-10235356D01*
X17055356Y-10235356D01*
D12*
X9420000Y-13331000D02*
X9471000Y-13280000D01*
X9420000Y-13229000D01*
X9369000Y-13280000D01*
X9420000Y-13331000D01*
X14619000Y-13331000D02*
X14670000Y-13280000D01*
X14619000Y-13229000D01*
X14568000Y-13280000D01*
X14619000Y-13331000D01*
D13*
X15445000Y-11781250D02*
X15555000Y-11891250D01*
X15555000Y-11781250D02*
X15445000Y-11891250D01*
X15555000Y-11836250D02*
G75*
G03*
X15555000Y-11836250I-55000J0D01*
G01*
X15695000Y-11281250D02*
X15805000Y-11391250D01*
X15805000Y-11281250D02*
X15695000Y-11391250D01*
X15805000Y-11336250D02*
G75*
G03*
X15805000Y-11336250I-55000J0D01*
G01*
X15945000Y-11781250D02*
X16055000Y-11891250D01*
X16055000Y-11781250D02*
X15945000Y-11891250D01*
X16055000Y-11836250D02*
G75*
G03*
X16055000Y-11836250I-55000J0D01*
G01*
D14*
X13485310Y-10471310D02*
X13604690Y-10590690D01*
X13604690Y-10471310D02*
X13485310Y-10590690D01*
X13545000Y-10471310D02*
X13545000Y-10590690D01*
X13485310Y-10531000D02*
X13604690Y-10531000D01*
X13485310Y-10979310D02*
X13604690Y-11098690D01*
X13604690Y-10979310D02*
X13485310Y-11098690D01*
X13545000Y-10979310D02*
X13545000Y-11098690D01*
X13485310Y-11039000D02*
X13604690Y-11039000D01*
D15*
X15125000Y-13245000D02*
X15275000Y-13395000D01*
X15275000Y-13245000D02*
X15125000Y-13395000D01*
X15253033Y-13373033D02*
X15253033Y-13266966D01*
X15146966Y-13266966D01*
X15146966Y-13373033D01*
X15253033Y-13373033D01*
X15945000Y-13245000D02*
X16095000Y-13395000D01*
X16095000Y-13245000D02*
X15945000Y-13395000D01*
X16073033Y-13373033D02*
X16073033Y-13266966D01*
X15966966Y-13266966D01*
X15966966Y-13373033D01*
X16073033Y-13373033D01*
D11*
X11182860Y-10350600D02*
X11382860Y-10550600D01*
X11382860Y-10350600D02*
X11182860Y-10550600D01*
X11282860Y-10550600D02*
X11382860Y-10450600D01*
X11282860Y-10350600D01*
X11182860Y-10450600D01*
X11282860Y-10550600D01*
D10*
X11382860Y-10505600D02*
X11382860Y-10395600D01*
X11382860Y-10395600D02*
G75*
G03*
X11182860Y-10395600I-100000J0D01*
G01*
X11182860Y-10395600D02*
X11182860Y-10505600D01*
X11182860Y-10505600D02*
G75*
G03*
X11382860Y-10505600I100000J0D01*
G01*
D11*
X11182860Y-11050600D02*
X11382860Y-11250600D01*
X11382860Y-11050600D02*
X11182860Y-11250600D01*
X11282860Y-11250600D02*
X11382860Y-11150600D01*
X11282860Y-11050600D01*
X11182860Y-11150600D01*
X11282860Y-11250600D01*
D10*
X11382860Y-11205600D02*
X11382860Y-11095600D01*
X11382860Y-11095600D02*
G75*
G03*
X11182860Y-11095600I-100000J0D01*
G01*
X11182860Y-11095600D02*
X11182860Y-11205600D01*
X11182860Y-11205600D02*
G75*
G03*
X11382860Y-11205600I100000J0D01*
G01*
D11*
X11182860Y-11750600D02*
X11382860Y-11950600D01*
X11382860Y-11750600D02*
X11182860Y-11950600D01*
X11282860Y-11950600D02*
X11382860Y-11850600D01*
X11282860Y-11750600D01*
X11182860Y-11850600D01*
X11282860Y-11950600D01*
D10*
X11382860Y-11905600D02*
X11382860Y-11795600D01*
X11382860Y-11795600D02*
G75*
G03*
X11182860Y-11795600I-100000J0D01*
G01*
X11182860Y-11795600D02*
X11182860Y-11905600D01*
X11182860Y-11905600D02*
G75*
G03*
X11382860Y-11905600I100000J0D01*
G01*
D16*
X17086960Y-11438200D02*
X17086960Y-11558200D01*
X17026960Y-11498200D02*
X17146960Y-11498200D01*
X17146960Y-11498200D02*
G75*
G03*
X17146960Y-11498200I-60000J0D01*
G01*
X17586960Y-10938200D02*
X17586960Y-11058200D01*
X17526960Y-10998200D02*
X17646960Y-10998200D01*
X17646960Y-10998200D02*
G75*
G03*
X17646960Y-10998200I-60000J0D01*
G01*
X17586960Y-11938200D02*
X17586960Y-12058200D01*
X17526960Y-11998200D02*
X17646960Y-11998200D01*
X17646960Y-11998200D02*
G75*
G03*
X17646960Y-11998200I-60000J0D01*
G01*
X17836960Y-10938200D02*
X17836960Y-11058200D01*
X17776960Y-10998200D02*
X17896960Y-10998200D01*
X17896960Y-10998200D02*
G75*
G03*
X17896960Y-10998200I-60000J0D01*
G01*
X17836960Y-11938200D02*
X17836960Y-12058200D01*
X17776960Y-11998200D02*
X17896960Y-11998200D01*
X17896960Y-11998200D02*
G75*
G03*
X17896960Y-11998200I-60000J0D01*
G01*
D17*
X9788339Y-12773839D02*
X9788339Y-12587161D01*
X9601661Y-12587161D01*
X9601661Y-12773839D01*
X9788339Y-12773839D01*
X9827000Y-12680500D02*
G75*
G03*
X9827000Y-12680500I-132000J0D01*
G01*
X14436339Y-13972839D02*
X14436339Y-13786161D01*
X14249661Y-13786161D01*
X14249661Y-13972839D01*
X14436339Y-13972839D01*
X14475000Y-13879500D02*
G75*
G03*
X14475000Y-13879500I-132000J0D01*
G01*
D11*
X8784697Y-14536044D02*
X8784697Y-14336044D01*
X8784697Y-14336044D02*
X8832316Y-14336044D01*
X8832316Y-14336044D02*
X8860887Y-14345568D01*
X8860887Y-14345568D02*
X8879935Y-14364615D01*
X8879935Y-14364615D02*
X8889459Y-14383663D01*
X8889459Y-14383663D02*
X8898983Y-14421758D01*
X8898983Y-14421758D02*
X8898983Y-14450329D01*
X8898983Y-14450329D02*
X8889459Y-14488425D01*
X8889459Y-14488425D02*
X8879935Y-14507472D01*
X8879935Y-14507472D02*
X8860887Y-14526520D01*
X8860887Y-14526520D02*
X8832316Y-14536044D01*
X8832316Y-14536044D02*
X8784697Y-14536044D01*
X8984697Y-14536044D02*
X8984697Y-14402710D01*
X8984697Y-14440806D02*
X8994221Y-14421758D01*
X8994221Y-14421758D02*
X9003744Y-14412234D01*
X9003744Y-14412234D02*
X9022792Y-14402710D01*
X9022792Y-14402710D02*
X9041840Y-14402710D01*
X9108506Y-14536044D02*
X9108506Y-14402710D01*
X9108506Y-14336044D02*
X9098983Y-14345568D01*
X9098983Y-14345568D02*
X9108506Y-14355091D01*
X9108506Y-14355091D02*
X9118030Y-14345568D01*
X9118030Y-14345568D02*
X9108506Y-14336044D01*
X9108506Y-14336044D02*
X9108506Y-14355091D01*
X9232316Y-14536044D02*
X9213268Y-14526520D01*
X9213268Y-14526520D02*
X9203744Y-14507472D01*
X9203744Y-14507472D02*
X9203744Y-14336044D01*
X9337078Y-14536044D02*
X9318030Y-14526520D01*
X9318030Y-14526520D02*
X9308506Y-14507472D01*
X9308506Y-14507472D02*
X9308506Y-14336044D01*
X9565649Y-14536044D02*
X9565649Y-14336044D01*
X9565649Y-14336044D02*
X9632316Y-14478901D01*
X9632316Y-14478901D02*
X9698983Y-14336044D01*
X9698983Y-14336044D02*
X9698983Y-14536044D01*
X9879935Y-14536044D02*
X9879935Y-14431282D01*
X9879935Y-14431282D02*
X9870411Y-14412234D01*
X9870411Y-14412234D02*
X9851364Y-14402710D01*
X9851364Y-14402710D02*
X9813268Y-14402710D01*
X9813268Y-14402710D02*
X9794221Y-14412234D01*
X9879935Y-14526520D02*
X9860887Y-14536044D01*
X9860887Y-14536044D02*
X9813268Y-14536044D01*
X9813268Y-14536044D02*
X9794221Y-14526520D01*
X9794221Y-14526520D02*
X9784697Y-14507472D01*
X9784697Y-14507472D02*
X9784697Y-14488425D01*
X9784697Y-14488425D02*
X9794221Y-14469377D01*
X9794221Y-14469377D02*
X9813268Y-14459853D01*
X9813268Y-14459853D02*
X9860887Y-14459853D01*
X9860887Y-14459853D02*
X9879935Y-14450329D01*
X9975173Y-14402710D02*
X9975173Y-14602710D01*
X9975173Y-14412234D02*
X9994221Y-14402710D01*
X9994221Y-14402710D02*
X10032316Y-14402710D01*
X10032316Y-14402710D02*
X10051364Y-14412234D01*
X10051364Y-14412234D02*
X10060887Y-14421758D01*
X10060887Y-14421758D02*
X10070411Y-14440806D01*
X10070411Y-14440806D02*
X10070411Y-14497948D01*
X10070411Y-14497948D02*
X10060887Y-14516996D01*
X10060887Y-14516996D02*
X10051364Y-14526520D01*
X10051364Y-14526520D02*
X10032316Y-14536044D01*
X10032316Y-14536044D02*
X9994221Y-14536044D01*
X9994221Y-14536044D02*
X9975173Y-14526520D01*
X10156125Y-14516996D02*
X10165649Y-14526520D01*
X10165649Y-14526520D02*
X10156125Y-14536044D01*
X10156125Y-14536044D02*
X10146602Y-14526520D01*
X10146602Y-14526520D02*
X10156125Y-14516996D01*
X10156125Y-14516996D02*
X10156125Y-14536044D01*
X10156125Y-14412234D02*
X10165649Y-14421758D01*
X10165649Y-14421758D02*
X10156125Y-14431282D01*
X10156125Y-14431282D02*
X10146602Y-14421758D01*
X10146602Y-14421758D02*
X10156125Y-14412234D01*
X10156125Y-14412234D02*
X10156125Y-14431282D01*
D10*
X8483920Y-14844560D02*
X8523920Y-14884560D01*
X8523920Y-14844560D02*
X8483920Y-14884560D01*
D11*
X8822792Y-14756044D02*
X8841840Y-14756044D01*
X8841840Y-14756044D02*
X8860887Y-14765568D01*
X8860887Y-14765568D02*
X8870411Y-14775091D01*
X8870411Y-14775091D02*
X8879935Y-14794139D01*
X8879935Y-14794139D02*
X8889459Y-14832234D01*
X8889459Y-14832234D02*
X8889459Y-14879853D01*
X8889459Y-14879853D02*
X8879935Y-14917948D01*
X8879935Y-14917948D02*
X8870411Y-14936996D01*
X8870411Y-14936996D02*
X8860887Y-14946520D01*
X8860887Y-14946520D02*
X8841840Y-14956044D01*
X8841840Y-14956044D02*
X8822792Y-14956044D01*
X8822792Y-14956044D02*
X8803744Y-14946520D01*
X8803744Y-14946520D02*
X8794221Y-14936996D01*
X8794221Y-14936996D02*
X8784697Y-14917948D01*
X8784697Y-14917948D02*
X8775173Y-14879853D01*
X8775173Y-14879853D02*
X8775173Y-14832234D01*
X8775173Y-14832234D02*
X8784697Y-14794139D01*
X8784697Y-14794139D02*
X8794221Y-14775091D01*
X8794221Y-14775091D02*
X8803744Y-14765568D01*
X8803744Y-14765568D02*
X8822792Y-14756044D01*
X8975173Y-14936996D02*
X8984697Y-14946520D01*
X8984697Y-14946520D02*
X8975173Y-14956044D01*
X8975173Y-14956044D02*
X8965649Y-14946520D01*
X8965649Y-14946520D02*
X8975173Y-14936996D01*
X8975173Y-14936996D02*
X8975173Y-14956044D01*
X9156125Y-14822710D02*
X9156125Y-14956044D01*
X9108506Y-14746520D02*
X9060887Y-14889377D01*
X9060887Y-14889377D02*
X9184697Y-14889377D01*
X9298983Y-14756044D02*
X9318030Y-14756044D01*
X9318030Y-14756044D02*
X9337078Y-14765568D01*
X9337078Y-14765568D02*
X9346602Y-14775091D01*
X9346602Y-14775091D02*
X9356125Y-14794139D01*
X9356125Y-14794139D02*
X9365649Y-14832234D01*
X9365649Y-14832234D02*
X9365649Y-14879853D01*
X9365649Y-14879853D02*
X9356125Y-14917948D01*
X9356125Y-14917948D02*
X9346602Y-14936996D01*
X9346602Y-14936996D02*
X9337078Y-14946520D01*
X9337078Y-14946520D02*
X9318030Y-14956044D01*
X9318030Y-14956044D02*
X9298983Y-14956044D01*
X9298983Y-14956044D02*
X9279935Y-14946520D01*
X9279935Y-14946520D02*
X9270411Y-14936996D01*
X9270411Y-14936996D02*
X9260887Y-14917948D01*
X9260887Y-14917948D02*
X9251364Y-14879853D01*
X9251364Y-14879853D02*
X9251364Y-14832234D01*
X9251364Y-14832234D02*
X9260887Y-14794139D01*
X9260887Y-14794139D02*
X9270411Y-14775091D01*
X9270411Y-14775091D02*
X9279935Y-14765568D01*
X9279935Y-14765568D02*
X9298983Y-14756044D01*
X9489459Y-14756044D02*
X9508506Y-14756044D01*
X9508506Y-14756044D02*
X9527554Y-14765568D01*
X9527554Y-14765568D02*
X9537078Y-14775091D01*
X9537078Y-14775091D02*
X9546602Y-14794139D01*
X9546602Y-14794139D02*
X9556125Y-14832234D01*
X9556125Y-14832234D02*
X9556125Y-14879853D01*
X9556125Y-14879853D02*
X9546602Y-14917948D01*
X9546602Y-14917948D02*
X9537078Y-14936996D01*
X9537078Y-14936996D02*
X9527554Y-14946520D01*
X9527554Y-14946520D02*
X9508506Y-14956044D01*
X9508506Y-14956044D02*
X9489459Y-14956044D01*
X9489459Y-14956044D02*
X9470411Y-14946520D01*
X9470411Y-14946520D02*
X9460887Y-14936996D01*
X9460887Y-14936996D02*
X9451364Y-14917948D01*
X9451364Y-14917948D02*
X9441840Y-14879853D01*
X9441840Y-14879853D02*
X9441840Y-14832234D01*
X9441840Y-14832234D02*
X9451364Y-14794139D01*
X9451364Y-14794139D02*
X9460887Y-14775091D01*
X9460887Y-14775091D02*
X9470411Y-14765568D01*
X9470411Y-14765568D02*
X9489459Y-14756044D01*
X9641840Y-14956044D02*
X9641840Y-14822710D01*
X9641840Y-14841758D02*
X9651364Y-14832234D01*
X9651364Y-14832234D02*
X9670411Y-14822710D01*
X9670411Y-14822710D02*
X9698983Y-14822710D01*
X9698983Y-14822710D02*
X9718030Y-14832234D01*
X9718030Y-14832234D02*
X9727554Y-14851282D01*
X9727554Y-14851282D02*
X9727554Y-14956044D01*
X9727554Y-14851282D02*
X9737078Y-14832234D01*
X9737078Y-14832234D02*
X9756125Y-14822710D01*
X9756125Y-14822710D02*
X9784697Y-14822710D01*
X9784697Y-14822710D02*
X9803745Y-14832234D01*
X9803745Y-14832234D02*
X9813268Y-14851282D01*
X9813268Y-14851282D02*
X9813268Y-14956044D01*
X9908506Y-14956044D02*
X9908506Y-14822710D01*
X9908506Y-14841758D02*
X9918030Y-14832234D01*
X9918030Y-14832234D02*
X9937078Y-14822710D01*
X9937078Y-14822710D02*
X9965649Y-14822710D01*
X9965649Y-14822710D02*
X9984697Y-14832234D01*
X9984697Y-14832234D02*
X9994221Y-14851282D01*
X9994221Y-14851282D02*
X9994221Y-14956044D01*
X9994221Y-14851282D02*
X10003745Y-14832234D01*
X10003745Y-14832234D02*
X10022792Y-14822710D01*
X10022792Y-14822710D02*
X10051364Y-14822710D01*
X10051364Y-14822710D02*
X10070411Y-14832234D01*
X10070411Y-14832234D02*
X10079935Y-14851282D01*
X10079935Y-14851282D02*
X10079935Y-14956044D01*
X10470411Y-14746520D02*
X10298983Y-15003663D01*
X10727554Y-14756044D02*
X10746602Y-14756044D01*
X10746602Y-14756044D02*
X10765649Y-14765568D01*
X10765649Y-14765568D02*
X10775173Y-14775091D01*
X10775173Y-14775091D02*
X10784697Y-14794139D01*
X10784697Y-14794139D02*
X10794221Y-14832234D01*
X10794221Y-14832234D02*
X10794221Y-14879853D01*
X10794221Y-14879853D02*
X10784697Y-14917948D01*
X10784697Y-14917948D02*
X10775173Y-14936996D01*
X10775173Y-14936996D02*
X10765649Y-14946520D01*
X10765649Y-14946520D02*
X10746602Y-14956044D01*
X10746602Y-14956044D02*
X10727554Y-14956044D01*
X10727554Y-14956044D02*
X10708507Y-14946520D01*
X10708507Y-14946520D02*
X10698983Y-14936996D01*
X10698983Y-14936996D02*
X10689459Y-14917948D01*
X10689459Y-14917948D02*
X10679935Y-14879853D01*
X10679935Y-14879853D02*
X10679935Y-14832234D01*
X10679935Y-14832234D02*
X10689459Y-14794139D01*
X10689459Y-14794139D02*
X10698983Y-14775091D01*
X10698983Y-14775091D02*
X10708507Y-14765568D01*
X10708507Y-14765568D02*
X10727554Y-14756044D01*
X10879935Y-14936996D02*
X10889459Y-14946520D01*
X10889459Y-14946520D02*
X10879935Y-14956044D01*
X10879935Y-14956044D02*
X10870411Y-14946520D01*
X10870411Y-14946520D02*
X10879935Y-14936996D01*
X10879935Y-14936996D02*
X10879935Y-14956044D01*
X11013268Y-14756044D02*
X11032316Y-14756044D01*
X11032316Y-14756044D02*
X11051364Y-14765568D01*
X11051364Y-14765568D02*
X11060888Y-14775091D01*
X11060888Y-14775091D02*
X11070411Y-14794139D01*
X11070411Y-14794139D02*
X11079935Y-14832234D01*
X11079935Y-14832234D02*
X11079935Y-14879853D01*
X11079935Y-14879853D02*
X11070411Y-14917948D01*
X11070411Y-14917948D02*
X11060888Y-14936996D01*
X11060888Y-14936996D02*
X11051364Y-14946520D01*
X11051364Y-14946520D02*
X11032316Y-14956044D01*
X11032316Y-14956044D02*
X11013268Y-14956044D01*
X11013268Y-14956044D02*
X10994221Y-14946520D01*
X10994221Y-14946520D02*
X10984697Y-14936996D01*
X10984697Y-14936996D02*
X10975173Y-14917948D01*
X10975173Y-14917948D02*
X10965649Y-14879853D01*
X10965649Y-14879853D02*
X10965649Y-14832234D01*
X10965649Y-14832234D02*
X10975173Y-14794139D01*
X10975173Y-14794139D02*
X10984697Y-14775091D01*
X10984697Y-14775091D02*
X10994221Y-14765568D01*
X10994221Y-14765568D02*
X11013268Y-14756044D01*
X11270411Y-14956044D02*
X11156126Y-14956044D01*
X11213268Y-14956044D02*
X11213268Y-14756044D01*
X11213268Y-14756044D02*
X11194221Y-14784615D01*
X11194221Y-14784615D02*
X11175173Y-14803663D01*
X11175173Y-14803663D02*
X11156126Y-14813187D01*
X11451364Y-14756044D02*
X11356126Y-14756044D01*
X11356126Y-14756044D02*
X11346602Y-14851282D01*
X11346602Y-14851282D02*
X11356126Y-14841758D01*
X11356126Y-14841758D02*
X11375173Y-14832234D01*
X11375173Y-14832234D02*
X11422792Y-14832234D01*
X11422792Y-14832234D02*
X11441840Y-14841758D01*
X11441840Y-14841758D02*
X11451364Y-14851282D01*
X11451364Y-14851282D02*
X11460887Y-14870329D01*
X11460887Y-14870329D02*
X11460887Y-14917948D01*
X11460887Y-14917948D02*
X11451364Y-14936996D01*
X11451364Y-14936996D02*
X11441840Y-14946520D01*
X11441840Y-14946520D02*
X11422792Y-14956044D01*
X11422792Y-14956044D02*
X11375173Y-14956044D01*
X11375173Y-14956044D02*
X11356126Y-14946520D01*
X11356126Y-14946520D02*
X11346602Y-14936996D01*
X11527554Y-14756044D02*
X11660887Y-14756044D01*
X11660887Y-14756044D02*
X11575173Y-14956044D01*
X11727554Y-14756044D02*
X11727554Y-14794139D01*
X11803745Y-14756044D02*
X11803745Y-14794139D01*
X12098983Y-15032234D02*
X12089459Y-15022710D01*
X12089459Y-15022710D02*
X12070411Y-14994139D01*
X12070411Y-14994139D02*
X12060888Y-14975091D01*
X12060888Y-14975091D02*
X12051364Y-14946520D01*
X12051364Y-14946520D02*
X12041840Y-14898901D01*
X12041840Y-14898901D02*
X12041840Y-14860806D01*
X12041840Y-14860806D02*
X12051364Y-14813187D01*
X12051364Y-14813187D02*
X12060888Y-14784615D01*
X12060888Y-14784615D02*
X12070411Y-14765568D01*
X12070411Y-14765568D02*
X12089459Y-14736996D01*
X12089459Y-14736996D02*
X12098983Y-14727472D01*
X12213268Y-14756044D02*
X12232316Y-14756044D01*
X12232316Y-14756044D02*
X12251364Y-14765568D01*
X12251364Y-14765568D02*
X12260888Y-14775091D01*
X12260888Y-14775091D02*
X12270411Y-14794139D01*
X12270411Y-14794139D02*
X12279935Y-14832234D01*
X12279935Y-14832234D02*
X12279935Y-14879853D01*
X12279935Y-14879853D02*
X12270411Y-14917948D01*
X12270411Y-14917948D02*
X12260888Y-14936996D01*
X12260888Y-14936996D02*
X12251364Y-14946520D01*
X12251364Y-14946520D02*
X12232316Y-14956044D01*
X12232316Y-14956044D02*
X12213268Y-14956044D01*
X12213268Y-14956044D02*
X12194221Y-14946520D01*
X12194221Y-14946520D02*
X12184697Y-14936996D01*
X12184697Y-14936996D02*
X12175173Y-14917948D01*
X12175173Y-14917948D02*
X12165649Y-14879853D01*
X12165649Y-14879853D02*
X12165649Y-14832234D01*
X12165649Y-14832234D02*
X12175173Y-14794139D01*
X12175173Y-14794139D02*
X12184697Y-14775091D01*
X12184697Y-14775091D02*
X12194221Y-14765568D01*
X12194221Y-14765568D02*
X12213268Y-14756044D01*
X12518030Y-14956044D02*
X12518030Y-14756044D01*
X12603745Y-14956044D02*
X12603745Y-14851282D01*
X12603745Y-14851282D02*
X12594221Y-14832234D01*
X12594221Y-14832234D02*
X12575173Y-14822710D01*
X12575173Y-14822710D02*
X12546602Y-14822710D01*
X12546602Y-14822710D02*
X12527554Y-14832234D01*
X12527554Y-14832234D02*
X12518030Y-14841758D01*
X12727554Y-14956044D02*
X12708507Y-14946520D01*
X12708507Y-14946520D02*
X12698983Y-14936996D01*
X12698983Y-14936996D02*
X12689459Y-14917948D01*
X12689459Y-14917948D02*
X12689459Y-14860806D01*
X12689459Y-14860806D02*
X12698983Y-14841758D01*
X12698983Y-14841758D02*
X12708507Y-14832234D01*
X12708507Y-14832234D02*
X12727554Y-14822710D01*
X12727554Y-14822710D02*
X12756126Y-14822710D01*
X12756126Y-14822710D02*
X12775173Y-14832234D01*
X12775173Y-14832234D02*
X12784697Y-14841758D01*
X12784697Y-14841758D02*
X12794221Y-14860806D01*
X12794221Y-14860806D02*
X12794221Y-14917948D01*
X12794221Y-14917948D02*
X12784697Y-14936996D01*
X12784697Y-14936996D02*
X12775173Y-14946520D01*
X12775173Y-14946520D02*
X12756126Y-14956044D01*
X12756126Y-14956044D02*
X12727554Y-14956044D01*
X12908507Y-14956044D02*
X12889459Y-14946520D01*
X12889459Y-14946520D02*
X12879935Y-14927472D01*
X12879935Y-14927472D02*
X12879935Y-14756044D01*
X13060888Y-14946520D02*
X13041840Y-14956044D01*
X13041840Y-14956044D02*
X13003745Y-14956044D01*
X13003745Y-14956044D02*
X12984697Y-14946520D01*
X12984697Y-14946520D02*
X12975173Y-14927472D01*
X12975173Y-14927472D02*
X12975173Y-14851282D01*
X12975173Y-14851282D02*
X12984697Y-14832234D01*
X12984697Y-14832234D02*
X13003745Y-14822710D01*
X13003745Y-14822710D02*
X13041840Y-14822710D01*
X13041840Y-14822710D02*
X13060888Y-14832234D01*
X13060888Y-14832234D02*
X13070411Y-14851282D01*
X13070411Y-14851282D02*
X13070411Y-14870329D01*
X13070411Y-14870329D02*
X12975173Y-14889377D01*
X13146602Y-14946520D02*
X13165650Y-14956044D01*
X13165650Y-14956044D02*
X13203745Y-14956044D01*
X13203745Y-14956044D02*
X13222792Y-14946520D01*
X13222792Y-14946520D02*
X13232316Y-14927472D01*
X13232316Y-14927472D02*
X13232316Y-14917948D01*
X13232316Y-14917948D02*
X13222792Y-14898901D01*
X13222792Y-14898901D02*
X13203745Y-14889377D01*
X13203745Y-14889377D02*
X13175173Y-14889377D01*
X13175173Y-14889377D02*
X13156126Y-14879853D01*
X13156126Y-14879853D02*
X13146602Y-14860806D01*
X13146602Y-14860806D02*
X13146602Y-14851282D01*
X13146602Y-14851282D02*
X13156126Y-14832234D01*
X13156126Y-14832234D02*
X13175173Y-14822710D01*
X13175173Y-14822710D02*
X13203745Y-14822710D01*
X13203745Y-14822710D02*
X13222792Y-14832234D01*
X13470412Y-14879853D02*
X13622793Y-14879853D01*
X13546602Y-14956044D02*
X13546602Y-14803663D01*
X13851364Y-14756044D02*
X13975173Y-14756044D01*
X13975173Y-14756044D02*
X13908507Y-14832234D01*
X13908507Y-14832234D02*
X13937078Y-14832234D01*
X13937078Y-14832234D02*
X13956126Y-14841758D01*
X13956126Y-14841758D02*
X13965650Y-14851282D01*
X13965650Y-14851282D02*
X13975173Y-14870329D01*
X13975173Y-14870329D02*
X13975173Y-14917948D01*
X13975173Y-14917948D02*
X13965650Y-14936996D01*
X13965650Y-14936996D02*
X13956126Y-14946520D01*
X13956126Y-14946520D02*
X13937078Y-14956044D01*
X13937078Y-14956044D02*
X13879935Y-14956044D01*
X13879935Y-14956044D02*
X13860888Y-14946520D01*
X13860888Y-14946520D02*
X13851364Y-14936996D01*
X14203745Y-14946520D02*
X14222793Y-14956044D01*
X14222793Y-14956044D02*
X14260888Y-14956044D01*
X14260888Y-14956044D02*
X14279935Y-14946520D01*
X14279935Y-14946520D02*
X14289459Y-14927472D01*
X14289459Y-14927472D02*
X14289459Y-14917948D01*
X14289459Y-14917948D02*
X14279935Y-14898901D01*
X14279935Y-14898901D02*
X14260888Y-14889377D01*
X14260888Y-14889377D02*
X14232316Y-14889377D01*
X14232316Y-14889377D02*
X14213269Y-14879853D01*
X14213269Y-14879853D02*
X14203745Y-14860806D01*
X14203745Y-14860806D02*
X14203745Y-14851282D01*
X14203745Y-14851282D02*
X14213269Y-14832234D01*
X14213269Y-14832234D02*
X14232316Y-14822710D01*
X14232316Y-14822710D02*
X14260888Y-14822710D01*
X14260888Y-14822710D02*
X14279935Y-14832234D01*
X14403745Y-14956044D02*
X14384697Y-14946520D01*
X14384697Y-14946520D02*
X14375174Y-14927472D01*
X14375174Y-14927472D02*
X14375174Y-14756044D01*
X14508507Y-14956044D02*
X14489459Y-14946520D01*
X14489459Y-14946520D02*
X14479935Y-14936996D01*
X14479935Y-14936996D02*
X14470412Y-14917948D01*
X14470412Y-14917948D02*
X14470412Y-14860806D01*
X14470412Y-14860806D02*
X14479935Y-14841758D01*
X14479935Y-14841758D02*
X14489459Y-14832234D01*
X14489459Y-14832234D02*
X14508507Y-14822710D01*
X14508507Y-14822710D02*
X14537078Y-14822710D01*
X14537078Y-14822710D02*
X14556126Y-14832234D01*
X14556126Y-14832234D02*
X14565650Y-14841758D01*
X14565650Y-14841758D02*
X14575174Y-14860806D01*
X14575174Y-14860806D02*
X14575174Y-14917948D01*
X14575174Y-14917948D02*
X14565650Y-14936996D01*
X14565650Y-14936996D02*
X14556126Y-14946520D01*
X14556126Y-14946520D02*
X14537078Y-14956044D01*
X14537078Y-14956044D02*
X14508507Y-14956044D01*
X14632316Y-14822710D02*
X14708507Y-14822710D01*
X14660888Y-14756044D02*
X14660888Y-14927472D01*
X14660888Y-14927472D02*
X14670412Y-14946520D01*
X14670412Y-14946520D02*
X14689459Y-14956044D01*
X14689459Y-14956044D02*
X14708507Y-14956044D01*
X14765650Y-14946520D02*
X14784697Y-14956044D01*
X14784697Y-14956044D02*
X14822793Y-14956044D01*
X14822793Y-14956044D02*
X14841840Y-14946520D01*
X14841840Y-14946520D02*
X14851364Y-14927472D01*
X14851364Y-14927472D02*
X14851364Y-14917948D01*
X14851364Y-14917948D02*
X14841840Y-14898901D01*
X14841840Y-14898901D02*
X14822793Y-14889377D01*
X14822793Y-14889377D02*
X14794221Y-14889377D01*
X14794221Y-14889377D02*
X14775174Y-14879853D01*
X14775174Y-14879853D02*
X14765650Y-14860806D01*
X14765650Y-14860806D02*
X14765650Y-14851282D01*
X14765650Y-14851282D02*
X14775174Y-14832234D01*
X14775174Y-14832234D02*
X14794221Y-14822710D01*
X14794221Y-14822710D02*
X14822793Y-14822710D01*
X14822793Y-14822710D02*
X14841840Y-14832234D01*
X14918031Y-15032234D02*
X14927555Y-15022710D01*
X14927555Y-15022710D02*
X14946602Y-14994139D01*
X14946602Y-14994139D02*
X14956126Y-14975091D01*
X14956126Y-14975091D02*
X14965650Y-14946520D01*
X14965650Y-14946520D02*
X14975174Y-14898901D01*
X14975174Y-14898901D02*
X14975174Y-14860806D01*
X14975174Y-14860806D02*
X14965650Y-14813187D01*
X14965650Y-14813187D02*
X14956126Y-14784615D01*
X14956126Y-14784615D02*
X14946602Y-14765568D01*
X14946602Y-14765568D02*
X14927555Y-14736996D01*
X14927555Y-14736996D02*
X14918031Y-14727472D01*
D10*
X8523920Y-15128560D02*
G75*
G03*
X8523920Y-15128560I-40000J0D01*
G01*
D11*
X8822792Y-15020044D02*
X8841840Y-15020044D01*
X8841840Y-15020044D02*
X8860887Y-15029568D01*
X8860887Y-15029568D02*
X8870411Y-15039091D01*
X8870411Y-15039091D02*
X8879935Y-15058139D01*
X8879935Y-15058139D02*
X8889459Y-15096234D01*
X8889459Y-15096234D02*
X8889459Y-15143853D01*
X8889459Y-15143853D02*
X8879935Y-15181948D01*
X8879935Y-15181948D02*
X8870411Y-15200996D01*
X8870411Y-15200996D02*
X8860887Y-15210520D01*
X8860887Y-15210520D02*
X8841840Y-15220044D01*
X8841840Y-15220044D02*
X8822792Y-15220044D01*
X8822792Y-15220044D02*
X8803744Y-15210520D01*
X8803744Y-15210520D02*
X8794221Y-15200996D01*
X8794221Y-15200996D02*
X8784697Y-15181948D01*
X8784697Y-15181948D02*
X8775173Y-15143853D01*
X8775173Y-15143853D02*
X8775173Y-15096234D01*
X8775173Y-15096234D02*
X8784697Y-15058139D01*
X8784697Y-15058139D02*
X8794221Y-15039091D01*
X8794221Y-15039091D02*
X8803744Y-15029568D01*
X8803744Y-15029568D02*
X8822792Y-15020044D01*
X8975173Y-15200996D02*
X8984697Y-15210520D01*
X8984697Y-15210520D02*
X8975173Y-15220044D01*
X8975173Y-15220044D02*
X8965649Y-15210520D01*
X8965649Y-15210520D02*
X8975173Y-15200996D01*
X8975173Y-15200996D02*
X8975173Y-15220044D01*
X9098983Y-15105758D02*
X9079935Y-15096234D01*
X9079935Y-15096234D02*
X9070411Y-15086710D01*
X9070411Y-15086710D02*
X9060887Y-15067663D01*
X9060887Y-15067663D02*
X9060887Y-15058139D01*
X9060887Y-15058139D02*
X9070411Y-15039091D01*
X9070411Y-15039091D02*
X9079935Y-15029568D01*
X9079935Y-15029568D02*
X9098983Y-15020044D01*
X9098983Y-15020044D02*
X9137078Y-15020044D01*
X9137078Y-15020044D02*
X9156125Y-15029568D01*
X9156125Y-15029568D02*
X9165649Y-15039091D01*
X9165649Y-15039091D02*
X9175173Y-15058139D01*
X9175173Y-15058139D02*
X9175173Y-15067663D01*
X9175173Y-15067663D02*
X9165649Y-15086710D01*
X9165649Y-15086710D02*
X9156125Y-15096234D01*
X9156125Y-15096234D02*
X9137078Y-15105758D01*
X9137078Y-15105758D02*
X9098983Y-15105758D01*
X9098983Y-15105758D02*
X9079935Y-15115282D01*
X9079935Y-15115282D02*
X9070411Y-15124806D01*
X9070411Y-15124806D02*
X9060887Y-15143853D01*
X9060887Y-15143853D02*
X9060887Y-15181948D01*
X9060887Y-15181948D02*
X9070411Y-15200996D01*
X9070411Y-15200996D02*
X9079935Y-15210520D01*
X9079935Y-15210520D02*
X9098983Y-15220044D01*
X9098983Y-15220044D02*
X9137078Y-15220044D01*
X9137078Y-15220044D02*
X9156125Y-15210520D01*
X9156125Y-15210520D02*
X9165649Y-15200996D01*
X9165649Y-15200996D02*
X9175173Y-15181948D01*
X9175173Y-15181948D02*
X9175173Y-15143853D01*
X9175173Y-15143853D02*
X9165649Y-15124806D01*
X9165649Y-15124806D02*
X9156125Y-15115282D01*
X9156125Y-15115282D02*
X9137078Y-15105758D01*
X9298983Y-15020044D02*
X9318030Y-15020044D01*
X9318030Y-15020044D02*
X9337078Y-15029568D01*
X9337078Y-15029568D02*
X9346602Y-15039091D01*
X9346602Y-15039091D02*
X9356125Y-15058139D01*
X9356125Y-15058139D02*
X9365649Y-15096234D01*
X9365649Y-15096234D02*
X9365649Y-15143853D01*
X9365649Y-15143853D02*
X9356125Y-15181948D01*
X9356125Y-15181948D02*
X9346602Y-15200996D01*
X9346602Y-15200996D02*
X9337078Y-15210520D01*
X9337078Y-15210520D02*
X9318030Y-15220044D01*
X9318030Y-15220044D02*
X9298983Y-15220044D01*
X9298983Y-15220044D02*
X9279935Y-15210520D01*
X9279935Y-15210520D02*
X9270411Y-15200996D01*
X9270411Y-15200996D02*
X9260887Y-15181948D01*
X9260887Y-15181948D02*
X9251364Y-15143853D01*
X9251364Y-15143853D02*
X9251364Y-15096234D01*
X9251364Y-15096234D02*
X9260887Y-15058139D01*
X9260887Y-15058139D02*
X9270411Y-15039091D01*
X9270411Y-15039091D02*
X9279935Y-15029568D01*
X9279935Y-15029568D02*
X9298983Y-15020044D01*
X9489459Y-15020044D02*
X9508506Y-15020044D01*
X9508506Y-15020044D02*
X9527554Y-15029568D01*
X9527554Y-15029568D02*
X9537078Y-15039091D01*
X9537078Y-15039091D02*
X9546602Y-15058139D01*
X9546602Y-15058139D02*
X9556125Y-15096234D01*
X9556125Y-15096234D02*
X9556125Y-15143853D01*
X9556125Y-15143853D02*
X9546602Y-15181948D01*
X9546602Y-15181948D02*
X9537078Y-15200996D01*
X9537078Y-15200996D02*
X9527554Y-15210520D01*
X9527554Y-15210520D02*
X9508506Y-15220044D01*
X9508506Y-15220044D02*
X9489459Y-15220044D01*
X9489459Y-15220044D02*
X9470411Y-15210520D01*
X9470411Y-15210520D02*
X9460887Y-15200996D01*
X9460887Y-15200996D02*
X9451364Y-15181948D01*
X9451364Y-15181948D02*
X9441840Y-15143853D01*
X9441840Y-15143853D02*
X9441840Y-15096234D01*
X9441840Y-15096234D02*
X9451364Y-15058139D01*
X9451364Y-15058139D02*
X9460887Y-15039091D01*
X9460887Y-15039091D02*
X9470411Y-15029568D01*
X9470411Y-15029568D02*
X9489459Y-15020044D01*
X9641840Y-15220044D02*
X9641840Y-15086710D01*
X9641840Y-15105758D02*
X9651364Y-15096234D01*
X9651364Y-15096234D02*
X9670411Y-15086710D01*
X9670411Y-15086710D02*
X9698983Y-15086710D01*
X9698983Y-15086710D02*
X9718030Y-15096234D01*
X9718030Y-15096234D02*
X9727554Y-15115282D01*
X9727554Y-15115282D02*
X9727554Y-15220044D01*
X9727554Y-15115282D02*
X9737078Y-15096234D01*
X9737078Y-15096234D02*
X9756125Y-15086710D01*
X9756125Y-15086710D02*
X9784697Y-15086710D01*
X9784697Y-15086710D02*
X9803745Y-15096234D01*
X9803745Y-15096234D02*
X9813268Y-15115282D01*
X9813268Y-15115282D02*
X9813268Y-15220044D01*
X9908506Y-15220044D02*
X9908506Y-15086710D01*
X9908506Y-15105758D02*
X9918030Y-15096234D01*
X9918030Y-15096234D02*
X9937078Y-15086710D01*
X9937078Y-15086710D02*
X9965649Y-15086710D01*
X9965649Y-15086710D02*
X9984697Y-15096234D01*
X9984697Y-15096234D02*
X9994221Y-15115282D01*
X9994221Y-15115282D02*
X9994221Y-15220044D01*
X9994221Y-15115282D02*
X10003745Y-15096234D01*
X10003745Y-15096234D02*
X10022792Y-15086710D01*
X10022792Y-15086710D02*
X10051364Y-15086710D01*
X10051364Y-15086710D02*
X10070411Y-15096234D01*
X10070411Y-15096234D02*
X10079935Y-15115282D01*
X10079935Y-15115282D02*
X10079935Y-15220044D01*
X10470411Y-15010520D02*
X10298983Y-15267663D01*
X10727554Y-15020044D02*
X10746602Y-15020044D01*
X10746602Y-15020044D02*
X10765649Y-15029568D01*
X10765649Y-15029568D02*
X10775173Y-15039091D01*
X10775173Y-15039091D02*
X10784697Y-15058139D01*
X10784697Y-15058139D02*
X10794221Y-15096234D01*
X10794221Y-15096234D02*
X10794221Y-15143853D01*
X10794221Y-15143853D02*
X10784697Y-15181948D01*
X10784697Y-15181948D02*
X10775173Y-15200996D01*
X10775173Y-15200996D02*
X10765649Y-15210520D01*
X10765649Y-15210520D02*
X10746602Y-15220044D01*
X10746602Y-15220044D02*
X10727554Y-15220044D01*
X10727554Y-15220044D02*
X10708507Y-15210520D01*
X10708507Y-15210520D02*
X10698983Y-15200996D01*
X10698983Y-15200996D02*
X10689459Y-15181948D01*
X10689459Y-15181948D02*
X10679935Y-15143853D01*
X10679935Y-15143853D02*
X10679935Y-15096234D01*
X10679935Y-15096234D02*
X10689459Y-15058139D01*
X10689459Y-15058139D02*
X10698983Y-15039091D01*
X10698983Y-15039091D02*
X10708507Y-15029568D01*
X10708507Y-15029568D02*
X10727554Y-15020044D01*
X10879935Y-15200996D02*
X10889459Y-15210520D01*
X10889459Y-15210520D02*
X10879935Y-15220044D01*
X10879935Y-15220044D02*
X10870411Y-15210520D01*
X10870411Y-15210520D02*
X10879935Y-15200996D01*
X10879935Y-15200996D02*
X10879935Y-15220044D01*
X11013268Y-15020044D02*
X11032316Y-15020044D01*
X11032316Y-15020044D02*
X11051364Y-15029568D01*
X11051364Y-15029568D02*
X11060888Y-15039091D01*
X11060888Y-15039091D02*
X11070411Y-15058139D01*
X11070411Y-15058139D02*
X11079935Y-15096234D01*
X11079935Y-15096234D02*
X11079935Y-15143853D01*
X11079935Y-15143853D02*
X11070411Y-15181948D01*
X11070411Y-15181948D02*
X11060888Y-15200996D01*
X11060888Y-15200996D02*
X11051364Y-15210520D01*
X11051364Y-15210520D02*
X11032316Y-15220044D01*
X11032316Y-15220044D02*
X11013268Y-15220044D01*
X11013268Y-15220044D02*
X10994221Y-15210520D01*
X10994221Y-15210520D02*
X10984697Y-15200996D01*
X10984697Y-15200996D02*
X10975173Y-15181948D01*
X10975173Y-15181948D02*
X10965649Y-15143853D01*
X10965649Y-15143853D02*
X10965649Y-15096234D01*
X10965649Y-15096234D02*
X10975173Y-15058139D01*
X10975173Y-15058139D02*
X10984697Y-15039091D01*
X10984697Y-15039091D02*
X10994221Y-15029568D01*
X10994221Y-15029568D02*
X11013268Y-15020044D01*
X11146602Y-15020044D02*
X11270411Y-15020044D01*
X11270411Y-15020044D02*
X11203745Y-15096234D01*
X11203745Y-15096234D02*
X11232316Y-15096234D01*
X11232316Y-15096234D02*
X11251364Y-15105758D01*
X11251364Y-15105758D02*
X11260887Y-15115282D01*
X11260887Y-15115282D02*
X11270411Y-15134329D01*
X11270411Y-15134329D02*
X11270411Y-15181948D01*
X11270411Y-15181948D02*
X11260887Y-15200996D01*
X11260887Y-15200996D02*
X11251364Y-15210520D01*
X11251364Y-15210520D02*
X11232316Y-15220044D01*
X11232316Y-15220044D02*
X11175173Y-15220044D01*
X11175173Y-15220044D02*
X11156126Y-15210520D01*
X11156126Y-15210520D02*
X11146602Y-15200996D01*
X11460887Y-15220044D02*
X11346602Y-15220044D01*
X11403745Y-15220044D02*
X11403745Y-15020044D01*
X11403745Y-15020044D02*
X11384697Y-15048615D01*
X11384697Y-15048615D02*
X11365649Y-15067663D01*
X11365649Y-15067663D02*
X11346602Y-15077187D01*
X11641840Y-15020044D02*
X11546602Y-15020044D01*
X11546602Y-15020044D02*
X11537078Y-15115282D01*
X11537078Y-15115282D02*
X11546602Y-15105758D01*
X11546602Y-15105758D02*
X11565649Y-15096234D01*
X11565649Y-15096234D02*
X11613268Y-15096234D01*
X11613268Y-15096234D02*
X11632316Y-15105758D01*
X11632316Y-15105758D02*
X11641840Y-15115282D01*
X11641840Y-15115282D02*
X11651364Y-15134329D01*
X11651364Y-15134329D02*
X11651364Y-15181948D01*
X11651364Y-15181948D02*
X11641840Y-15200996D01*
X11641840Y-15200996D02*
X11632316Y-15210520D01*
X11632316Y-15210520D02*
X11613268Y-15220044D01*
X11613268Y-15220044D02*
X11565649Y-15220044D01*
X11565649Y-15220044D02*
X11546602Y-15210520D01*
X11546602Y-15210520D02*
X11537078Y-15200996D01*
X11727554Y-15020044D02*
X11727554Y-15058139D01*
X11803745Y-15020044D02*
X11803745Y-15058139D01*
X12098983Y-15296234D02*
X12089459Y-15286710D01*
X12089459Y-15286710D02*
X12070411Y-15258139D01*
X12070411Y-15258139D02*
X12060888Y-15239091D01*
X12060888Y-15239091D02*
X12051364Y-15210520D01*
X12051364Y-15210520D02*
X12041840Y-15162901D01*
X12041840Y-15162901D02*
X12041840Y-15124806D01*
X12041840Y-15124806D02*
X12051364Y-15077187D01*
X12051364Y-15077187D02*
X12060888Y-15048615D01*
X12060888Y-15048615D02*
X12070411Y-15029568D01*
X12070411Y-15029568D02*
X12089459Y-15000996D01*
X12089459Y-15000996D02*
X12098983Y-14991472D01*
X12165649Y-15039091D02*
X12175173Y-15029568D01*
X12175173Y-15029568D02*
X12194221Y-15020044D01*
X12194221Y-15020044D02*
X12241840Y-15020044D01*
X12241840Y-15020044D02*
X12260888Y-15029568D01*
X12260888Y-15029568D02*
X12270411Y-15039091D01*
X12270411Y-15039091D02*
X12279935Y-15058139D01*
X12279935Y-15058139D02*
X12279935Y-15077187D01*
X12279935Y-15077187D02*
X12270411Y-15105758D01*
X12270411Y-15105758D02*
X12156126Y-15220044D01*
X12156126Y-15220044D02*
X12279935Y-15220044D01*
X12470411Y-15220044D02*
X12356126Y-15220044D01*
X12413268Y-15220044D02*
X12413268Y-15020044D01*
X12413268Y-15020044D02*
X12394221Y-15048615D01*
X12394221Y-15048615D02*
X12375173Y-15067663D01*
X12375173Y-15067663D02*
X12356126Y-15077187D01*
X12708507Y-15220044D02*
X12708507Y-15020044D01*
X12794221Y-15220044D02*
X12794221Y-15115282D01*
X12794221Y-15115282D02*
X12784697Y-15096234D01*
X12784697Y-15096234D02*
X12765650Y-15086710D01*
X12765650Y-15086710D02*
X12737078Y-15086710D01*
X12737078Y-15086710D02*
X12718030Y-15096234D01*
X12718030Y-15096234D02*
X12708507Y-15105758D01*
X12918030Y-15220044D02*
X12898983Y-15210520D01*
X12898983Y-15210520D02*
X12889459Y-15200996D01*
X12889459Y-15200996D02*
X12879935Y-15181948D01*
X12879935Y-15181948D02*
X12879935Y-15124806D01*
X12879935Y-15124806D02*
X12889459Y-15105758D01*
X12889459Y-15105758D02*
X12898983Y-15096234D01*
X12898983Y-15096234D02*
X12918030Y-15086710D01*
X12918030Y-15086710D02*
X12946602Y-15086710D01*
X12946602Y-15086710D02*
X12965650Y-15096234D01*
X12965650Y-15096234D02*
X12975173Y-15105758D01*
X12975173Y-15105758D02*
X12984697Y-15124806D01*
X12984697Y-15124806D02*
X12984697Y-15181948D01*
X12984697Y-15181948D02*
X12975173Y-15200996D01*
X12975173Y-15200996D02*
X12965650Y-15210520D01*
X12965650Y-15210520D02*
X12946602Y-15220044D01*
X12946602Y-15220044D02*
X12918030Y-15220044D01*
X13098983Y-15220044D02*
X13079935Y-15210520D01*
X13079935Y-15210520D02*
X13070411Y-15191472D01*
X13070411Y-15191472D02*
X13070411Y-15020044D01*
X13251364Y-15210520D02*
X13232316Y-15220044D01*
X13232316Y-15220044D02*
X13194221Y-15220044D01*
X13194221Y-15220044D02*
X13175173Y-15210520D01*
X13175173Y-15210520D02*
X13165650Y-15191472D01*
X13165650Y-15191472D02*
X13165650Y-15115282D01*
X13165650Y-15115282D02*
X13175173Y-15096234D01*
X13175173Y-15096234D02*
X13194221Y-15086710D01*
X13194221Y-15086710D02*
X13232316Y-15086710D01*
X13232316Y-15086710D02*
X13251364Y-15096234D01*
X13251364Y-15096234D02*
X13260888Y-15115282D01*
X13260888Y-15115282D02*
X13260888Y-15134329D01*
X13260888Y-15134329D02*
X13165650Y-15153377D01*
X13337078Y-15210520D02*
X13356126Y-15220044D01*
X13356126Y-15220044D02*
X13394221Y-15220044D01*
X13394221Y-15220044D02*
X13413269Y-15210520D01*
X13413269Y-15210520D02*
X13422792Y-15191472D01*
X13422792Y-15191472D02*
X13422792Y-15181948D01*
X13422792Y-15181948D02*
X13413269Y-15162901D01*
X13413269Y-15162901D02*
X13394221Y-15153377D01*
X13394221Y-15153377D02*
X13365650Y-15153377D01*
X13365650Y-15153377D02*
X13346602Y-15143853D01*
X13346602Y-15143853D02*
X13337078Y-15124806D01*
X13337078Y-15124806D02*
X13337078Y-15115282D01*
X13337078Y-15115282D02*
X13346602Y-15096234D01*
X13346602Y-15096234D02*
X13365650Y-15086710D01*
X13365650Y-15086710D02*
X13394221Y-15086710D01*
X13394221Y-15086710D02*
X13413269Y-15096234D01*
X13660888Y-15143853D02*
X13813269Y-15143853D01*
X13737078Y-15220044D02*
X13737078Y-15067663D01*
X14051364Y-15039091D02*
X14060888Y-15029568D01*
X14060888Y-15029568D02*
X14079935Y-15020044D01*
X14079935Y-15020044D02*
X14127554Y-15020044D01*
X14127554Y-15020044D02*
X14146602Y-15029568D01*
X14146602Y-15029568D02*
X14156126Y-15039091D01*
X14156126Y-15039091D02*
X14165650Y-15058139D01*
X14165650Y-15058139D02*
X14165650Y-15077187D01*
X14165650Y-15077187D02*
X14156126Y-15105758D01*
X14156126Y-15105758D02*
X14041840Y-15220044D01*
X14041840Y-15220044D02*
X14165650Y-15220044D01*
X14394221Y-15210520D02*
X14413269Y-15220044D01*
X14413269Y-15220044D02*
X14451364Y-15220044D01*
X14451364Y-15220044D02*
X14470412Y-15210520D01*
X14470412Y-15210520D02*
X14479935Y-15191472D01*
X14479935Y-15191472D02*
X14479935Y-15181948D01*
X14479935Y-15181948D02*
X14470412Y-15162901D01*
X14470412Y-15162901D02*
X14451364Y-15153377D01*
X14451364Y-15153377D02*
X14422793Y-15153377D01*
X14422793Y-15153377D02*
X14403745Y-15143853D01*
X14403745Y-15143853D02*
X14394221Y-15124806D01*
X14394221Y-15124806D02*
X14394221Y-15115282D01*
X14394221Y-15115282D02*
X14403745Y-15096234D01*
X14403745Y-15096234D02*
X14422793Y-15086710D01*
X14422793Y-15086710D02*
X14451364Y-15086710D01*
X14451364Y-15086710D02*
X14470412Y-15096234D01*
X14594221Y-15220044D02*
X14575174Y-15210520D01*
X14575174Y-15210520D02*
X14565650Y-15191472D01*
X14565650Y-15191472D02*
X14565650Y-15020044D01*
X14698983Y-15220044D02*
X14679935Y-15210520D01*
X14679935Y-15210520D02*
X14670412Y-15200996D01*
X14670412Y-15200996D02*
X14660888Y-15181948D01*
X14660888Y-15181948D02*
X14660888Y-15124806D01*
X14660888Y-15124806D02*
X14670412Y-15105758D01*
X14670412Y-15105758D02*
X14679935Y-15096234D01*
X14679935Y-15096234D02*
X14698983Y-15086710D01*
X14698983Y-15086710D02*
X14727555Y-15086710D01*
X14727555Y-15086710D02*
X14746602Y-15096234D01*
X14746602Y-15096234D02*
X14756126Y-15105758D01*
X14756126Y-15105758D02*
X14765650Y-15124806D01*
X14765650Y-15124806D02*
X14765650Y-15181948D01*
X14765650Y-15181948D02*
X14756126Y-15200996D01*
X14756126Y-15200996D02*
X14746602Y-15210520D01*
X14746602Y-15210520D02*
X14727555Y-15220044D01*
X14727555Y-15220044D02*
X14698983Y-15220044D01*
X14822793Y-15086710D02*
X14898983Y-15086710D01*
X14851364Y-15020044D02*
X14851364Y-15191472D01*
X14851364Y-15191472D02*
X14860888Y-15210520D01*
X14860888Y-15210520D02*
X14879935Y-15220044D01*
X14879935Y-15220044D02*
X14898983Y-15220044D01*
X14956126Y-15210520D02*
X14975174Y-15220044D01*
X14975174Y-15220044D02*
X15013269Y-15220044D01*
X15013269Y-15220044D02*
X15032316Y-15210520D01*
X15032316Y-15210520D02*
X15041840Y-15191472D01*
X15041840Y-15191472D02*
X15041840Y-15181948D01*
X15041840Y-15181948D02*
X15032316Y-15162901D01*
X15032316Y-15162901D02*
X15013269Y-15153377D01*
X15013269Y-15153377D02*
X14984697Y-15153377D01*
X14984697Y-15153377D02*
X14965650Y-15143853D01*
X14965650Y-15143853D02*
X14956126Y-15124806D01*
X14956126Y-15124806D02*
X14956126Y-15115282D01*
X14956126Y-15115282D02*
X14965650Y-15096234D01*
X14965650Y-15096234D02*
X14984697Y-15086710D01*
X14984697Y-15086710D02*
X15013269Y-15086710D01*
X15013269Y-15086710D02*
X15032316Y-15096234D01*
X15108507Y-15296234D02*
X15118031Y-15286710D01*
X15118031Y-15286710D02*
X15137078Y-15258139D01*
X15137078Y-15258139D02*
X15146602Y-15239091D01*
X15146602Y-15239091D02*
X15156126Y-15210520D01*
X15156126Y-15210520D02*
X15165650Y-15162901D01*
X15165650Y-15162901D02*
X15165650Y-15124806D01*
X15165650Y-15124806D02*
X15156126Y-15077187D01*
X15156126Y-15077187D02*
X15146602Y-15048615D01*
X15146602Y-15048615D02*
X15137078Y-15029568D01*
X15137078Y-15029568D02*
X15118031Y-15000996D01*
X15118031Y-15000996D02*
X15108507Y-14991472D01*
D10*
X8478920Y-15347560D02*
X8478920Y-15437560D01*
X8433920Y-15392560D02*
X8523920Y-15392560D01*
D11*
X8822792Y-15284044D02*
X8841840Y-15284044D01*
X8841840Y-15284044D02*
X8860887Y-15293568D01*
X8860887Y-15293568D02*
X8870411Y-15303091D01*
X8870411Y-15303091D02*
X8879935Y-15322139D01*
X8879935Y-15322139D02*
X8889459Y-15360234D01*
X8889459Y-15360234D02*
X8889459Y-15407853D01*
X8889459Y-15407853D02*
X8879935Y-15445948D01*
X8879935Y-15445948D02*
X8870411Y-15464996D01*
X8870411Y-15464996D02*
X8860887Y-15474520D01*
X8860887Y-15474520D02*
X8841840Y-15484044D01*
X8841840Y-15484044D02*
X8822792Y-15484044D01*
X8822792Y-15484044D02*
X8803744Y-15474520D01*
X8803744Y-15474520D02*
X8794221Y-15464996D01*
X8794221Y-15464996D02*
X8784697Y-15445948D01*
X8784697Y-15445948D02*
X8775173Y-15407853D01*
X8775173Y-15407853D02*
X8775173Y-15360234D01*
X8775173Y-15360234D02*
X8784697Y-15322139D01*
X8784697Y-15322139D02*
X8794221Y-15303091D01*
X8794221Y-15303091D02*
X8803744Y-15293568D01*
X8803744Y-15293568D02*
X8822792Y-15284044D01*
X8975173Y-15464996D02*
X8984697Y-15474520D01*
X8984697Y-15474520D02*
X8975173Y-15484044D01*
X8975173Y-15484044D02*
X8965649Y-15474520D01*
X8965649Y-15474520D02*
X8975173Y-15464996D01*
X8975173Y-15464996D02*
X8975173Y-15484044D01*
X9079935Y-15484044D02*
X9118030Y-15484044D01*
X9118030Y-15484044D02*
X9137078Y-15474520D01*
X9137078Y-15474520D02*
X9146602Y-15464996D01*
X9146602Y-15464996D02*
X9165649Y-15436425D01*
X9165649Y-15436425D02*
X9175173Y-15398329D01*
X9175173Y-15398329D02*
X9175173Y-15322139D01*
X9175173Y-15322139D02*
X9165649Y-15303091D01*
X9165649Y-15303091D02*
X9156125Y-15293568D01*
X9156125Y-15293568D02*
X9137078Y-15284044D01*
X9137078Y-15284044D02*
X9098983Y-15284044D01*
X9098983Y-15284044D02*
X9079935Y-15293568D01*
X9079935Y-15293568D02*
X9070411Y-15303091D01*
X9070411Y-15303091D02*
X9060887Y-15322139D01*
X9060887Y-15322139D02*
X9060887Y-15369758D01*
X9060887Y-15369758D02*
X9070411Y-15388806D01*
X9070411Y-15388806D02*
X9079935Y-15398329D01*
X9079935Y-15398329D02*
X9098983Y-15407853D01*
X9098983Y-15407853D02*
X9137078Y-15407853D01*
X9137078Y-15407853D02*
X9156125Y-15398329D01*
X9156125Y-15398329D02*
X9165649Y-15388806D01*
X9165649Y-15388806D02*
X9175173Y-15369758D01*
X9298983Y-15284044D02*
X9318030Y-15284044D01*
X9318030Y-15284044D02*
X9337078Y-15293568D01*
X9337078Y-15293568D02*
X9346602Y-15303091D01*
X9346602Y-15303091D02*
X9356125Y-15322139D01*
X9356125Y-15322139D02*
X9365649Y-15360234D01*
X9365649Y-15360234D02*
X9365649Y-15407853D01*
X9365649Y-15407853D02*
X9356125Y-15445948D01*
X9356125Y-15445948D02*
X9346602Y-15464996D01*
X9346602Y-15464996D02*
X9337078Y-15474520D01*
X9337078Y-15474520D02*
X9318030Y-15484044D01*
X9318030Y-15484044D02*
X9298983Y-15484044D01*
X9298983Y-15484044D02*
X9279935Y-15474520D01*
X9279935Y-15474520D02*
X9270411Y-15464996D01*
X9270411Y-15464996D02*
X9260887Y-15445948D01*
X9260887Y-15445948D02*
X9251364Y-15407853D01*
X9251364Y-15407853D02*
X9251364Y-15360234D01*
X9251364Y-15360234D02*
X9260887Y-15322139D01*
X9260887Y-15322139D02*
X9270411Y-15303091D01*
X9270411Y-15303091D02*
X9279935Y-15293568D01*
X9279935Y-15293568D02*
X9298983Y-15284044D01*
X9489459Y-15284044D02*
X9508506Y-15284044D01*
X9508506Y-15284044D02*
X9527554Y-15293568D01*
X9527554Y-15293568D02*
X9537078Y-15303091D01*
X9537078Y-15303091D02*
X9546602Y-15322139D01*
X9546602Y-15322139D02*
X9556125Y-15360234D01*
X9556125Y-15360234D02*
X9556125Y-15407853D01*
X9556125Y-15407853D02*
X9546602Y-15445948D01*
X9546602Y-15445948D02*
X9537078Y-15464996D01*
X9537078Y-15464996D02*
X9527554Y-15474520D01*
X9527554Y-15474520D02*
X9508506Y-15484044D01*
X9508506Y-15484044D02*
X9489459Y-15484044D01*
X9489459Y-15484044D02*
X9470411Y-15474520D01*
X9470411Y-15474520D02*
X9460887Y-15464996D01*
X9460887Y-15464996D02*
X9451364Y-15445948D01*
X9451364Y-15445948D02*
X9441840Y-15407853D01*
X9441840Y-15407853D02*
X9441840Y-15360234D01*
X9441840Y-15360234D02*
X9451364Y-15322139D01*
X9451364Y-15322139D02*
X9460887Y-15303091D01*
X9460887Y-15303091D02*
X9470411Y-15293568D01*
X9470411Y-15293568D02*
X9489459Y-15284044D01*
X9641840Y-15484044D02*
X9641840Y-15350710D01*
X9641840Y-15369758D02*
X9651364Y-15360234D01*
X9651364Y-15360234D02*
X9670411Y-15350710D01*
X9670411Y-15350710D02*
X9698983Y-15350710D01*
X9698983Y-15350710D02*
X9718030Y-15360234D01*
X9718030Y-15360234D02*
X9727554Y-15379282D01*
X9727554Y-15379282D02*
X9727554Y-15484044D01*
X9727554Y-15379282D02*
X9737078Y-15360234D01*
X9737078Y-15360234D02*
X9756125Y-15350710D01*
X9756125Y-15350710D02*
X9784697Y-15350710D01*
X9784697Y-15350710D02*
X9803745Y-15360234D01*
X9803745Y-15360234D02*
X9813268Y-15379282D01*
X9813268Y-15379282D02*
X9813268Y-15484044D01*
X9908506Y-15484044D02*
X9908506Y-15350710D01*
X9908506Y-15369758D02*
X9918030Y-15360234D01*
X9918030Y-15360234D02*
X9937078Y-15350710D01*
X9937078Y-15350710D02*
X9965649Y-15350710D01*
X9965649Y-15350710D02*
X9984697Y-15360234D01*
X9984697Y-15360234D02*
X9994221Y-15379282D01*
X9994221Y-15379282D02*
X9994221Y-15484044D01*
X9994221Y-15379282D02*
X10003745Y-15360234D01*
X10003745Y-15360234D02*
X10022792Y-15350710D01*
X10022792Y-15350710D02*
X10051364Y-15350710D01*
X10051364Y-15350710D02*
X10070411Y-15360234D01*
X10070411Y-15360234D02*
X10079935Y-15379282D01*
X10079935Y-15379282D02*
X10079935Y-15484044D01*
X10470411Y-15274520D02*
X10298983Y-15531663D01*
X10727554Y-15284044D02*
X10746602Y-15284044D01*
X10746602Y-15284044D02*
X10765649Y-15293568D01*
X10765649Y-15293568D02*
X10775173Y-15303091D01*
X10775173Y-15303091D02*
X10784697Y-15322139D01*
X10784697Y-15322139D02*
X10794221Y-15360234D01*
X10794221Y-15360234D02*
X10794221Y-15407853D01*
X10794221Y-15407853D02*
X10784697Y-15445948D01*
X10784697Y-15445948D02*
X10775173Y-15464996D01*
X10775173Y-15464996D02*
X10765649Y-15474520D01*
X10765649Y-15474520D02*
X10746602Y-15484044D01*
X10746602Y-15484044D02*
X10727554Y-15484044D01*
X10727554Y-15484044D02*
X10708507Y-15474520D01*
X10708507Y-15474520D02*
X10698983Y-15464996D01*
X10698983Y-15464996D02*
X10689459Y-15445948D01*
X10689459Y-15445948D02*
X10679935Y-15407853D01*
X10679935Y-15407853D02*
X10679935Y-15360234D01*
X10679935Y-15360234D02*
X10689459Y-15322139D01*
X10689459Y-15322139D02*
X10698983Y-15303091D01*
X10698983Y-15303091D02*
X10708507Y-15293568D01*
X10708507Y-15293568D02*
X10727554Y-15284044D01*
X10879935Y-15464996D02*
X10889459Y-15474520D01*
X10889459Y-15474520D02*
X10879935Y-15484044D01*
X10879935Y-15484044D02*
X10870411Y-15474520D01*
X10870411Y-15474520D02*
X10879935Y-15464996D01*
X10879935Y-15464996D02*
X10879935Y-15484044D01*
X11013268Y-15284044D02*
X11032316Y-15284044D01*
X11032316Y-15284044D02*
X11051364Y-15293568D01*
X11051364Y-15293568D02*
X11060888Y-15303091D01*
X11060888Y-15303091D02*
X11070411Y-15322139D01*
X11070411Y-15322139D02*
X11079935Y-15360234D01*
X11079935Y-15360234D02*
X11079935Y-15407853D01*
X11079935Y-15407853D02*
X11070411Y-15445948D01*
X11070411Y-15445948D02*
X11060888Y-15464996D01*
X11060888Y-15464996D02*
X11051364Y-15474520D01*
X11051364Y-15474520D02*
X11032316Y-15484044D01*
X11032316Y-15484044D02*
X11013268Y-15484044D01*
X11013268Y-15484044D02*
X10994221Y-15474520D01*
X10994221Y-15474520D02*
X10984697Y-15464996D01*
X10984697Y-15464996D02*
X10975173Y-15445948D01*
X10975173Y-15445948D02*
X10965649Y-15407853D01*
X10965649Y-15407853D02*
X10965649Y-15360234D01*
X10965649Y-15360234D02*
X10975173Y-15322139D01*
X10975173Y-15322139D02*
X10984697Y-15303091D01*
X10984697Y-15303091D02*
X10994221Y-15293568D01*
X10994221Y-15293568D02*
X11013268Y-15284044D01*
X11146602Y-15284044D02*
X11270411Y-15284044D01*
X11270411Y-15284044D02*
X11203745Y-15360234D01*
X11203745Y-15360234D02*
X11232316Y-15360234D01*
X11232316Y-15360234D02*
X11251364Y-15369758D01*
X11251364Y-15369758D02*
X11260887Y-15379282D01*
X11260887Y-15379282D02*
X11270411Y-15398329D01*
X11270411Y-15398329D02*
X11270411Y-15445948D01*
X11270411Y-15445948D02*
X11260887Y-15464996D01*
X11260887Y-15464996D02*
X11251364Y-15474520D01*
X11251364Y-15474520D02*
X11232316Y-15484044D01*
X11232316Y-15484044D02*
X11175173Y-15484044D01*
X11175173Y-15484044D02*
X11156126Y-15474520D01*
X11156126Y-15474520D02*
X11146602Y-15464996D01*
X11451364Y-15284044D02*
X11356126Y-15284044D01*
X11356126Y-15284044D02*
X11346602Y-15379282D01*
X11346602Y-15379282D02*
X11356126Y-15369758D01*
X11356126Y-15369758D02*
X11375173Y-15360234D01*
X11375173Y-15360234D02*
X11422792Y-15360234D01*
X11422792Y-15360234D02*
X11441840Y-15369758D01*
X11441840Y-15369758D02*
X11451364Y-15379282D01*
X11451364Y-15379282D02*
X11460887Y-15398329D01*
X11460887Y-15398329D02*
X11460887Y-15445948D01*
X11460887Y-15445948D02*
X11451364Y-15464996D01*
X11451364Y-15464996D02*
X11441840Y-15474520D01*
X11441840Y-15474520D02*
X11422792Y-15484044D01*
X11422792Y-15484044D02*
X11375173Y-15484044D01*
X11375173Y-15484044D02*
X11356126Y-15474520D01*
X11356126Y-15474520D02*
X11346602Y-15464996D01*
X11632316Y-15350710D02*
X11632316Y-15484044D01*
X11584697Y-15274520D02*
X11537078Y-15417377D01*
X11537078Y-15417377D02*
X11660887Y-15417377D01*
X11727554Y-15284044D02*
X11727554Y-15322139D01*
X11803745Y-15284044D02*
X11803745Y-15322139D01*
X12098983Y-15560234D02*
X12089459Y-15550710D01*
X12089459Y-15550710D02*
X12070411Y-15522139D01*
X12070411Y-15522139D02*
X12060888Y-15503091D01*
X12060888Y-15503091D02*
X12051364Y-15474520D01*
X12051364Y-15474520D02*
X12041840Y-15426901D01*
X12041840Y-15426901D02*
X12041840Y-15388806D01*
X12041840Y-15388806D02*
X12051364Y-15341187D01*
X12051364Y-15341187D02*
X12060888Y-15312615D01*
X12060888Y-15312615D02*
X12070411Y-15293568D01*
X12070411Y-15293568D02*
X12089459Y-15264996D01*
X12089459Y-15264996D02*
X12098983Y-15255472D01*
X12156126Y-15284044D02*
X12279935Y-15284044D01*
X12279935Y-15284044D02*
X12213268Y-15360234D01*
X12213268Y-15360234D02*
X12241840Y-15360234D01*
X12241840Y-15360234D02*
X12260888Y-15369758D01*
X12260888Y-15369758D02*
X12270411Y-15379282D01*
X12270411Y-15379282D02*
X12279935Y-15398329D01*
X12279935Y-15398329D02*
X12279935Y-15445948D01*
X12279935Y-15445948D02*
X12270411Y-15464996D01*
X12270411Y-15464996D02*
X12260888Y-15474520D01*
X12260888Y-15474520D02*
X12241840Y-15484044D01*
X12241840Y-15484044D02*
X12184697Y-15484044D01*
X12184697Y-15484044D02*
X12165649Y-15474520D01*
X12165649Y-15474520D02*
X12156126Y-15464996D01*
X12518030Y-15484044D02*
X12518030Y-15284044D01*
X12603745Y-15484044D02*
X12603745Y-15379282D01*
X12603745Y-15379282D02*
X12594221Y-15360234D01*
X12594221Y-15360234D02*
X12575173Y-15350710D01*
X12575173Y-15350710D02*
X12546602Y-15350710D01*
X12546602Y-15350710D02*
X12527554Y-15360234D01*
X12527554Y-15360234D02*
X12518030Y-15369758D01*
X12727554Y-15484044D02*
X12708507Y-15474520D01*
X12708507Y-15474520D02*
X12698983Y-15464996D01*
X12698983Y-15464996D02*
X12689459Y-15445948D01*
X12689459Y-15445948D02*
X12689459Y-15388806D01*
X12689459Y-15388806D02*
X12698983Y-15369758D01*
X12698983Y-15369758D02*
X12708507Y-15360234D01*
X12708507Y-15360234D02*
X12727554Y-15350710D01*
X12727554Y-15350710D02*
X12756126Y-15350710D01*
X12756126Y-15350710D02*
X12775173Y-15360234D01*
X12775173Y-15360234D02*
X12784697Y-15369758D01*
X12784697Y-15369758D02*
X12794221Y-15388806D01*
X12794221Y-15388806D02*
X12794221Y-15445948D01*
X12794221Y-15445948D02*
X12784697Y-15464996D01*
X12784697Y-15464996D02*
X12775173Y-15474520D01*
X12775173Y-15474520D02*
X12756126Y-15484044D01*
X12756126Y-15484044D02*
X12727554Y-15484044D01*
X12908507Y-15484044D02*
X12889459Y-15474520D01*
X12889459Y-15474520D02*
X12879935Y-15455472D01*
X12879935Y-15455472D02*
X12879935Y-15284044D01*
X13060888Y-15474520D02*
X13041840Y-15484044D01*
X13041840Y-15484044D02*
X13003745Y-15484044D01*
X13003745Y-15484044D02*
X12984697Y-15474520D01*
X12984697Y-15474520D02*
X12975173Y-15455472D01*
X12975173Y-15455472D02*
X12975173Y-15379282D01*
X12975173Y-15379282D02*
X12984697Y-15360234D01*
X12984697Y-15360234D02*
X13003745Y-15350710D01*
X13003745Y-15350710D02*
X13041840Y-15350710D01*
X13041840Y-15350710D02*
X13060888Y-15360234D01*
X13060888Y-15360234D02*
X13070411Y-15379282D01*
X13070411Y-15379282D02*
X13070411Y-15398329D01*
X13070411Y-15398329D02*
X12975173Y-15417377D01*
X13146602Y-15474520D02*
X13165650Y-15484044D01*
X13165650Y-15484044D02*
X13203745Y-15484044D01*
X13203745Y-15484044D02*
X13222792Y-15474520D01*
X13222792Y-15474520D02*
X13232316Y-15455472D01*
X13232316Y-15455472D02*
X13232316Y-15445948D01*
X13232316Y-15445948D02*
X13222792Y-15426901D01*
X13222792Y-15426901D02*
X13203745Y-15417377D01*
X13203745Y-15417377D02*
X13175173Y-15417377D01*
X13175173Y-15417377D02*
X13156126Y-15407853D01*
X13156126Y-15407853D02*
X13146602Y-15388806D01*
X13146602Y-15388806D02*
X13146602Y-15379282D01*
X13146602Y-15379282D02*
X13156126Y-15360234D01*
X13156126Y-15360234D02*
X13175173Y-15350710D01*
X13175173Y-15350710D02*
X13203745Y-15350710D01*
X13203745Y-15350710D02*
X13222792Y-15360234D01*
X13298983Y-15560234D02*
X13308507Y-15550710D01*
X13308507Y-15550710D02*
X13327554Y-15522139D01*
X13327554Y-15522139D02*
X13337078Y-15503091D01*
X13337078Y-15503091D02*
X13346602Y-15474520D01*
X13346602Y-15474520D02*
X13356126Y-15426901D01*
X13356126Y-15426901D02*
X13356126Y-15388806D01*
X13356126Y-15388806D02*
X13346602Y-15341187D01*
X13346602Y-15341187D02*
X13337078Y-15312615D01*
X13337078Y-15312615D02*
X13327554Y-15293568D01*
X13327554Y-15293568D02*
X13308507Y-15264996D01*
X13308507Y-15264996D02*
X13298983Y-15255472D01*
D10*
X8509276Y-15691916D02*
X8509276Y-15621204D01*
X8438564Y-15621204D01*
X8438564Y-15691916D01*
X8509276Y-15691916D01*
D11*
X8889459Y-15748044D02*
X8775173Y-15748044D01*
X8832316Y-15748044D02*
X8832316Y-15548044D01*
X8832316Y-15548044D02*
X8813268Y-15576615D01*
X8813268Y-15576615D02*
X8794221Y-15595663D01*
X8794221Y-15595663D02*
X8775173Y-15605187D01*
X8975173Y-15728996D02*
X8984697Y-15738520D01*
X8984697Y-15738520D02*
X8975173Y-15748044D01*
X8975173Y-15748044D02*
X8965649Y-15738520D01*
X8965649Y-15738520D02*
X8975173Y-15728996D01*
X8975173Y-15728996D02*
X8975173Y-15748044D01*
X9108506Y-15548044D02*
X9127554Y-15548044D01*
X9127554Y-15548044D02*
X9146602Y-15557568D01*
X9146602Y-15557568D02*
X9156125Y-15567091D01*
X9156125Y-15567091D02*
X9165649Y-15586139D01*
X9165649Y-15586139D02*
X9175173Y-15624234D01*
X9175173Y-15624234D02*
X9175173Y-15671853D01*
X9175173Y-15671853D02*
X9165649Y-15709948D01*
X9165649Y-15709948D02*
X9156125Y-15728996D01*
X9156125Y-15728996D02*
X9146602Y-15738520D01*
X9146602Y-15738520D02*
X9127554Y-15748044D01*
X9127554Y-15748044D02*
X9108506Y-15748044D01*
X9108506Y-15748044D02*
X9089459Y-15738520D01*
X9089459Y-15738520D02*
X9079935Y-15728996D01*
X9079935Y-15728996D02*
X9070411Y-15709948D01*
X9070411Y-15709948D02*
X9060887Y-15671853D01*
X9060887Y-15671853D02*
X9060887Y-15624234D01*
X9060887Y-15624234D02*
X9070411Y-15586139D01*
X9070411Y-15586139D02*
X9079935Y-15567091D01*
X9079935Y-15567091D02*
X9089459Y-15557568D01*
X9089459Y-15557568D02*
X9108506Y-15548044D01*
X9298983Y-15548044D02*
X9318030Y-15548044D01*
X9318030Y-15548044D02*
X9337078Y-15557568D01*
X9337078Y-15557568D02*
X9346602Y-15567091D01*
X9346602Y-15567091D02*
X9356125Y-15586139D01*
X9356125Y-15586139D02*
X9365649Y-15624234D01*
X9365649Y-15624234D02*
X9365649Y-15671853D01*
X9365649Y-15671853D02*
X9356125Y-15709948D01*
X9356125Y-15709948D02*
X9346602Y-15728996D01*
X9346602Y-15728996D02*
X9337078Y-15738520D01*
X9337078Y-15738520D02*
X9318030Y-15748044D01*
X9318030Y-15748044D02*
X9298983Y-15748044D01*
X9298983Y-15748044D02*
X9279935Y-15738520D01*
X9279935Y-15738520D02*
X9270411Y-15728996D01*
X9270411Y-15728996D02*
X9260887Y-15709948D01*
X9260887Y-15709948D02*
X9251364Y-15671853D01*
X9251364Y-15671853D02*
X9251364Y-15624234D01*
X9251364Y-15624234D02*
X9260887Y-15586139D01*
X9260887Y-15586139D02*
X9270411Y-15567091D01*
X9270411Y-15567091D02*
X9279935Y-15557568D01*
X9279935Y-15557568D02*
X9298983Y-15548044D01*
X9489459Y-15548044D02*
X9508506Y-15548044D01*
X9508506Y-15548044D02*
X9527554Y-15557568D01*
X9527554Y-15557568D02*
X9537078Y-15567091D01*
X9537078Y-15567091D02*
X9546602Y-15586139D01*
X9546602Y-15586139D02*
X9556125Y-15624234D01*
X9556125Y-15624234D02*
X9556125Y-15671853D01*
X9556125Y-15671853D02*
X9546602Y-15709948D01*
X9546602Y-15709948D02*
X9537078Y-15728996D01*
X9537078Y-15728996D02*
X9527554Y-15738520D01*
X9527554Y-15738520D02*
X9508506Y-15748044D01*
X9508506Y-15748044D02*
X9489459Y-15748044D01*
X9489459Y-15748044D02*
X9470411Y-15738520D01*
X9470411Y-15738520D02*
X9460887Y-15728996D01*
X9460887Y-15728996D02*
X9451364Y-15709948D01*
X9451364Y-15709948D02*
X9441840Y-15671853D01*
X9441840Y-15671853D02*
X9441840Y-15624234D01*
X9441840Y-15624234D02*
X9451364Y-15586139D01*
X9451364Y-15586139D02*
X9460887Y-15567091D01*
X9460887Y-15567091D02*
X9470411Y-15557568D01*
X9470411Y-15557568D02*
X9489459Y-15548044D01*
X9641840Y-15748044D02*
X9641840Y-15614710D01*
X9641840Y-15633758D02*
X9651364Y-15624234D01*
X9651364Y-15624234D02*
X9670411Y-15614710D01*
X9670411Y-15614710D02*
X9698983Y-15614710D01*
X9698983Y-15614710D02*
X9718030Y-15624234D01*
X9718030Y-15624234D02*
X9727554Y-15643282D01*
X9727554Y-15643282D02*
X9727554Y-15748044D01*
X9727554Y-15643282D02*
X9737078Y-15624234D01*
X9737078Y-15624234D02*
X9756125Y-15614710D01*
X9756125Y-15614710D02*
X9784697Y-15614710D01*
X9784697Y-15614710D02*
X9803745Y-15624234D01*
X9803745Y-15624234D02*
X9813268Y-15643282D01*
X9813268Y-15643282D02*
X9813268Y-15748044D01*
X9908506Y-15748044D02*
X9908506Y-15614710D01*
X9908506Y-15633758D02*
X9918030Y-15624234D01*
X9918030Y-15624234D02*
X9937078Y-15614710D01*
X9937078Y-15614710D02*
X9965649Y-15614710D01*
X9965649Y-15614710D02*
X9984697Y-15624234D01*
X9984697Y-15624234D02*
X9994221Y-15643282D01*
X9994221Y-15643282D02*
X9994221Y-15748044D01*
X9994221Y-15643282D02*
X10003745Y-15624234D01*
X10003745Y-15624234D02*
X10022792Y-15614710D01*
X10022792Y-15614710D02*
X10051364Y-15614710D01*
X10051364Y-15614710D02*
X10070411Y-15624234D01*
X10070411Y-15624234D02*
X10079935Y-15643282D01*
X10079935Y-15643282D02*
X10079935Y-15748044D01*
X10470411Y-15538520D02*
X10298983Y-15795663D01*
X10727554Y-15548044D02*
X10746602Y-15548044D01*
X10746602Y-15548044D02*
X10765649Y-15557568D01*
X10765649Y-15557568D02*
X10775173Y-15567091D01*
X10775173Y-15567091D02*
X10784697Y-15586139D01*
X10784697Y-15586139D02*
X10794221Y-15624234D01*
X10794221Y-15624234D02*
X10794221Y-15671853D01*
X10794221Y-15671853D02*
X10784697Y-15709948D01*
X10784697Y-15709948D02*
X10775173Y-15728996D01*
X10775173Y-15728996D02*
X10765649Y-15738520D01*
X10765649Y-15738520D02*
X10746602Y-15748044D01*
X10746602Y-15748044D02*
X10727554Y-15748044D01*
X10727554Y-15748044D02*
X10708507Y-15738520D01*
X10708507Y-15738520D02*
X10698983Y-15728996D01*
X10698983Y-15728996D02*
X10689459Y-15709948D01*
X10689459Y-15709948D02*
X10679935Y-15671853D01*
X10679935Y-15671853D02*
X10679935Y-15624234D01*
X10679935Y-15624234D02*
X10689459Y-15586139D01*
X10689459Y-15586139D02*
X10698983Y-15567091D01*
X10698983Y-15567091D02*
X10708507Y-15557568D01*
X10708507Y-15557568D02*
X10727554Y-15548044D01*
X10879935Y-15728996D02*
X10889459Y-15738520D01*
X10889459Y-15738520D02*
X10879935Y-15748044D01*
X10879935Y-15748044D02*
X10870411Y-15738520D01*
X10870411Y-15738520D02*
X10879935Y-15728996D01*
X10879935Y-15728996D02*
X10879935Y-15748044D01*
X11013268Y-15548044D02*
X11032316Y-15548044D01*
X11032316Y-15548044D02*
X11051364Y-15557568D01*
X11051364Y-15557568D02*
X11060888Y-15567091D01*
X11060888Y-15567091D02*
X11070411Y-15586139D01*
X11070411Y-15586139D02*
X11079935Y-15624234D01*
X11079935Y-15624234D02*
X11079935Y-15671853D01*
X11079935Y-15671853D02*
X11070411Y-15709948D01*
X11070411Y-15709948D02*
X11060888Y-15728996D01*
X11060888Y-15728996D02*
X11051364Y-15738520D01*
X11051364Y-15738520D02*
X11032316Y-15748044D01*
X11032316Y-15748044D02*
X11013268Y-15748044D01*
X11013268Y-15748044D02*
X10994221Y-15738520D01*
X10994221Y-15738520D02*
X10984697Y-15728996D01*
X10984697Y-15728996D02*
X10975173Y-15709948D01*
X10975173Y-15709948D02*
X10965649Y-15671853D01*
X10965649Y-15671853D02*
X10965649Y-15624234D01*
X10965649Y-15624234D02*
X10975173Y-15586139D01*
X10975173Y-15586139D02*
X10984697Y-15567091D01*
X10984697Y-15567091D02*
X10994221Y-15557568D01*
X10994221Y-15557568D02*
X11013268Y-15548044D01*
X11146602Y-15548044D02*
X11270411Y-15548044D01*
X11270411Y-15548044D02*
X11203745Y-15624234D01*
X11203745Y-15624234D02*
X11232316Y-15624234D01*
X11232316Y-15624234D02*
X11251364Y-15633758D01*
X11251364Y-15633758D02*
X11260887Y-15643282D01*
X11260887Y-15643282D02*
X11270411Y-15662329D01*
X11270411Y-15662329D02*
X11270411Y-15709948D01*
X11270411Y-15709948D02*
X11260887Y-15728996D01*
X11260887Y-15728996D02*
X11251364Y-15738520D01*
X11251364Y-15738520D02*
X11232316Y-15748044D01*
X11232316Y-15748044D02*
X11175173Y-15748044D01*
X11175173Y-15748044D02*
X11156126Y-15738520D01*
X11156126Y-15738520D02*
X11146602Y-15728996D01*
X11365649Y-15748044D02*
X11403745Y-15748044D01*
X11403745Y-15748044D02*
X11422792Y-15738520D01*
X11422792Y-15738520D02*
X11432316Y-15728996D01*
X11432316Y-15728996D02*
X11451364Y-15700425D01*
X11451364Y-15700425D02*
X11460887Y-15662329D01*
X11460887Y-15662329D02*
X11460887Y-15586139D01*
X11460887Y-15586139D02*
X11451364Y-15567091D01*
X11451364Y-15567091D02*
X11441840Y-15557568D01*
X11441840Y-15557568D02*
X11422792Y-15548044D01*
X11422792Y-15548044D02*
X11384697Y-15548044D01*
X11384697Y-15548044D02*
X11365649Y-15557568D01*
X11365649Y-15557568D02*
X11356126Y-15567091D01*
X11356126Y-15567091D02*
X11346602Y-15586139D01*
X11346602Y-15586139D02*
X11346602Y-15633758D01*
X11346602Y-15633758D02*
X11356126Y-15652806D01*
X11356126Y-15652806D02*
X11365649Y-15662329D01*
X11365649Y-15662329D02*
X11384697Y-15671853D01*
X11384697Y-15671853D02*
X11422792Y-15671853D01*
X11422792Y-15671853D02*
X11441840Y-15662329D01*
X11441840Y-15662329D02*
X11451364Y-15652806D01*
X11451364Y-15652806D02*
X11460887Y-15633758D01*
X11632316Y-15614710D02*
X11632316Y-15748044D01*
X11584697Y-15538520D02*
X11537078Y-15681377D01*
X11537078Y-15681377D02*
X11660887Y-15681377D01*
X11727554Y-15548044D02*
X11727554Y-15586139D01*
X11803745Y-15548044D02*
X11803745Y-15586139D01*
X12098983Y-15824234D02*
X12089459Y-15814710D01*
X12089459Y-15814710D02*
X12070411Y-15786139D01*
X12070411Y-15786139D02*
X12060888Y-15767091D01*
X12060888Y-15767091D02*
X12051364Y-15738520D01*
X12051364Y-15738520D02*
X12041840Y-15690901D01*
X12041840Y-15690901D02*
X12041840Y-15652806D01*
X12041840Y-15652806D02*
X12051364Y-15605187D01*
X12051364Y-15605187D02*
X12060888Y-15576615D01*
X12060888Y-15576615D02*
X12070411Y-15557568D01*
X12070411Y-15557568D02*
X12089459Y-15528996D01*
X12089459Y-15528996D02*
X12098983Y-15519472D01*
X12260888Y-15548044D02*
X12222792Y-15548044D01*
X12222792Y-15548044D02*
X12203745Y-15557568D01*
X12203745Y-15557568D02*
X12194221Y-15567091D01*
X12194221Y-15567091D02*
X12175173Y-15595663D01*
X12175173Y-15595663D02*
X12165649Y-15633758D01*
X12165649Y-15633758D02*
X12165649Y-15709948D01*
X12165649Y-15709948D02*
X12175173Y-15728996D01*
X12175173Y-15728996D02*
X12184697Y-15738520D01*
X12184697Y-15738520D02*
X12203745Y-15748044D01*
X12203745Y-15748044D02*
X12241840Y-15748044D01*
X12241840Y-15748044D02*
X12260888Y-15738520D01*
X12260888Y-15738520D02*
X12270411Y-15728996D01*
X12270411Y-15728996D02*
X12279935Y-15709948D01*
X12279935Y-15709948D02*
X12279935Y-15662329D01*
X12279935Y-15662329D02*
X12270411Y-15643282D01*
X12270411Y-15643282D02*
X12260888Y-15633758D01*
X12260888Y-15633758D02*
X12241840Y-15624234D01*
X12241840Y-15624234D02*
X12203745Y-15624234D01*
X12203745Y-15624234D02*
X12184697Y-15633758D01*
X12184697Y-15633758D02*
X12175173Y-15643282D01*
X12175173Y-15643282D02*
X12165649Y-15662329D01*
X12518030Y-15748044D02*
X12518030Y-15548044D01*
X12603745Y-15748044D02*
X12603745Y-15643282D01*
X12603745Y-15643282D02*
X12594221Y-15624234D01*
X12594221Y-15624234D02*
X12575173Y-15614710D01*
X12575173Y-15614710D02*
X12546602Y-15614710D01*
X12546602Y-15614710D02*
X12527554Y-15624234D01*
X12527554Y-15624234D02*
X12518030Y-15633758D01*
X12727554Y-15748044D02*
X12708507Y-15738520D01*
X12708507Y-15738520D02*
X12698983Y-15728996D01*
X12698983Y-15728996D02*
X12689459Y-15709948D01*
X12689459Y-15709948D02*
X12689459Y-15652806D01*
X12689459Y-15652806D02*
X12698983Y-15633758D01*
X12698983Y-15633758D02*
X12708507Y-15624234D01*
X12708507Y-15624234D02*
X12727554Y-15614710D01*
X12727554Y-15614710D02*
X12756126Y-15614710D01*
X12756126Y-15614710D02*
X12775173Y-15624234D01*
X12775173Y-15624234D02*
X12784697Y-15633758D01*
X12784697Y-15633758D02*
X12794221Y-15652806D01*
X12794221Y-15652806D02*
X12794221Y-15709948D01*
X12794221Y-15709948D02*
X12784697Y-15728996D01*
X12784697Y-15728996D02*
X12775173Y-15738520D01*
X12775173Y-15738520D02*
X12756126Y-15748044D01*
X12756126Y-15748044D02*
X12727554Y-15748044D01*
X12908507Y-15748044D02*
X12889459Y-15738520D01*
X12889459Y-15738520D02*
X12879935Y-15719472D01*
X12879935Y-15719472D02*
X12879935Y-15548044D01*
X13060888Y-15738520D02*
X13041840Y-15748044D01*
X13041840Y-15748044D02*
X13003745Y-15748044D01*
X13003745Y-15748044D02*
X12984697Y-15738520D01*
X12984697Y-15738520D02*
X12975173Y-15719472D01*
X12975173Y-15719472D02*
X12975173Y-15643282D01*
X12975173Y-15643282D02*
X12984697Y-15624234D01*
X12984697Y-15624234D02*
X13003745Y-15614710D01*
X13003745Y-15614710D02*
X13041840Y-15614710D01*
X13041840Y-15614710D02*
X13060888Y-15624234D01*
X13060888Y-15624234D02*
X13070411Y-15643282D01*
X13070411Y-15643282D02*
X13070411Y-15662329D01*
X13070411Y-15662329D02*
X12975173Y-15681377D01*
X13146602Y-15738520D02*
X13165650Y-15748044D01*
X13165650Y-15748044D02*
X13203745Y-15748044D01*
X13203745Y-15748044D02*
X13222792Y-15738520D01*
X13222792Y-15738520D02*
X13232316Y-15719472D01*
X13232316Y-15719472D02*
X13232316Y-15709948D01*
X13232316Y-15709948D02*
X13222792Y-15690901D01*
X13222792Y-15690901D02*
X13203745Y-15681377D01*
X13203745Y-15681377D02*
X13175173Y-15681377D01*
X13175173Y-15681377D02*
X13156126Y-15671853D01*
X13156126Y-15671853D02*
X13146602Y-15652806D01*
X13146602Y-15652806D02*
X13146602Y-15643282D01*
X13146602Y-15643282D02*
X13156126Y-15624234D01*
X13156126Y-15624234D02*
X13175173Y-15614710D01*
X13175173Y-15614710D02*
X13203745Y-15614710D01*
X13203745Y-15614710D02*
X13222792Y-15624234D01*
X13298983Y-15824234D02*
X13308507Y-15814710D01*
X13308507Y-15814710D02*
X13327554Y-15786139D01*
X13327554Y-15786139D02*
X13337078Y-15767091D01*
X13337078Y-15767091D02*
X13346602Y-15738520D01*
X13346602Y-15738520D02*
X13356126Y-15690901D01*
X13356126Y-15690901D02*
X13356126Y-15652806D01*
X13356126Y-15652806D02*
X13346602Y-15605187D01*
X13346602Y-15605187D02*
X13337078Y-15576615D01*
X13337078Y-15576615D02*
X13327554Y-15557568D01*
X13327554Y-15557568D02*
X13308507Y-15528996D01*
X13308507Y-15528996D02*
X13298983Y-15519472D01*
D12*
X8472920Y-15971560D02*
X8523920Y-15920560D01*
X8472920Y-15869560D01*
X8421920Y-15920560D01*
X8472920Y-15971560D01*
D11*
X8889459Y-16012044D02*
X8775173Y-16012044D01*
X8832316Y-16012044D02*
X8832316Y-15812044D01*
X8832316Y-15812044D02*
X8813268Y-15840615D01*
X8813268Y-15840615D02*
X8794221Y-15859663D01*
X8794221Y-15859663D02*
X8775173Y-15869187D01*
X8975173Y-15992996D02*
X8984697Y-16002520D01*
X8984697Y-16002520D02*
X8975173Y-16012044D01*
X8975173Y-16012044D02*
X8965649Y-16002520D01*
X8965649Y-16002520D02*
X8975173Y-15992996D01*
X8975173Y-15992996D02*
X8975173Y-16012044D01*
X9108506Y-15812044D02*
X9127554Y-15812044D01*
X9127554Y-15812044D02*
X9146602Y-15821568D01*
X9146602Y-15821568D02*
X9156125Y-15831091D01*
X9156125Y-15831091D02*
X9165649Y-15850139D01*
X9165649Y-15850139D02*
X9175173Y-15888234D01*
X9175173Y-15888234D02*
X9175173Y-15935853D01*
X9175173Y-15935853D02*
X9165649Y-15973948D01*
X9165649Y-15973948D02*
X9156125Y-15992996D01*
X9156125Y-15992996D02*
X9146602Y-16002520D01*
X9146602Y-16002520D02*
X9127554Y-16012044D01*
X9127554Y-16012044D02*
X9108506Y-16012044D01*
X9108506Y-16012044D02*
X9089459Y-16002520D01*
X9089459Y-16002520D02*
X9079935Y-15992996D01*
X9079935Y-15992996D02*
X9070411Y-15973948D01*
X9070411Y-15973948D02*
X9060887Y-15935853D01*
X9060887Y-15935853D02*
X9060887Y-15888234D01*
X9060887Y-15888234D02*
X9070411Y-15850139D01*
X9070411Y-15850139D02*
X9079935Y-15831091D01*
X9079935Y-15831091D02*
X9089459Y-15821568D01*
X9089459Y-15821568D02*
X9108506Y-15812044D01*
X9251364Y-15831091D02*
X9260887Y-15821568D01*
X9260887Y-15821568D02*
X9279935Y-15812044D01*
X9279935Y-15812044D02*
X9327554Y-15812044D01*
X9327554Y-15812044D02*
X9346602Y-15821568D01*
X9346602Y-15821568D02*
X9356125Y-15831091D01*
X9356125Y-15831091D02*
X9365649Y-15850139D01*
X9365649Y-15850139D02*
X9365649Y-15869187D01*
X9365649Y-15869187D02*
X9356125Y-15897758D01*
X9356125Y-15897758D02*
X9241840Y-16012044D01*
X9241840Y-16012044D02*
X9365649Y-16012044D01*
X9489459Y-15812044D02*
X9508506Y-15812044D01*
X9508506Y-15812044D02*
X9527554Y-15821568D01*
X9527554Y-15821568D02*
X9537078Y-15831091D01*
X9537078Y-15831091D02*
X9546602Y-15850139D01*
X9546602Y-15850139D02*
X9556125Y-15888234D01*
X9556125Y-15888234D02*
X9556125Y-15935853D01*
X9556125Y-15935853D02*
X9546602Y-15973948D01*
X9546602Y-15973948D02*
X9537078Y-15992996D01*
X9537078Y-15992996D02*
X9527554Y-16002520D01*
X9527554Y-16002520D02*
X9508506Y-16012044D01*
X9508506Y-16012044D02*
X9489459Y-16012044D01*
X9489459Y-16012044D02*
X9470411Y-16002520D01*
X9470411Y-16002520D02*
X9460887Y-15992996D01*
X9460887Y-15992996D02*
X9451364Y-15973948D01*
X9451364Y-15973948D02*
X9441840Y-15935853D01*
X9441840Y-15935853D02*
X9441840Y-15888234D01*
X9441840Y-15888234D02*
X9451364Y-15850139D01*
X9451364Y-15850139D02*
X9460887Y-15831091D01*
X9460887Y-15831091D02*
X9470411Y-15821568D01*
X9470411Y-15821568D02*
X9489459Y-15812044D01*
X9641840Y-16012044D02*
X9641840Y-15878710D01*
X9641840Y-15897758D02*
X9651364Y-15888234D01*
X9651364Y-15888234D02*
X9670411Y-15878710D01*
X9670411Y-15878710D02*
X9698983Y-15878710D01*
X9698983Y-15878710D02*
X9718030Y-15888234D01*
X9718030Y-15888234D02*
X9727554Y-15907282D01*
X9727554Y-15907282D02*
X9727554Y-16012044D01*
X9727554Y-15907282D02*
X9737078Y-15888234D01*
X9737078Y-15888234D02*
X9756125Y-15878710D01*
X9756125Y-15878710D02*
X9784697Y-15878710D01*
X9784697Y-15878710D02*
X9803745Y-15888234D01*
X9803745Y-15888234D02*
X9813268Y-15907282D01*
X9813268Y-15907282D02*
X9813268Y-16012044D01*
X9908506Y-16012044D02*
X9908506Y-15878710D01*
X9908506Y-15897758D02*
X9918030Y-15888234D01*
X9918030Y-15888234D02*
X9937078Y-15878710D01*
X9937078Y-15878710D02*
X9965649Y-15878710D01*
X9965649Y-15878710D02*
X9984697Y-15888234D01*
X9984697Y-15888234D02*
X9994221Y-15907282D01*
X9994221Y-15907282D02*
X9994221Y-16012044D01*
X9994221Y-15907282D02*
X10003745Y-15888234D01*
X10003745Y-15888234D02*
X10022792Y-15878710D01*
X10022792Y-15878710D02*
X10051364Y-15878710D01*
X10051364Y-15878710D02*
X10070411Y-15888234D01*
X10070411Y-15888234D02*
X10079935Y-15907282D01*
X10079935Y-15907282D02*
X10079935Y-16012044D01*
X10470411Y-15802520D02*
X10298983Y-16059663D01*
X10727554Y-15812044D02*
X10746602Y-15812044D01*
X10746602Y-15812044D02*
X10765649Y-15821568D01*
X10765649Y-15821568D02*
X10775173Y-15831091D01*
X10775173Y-15831091D02*
X10784697Y-15850139D01*
X10784697Y-15850139D02*
X10794221Y-15888234D01*
X10794221Y-15888234D02*
X10794221Y-15935853D01*
X10794221Y-15935853D02*
X10784697Y-15973948D01*
X10784697Y-15973948D02*
X10775173Y-15992996D01*
X10775173Y-15992996D02*
X10765649Y-16002520D01*
X10765649Y-16002520D02*
X10746602Y-16012044D01*
X10746602Y-16012044D02*
X10727554Y-16012044D01*
X10727554Y-16012044D02*
X10708507Y-16002520D01*
X10708507Y-16002520D02*
X10698983Y-15992996D01*
X10698983Y-15992996D02*
X10689459Y-15973948D01*
X10689459Y-15973948D02*
X10679935Y-15935853D01*
X10679935Y-15935853D02*
X10679935Y-15888234D01*
X10679935Y-15888234D02*
X10689459Y-15850139D01*
X10689459Y-15850139D02*
X10698983Y-15831091D01*
X10698983Y-15831091D02*
X10708507Y-15821568D01*
X10708507Y-15821568D02*
X10727554Y-15812044D01*
X10879935Y-15992996D02*
X10889459Y-16002520D01*
X10889459Y-16002520D02*
X10879935Y-16012044D01*
X10879935Y-16012044D02*
X10870411Y-16002520D01*
X10870411Y-16002520D02*
X10879935Y-15992996D01*
X10879935Y-15992996D02*
X10879935Y-16012044D01*
X11013268Y-15812044D02*
X11032316Y-15812044D01*
X11032316Y-15812044D02*
X11051364Y-15821568D01*
X11051364Y-15821568D02*
X11060888Y-15831091D01*
X11060888Y-15831091D02*
X11070411Y-15850139D01*
X11070411Y-15850139D02*
X11079935Y-15888234D01*
X11079935Y-15888234D02*
X11079935Y-15935853D01*
X11079935Y-15935853D02*
X11070411Y-15973948D01*
X11070411Y-15973948D02*
X11060888Y-15992996D01*
X11060888Y-15992996D02*
X11051364Y-16002520D01*
X11051364Y-16002520D02*
X11032316Y-16012044D01*
X11032316Y-16012044D02*
X11013268Y-16012044D01*
X11013268Y-16012044D02*
X10994221Y-16002520D01*
X10994221Y-16002520D02*
X10984697Y-15992996D01*
X10984697Y-15992996D02*
X10975173Y-15973948D01*
X10975173Y-15973948D02*
X10965649Y-15935853D01*
X10965649Y-15935853D02*
X10965649Y-15888234D01*
X10965649Y-15888234D02*
X10975173Y-15850139D01*
X10975173Y-15850139D02*
X10984697Y-15831091D01*
X10984697Y-15831091D02*
X10994221Y-15821568D01*
X10994221Y-15821568D02*
X11013268Y-15812044D01*
X11251364Y-15878710D02*
X11251364Y-16012044D01*
X11203745Y-15802520D02*
X11156126Y-15945377D01*
X11156126Y-15945377D02*
X11279935Y-15945377D01*
X11394221Y-15812044D02*
X11413268Y-15812044D01*
X11413268Y-15812044D02*
X11432316Y-15821568D01*
X11432316Y-15821568D02*
X11441840Y-15831091D01*
X11441840Y-15831091D02*
X11451364Y-15850139D01*
X11451364Y-15850139D02*
X11460887Y-15888234D01*
X11460887Y-15888234D02*
X11460887Y-15935853D01*
X11460887Y-15935853D02*
X11451364Y-15973948D01*
X11451364Y-15973948D02*
X11441840Y-15992996D01*
X11441840Y-15992996D02*
X11432316Y-16002520D01*
X11432316Y-16002520D02*
X11413268Y-16012044D01*
X11413268Y-16012044D02*
X11394221Y-16012044D01*
X11394221Y-16012044D02*
X11375173Y-16002520D01*
X11375173Y-16002520D02*
X11365649Y-15992996D01*
X11365649Y-15992996D02*
X11356126Y-15973948D01*
X11356126Y-15973948D02*
X11346602Y-15935853D01*
X11346602Y-15935853D02*
X11346602Y-15888234D01*
X11346602Y-15888234D02*
X11356126Y-15850139D01*
X11356126Y-15850139D02*
X11365649Y-15831091D01*
X11365649Y-15831091D02*
X11375173Y-15821568D01*
X11375173Y-15821568D02*
X11394221Y-15812044D01*
X11537078Y-15831091D02*
X11546602Y-15821568D01*
X11546602Y-15821568D02*
X11565649Y-15812044D01*
X11565649Y-15812044D02*
X11613268Y-15812044D01*
X11613268Y-15812044D02*
X11632316Y-15821568D01*
X11632316Y-15821568D02*
X11641840Y-15831091D01*
X11641840Y-15831091D02*
X11651364Y-15850139D01*
X11651364Y-15850139D02*
X11651364Y-15869187D01*
X11651364Y-15869187D02*
X11641840Y-15897758D01*
X11641840Y-15897758D02*
X11527554Y-16012044D01*
X11527554Y-16012044D02*
X11651364Y-16012044D01*
X11727554Y-15812044D02*
X11727554Y-15850139D01*
X11803745Y-15812044D02*
X11803745Y-15850139D01*
X12098983Y-16088234D02*
X12089459Y-16078710D01*
X12089459Y-16078710D02*
X12070411Y-16050139D01*
X12070411Y-16050139D02*
X12060888Y-16031091D01*
X12060888Y-16031091D02*
X12051364Y-16002520D01*
X12051364Y-16002520D02*
X12041840Y-15954901D01*
X12041840Y-15954901D02*
X12041840Y-15916806D01*
X12041840Y-15916806D02*
X12051364Y-15869187D01*
X12051364Y-15869187D02*
X12060888Y-15840615D01*
X12060888Y-15840615D02*
X12070411Y-15821568D01*
X12070411Y-15821568D02*
X12089459Y-15792996D01*
X12089459Y-15792996D02*
X12098983Y-15783472D01*
X12165649Y-15831091D02*
X12175173Y-15821568D01*
X12175173Y-15821568D02*
X12194221Y-15812044D01*
X12194221Y-15812044D02*
X12241840Y-15812044D01*
X12241840Y-15812044D02*
X12260888Y-15821568D01*
X12260888Y-15821568D02*
X12270411Y-15831091D01*
X12270411Y-15831091D02*
X12279935Y-15850139D01*
X12279935Y-15850139D02*
X12279935Y-15869187D01*
X12279935Y-15869187D02*
X12270411Y-15897758D01*
X12270411Y-15897758D02*
X12156126Y-16012044D01*
X12156126Y-16012044D02*
X12279935Y-16012044D01*
X12518030Y-16012044D02*
X12518030Y-15812044D01*
X12603745Y-16012044D02*
X12603745Y-15907282D01*
X12603745Y-15907282D02*
X12594221Y-15888234D01*
X12594221Y-15888234D02*
X12575173Y-15878710D01*
X12575173Y-15878710D02*
X12546602Y-15878710D01*
X12546602Y-15878710D02*
X12527554Y-15888234D01*
X12527554Y-15888234D02*
X12518030Y-15897758D01*
X12727554Y-16012044D02*
X12708507Y-16002520D01*
X12708507Y-16002520D02*
X12698983Y-15992996D01*
X12698983Y-15992996D02*
X12689459Y-15973948D01*
X12689459Y-15973948D02*
X12689459Y-15916806D01*
X12689459Y-15916806D02*
X12698983Y-15897758D01*
X12698983Y-15897758D02*
X12708507Y-15888234D01*
X12708507Y-15888234D02*
X12727554Y-15878710D01*
X12727554Y-15878710D02*
X12756126Y-15878710D01*
X12756126Y-15878710D02*
X12775173Y-15888234D01*
X12775173Y-15888234D02*
X12784697Y-15897758D01*
X12784697Y-15897758D02*
X12794221Y-15916806D01*
X12794221Y-15916806D02*
X12794221Y-15973948D01*
X12794221Y-15973948D02*
X12784697Y-15992996D01*
X12784697Y-15992996D02*
X12775173Y-16002520D01*
X12775173Y-16002520D02*
X12756126Y-16012044D01*
X12756126Y-16012044D02*
X12727554Y-16012044D01*
X12908507Y-16012044D02*
X12889459Y-16002520D01*
X12889459Y-16002520D02*
X12879935Y-15983472D01*
X12879935Y-15983472D02*
X12879935Y-15812044D01*
X13060888Y-16002520D02*
X13041840Y-16012044D01*
X13041840Y-16012044D02*
X13003745Y-16012044D01*
X13003745Y-16012044D02*
X12984697Y-16002520D01*
X12984697Y-16002520D02*
X12975173Y-15983472D01*
X12975173Y-15983472D02*
X12975173Y-15907282D01*
X12975173Y-15907282D02*
X12984697Y-15888234D01*
X12984697Y-15888234D02*
X13003745Y-15878710D01*
X13003745Y-15878710D02*
X13041840Y-15878710D01*
X13041840Y-15878710D02*
X13060888Y-15888234D01*
X13060888Y-15888234D02*
X13070411Y-15907282D01*
X13070411Y-15907282D02*
X13070411Y-15926329D01*
X13070411Y-15926329D02*
X12975173Y-15945377D01*
X13146602Y-16002520D02*
X13165650Y-16012044D01*
X13165650Y-16012044D02*
X13203745Y-16012044D01*
X13203745Y-16012044D02*
X13222792Y-16002520D01*
X13222792Y-16002520D02*
X13232316Y-15983472D01*
X13232316Y-15983472D02*
X13232316Y-15973948D01*
X13232316Y-15973948D02*
X13222792Y-15954901D01*
X13222792Y-15954901D02*
X13203745Y-15945377D01*
X13203745Y-15945377D02*
X13175173Y-15945377D01*
X13175173Y-15945377D02*
X13156126Y-15935853D01*
X13156126Y-15935853D02*
X13146602Y-15916806D01*
X13146602Y-15916806D02*
X13146602Y-15907282D01*
X13146602Y-15907282D02*
X13156126Y-15888234D01*
X13156126Y-15888234D02*
X13175173Y-15878710D01*
X13175173Y-15878710D02*
X13203745Y-15878710D01*
X13203745Y-15878710D02*
X13222792Y-15888234D01*
X13298983Y-16088234D02*
X13308507Y-16078710D01*
X13308507Y-16078710D02*
X13327554Y-16050139D01*
X13327554Y-16050139D02*
X13337078Y-16031091D01*
X13337078Y-16031091D02*
X13346602Y-16002520D01*
X13346602Y-16002520D02*
X13356126Y-15954901D01*
X13356126Y-15954901D02*
X13356126Y-15916806D01*
X13356126Y-15916806D02*
X13346602Y-15869187D01*
X13346602Y-15869187D02*
X13337078Y-15840615D01*
X13337078Y-15840615D02*
X13327554Y-15821568D01*
X13327554Y-15821568D02*
X13308507Y-15792996D01*
X13308507Y-15792996D02*
X13298983Y-15783472D01*
D13*
X8413920Y-16129560D02*
X8523920Y-16239560D01*
X8523920Y-16129560D02*
X8413920Y-16239560D01*
X8523920Y-16184560D02*
G75*
G03*
X8523920Y-16184560I-55000J0D01*
G01*
D11*
X8889459Y-16276044D02*
X8775173Y-16276044D01*
X8832316Y-16276044D02*
X8832316Y-16076044D01*
X8832316Y-16076044D02*
X8813268Y-16104615D01*
X8813268Y-16104615D02*
X8794221Y-16123663D01*
X8794221Y-16123663D02*
X8775173Y-16133187D01*
X8975173Y-16256996D02*
X8984697Y-16266520D01*
X8984697Y-16266520D02*
X8975173Y-16276044D01*
X8975173Y-16276044D02*
X8965649Y-16266520D01*
X8965649Y-16266520D02*
X8975173Y-16256996D01*
X8975173Y-16256996D02*
X8975173Y-16276044D01*
X9175173Y-16276044D02*
X9060887Y-16276044D01*
X9118030Y-16276044D02*
X9118030Y-16076044D01*
X9118030Y-16076044D02*
X9098983Y-16104615D01*
X9098983Y-16104615D02*
X9079935Y-16123663D01*
X9079935Y-16123663D02*
X9060887Y-16133187D01*
X9298983Y-16076044D02*
X9318030Y-16076044D01*
X9318030Y-16076044D02*
X9337078Y-16085568D01*
X9337078Y-16085568D02*
X9346602Y-16095091D01*
X9346602Y-16095091D02*
X9356125Y-16114139D01*
X9356125Y-16114139D02*
X9365649Y-16152234D01*
X9365649Y-16152234D02*
X9365649Y-16199853D01*
X9365649Y-16199853D02*
X9356125Y-16237948D01*
X9356125Y-16237948D02*
X9346602Y-16256996D01*
X9346602Y-16256996D02*
X9337078Y-16266520D01*
X9337078Y-16266520D02*
X9318030Y-16276044D01*
X9318030Y-16276044D02*
X9298983Y-16276044D01*
X9298983Y-16276044D02*
X9279935Y-16266520D01*
X9279935Y-16266520D02*
X9270411Y-16256996D01*
X9270411Y-16256996D02*
X9260887Y-16237948D01*
X9260887Y-16237948D02*
X9251364Y-16199853D01*
X9251364Y-16199853D02*
X9251364Y-16152234D01*
X9251364Y-16152234D02*
X9260887Y-16114139D01*
X9260887Y-16114139D02*
X9270411Y-16095091D01*
X9270411Y-16095091D02*
X9279935Y-16085568D01*
X9279935Y-16085568D02*
X9298983Y-16076044D01*
X9489459Y-16076044D02*
X9508506Y-16076044D01*
X9508506Y-16076044D02*
X9527554Y-16085568D01*
X9527554Y-16085568D02*
X9537078Y-16095091D01*
X9537078Y-16095091D02*
X9546602Y-16114139D01*
X9546602Y-16114139D02*
X9556125Y-16152234D01*
X9556125Y-16152234D02*
X9556125Y-16199853D01*
X9556125Y-16199853D02*
X9546602Y-16237948D01*
X9546602Y-16237948D02*
X9537078Y-16256996D01*
X9537078Y-16256996D02*
X9527554Y-16266520D01*
X9527554Y-16266520D02*
X9508506Y-16276044D01*
X9508506Y-16276044D02*
X9489459Y-16276044D01*
X9489459Y-16276044D02*
X9470411Y-16266520D01*
X9470411Y-16266520D02*
X9460887Y-16256996D01*
X9460887Y-16256996D02*
X9451364Y-16237948D01*
X9451364Y-16237948D02*
X9441840Y-16199853D01*
X9441840Y-16199853D02*
X9441840Y-16152234D01*
X9441840Y-16152234D02*
X9451364Y-16114139D01*
X9451364Y-16114139D02*
X9460887Y-16095091D01*
X9460887Y-16095091D02*
X9470411Y-16085568D01*
X9470411Y-16085568D02*
X9489459Y-16076044D01*
X9641840Y-16276044D02*
X9641840Y-16142710D01*
X9641840Y-16161758D02*
X9651364Y-16152234D01*
X9651364Y-16152234D02*
X9670411Y-16142710D01*
X9670411Y-16142710D02*
X9698983Y-16142710D01*
X9698983Y-16142710D02*
X9718030Y-16152234D01*
X9718030Y-16152234D02*
X9727554Y-16171282D01*
X9727554Y-16171282D02*
X9727554Y-16276044D01*
X9727554Y-16171282D02*
X9737078Y-16152234D01*
X9737078Y-16152234D02*
X9756125Y-16142710D01*
X9756125Y-16142710D02*
X9784697Y-16142710D01*
X9784697Y-16142710D02*
X9803745Y-16152234D01*
X9803745Y-16152234D02*
X9813268Y-16171282D01*
X9813268Y-16171282D02*
X9813268Y-16276044D01*
X9908506Y-16276044D02*
X9908506Y-16142710D01*
X9908506Y-16161758D02*
X9918030Y-16152234D01*
X9918030Y-16152234D02*
X9937078Y-16142710D01*
X9937078Y-16142710D02*
X9965649Y-16142710D01*
X9965649Y-16142710D02*
X9984697Y-16152234D01*
X9984697Y-16152234D02*
X9994221Y-16171282D01*
X9994221Y-16171282D02*
X9994221Y-16276044D01*
X9994221Y-16171282D02*
X10003745Y-16152234D01*
X10003745Y-16152234D02*
X10022792Y-16142710D01*
X10022792Y-16142710D02*
X10051364Y-16142710D01*
X10051364Y-16142710D02*
X10070411Y-16152234D01*
X10070411Y-16152234D02*
X10079935Y-16171282D01*
X10079935Y-16171282D02*
X10079935Y-16276044D01*
X10470411Y-16066520D02*
X10298983Y-16323663D01*
X10727554Y-16076044D02*
X10746602Y-16076044D01*
X10746602Y-16076044D02*
X10765649Y-16085568D01*
X10765649Y-16085568D02*
X10775173Y-16095091D01*
X10775173Y-16095091D02*
X10784697Y-16114139D01*
X10784697Y-16114139D02*
X10794221Y-16152234D01*
X10794221Y-16152234D02*
X10794221Y-16199853D01*
X10794221Y-16199853D02*
X10784697Y-16237948D01*
X10784697Y-16237948D02*
X10775173Y-16256996D01*
X10775173Y-16256996D02*
X10765649Y-16266520D01*
X10765649Y-16266520D02*
X10746602Y-16276044D01*
X10746602Y-16276044D02*
X10727554Y-16276044D01*
X10727554Y-16276044D02*
X10708507Y-16266520D01*
X10708507Y-16266520D02*
X10698983Y-16256996D01*
X10698983Y-16256996D02*
X10689459Y-16237948D01*
X10689459Y-16237948D02*
X10679935Y-16199853D01*
X10679935Y-16199853D02*
X10679935Y-16152234D01*
X10679935Y-16152234D02*
X10689459Y-16114139D01*
X10689459Y-16114139D02*
X10698983Y-16095091D01*
X10698983Y-16095091D02*
X10708507Y-16085568D01*
X10708507Y-16085568D02*
X10727554Y-16076044D01*
X10879935Y-16256996D02*
X10889459Y-16266520D01*
X10889459Y-16266520D02*
X10879935Y-16276044D01*
X10879935Y-16276044D02*
X10870411Y-16266520D01*
X10870411Y-16266520D02*
X10879935Y-16256996D01*
X10879935Y-16256996D02*
X10879935Y-16276044D01*
X11013268Y-16076044D02*
X11032316Y-16076044D01*
X11032316Y-16076044D02*
X11051364Y-16085568D01*
X11051364Y-16085568D02*
X11060888Y-16095091D01*
X11060888Y-16095091D02*
X11070411Y-16114139D01*
X11070411Y-16114139D02*
X11079935Y-16152234D01*
X11079935Y-16152234D02*
X11079935Y-16199853D01*
X11079935Y-16199853D02*
X11070411Y-16237948D01*
X11070411Y-16237948D02*
X11060888Y-16256996D01*
X11060888Y-16256996D02*
X11051364Y-16266520D01*
X11051364Y-16266520D02*
X11032316Y-16276044D01*
X11032316Y-16276044D02*
X11013268Y-16276044D01*
X11013268Y-16276044D02*
X10994221Y-16266520D01*
X10994221Y-16266520D02*
X10984697Y-16256996D01*
X10984697Y-16256996D02*
X10975173Y-16237948D01*
X10975173Y-16237948D02*
X10965649Y-16199853D01*
X10965649Y-16199853D02*
X10965649Y-16152234D01*
X10965649Y-16152234D02*
X10975173Y-16114139D01*
X10975173Y-16114139D02*
X10984697Y-16095091D01*
X10984697Y-16095091D02*
X10994221Y-16085568D01*
X10994221Y-16085568D02*
X11013268Y-16076044D01*
X11251364Y-16142710D02*
X11251364Y-16276044D01*
X11203745Y-16066520D02*
X11156126Y-16209377D01*
X11156126Y-16209377D02*
X11279935Y-16209377D01*
X11337078Y-16076044D02*
X11460887Y-16076044D01*
X11460887Y-16076044D02*
X11394221Y-16152234D01*
X11394221Y-16152234D02*
X11422792Y-16152234D01*
X11422792Y-16152234D02*
X11441840Y-16161758D01*
X11441840Y-16161758D02*
X11451364Y-16171282D01*
X11451364Y-16171282D02*
X11460887Y-16190329D01*
X11460887Y-16190329D02*
X11460887Y-16237948D01*
X11460887Y-16237948D02*
X11451364Y-16256996D01*
X11451364Y-16256996D02*
X11441840Y-16266520D01*
X11441840Y-16266520D02*
X11422792Y-16276044D01*
X11422792Y-16276044D02*
X11365649Y-16276044D01*
X11365649Y-16276044D02*
X11346602Y-16266520D01*
X11346602Y-16266520D02*
X11337078Y-16256996D01*
X11527554Y-16076044D02*
X11651364Y-16076044D01*
X11651364Y-16076044D02*
X11584697Y-16152234D01*
X11584697Y-16152234D02*
X11613268Y-16152234D01*
X11613268Y-16152234D02*
X11632316Y-16161758D01*
X11632316Y-16161758D02*
X11641840Y-16171282D01*
X11641840Y-16171282D02*
X11651364Y-16190329D01*
X11651364Y-16190329D02*
X11651364Y-16237948D01*
X11651364Y-16237948D02*
X11641840Y-16256996D01*
X11641840Y-16256996D02*
X11632316Y-16266520D01*
X11632316Y-16266520D02*
X11613268Y-16276044D01*
X11613268Y-16276044D02*
X11556126Y-16276044D01*
X11556126Y-16276044D02*
X11537078Y-16266520D01*
X11537078Y-16266520D02*
X11527554Y-16256996D01*
X11727554Y-16076044D02*
X11727554Y-16114139D01*
X11803745Y-16076044D02*
X11803745Y-16114139D01*
X12098983Y-16352234D02*
X12089459Y-16342710D01*
X12089459Y-16342710D02*
X12070411Y-16314139D01*
X12070411Y-16314139D02*
X12060888Y-16295091D01*
X12060888Y-16295091D02*
X12051364Y-16266520D01*
X12051364Y-16266520D02*
X12041840Y-16218901D01*
X12041840Y-16218901D02*
X12041840Y-16180806D01*
X12041840Y-16180806D02*
X12051364Y-16133187D01*
X12051364Y-16133187D02*
X12060888Y-16104615D01*
X12060888Y-16104615D02*
X12070411Y-16085568D01*
X12070411Y-16085568D02*
X12089459Y-16056996D01*
X12089459Y-16056996D02*
X12098983Y-16047472D01*
X12156126Y-16076044D02*
X12279935Y-16076044D01*
X12279935Y-16076044D02*
X12213268Y-16152234D01*
X12213268Y-16152234D02*
X12241840Y-16152234D01*
X12241840Y-16152234D02*
X12260888Y-16161758D01*
X12260888Y-16161758D02*
X12270411Y-16171282D01*
X12270411Y-16171282D02*
X12279935Y-16190329D01*
X12279935Y-16190329D02*
X12279935Y-16237948D01*
X12279935Y-16237948D02*
X12270411Y-16256996D01*
X12270411Y-16256996D02*
X12260888Y-16266520D01*
X12260888Y-16266520D02*
X12241840Y-16276044D01*
X12241840Y-16276044D02*
X12184697Y-16276044D01*
X12184697Y-16276044D02*
X12165649Y-16266520D01*
X12165649Y-16266520D02*
X12156126Y-16256996D01*
X12518030Y-16276044D02*
X12518030Y-16076044D01*
X12603745Y-16276044D02*
X12603745Y-16171282D01*
X12603745Y-16171282D02*
X12594221Y-16152234D01*
X12594221Y-16152234D02*
X12575173Y-16142710D01*
X12575173Y-16142710D02*
X12546602Y-16142710D01*
X12546602Y-16142710D02*
X12527554Y-16152234D01*
X12527554Y-16152234D02*
X12518030Y-16161758D01*
X12727554Y-16276044D02*
X12708507Y-16266520D01*
X12708507Y-16266520D02*
X12698983Y-16256996D01*
X12698983Y-16256996D02*
X12689459Y-16237948D01*
X12689459Y-16237948D02*
X12689459Y-16180806D01*
X12689459Y-16180806D02*
X12698983Y-16161758D01*
X12698983Y-16161758D02*
X12708507Y-16152234D01*
X12708507Y-16152234D02*
X12727554Y-16142710D01*
X12727554Y-16142710D02*
X12756126Y-16142710D01*
X12756126Y-16142710D02*
X12775173Y-16152234D01*
X12775173Y-16152234D02*
X12784697Y-16161758D01*
X12784697Y-16161758D02*
X12794221Y-16180806D01*
X12794221Y-16180806D02*
X12794221Y-16237948D01*
X12794221Y-16237948D02*
X12784697Y-16256996D01*
X12784697Y-16256996D02*
X12775173Y-16266520D01*
X12775173Y-16266520D02*
X12756126Y-16276044D01*
X12756126Y-16276044D02*
X12727554Y-16276044D01*
X12908507Y-16276044D02*
X12889459Y-16266520D01*
X12889459Y-16266520D02*
X12879935Y-16247472D01*
X12879935Y-16247472D02*
X12879935Y-16076044D01*
X13060888Y-16266520D02*
X13041840Y-16276044D01*
X13041840Y-16276044D02*
X13003745Y-16276044D01*
X13003745Y-16276044D02*
X12984697Y-16266520D01*
X12984697Y-16266520D02*
X12975173Y-16247472D01*
X12975173Y-16247472D02*
X12975173Y-16171282D01*
X12975173Y-16171282D02*
X12984697Y-16152234D01*
X12984697Y-16152234D02*
X13003745Y-16142710D01*
X13003745Y-16142710D02*
X13041840Y-16142710D01*
X13041840Y-16142710D02*
X13060888Y-16152234D01*
X13060888Y-16152234D02*
X13070411Y-16171282D01*
X13070411Y-16171282D02*
X13070411Y-16190329D01*
X13070411Y-16190329D02*
X12975173Y-16209377D01*
X13146602Y-16266520D02*
X13165650Y-16276044D01*
X13165650Y-16276044D02*
X13203745Y-16276044D01*
X13203745Y-16276044D02*
X13222792Y-16266520D01*
X13222792Y-16266520D02*
X13232316Y-16247472D01*
X13232316Y-16247472D02*
X13232316Y-16237948D01*
X13232316Y-16237948D02*
X13222792Y-16218901D01*
X13222792Y-16218901D02*
X13203745Y-16209377D01*
X13203745Y-16209377D02*
X13175173Y-16209377D01*
X13175173Y-16209377D02*
X13156126Y-16199853D01*
X13156126Y-16199853D02*
X13146602Y-16180806D01*
X13146602Y-16180806D02*
X13146602Y-16171282D01*
X13146602Y-16171282D02*
X13156126Y-16152234D01*
X13156126Y-16152234D02*
X13175173Y-16142710D01*
X13175173Y-16142710D02*
X13203745Y-16142710D01*
X13203745Y-16142710D02*
X13222792Y-16152234D01*
X13298983Y-16352234D02*
X13308507Y-16342710D01*
X13308507Y-16342710D02*
X13327554Y-16314139D01*
X13327554Y-16314139D02*
X13337078Y-16295091D01*
X13337078Y-16295091D02*
X13346602Y-16266520D01*
X13346602Y-16266520D02*
X13356126Y-16218901D01*
X13356126Y-16218901D02*
X13356126Y-16180806D01*
X13356126Y-16180806D02*
X13346602Y-16133187D01*
X13346602Y-16133187D02*
X13337078Y-16104615D01*
X13337078Y-16104615D02*
X13327554Y-16085568D01*
X13327554Y-16085568D02*
X13308507Y-16056996D01*
X13308507Y-16056996D02*
X13298983Y-16047472D01*
D14*
X8404540Y-16388870D02*
X8523920Y-16508250D01*
X8523920Y-16388870D02*
X8404540Y-16508250D01*
X8464230Y-16388870D02*
X8464230Y-16508250D01*
X8404540Y-16448560D02*
X8523920Y-16448560D01*
D11*
X8889459Y-16540044D02*
X8775173Y-16540044D01*
X8832316Y-16540044D02*
X8832316Y-16340044D01*
X8832316Y-16340044D02*
X8813268Y-16368615D01*
X8813268Y-16368615D02*
X8794221Y-16387663D01*
X8794221Y-16387663D02*
X8775173Y-16397187D01*
X8975173Y-16520996D02*
X8984697Y-16530520D01*
X8984697Y-16530520D02*
X8975173Y-16540044D01*
X8975173Y-16540044D02*
X8965649Y-16530520D01*
X8965649Y-16530520D02*
X8975173Y-16520996D01*
X8975173Y-16520996D02*
X8975173Y-16540044D01*
X9175173Y-16540044D02*
X9060887Y-16540044D01*
X9118030Y-16540044D02*
X9118030Y-16340044D01*
X9118030Y-16340044D02*
X9098983Y-16368615D01*
X9098983Y-16368615D02*
X9079935Y-16387663D01*
X9079935Y-16387663D02*
X9060887Y-16397187D01*
X9270411Y-16540044D02*
X9308506Y-16540044D01*
X9308506Y-16540044D02*
X9327554Y-16530520D01*
X9327554Y-16530520D02*
X9337078Y-16520996D01*
X9337078Y-16520996D02*
X9356125Y-16492425D01*
X9356125Y-16492425D02*
X9365649Y-16454329D01*
X9365649Y-16454329D02*
X9365649Y-16378139D01*
X9365649Y-16378139D02*
X9356125Y-16359091D01*
X9356125Y-16359091D02*
X9346602Y-16349568D01*
X9346602Y-16349568D02*
X9327554Y-16340044D01*
X9327554Y-16340044D02*
X9289459Y-16340044D01*
X9289459Y-16340044D02*
X9270411Y-16349568D01*
X9270411Y-16349568D02*
X9260887Y-16359091D01*
X9260887Y-16359091D02*
X9251364Y-16378139D01*
X9251364Y-16378139D02*
X9251364Y-16425758D01*
X9251364Y-16425758D02*
X9260887Y-16444806D01*
X9260887Y-16444806D02*
X9270411Y-16454329D01*
X9270411Y-16454329D02*
X9289459Y-16463853D01*
X9289459Y-16463853D02*
X9327554Y-16463853D01*
X9327554Y-16463853D02*
X9346602Y-16454329D01*
X9346602Y-16454329D02*
X9356125Y-16444806D01*
X9356125Y-16444806D02*
X9365649Y-16425758D01*
X9537078Y-16406710D02*
X9537078Y-16540044D01*
X9489459Y-16330520D02*
X9441840Y-16473377D01*
X9441840Y-16473377D02*
X9565649Y-16473377D01*
X9641840Y-16540044D02*
X9641840Y-16406710D01*
X9641840Y-16425758D02*
X9651364Y-16416234D01*
X9651364Y-16416234D02*
X9670411Y-16406710D01*
X9670411Y-16406710D02*
X9698983Y-16406710D01*
X9698983Y-16406710D02*
X9718030Y-16416234D01*
X9718030Y-16416234D02*
X9727554Y-16435282D01*
X9727554Y-16435282D02*
X9727554Y-16540044D01*
X9727554Y-16435282D02*
X9737078Y-16416234D01*
X9737078Y-16416234D02*
X9756125Y-16406710D01*
X9756125Y-16406710D02*
X9784697Y-16406710D01*
X9784697Y-16406710D02*
X9803745Y-16416234D01*
X9803745Y-16416234D02*
X9813268Y-16435282D01*
X9813268Y-16435282D02*
X9813268Y-16540044D01*
X9908506Y-16540044D02*
X9908506Y-16406710D01*
X9908506Y-16425758D02*
X9918030Y-16416234D01*
X9918030Y-16416234D02*
X9937078Y-16406710D01*
X9937078Y-16406710D02*
X9965649Y-16406710D01*
X9965649Y-16406710D02*
X9984697Y-16416234D01*
X9984697Y-16416234D02*
X9994221Y-16435282D01*
X9994221Y-16435282D02*
X9994221Y-16540044D01*
X9994221Y-16435282D02*
X10003745Y-16416234D01*
X10003745Y-16416234D02*
X10022792Y-16406710D01*
X10022792Y-16406710D02*
X10051364Y-16406710D01*
X10051364Y-16406710D02*
X10070411Y-16416234D01*
X10070411Y-16416234D02*
X10079935Y-16435282D01*
X10079935Y-16435282D02*
X10079935Y-16540044D01*
X10470411Y-16330520D02*
X10298983Y-16587663D01*
X10727554Y-16340044D02*
X10746602Y-16340044D01*
X10746602Y-16340044D02*
X10765649Y-16349568D01*
X10765649Y-16349568D02*
X10775173Y-16359091D01*
X10775173Y-16359091D02*
X10784697Y-16378139D01*
X10784697Y-16378139D02*
X10794221Y-16416234D01*
X10794221Y-16416234D02*
X10794221Y-16463853D01*
X10794221Y-16463853D02*
X10784697Y-16501948D01*
X10784697Y-16501948D02*
X10775173Y-16520996D01*
X10775173Y-16520996D02*
X10765649Y-16530520D01*
X10765649Y-16530520D02*
X10746602Y-16540044D01*
X10746602Y-16540044D02*
X10727554Y-16540044D01*
X10727554Y-16540044D02*
X10708507Y-16530520D01*
X10708507Y-16530520D02*
X10698983Y-16520996D01*
X10698983Y-16520996D02*
X10689459Y-16501948D01*
X10689459Y-16501948D02*
X10679935Y-16463853D01*
X10679935Y-16463853D02*
X10679935Y-16416234D01*
X10679935Y-16416234D02*
X10689459Y-16378139D01*
X10689459Y-16378139D02*
X10698983Y-16359091D01*
X10698983Y-16359091D02*
X10708507Y-16349568D01*
X10708507Y-16349568D02*
X10727554Y-16340044D01*
X10879935Y-16520996D02*
X10889459Y-16530520D01*
X10889459Y-16530520D02*
X10879935Y-16540044D01*
X10879935Y-16540044D02*
X10870411Y-16530520D01*
X10870411Y-16530520D02*
X10879935Y-16520996D01*
X10879935Y-16520996D02*
X10879935Y-16540044D01*
X11013268Y-16340044D02*
X11032316Y-16340044D01*
X11032316Y-16340044D02*
X11051364Y-16349568D01*
X11051364Y-16349568D02*
X11060888Y-16359091D01*
X11060888Y-16359091D02*
X11070411Y-16378139D01*
X11070411Y-16378139D02*
X11079935Y-16416234D01*
X11079935Y-16416234D02*
X11079935Y-16463853D01*
X11079935Y-16463853D02*
X11070411Y-16501948D01*
X11070411Y-16501948D02*
X11060888Y-16520996D01*
X11060888Y-16520996D02*
X11051364Y-16530520D01*
X11051364Y-16530520D02*
X11032316Y-16540044D01*
X11032316Y-16540044D02*
X11013268Y-16540044D01*
X11013268Y-16540044D02*
X10994221Y-16530520D01*
X10994221Y-16530520D02*
X10984697Y-16520996D01*
X10984697Y-16520996D02*
X10975173Y-16501948D01*
X10975173Y-16501948D02*
X10965649Y-16463853D01*
X10965649Y-16463853D02*
X10965649Y-16416234D01*
X10965649Y-16416234D02*
X10975173Y-16378139D01*
X10975173Y-16378139D02*
X10984697Y-16359091D01*
X10984697Y-16359091D02*
X10994221Y-16349568D01*
X10994221Y-16349568D02*
X11013268Y-16340044D01*
X11251364Y-16406710D02*
X11251364Y-16540044D01*
X11203745Y-16330520D02*
X11156126Y-16473377D01*
X11156126Y-16473377D02*
X11279935Y-16473377D01*
X11337078Y-16340044D02*
X11470411Y-16340044D01*
X11470411Y-16340044D02*
X11384697Y-16540044D01*
X11584697Y-16340044D02*
X11603745Y-16340044D01*
X11603745Y-16340044D02*
X11622792Y-16349568D01*
X11622792Y-16349568D02*
X11632316Y-16359091D01*
X11632316Y-16359091D02*
X11641840Y-16378139D01*
X11641840Y-16378139D02*
X11651364Y-16416234D01*
X11651364Y-16416234D02*
X11651364Y-16463853D01*
X11651364Y-16463853D02*
X11641840Y-16501948D01*
X11641840Y-16501948D02*
X11632316Y-16520996D01*
X11632316Y-16520996D02*
X11622792Y-16530520D01*
X11622792Y-16530520D02*
X11603745Y-16540044D01*
X11603745Y-16540044D02*
X11584697Y-16540044D01*
X11584697Y-16540044D02*
X11565649Y-16530520D01*
X11565649Y-16530520D02*
X11556126Y-16520996D01*
X11556126Y-16520996D02*
X11546602Y-16501948D01*
X11546602Y-16501948D02*
X11537078Y-16463853D01*
X11537078Y-16463853D02*
X11537078Y-16416234D01*
X11537078Y-16416234D02*
X11546602Y-16378139D01*
X11546602Y-16378139D02*
X11556126Y-16359091D01*
X11556126Y-16359091D02*
X11565649Y-16349568D01*
X11565649Y-16349568D02*
X11584697Y-16340044D01*
X11727554Y-16340044D02*
X11727554Y-16378139D01*
X11803745Y-16340044D02*
X11803745Y-16378139D01*
X12098983Y-16616234D02*
X12089459Y-16606710D01*
X12089459Y-16606710D02*
X12070411Y-16578139D01*
X12070411Y-16578139D02*
X12060888Y-16559091D01*
X12060888Y-16559091D02*
X12051364Y-16530520D01*
X12051364Y-16530520D02*
X12041840Y-16482901D01*
X12041840Y-16482901D02*
X12041840Y-16444806D01*
X12041840Y-16444806D02*
X12051364Y-16397187D01*
X12051364Y-16397187D02*
X12060888Y-16368615D01*
X12060888Y-16368615D02*
X12070411Y-16349568D01*
X12070411Y-16349568D02*
X12089459Y-16320996D01*
X12089459Y-16320996D02*
X12098983Y-16311472D01*
X12165649Y-16359091D02*
X12175173Y-16349568D01*
X12175173Y-16349568D02*
X12194221Y-16340044D01*
X12194221Y-16340044D02*
X12241840Y-16340044D01*
X12241840Y-16340044D02*
X12260888Y-16349568D01*
X12260888Y-16349568D02*
X12270411Y-16359091D01*
X12270411Y-16359091D02*
X12279935Y-16378139D01*
X12279935Y-16378139D02*
X12279935Y-16397187D01*
X12279935Y-16397187D02*
X12270411Y-16425758D01*
X12270411Y-16425758D02*
X12156126Y-16540044D01*
X12156126Y-16540044D02*
X12279935Y-16540044D01*
X12518030Y-16540044D02*
X12518030Y-16340044D01*
X12603745Y-16540044D02*
X12603745Y-16435282D01*
X12603745Y-16435282D02*
X12594221Y-16416234D01*
X12594221Y-16416234D02*
X12575173Y-16406710D01*
X12575173Y-16406710D02*
X12546602Y-16406710D01*
X12546602Y-16406710D02*
X12527554Y-16416234D01*
X12527554Y-16416234D02*
X12518030Y-16425758D01*
X12727554Y-16540044D02*
X12708507Y-16530520D01*
X12708507Y-16530520D02*
X12698983Y-16520996D01*
X12698983Y-16520996D02*
X12689459Y-16501948D01*
X12689459Y-16501948D02*
X12689459Y-16444806D01*
X12689459Y-16444806D02*
X12698983Y-16425758D01*
X12698983Y-16425758D02*
X12708507Y-16416234D01*
X12708507Y-16416234D02*
X12727554Y-16406710D01*
X12727554Y-16406710D02*
X12756126Y-16406710D01*
X12756126Y-16406710D02*
X12775173Y-16416234D01*
X12775173Y-16416234D02*
X12784697Y-16425758D01*
X12784697Y-16425758D02*
X12794221Y-16444806D01*
X12794221Y-16444806D02*
X12794221Y-16501948D01*
X12794221Y-16501948D02*
X12784697Y-16520996D01*
X12784697Y-16520996D02*
X12775173Y-16530520D01*
X12775173Y-16530520D02*
X12756126Y-16540044D01*
X12756126Y-16540044D02*
X12727554Y-16540044D01*
X12908507Y-16540044D02*
X12889459Y-16530520D01*
X12889459Y-16530520D02*
X12879935Y-16511472D01*
X12879935Y-16511472D02*
X12879935Y-16340044D01*
X13060888Y-16530520D02*
X13041840Y-16540044D01*
X13041840Y-16540044D02*
X13003745Y-16540044D01*
X13003745Y-16540044D02*
X12984697Y-16530520D01*
X12984697Y-16530520D02*
X12975173Y-16511472D01*
X12975173Y-16511472D02*
X12975173Y-16435282D01*
X12975173Y-16435282D02*
X12984697Y-16416234D01*
X12984697Y-16416234D02*
X13003745Y-16406710D01*
X13003745Y-16406710D02*
X13041840Y-16406710D01*
X13041840Y-16406710D02*
X13060888Y-16416234D01*
X13060888Y-16416234D02*
X13070411Y-16435282D01*
X13070411Y-16435282D02*
X13070411Y-16454329D01*
X13070411Y-16454329D02*
X12975173Y-16473377D01*
X13146602Y-16530520D02*
X13165650Y-16540044D01*
X13165650Y-16540044D02*
X13203745Y-16540044D01*
X13203745Y-16540044D02*
X13222792Y-16530520D01*
X13222792Y-16530520D02*
X13232316Y-16511472D01*
X13232316Y-16511472D02*
X13232316Y-16501948D01*
X13232316Y-16501948D02*
X13222792Y-16482901D01*
X13222792Y-16482901D02*
X13203745Y-16473377D01*
X13203745Y-16473377D02*
X13175173Y-16473377D01*
X13175173Y-16473377D02*
X13156126Y-16463853D01*
X13156126Y-16463853D02*
X13146602Y-16444806D01*
X13146602Y-16444806D02*
X13146602Y-16435282D01*
X13146602Y-16435282D02*
X13156126Y-16416234D01*
X13156126Y-16416234D02*
X13175173Y-16406710D01*
X13175173Y-16406710D02*
X13203745Y-16406710D01*
X13203745Y-16406710D02*
X13222792Y-16416234D01*
X13298983Y-16616234D02*
X13308507Y-16606710D01*
X13308507Y-16606710D02*
X13327554Y-16578139D01*
X13327554Y-16578139D02*
X13337078Y-16559091D01*
X13337078Y-16559091D02*
X13346602Y-16530520D01*
X13346602Y-16530520D02*
X13356126Y-16482901D01*
X13356126Y-16482901D02*
X13356126Y-16444806D01*
X13356126Y-16444806D02*
X13346602Y-16397187D01*
X13346602Y-16397187D02*
X13337078Y-16368615D01*
X13337078Y-16368615D02*
X13327554Y-16349568D01*
X13327554Y-16349568D02*
X13308507Y-16320996D01*
X13308507Y-16320996D02*
X13298983Y-16311472D01*
D15*
X8373920Y-16637560D02*
X8523920Y-16787560D01*
X8523920Y-16637560D02*
X8373920Y-16787560D01*
X8501954Y-16765593D02*
X8501954Y-16659526D01*
X8395887Y-16659526D01*
X8395887Y-16765593D01*
X8501954Y-16765593D01*
D11*
X8889459Y-16804044D02*
X8775173Y-16804044D01*
X8832316Y-16804044D02*
X8832316Y-16604044D01*
X8832316Y-16604044D02*
X8813268Y-16632615D01*
X8813268Y-16632615D02*
X8794221Y-16651663D01*
X8794221Y-16651663D02*
X8775173Y-16661187D01*
X8975173Y-16784996D02*
X8984697Y-16794520D01*
X8984697Y-16794520D02*
X8975173Y-16804044D01*
X8975173Y-16804044D02*
X8965649Y-16794520D01*
X8965649Y-16794520D02*
X8975173Y-16784996D01*
X8975173Y-16784996D02*
X8975173Y-16804044D01*
X9165649Y-16604044D02*
X9070411Y-16604044D01*
X9070411Y-16604044D02*
X9060887Y-16699282D01*
X9060887Y-16699282D02*
X9070411Y-16689758D01*
X9070411Y-16689758D02*
X9089459Y-16680234D01*
X9089459Y-16680234D02*
X9137078Y-16680234D01*
X9137078Y-16680234D02*
X9156125Y-16689758D01*
X9156125Y-16689758D02*
X9165649Y-16699282D01*
X9165649Y-16699282D02*
X9175173Y-16718329D01*
X9175173Y-16718329D02*
X9175173Y-16765948D01*
X9175173Y-16765948D02*
X9165649Y-16784996D01*
X9165649Y-16784996D02*
X9156125Y-16794520D01*
X9156125Y-16794520D02*
X9137078Y-16804044D01*
X9137078Y-16804044D02*
X9089459Y-16804044D01*
X9089459Y-16804044D02*
X9070411Y-16794520D01*
X9070411Y-16794520D02*
X9060887Y-16784996D01*
X9298983Y-16604044D02*
X9318030Y-16604044D01*
X9318030Y-16604044D02*
X9337078Y-16613568D01*
X9337078Y-16613568D02*
X9346602Y-16623091D01*
X9346602Y-16623091D02*
X9356125Y-16642139D01*
X9356125Y-16642139D02*
X9365649Y-16680234D01*
X9365649Y-16680234D02*
X9365649Y-16727853D01*
X9365649Y-16727853D02*
X9356125Y-16765948D01*
X9356125Y-16765948D02*
X9346602Y-16784996D01*
X9346602Y-16784996D02*
X9337078Y-16794520D01*
X9337078Y-16794520D02*
X9318030Y-16804044D01*
X9318030Y-16804044D02*
X9298983Y-16804044D01*
X9298983Y-16804044D02*
X9279935Y-16794520D01*
X9279935Y-16794520D02*
X9270411Y-16784996D01*
X9270411Y-16784996D02*
X9260887Y-16765948D01*
X9260887Y-16765948D02*
X9251364Y-16727853D01*
X9251364Y-16727853D02*
X9251364Y-16680234D01*
X9251364Y-16680234D02*
X9260887Y-16642139D01*
X9260887Y-16642139D02*
X9270411Y-16623091D01*
X9270411Y-16623091D02*
X9279935Y-16613568D01*
X9279935Y-16613568D02*
X9298983Y-16604044D01*
X9489459Y-16604044D02*
X9508506Y-16604044D01*
X9508506Y-16604044D02*
X9527554Y-16613568D01*
X9527554Y-16613568D02*
X9537078Y-16623091D01*
X9537078Y-16623091D02*
X9546602Y-16642139D01*
X9546602Y-16642139D02*
X9556125Y-16680234D01*
X9556125Y-16680234D02*
X9556125Y-16727853D01*
X9556125Y-16727853D02*
X9546602Y-16765948D01*
X9546602Y-16765948D02*
X9537078Y-16784996D01*
X9537078Y-16784996D02*
X9527554Y-16794520D01*
X9527554Y-16794520D02*
X9508506Y-16804044D01*
X9508506Y-16804044D02*
X9489459Y-16804044D01*
X9489459Y-16804044D02*
X9470411Y-16794520D01*
X9470411Y-16794520D02*
X9460887Y-16784996D01*
X9460887Y-16784996D02*
X9451364Y-16765948D01*
X9451364Y-16765948D02*
X9441840Y-16727853D01*
X9441840Y-16727853D02*
X9441840Y-16680234D01*
X9441840Y-16680234D02*
X9451364Y-16642139D01*
X9451364Y-16642139D02*
X9460887Y-16623091D01*
X9460887Y-16623091D02*
X9470411Y-16613568D01*
X9470411Y-16613568D02*
X9489459Y-16604044D01*
X9641840Y-16804044D02*
X9641840Y-16670710D01*
X9641840Y-16689758D02*
X9651364Y-16680234D01*
X9651364Y-16680234D02*
X9670411Y-16670710D01*
X9670411Y-16670710D02*
X9698983Y-16670710D01*
X9698983Y-16670710D02*
X9718030Y-16680234D01*
X9718030Y-16680234D02*
X9727554Y-16699282D01*
X9727554Y-16699282D02*
X9727554Y-16804044D01*
X9727554Y-16699282D02*
X9737078Y-16680234D01*
X9737078Y-16680234D02*
X9756125Y-16670710D01*
X9756125Y-16670710D02*
X9784697Y-16670710D01*
X9784697Y-16670710D02*
X9803745Y-16680234D01*
X9803745Y-16680234D02*
X9813268Y-16699282D01*
X9813268Y-16699282D02*
X9813268Y-16804044D01*
X9908506Y-16804044D02*
X9908506Y-16670710D01*
X9908506Y-16689758D02*
X9918030Y-16680234D01*
X9918030Y-16680234D02*
X9937078Y-16670710D01*
X9937078Y-16670710D02*
X9965649Y-16670710D01*
X9965649Y-16670710D02*
X9984697Y-16680234D01*
X9984697Y-16680234D02*
X9994221Y-16699282D01*
X9994221Y-16699282D02*
X9994221Y-16804044D01*
X9994221Y-16699282D02*
X10003745Y-16680234D01*
X10003745Y-16680234D02*
X10022792Y-16670710D01*
X10022792Y-16670710D02*
X10051364Y-16670710D01*
X10051364Y-16670710D02*
X10070411Y-16680234D01*
X10070411Y-16680234D02*
X10079935Y-16699282D01*
X10079935Y-16699282D02*
X10079935Y-16804044D01*
X10470411Y-16594520D02*
X10298983Y-16851663D01*
X10727554Y-16604044D02*
X10746602Y-16604044D01*
X10746602Y-16604044D02*
X10765649Y-16613568D01*
X10765649Y-16613568D02*
X10775173Y-16623091D01*
X10775173Y-16623091D02*
X10784697Y-16642139D01*
X10784697Y-16642139D02*
X10794221Y-16680234D01*
X10794221Y-16680234D02*
X10794221Y-16727853D01*
X10794221Y-16727853D02*
X10784697Y-16765948D01*
X10784697Y-16765948D02*
X10775173Y-16784996D01*
X10775173Y-16784996D02*
X10765649Y-16794520D01*
X10765649Y-16794520D02*
X10746602Y-16804044D01*
X10746602Y-16804044D02*
X10727554Y-16804044D01*
X10727554Y-16804044D02*
X10708507Y-16794520D01*
X10708507Y-16794520D02*
X10698983Y-16784996D01*
X10698983Y-16784996D02*
X10689459Y-16765948D01*
X10689459Y-16765948D02*
X10679935Y-16727853D01*
X10679935Y-16727853D02*
X10679935Y-16680234D01*
X10679935Y-16680234D02*
X10689459Y-16642139D01*
X10689459Y-16642139D02*
X10698983Y-16623091D01*
X10698983Y-16623091D02*
X10708507Y-16613568D01*
X10708507Y-16613568D02*
X10727554Y-16604044D01*
X10879935Y-16784996D02*
X10889459Y-16794520D01*
X10889459Y-16794520D02*
X10879935Y-16804044D01*
X10879935Y-16804044D02*
X10870411Y-16794520D01*
X10870411Y-16794520D02*
X10879935Y-16784996D01*
X10879935Y-16784996D02*
X10879935Y-16804044D01*
X11013268Y-16604044D02*
X11032316Y-16604044D01*
X11032316Y-16604044D02*
X11051364Y-16613568D01*
X11051364Y-16613568D02*
X11060888Y-16623091D01*
X11060888Y-16623091D02*
X11070411Y-16642139D01*
X11070411Y-16642139D02*
X11079935Y-16680234D01*
X11079935Y-16680234D02*
X11079935Y-16727853D01*
X11079935Y-16727853D02*
X11070411Y-16765948D01*
X11070411Y-16765948D02*
X11060888Y-16784996D01*
X11060888Y-16784996D02*
X11051364Y-16794520D01*
X11051364Y-16794520D02*
X11032316Y-16804044D01*
X11032316Y-16804044D02*
X11013268Y-16804044D01*
X11013268Y-16804044D02*
X10994221Y-16794520D01*
X10994221Y-16794520D02*
X10984697Y-16784996D01*
X10984697Y-16784996D02*
X10975173Y-16765948D01*
X10975173Y-16765948D02*
X10965649Y-16727853D01*
X10965649Y-16727853D02*
X10965649Y-16680234D01*
X10965649Y-16680234D02*
X10975173Y-16642139D01*
X10975173Y-16642139D02*
X10984697Y-16623091D01*
X10984697Y-16623091D02*
X10994221Y-16613568D01*
X10994221Y-16613568D02*
X11013268Y-16604044D01*
X11260887Y-16604044D02*
X11165649Y-16604044D01*
X11165649Y-16604044D02*
X11156126Y-16699282D01*
X11156126Y-16699282D02*
X11165649Y-16689758D01*
X11165649Y-16689758D02*
X11184697Y-16680234D01*
X11184697Y-16680234D02*
X11232316Y-16680234D01*
X11232316Y-16680234D02*
X11251364Y-16689758D01*
X11251364Y-16689758D02*
X11260887Y-16699282D01*
X11260887Y-16699282D02*
X11270411Y-16718329D01*
X11270411Y-16718329D02*
X11270411Y-16765948D01*
X11270411Y-16765948D02*
X11260887Y-16784996D01*
X11260887Y-16784996D02*
X11251364Y-16794520D01*
X11251364Y-16794520D02*
X11232316Y-16804044D01*
X11232316Y-16804044D02*
X11184697Y-16804044D01*
X11184697Y-16804044D02*
X11165649Y-16794520D01*
X11165649Y-16794520D02*
X11156126Y-16784996D01*
X11365649Y-16804044D02*
X11403745Y-16804044D01*
X11403745Y-16804044D02*
X11422792Y-16794520D01*
X11422792Y-16794520D02*
X11432316Y-16784996D01*
X11432316Y-16784996D02*
X11451364Y-16756425D01*
X11451364Y-16756425D02*
X11460887Y-16718329D01*
X11460887Y-16718329D02*
X11460887Y-16642139D01*
X11460887Y-16642139D02*
X11451364Y-16623091D01*
X11451364Y-16623091D02*
X11441840Y-16613568D01*
X11441840Y-16613568D02*
X11422792Y-16604044D01*
X11422792Y-16604044D02*
X11384697Y-16604044D01*
X11384697Y-16604044D02*
X11365649Y-16613568D01*
X11365649Y-16613568D02*
X11356126Y-16623091D01*
X11356126Y-16623091D02*
X11346602Y-16642139D01*
X11346602Y-16642139D02*
X11346602Y-16689758D01*
X11346602Y-16689758D02*
X11356126Y-16708806D01*
X11356126Y-16708806D02*
X11365649Y-16718329D01*
X11365649Y-16718329D02*
X11384697Y-16727853D01*
X11384697Y-16727853D02*
X11422792Y-16727853D01*
X11422792Y-16727853D02*
X11441840Y-16718329D01*
X11441840Y-16718329D02*
X11451364Y-16708806D01*
X11451364Y-16708806D02*
X11460887Y-16689758D01*
X11651364Y-16804044D02*
X11537078Y-16804044D01*
X11594221Y-16804044D02*
X11594221Y-16604044D01*
X11594221Y-16604044D02*
X11575173Y-16632615D01*
X11575173Y-16632615D02*
X11556126Y-16651663D01*
X11556126Y-16651663D02*
X11537078Y-16661187D01*
X11727554Y-16604044D02*
X11727554Y-16642139D01*
X11803745Y-16604044D02*
X11803745Y-16642139D01*
X12098983Y-16880234D02*
X12089459Y-16870710D01*
X12089459Y-16870710D02*
X12070411Y-16842139D01*
X12070411Y-16842139D02*
X12060888Y-16823091D01*
X12060888Y-16823091D02*
X12051364Y-16794520D01*
X12051364Y-16794520D02*
X12041840Y-16746901D01*
X12041840Y-16746901D02*
X12041840Y-16708806D01*
X12041840Y-16708806D02*
X12051364Y-16661187D01*
X12051364Y-16661187D02*
X12060888Y-16632615D01*
X12060888Y-16632615D02*
X12070411Y-16613568D01*
X12070411Y-16613568D02*
X12089459Y-16584996D01*
X12089459Y-16584996D02*
X12098983Y-16575472D01*
X12165649Y-16623091D02*
X12175173Y-16613568D01*
X12175173Y-16613568D02*
X12194221Y-16604044D01*
X12194221Y-16604044D02*
X12241840Y-16604044D01*
X12241840Y-16604044D02*
X12260888Y-16613568D01*
X12260888Y-16613568D02*
X12270411Y-16623091D01*
X12270411Y-16623091D02*
X12279935Y-16642139D01*
X12279935Y-16642139D02*
X12279935Y-16661187D01*
X12279935Y-16661187D02*
X12270411Y-16689758D01*
X12270411Y-16689758D02*
X12156126Y-16804044D01*
X12156126Y-16804044D02*
X12279935Y-16804044D01*
X12518030Y-16804044D02*
X12518030Y-16604044D01*
X12603745Y-16804044D02*
X12603745Y-16699282D01*
X12603745Y-16699282D02*
X12594221Y-16680234D01*
X12594221Y-16680234D02*
X12575173Y-16670710D01*
X12575173Y-16670710D02*
X12546602Y-16670710D01*
X12546602Y-16670710D02*
X12527554Y-16680234D01*
X12527554Y-16680234D02*
X12518030Y-16689758D01*
X12727554Y-16804044D02*
X12708507Y-16794520D01*
X12708507Y-16794520D02*
X12698983Y-16784996D01*
X12698983Y-16784996D02*
X12689459Y-16765948D01*
X12689459Y-16765948D02*
X12689459Y-16708806D01*
X12689459Y-16708806D02*
X12698983Y-16689758D01*
X12698983Y-16689758D02*
X12708507Y-16680234D01*
X12708507Y-16680234D02*
X12727554Y-16670710D01*
X12727554Y-16670710D02*
X12756126Y-16670710D01*
X12756126Y-16670710D02*
X12775173Y-16680234D01*
X12775173Y-16680234D02*
X12784697Y-16689758D01*
X12784697Y-16689758D02*
X12794221Y-16708806D01*
X12794221Y-16708806D02*
X12794221Y-16765948D01*
X12794221Y-16765948D02*
X12784697Y-16784996D01*
X12784697Y-16784996D02*
X12775173Y-16794520D01*
X12775173Y-16794520D02*
X12756126Y-16804044D01*
X12756126Y-16804044D02*
X12727554Y-16804044D01*
X12908507Y-16804044D02*
X12889459Y-16794520D01*
X12889459Y-16794520D02*
X12879935Y-16775472D01*
X12879935Y-16775472D02*
X12879935Y-16604044D01*
X13060888Y-16794520D02*
X13041840Y-16804044D01*
X13041840Y-16804044D02*
X13003745Y-16804044D01*
X13003745Y-16804044D02*
X12984697Y-16794520D01*
X12984697Y-16794520D02*
X12975173Y-16775472D01*
X12975173Y-16775472D02*
X12975173Y-16699282D01*
X12975173Y-16699282D02*
X12984697Y-16680234D01*
X12984697Y-16680234D02*
X13003745Y-16670710D01*
X13003745Y-16670710D02*
X13041840Y-16670710D01*
X13041840Y-16670710D02*
X13060888Y-16680234D01*
X13060888Y-16680234D02*
X13070411Y-16699282D01*
X13070411Y-16699282D02*
X13070411Y-16718329D01*
X13070411Y-16718329D02*
X12975173Y-16737377D01*
X13146602Y-16794520D02*
X13165650Y-16804044D01*
X13165650Y-16804044D02*
X13203745Y-16804044D01*
X13203745Y-16804044D02*
X13222792Y-16794520D01*
X13222792Y-16794520D02*
X13232316Y-16775472D01*
X13232316Y-16775472D02*
X13232316Y-16765948D01*
X13232316Y-16765948D02*
X13222792Y-16746901D01*
X13222792Y-16746901D02*
X13203745Y-16737377D01*
X13203745Y-16737377D02*
X13175173Y-16737377D01*
X13175173Y-16737377D02*
X13156126Y-16727853D01*
X13156126Y-16727853D02*
X13146602Y-16708806D01*
X13146602Y-16708806D02*
X13146602Y-16699282D01*
X13146602Y-16699282D02*
X13156126Y-16680234D01*
X13156126Y-16680234D02*
X13175173Y-16670710D01*
X13175173Y-16670710D02*
X13203745Y-16670710D01*
X13203745Y-16670710D02*
X13222792Y-16680234D01*
X13298983Y-16880234D02*
X13308507Y-16870710D01*
X13308507Y-16870710D02*
X13327554Y-16842139D01*
X13327554Y-16842139D02*
X13337078Y-16823091D01*
X13337078Y-16823091D02*
X13346602Y-16794520D01*
X13346602Y-16794520D02*
X13356126Y-16746901D01*
X13356126Y-16746901D02*
X13356126Y-16708806D01*
X13356126Y-16708806D02*
X13346602Y-16661187D01*
X13346602Y-16661187D02*
X13337078Y-16632615D01*
X13337078Y-16632615D02*
X13327554Y-16613568D01*
X13327554Y-16613568D02*
X13308507Y-16584996D01*
X13308507Y-16584996D02*
X13298983Y-16575472D01*
X8323920Y-16882560D02*
X8523920Y-17082560D01*
X8523920Y-16882560D02*
X8323920Y-17082560D01*
X8423920Y-17082560D02*
X8523920Y-16982560D01*
X8423920Y-16882560D01*
X8323920Y-16982560D01*
X8423920Y-17082560D01*
X8775173Y-16893091D02*
X8784697Y-16883568D01*
X8784697Y-16883568D02*
X8803744Y-16874044D01*
X8803744Y-16874044D02*
X8851364Y-16874044D01*
X8851364Y-16874044D02*
X8870411Y-16883568D01*
X8870411Y-16883568D02*
X8879935Y-16893091D01*
X8879935Y-16893091D02*
X8889459Y-16912139D01*
X8889459Y-16912139D02*
X8889459Y-16931187D01*
X8889459Y-16931187D02*
X8879935Y-16959758D01*
X8879935Y-16959758D02*
X8765649Y-17074044D01*
X8765649Y-17074044D02*
X8889459Y-17074044D01*
X8975173Y-17054996D02*
X8984697Y-17064520D01*
X8984697Y-17064520D02*
X8975173Y-17074044D01*
X8975173Y-17074044D02*
X8965649Y-17064520D01*
X8965649Y-17064520D02*
X8975173Y-17054996D01*
X8975173Y-17054996D02*
X8975173Y-17074044D01*
X9108506Y-16874044D02*
X9127554Y-16874044D01*
X9127554Y-16874044D02*
X9146602Y-16883568D01*
X9146602Y-16883568D02*
X9156125Y-16893091D01*
X9156125Y-16893091D02*
X9165649Y-16912139D01*
X9165649Y-16912139D02*
X9175173Y-16950234D01*
X9175173Y-16950234D02*
X9175173Y-16997853D01*
X9175173Y-16997853D02*
X9165649Y-17035949D01*
X9165649Y-17035949D02*
X9156125Y-17054996D01*
X9156125Y-17054996D02*
X9146602Y-17064520D01*
X9146602Y-17064520D02*
X9127554Y-17074044D01*
X9127554Y-17074044D02*
X9108506Y-17074044D01*
X9108506Y-17074044D02*
X9089459Y-17064520D01*
X9089459Y-17064520D02*
X9079935Y-17054996D01*
X9079935Y-17054996D02*
X9070411Y-17035949D01*
X9070411Y-17035949D02*
X9060887Y-16997853D01*
X9060887Y-16997853D02*
X9060887Y-16950234D01*
X9060887Y-16950234D02*
X9070411Y-16912139D01*
X9070411Y-16912139D02*
X9079935Y-16893091D01*
X9079935Y-16893091D02*
X9089459Y-16883568D01*
X9089459Y-16883568D02*
X9108506Y-16874044D01*
X9298983Y-16874044D02*
X9318030Y-16874044D01*
X9318030Y-16874044D02*
X9337078Y-16883568D01*
X9337078Y-16883568D02*
X9346602Y-16893091D01*
X9346602Y-16893091D02*
X9356125Y-16912139D01*
X9356125Y-16912139D02*
X9365649Y-16950234D01*
X9365649Y-16950234D02*
X9365649Y-16997853D01*
X9365649Y-16997853D02*
X9356125Y-17035949D01*
X9356125Y-17035949D02*
X9346602Y-17054996D01*
X9346602Y-17054996D02*
X9337078Y-17064520D01*
X9337078Y-17064520D02*
X9318030Y-17074044D01*
X9318030Y-17074044D02*
X9298983Y-17074044D01*
X9298983Y-17074044D02*
X9279935Y-17064520D01*
X9279935Y-17064520D02*
X9270411Y-17054996D01*
X9270411Y-17054996D02*
X9260887Y-17035949D01*
X9260887Y-17035949D02*
X9251364Y-16997853D01*
X9251364Y-16997853D02*
X9251364Y-16950234D01*
X9251364Y-16950234D02*
X9260887Y-16912139D01*
X9260887Y-16912139D02*
X9270411Y-16893091D01*
X9270411Y-16893091D02*
X9279935Y-16883568D01*
X9279935Y-16883568D02*
X9298983Y-16874044D01*
X9489459Y-16874044D02*
X9508506Y-16874044D01*
X9508506Y-16874044D02*
X9527554Y-16883568D01*
X9527554Y-16883568D02*
X9537078Y-16893091D01*
X9537078Y-16893091D02*
X9546602Y-16912139D01*
X9546602Y-16912139D02*
X9556125Y-16950234D01*
X9556125Y-16950234D02*
X9556125Y-16997853D01*
X9556125Y-16997853D02*
X9546602Y-17035949D01*
X9546602Y-17035949D02*
X9537078Y-17054996D01*
X9537078Y-17054996D02*
X9527554Y-17064520D01*
X9527554Y-17064520D02*
X9508506Y-17074044D01*
X9508506Y-17074044D02*
X9489459Y-17074044D01*
X9489459Y-17074044D02*
X9470411Y-17064520D01*
X9470411Y-17064520D02*
X9460887Y-17054996D01*
X9460887Y-17054996D02*
X9451364Y-17035949D01*
X9451364Y-17035949D02*
X9441840Y-16997853D01*
X9441840Y-16997853D02*
X9441840Y-16950234D01*
X9441840Y-16950234D02*
X9451364Y-16912139D01*
X9451364Y-16912139D02*
X9460887Y-16893091D01*
X9460887Y-16893091D02*
X9470411Y-16883568D01*
X9470411Y-16883568D02*
X9489459Y-16874044D01*
X9641840Y-17074044D02*
X9641840Y-16940710D01*
X9641840Y-16959758D02*
X9651364Y-16950234D01*
X9651364Y-16950234D02*
X9670411Y-16940710D01*
X9670411Y-16940710D02*
X9698983Y-16940710D01*
X9698983Y-16940710D02*
X9718030Y-16950234D01*
X9718030Y-16950234D02*
X9727554Y-16969282D01*
X9727554Y-16969282D02*
X9727554Y-17074044D01*
X9727554Y-16969282D02*
X9737078Y-16950234D01*
X9737078Y-16950234D02*
X9756125Y-16940710D01*
X9756125Y-16940710D02*
X9784697Y-16940710D01*
X9784697Y-16940710D02*
X9803745Y-16950234D01*
X9803745Y-16950234D02*
X9813268Y-16969282D01*
X9813268Y-16969282D02*
X9813268Y-17074044D01*
X9908506Y-17074044D02*
X9908506Y-16940710D01*
X9908506Y-16959758D02*
X9918030Y-16950234D01*
X9918030Y-16950234D02*
X9937078Y-16940710D01*
X9937078Y-16940710D02*
X9965649Y-16940710D01*
X9965649Y-16940710D02*
X9984697Y-16950234D01*
X9984697Y-16950234D02*
X9994221Y-16969282D01*
X9994221Y-16969282D02*
X9994221Y-17074044D01*
X9994221Y-16969282D02*
X10003745Y-16950234D01*
X10003745Y-16950234D02*
X10022792Y-16940710D01*
X10022792Y-16940710D02*
X10051364Y-16940710D01*
X10051364Y-16940710D02*
X10070411Y-16950234D01*
X10070411Y-16950234D02*
X10079935Y-16969282D01*
X10079935Y-16969282D02*
X10079935Y-17074044D01*
X10470411Y-16864520D02*
X10298983Y-17121663D01*
X10727554Y-16874044D02*
X10746602Y-16874044D01*
X10746602Y-16874044D02*
X10765649Y-16883568D01*
X10765649Y-16883568D02*
X10775173Y-16893091D01*
X10775173Y-16893091D02*
X10784697Y-16912139D01*
X10784697Y-16912139D02*
X10794221Y-16950234D01*
X10794221Y-16950234D02*
X10794221Y-16997853D01*
X10794221Y-16997853D02*
X10784697Y-17035949D01*
X10784697Y-17035949D02*
X10775173Y-17054996D01*
X10775173Y-17054996D02*
X10765649Y-17064520D01*
X10765649Y-17064520D02*
X10746602Y-17074044D01*
X10746602Y-17074044D02*
X10727554Y-17074044D01*
X10727554Y-17074044D02*
X10708507Y-17064520D01*
X10708507Y-17064520D02*
X10698983Y-17054996D01*
X10698983Y-17054996D02*
X10689459Y-17035949D01*
X10689459Y-17035949D02*
X10679935Y-16997853D01*
X10679935Y-16997853D02*
X10679935Y-16950234D01*
X10679935Y-16950234D02*
X10689459Y-16912139D01*
X10689459Y-16912139D02*
X10698983Y-16893091D01*
X10698983Y-16893091D02*
X10708507Y-16883568D01*
X10708507Y-16883568D02*
X10727554Y-16874044D01*
X10879935Y-17054996D02*
X10889459Y-17064520D01*
X10889459Y-17064520D02*
X10879935Y-17074044D01*
X10879935Y-17074044D02*
X10870411Y-17064520D01*
X10870411Y-17064520D02*
X10879935Y-17054996D01*
X10879935Y-17054996D02*
X10879935Y-17074044D01*
X11013268Y-16874044D02*
X11032316Y-16874044D01*
X11032316Y-16874044D02*
X11051364Y-16883568D01*
X11051364Y-16883568D02*
X11060888Y-16893091D01*
X11060888Y-16893091D02*
X11070411Y-16912139D01*
X11070411Y-16912139D02*
X11079935Y-16950234D01*
X11079935Y-16950234D02*
X11079935Y-16997853D01*
X11079935Y-16997853D02*
X11070411Y-17035949D01*
X11070411Y-17035949D02*
X11060888Y-17054996D01*
X11060888Y-17054996D02*
X11051364Y-17064520D01*
X11051364Y-17064520D02*
X11032316Y-17074044D01*
X11032316Y-17074044D02*
X11013268Y-17074044D01*
X11013268Y-17074044D02*
X10994221Y-17064520D01*
X10994221Y-17064520D02*
X10984697Y-17054996D01*
X10984697Y-17054996D02*
X10975173Y-17035949D01*
X10975173Y-17035949D02*
X10965649Y-16997853D01*
X10965649Y-16997853D02*
X10965649Y-16950234D01*
X10965649Y-16950234D02*
X10975173Y-16912139D01*
X10975173Y-16912139D02*
X10984697Y-16893091D01*
X10984697Y-16893091D02*
X10994221Y-16883568D01*
X10994221Y-16883568D02*
X11013268Y-16874044D01*
X11146602Y-16874044D02*
X11279935Y-16874044D01*
X11279935Y-16874044D02*
X11194221Y-17074044D01*
X11384697Y-16959758D02*
X11365649Y-16950234D01*
X11365649Y-16950234D02*
X11356126Y-16940710D01*
X11356126Y-16940710D02*
X11346602Y-16921663D01*
X11346602Y-16921663D02*
X11346602Y-16912139D01*
X11346602Y-16912139D02*
X11356126Y-16893091D01*
X11356126Y-16893091D02*
X11365649Y-16883568D01*
X11365649Y-16883568D02*
X11384697Y-16874044D01*
X11384697Y-16874044D02*
X11422792Y-16874044D01*
X11422792Y-16874044D02*
X11441840Y-16883568D01*
X11441840Y-16883568D02*
X11451364Y-16893091D01*
X11451364Y-16893091D02*
X11460887Y-16912139D01*
X11460887Y-16912139D02*
X11460887Y-16921663D01*
X11460887Y-16921663D02*
X11451364Y-16940710D01*
X11451364Y-16940710D02*
X11441840Y-16950234D01*
X11441840Y-16950234D02*
X11422792Y-16959758D01*
X11422792Y-16959758D02*
X11384697Y-16959758D01*
X11384697Y-16959758D02*
X11365649Y-16969282D01*
X11365649Y-16969282D02*
X11356126Y-16978806D01*
X11356126Y-16978806D02*
X11346602Y-16997853D01*
X11346602Y-16997853D02*
X11346602Y-17035949D01*
X11346602Y-17035949D02*
X11356126Y-17054996D01*
X11356126Y-17054996D02*
X11365649Y-17064520D01*
X11365649Y-17064520D02*
X11384697Y-17074044D01*
X11384697Y-17074044D02*
X11422792Y-17074044D01*
X11422792Y-17074044D02*
X11441840Y-17064520D01*
X11441840Y-17064520D02*
X11451364Y-17054996D01*
X11451364Y-17054996D02*
X11460887Y-17035949D01*
X11460887Y-17035949D02*
X11460887Y-16997853D01*
X11460887Y-16997853D02*
X11451364Y-16978806D01*
X11451364Y-16978806D02*
X11441840Y-16969282D01*
X11441840Y-16969282D02*
X11422792Y-16959758D01*
X11527554Y-16874044D02*
X11660887Y-16874044D01*
X11660887Y-16874044D02*
X11575173Y-17074044D01*
X11727554Y-16874044D02*
X11727554Y-16912139D01*
X11803745Y-16874044D02*
X11803745Y-16912139D01*
X12098983Y-17150234D02*
X12089459Y-17140710D01*
X12089459Y-17140710D02*
X12070411Y-17112139D01*
X12070411Y-17112139D02*
X12060888Y-17093091D01*
X12060888Y-17093091D02*
X12051364Y-17064520D01*
X12051364Y-17064520D02*
X12041840Y-17016901D01*
X12041840Y-17016901D02*
X12041840Y-16978806D01*
X12041840Y-16978806D02*
X12051364Y-16931187D01*
X12051364Y-16931187D02*
X12060888Y-16902615D01*
X12060888Y-16902615D02*
X12070411Y-16883568D01*
X12070411Y-16883568D02*
X12089459Y-16854996D01*
X12089459Y-16854996D02*
X12098983Y-16845472D01*
X12213268Y-16874044D02*
X12232316Y-16874044D01*
X12232316Y-16874044D02*
X12251364Y-16883568D01*
X12251364Y-16883568D02*
X12260888Y-16893091D01*
X12260888Y-16893091D02*
X12270411Y-16912139D01*
X12270411Y-16912139D02*
X12279935Y-16950234D01*
X12279935Y-16950234D02*
X12279935Y-16997853D01*
X12279935Y-16997853D02*
X12270411Y-17035949D01*
X12270411Y-17035949D02*
X12260888Y-17054996D01*
X12260888Y-17054996D02*
X12251364Y-17064520D01*
X12251364Y-17064520D02*
X12232316Y-17074044D01*
X12232316Y-17074044D02*
X12213268Y-17074044D01*
X12213268Y-17074044D02*
X12194221Y-17064520D01*
X12194221Y-17064520D02*
X12184697Y-17054996D01*
X12184697Y-17054996D02*
X12175173Y-17035949D01*
X12175173Y-17035949D02*
X12165649Y-16997853D01*
X12165649Y-16997853D02*
X12165649Y-16950234D01*
X12165649Y-16950234D02*
X12175173Y-16912139D01*
X12175173Y-16912139D02*
X12184697Y-16893091D01*
X12184697Y-16893091D02*
X12194221Y-16883568D01*
X12194221Y-16883568D02*
X12213268Y-16874044D01*
X12518030Y-17074044D02*
X12518030Y-16874044D01*
X12603745Y-17074044D02*
X12603745Y-16969282D01*
X12603745Y-16969282D02*
X12594221Y-16950234D01*
X12594221Y-16950234D02*
X12575173Y-16940710D01*
X12575173Y-16940710D02*
X12546602Y-16940710D01*
X12546602Y-16940710D02*
X12527554Y-16950234D01*
X12527554Y-16950234D02*
X12518030Y-16959758D01*
X12727554Y-17074044D02*
X12708507Y-17064520D01*
X12708507Y-17064520D02*
X12698983Y-17054996D01*
X12698983Y-17054996D02*
X12689459Y-17035949D01*
X12689459Y-17035949D02*
X12689459Y-16978806D01*
X12689459Y-16978806D02*
X12698983Y-16959758D01*
X12698983Y-16959758D02*
X12708507Y-16950234D01*
X12708507Y-16950234D02*
X12727554Y-16940710D01*
X12727554Y-16940710D02*
X12756126Y-16940710D01*
X12756126Y-16940710D02*
X12775173Y-16950234D01*
X12775173Y-16950234D02*
X12784697Y-16959758D01*
X12784697Y-16959758D02*
X12794221Y-16978806D01*
X12794221Y-16978806D02*
X12794221Y-17035949D01*
X12794221Y-17035949D02*
X12784697Y-17054996D01*
X12784697Y-17054996D02*
X12775173Y-17064520D01*
X12775173Y-17064520D02*
X12756126Y-17074044D01*
X12756126Y-17074044D02*
X12727554Y-17074044D01*
X12908507Y-17074044D02*
X12889459Y-17064520D01*
X12889459Y-17064520D02*
X12879935Y-17045472D01*
X12879935Y-17045472D02*
X12879935Y-16874044D01*
X13060888Y-17064520D02*
X13041840Y-17074044D01*
X13041840Y-17074044D02*
X13003745Y-17074044D01*
X13003745Y-17074044D02*
X12984697Y-17064520D01*
X12984697Y-17064520D02*
X12975173Y-17045472D01*
X12975173Y-17045472D02*
X12975173Y-16969282D01*
X12975173Y-16969282D02*
X12984697Y-16950234D01*
X12984697Y-16950234D02*
X13003745Y-16940710D01*
X13003745Y-16940710D02*
X13041840Y-16940710D01*
X13041840Y-16940710D02*
X13060888Y-16950234D01*
X13060888Y-16950234D02*
X13070411Y-16969282D01*
X13070411Y-16969282D02*
X13070411Y-16988330D01*
X13070411Y-16988330D02*
X12975173Y-17007377D01*
X13146602Y-17064520D02*
X13165650Y-17074044D01*
X13165650Y-17074044D02*
X13203745Y-17074044D01*
X13203745Y-17074044D02*
X13222792Y-17064520D01*
X13222792Y-17064520D02*
X13232316Y-17045472D01*
X13232316Y-17045472D02*
X13232316Y-17035949D01*
X13232316Y-17035949D02*
X13222792Y-17016901D01*
X13222792Y-17016901D02*
X13203745Y-17007377D01*
X13203745Y-17007377D02*
X13175173Y-17007377D01*
X13175173Y-17007377D02*
X13156126Y-16997853D01*
X13156126Y-16997853D02*
X13146602Y-16978806D01*
X13146602Y-16978806D02*
X13146602Y-16969282D01*
X13146602Y-16969282D02*
X13156126Y-16950234D01*
X13156126Y-16950234D02*
X13175173Y-16940710D01*
X13175173Y-16940710D02*
X13203745Y-16940710D01*
X13203745Y-16940710D02*
X13222792Y-16950234D01*
X13470412Y-16997853D02*
X13622793Y-16997853D01*
X13546602Y-17074044D02*
X13546602Y-16921663D01*
X13851364Y-16874044D02*
X13975173Y-16874044D01*
X13975173Y-16874044D02*
X13908507Y-16950234D01*
X13908507Y-16950234D02*
X13937078Y-16950234D01*
X13937078Y-16950234D02*
X13956126Y-16959758D01*
X13956126Y-16959758D02*
X13965650Y-16969282D01*
X13965650Y-16969282D02*
X13975173Y-16988330D01*
X13975173Y-16988330D02*
X13975173Y-17035949D01*
X13975173Y-17035949D02*
X13965650Y-17054996D01*
X13965650Y-17054996D02*
X13956126Y-17064520D01*
X13956126Y-17064520D02*
X13937078Y-17074044D01*
X13937078Y-17074044D02*
X13879935Y-17074044D01*
X13879935Y-17074044D02*
X13860888Y-17064520D01*
X13860888Y-17064520D02*
X13851364Y-17054996D01*
X14203745Y-17064520D02*
X14222793Y-17074044D01*
X14222793Y-17074044D02*
X14260888Y-17074044D01*
X14260888Y-17074044D02*
X14279935Y-17064520D01*
X14279935Y-17064520D02*
X14289459Y-17045472D01*
X14289459Y-17045472D02*
X14289459Y-17035949D01*
X14289459Y-17035949D02*
X14279935Y-17016901D01*
X14279935Y-17016901D02*
X14260888Y-17007377D01*
X14260888Y-17007377D02*
X14232316Y-17007377D01*
X14232316Y-17007377D02*
X14213269Y-16997853D01*
X14213269Y-16997853D02*
X14203745Y-16978806D01*
X14203745Y-16978806D02*
X14203745Y-16969282D01*
X14203745Y-16969282D02*
X14213269Y-16950234D01*
X14213269Y-16950234D02*
X14232316Y-16940710D01*
X14232316Y-16940710D02*
X14260888Y-16940710D01*
X14260888Y-16940710D02*
X14279935Y-16950234D01*
X14403745Y-17074044D02*
X14384697Y-17064520D01*
X14384697Y-17064520D02*
X14375174Y-17045472D01*
X14375174Y-17045472D02*
X14375174Y-16874044D01*
X14508507Y-17074044D02*
X14489459Y-17064520D01*
X14489459Y-17064520D02*
X14479935Y-17054996D01*
X14479935Y-17054996D02*
X14470412Y-17035949D01*
X14470412Y-17035949D02*
X14470412Y-16978806D01*
X14470412Y-16978806D02*
X14479935Y-16959758D01*
X14479935Y-16959758D02*
X14489459Y-16950234D01*
X14489459Y-16950234D02*
X14508507Y-16940710D01*
X14508507Y-16940710D02*
X14537078Y-16940710D01*
X14537078Y-16940710D02*
X14556126Y-16950234D01*
X14556126Y-16950234D02*
X14565650Y-16959758D01*
X14565650Y-16959758D02*
X14575174Y-16978806D01*
X14575174Y-16978806D02*
X14575174Y-17035949D01*
X14575174Y-17035949D02*
X14565650Y-17054996D01*
X14565650Y-17054996D02*
X14556126Y-17064520D01*
X14556126Y-17064520D02*
X14537078Y-17074044D01*
X14537078Y-17074044D02*
X14508507Y-17074044D01*
X14632316Y-16940710D02*
X14708507Y-16940710D01*
X14660888Y-16874044D02*
X14660888Y-17045472D01*
X14660888Y-17045472D02*
X14670412Y-17064520D01*
X14670412Y-17064520D02*
X14689459Y-17074044D01*
X14689459Y-17074044D02*
X14708507Y-17074044D01*
X14765650Y-17064520D02*
X14784697Y-17074044D01*
X14784697Y-17074044D02*
X14822793Y-17074044D01*
X14822793Y-17074044D02*
X14841840Y-17064520D01*
X14841840Y-17064520D02*
X14851364Y-17045472D01*
X14851364Y-17045472D02*
X14851364Y-17035949D01*
X14851364Y-17035949D02*
X14841840Y-17016901D01*
X14841840Y-17016901D02*
X14822793Y-17007377D01*
X14822793Y-17007377D02*
X14794221Y-17007377D01*
X14794221Y-17007377D02*
X14775174Y-16997853D01*
X14775174Y-16997853D02*
X14765650Y-16978806D01*
X14765650Y-16978806D02*
X14765650Y-16969282D01*
X14765650Y-16969282D02*
X14775174Y-16950234D01*
X14775174Y-16950234D02*
X14794221Y-16940710D01*
X14794221Y-16940710D02*
X14822793Y-16940710D01*
X14822793Y-16940710D02*
X14841840Y-16950234D01*
X14918031Y-17150234D02*
X14927555Y-17140710D01*
X14927555Y-17140710D02*
X14946602Y-17112139D01*
X14946602Y-17112139D02*
X14956126Y-17093091D01*
X14956126Y-17093091D02*
X14965650Y-17064520D01*
X14965650Y-17064520D02*
X14975174Y-17016901D01*
X14975174Y-17016901D02*
X14975174Y-16978806D01*
X14975174Y-16978806D02*
X14965650Y-16931187D01*
X14965650Y-16931187D02*
X14956126Y-16902615D01*
X14956126Y-16902615D02*
X14946602Y-16883568D01*
X14946602Y-16883568D02*
X14927555Y-16854996D01*
X14927555Y-16854996D02*
X14918031Y-16845472D01*
D16*
X8463920Y-17242560D02*
X8463920Y-17362560D01*
X8403920Y-17302560D02*
X8523920Y-17302560D01*
X8523920Y-17302560D02*
G75*
G03*
X8523920Y-17302560I-60000J0D01*
G01*
D11*
X8889459Y-17394044D02*
X8775173Y-17394044D01*
X8832316Y-17394044D02*
X8832316Y-17194044D01*
X8832316Y-17194044D02*
X8813268Y-17222615D01*
X8813268Y-17222615D02*
X8794221Y-17241663D01*
X8794221Y-17241663D02*
X8775173Y-17251187D01*
X8975173Y-17374996D02*
X8984697Y-17384520D01*
X8984697Y-17384520D02*
X8975173Y-17394044D01*
X8975173Y-17394044D02*
X8965649Y-17384520D01*
X8965649Y-17384520D02*
X8975173Y-17374996D01*
X8975173Y-17374996D02*
X8975173Y-17394044D01*
X9060887Y-17213091D02*
X9070411Y-17203568D01*
X9070411Y-17203568D02*
X9089459Y-17194044D01*
X9089459Y-17194044D02*
X9137078Y-17194044D01*
X9137078Y-17194044D02*
X9156125Y-17203568D01*
X9156125Y-17203568D02*
X9165649Y-17213091D01*
X9165649Y-17213091D02*
X9175173Y-17232139D01*
X9175173Y-17232139D02*
X9175173Y-17251187D01*
X9175173Y-17251187D02*
X9165649Y-17279758D01*
X9165649Y-17279758D02*
X9051364Y-17394044D01*
X9051364Y-17394044D02*
X9175173Y-17394044D01*
X9298983Y-17194044D02*
X9318030Y-17194044D01*
X9318030Y-17194044D02*
X9337078Y-17203568D01*
X9337078Y-17203568D02*
X9346602Y-17213091D01*
X9346602Y-17213091D02*
X9356125Y-17232139D01*
X9356125Y-17232139D02*
X9365649Y-17270234D01*
X9365649Y-17270234D02*
X9365649Y-17317853D01*
X9365649Y-17317853D02*
X9356125Y-17355949D01*
X9356125Y-17355949D02*
X9346602Y-17374996D01*
X9346602Y-17374996D02*
X9337078Y-17384520D01*
X9337078Y-17384520D02*
X9318030Y-17394044D01*
X9318030Y-17394044D02*
X9298983Y-17394044D01*
X9298983Y-17394044D02*
X9279935Y-17384520D01*
X9279935Y-17384520D02*
X9270411Y-17374996D01*
X9270411Y-17374996D02*
X9260887Y-17355949D01*
X9260887Y-17355949D02*
X9251364Y-17317853D01*
X9251364Y-17317853D02*
X9251364Y-17270234D01*
X9251364Y-17270234D02*
X9260887Y-17232139D01*
X9260887Y-17232139D02*
X9270411Y-17213091D01*
X9270411Y-17213091D02*
X9279935Y-17203568D01*
X9279935Y-17203568D02*
X9298983Y-17194044D01*
X9489459Y-17194044D02*
X9508506Y-17194044D01*
X9508506Y-17194044D02*
X9527554Y-17203568D01*
X9527554Y-17203568D02*
X9537078Y-17213091D01*
X9537078Y-17213091D02*
X9546602Y-17232139D01*
X9546602Y-17232139D02*
X9556125Y-17270234D01*
X9556125Y-17270234D02*
X9556125Y-17317853D01*
X9556125Y-17317853D02*
X9546602Y-17355949D01*
X9546602Y-17355949D02*
X9537078Y-17374996D01*
X9537078Y-17374996D02*
X9527554Y-17384520D01*
X9527554Y-17384520D02*
X9508506Y-17394044D01*
X9508506Y-17394044D02*
X9489459Y-17394044D01*
X9489459Y-17394044D02*
X9470411Y-17384520D01*
X9470411Y-17384520D02*
X9460887Y-17374996D01*
X9460887Y-17374996D02*
X9451364Y-17355949D01*
X9451364Y-17355949D02*
X9441840Y-17317853D01*
X9441840Y-17317853D02*
X9441840Y-17270234D01*
X9441840Y-17270234D02*
X9451364Y-17232139D01*
X9451364Y-17232139D02*
X9460887Y-17213091D01*
X9460887Y-17213091D02*
X9470411Y-17203568D01*
X9470411Y-17203568D02*
X9489459Y-17194044D01*
X9641840Y-17394044D02*
X9641840Y-17260710D01*
X9641840Y-17279758D02*
X9651364Y-17270234D01*
X9651364Y-17270234D02*
X9670411Y-17260710D01*
X9670411Y-17260710D02*
X9698983Y-17260710D01*
X9698983Y-17260710D02*
X9718030Y-17270234D01*
X9718030Y-17270234D02*
X9727554Y-17289282D01*
X9727554Y-17289282D02*
X9727554Y-17394044D01*
X9727554Y-17289282D02*
X9737078Y-17270234D01*
X9737078Y-17270234D02*
X9756125Y-17260710D01*
X9756125Y-17260710D02*
X9784697Y-17260710D01*
X9784697Y-17260710D02*
X9803745Y-17270234D01*
X9803745Y-17270234D02*
X9813268Y-17289282D01*
X9813268Y-17289282D02*
X9813268Y-17394044D01*
X9908506Y-17394044D02*
X9908506Y-17260710D01*
X9908506Y-17279758D02*
X9918030Y-17270234D01*
X9918030Y-17270234D02*
X9937078Y-17260710D01*
X9937078Y-17260710D02*
X9965649Y-17260710D01*
X9965649Y-17260710D02*
X9984697Y-17270234D01*
X9984697Y-17270234D02*
X9994221Y-17289282D01*
X9994221Y-17289282D02*
X9994221Y-17394044D01*
X9994221Y-17289282D02*
X10003745Y-17270234D01*
X10003745Y-17270234D02*
X10022792Y-17260710D01*
X10022792Y-17260710D02*
X10051364Y-17260710D01*
X10051364Y-17260710D02*
X10070411Y-17270234D01*
X10070411Y-17270234D02*
X10079935Y-17289282D01*
X10079935Y-17289282D02*
X10079935Y-17394044D01*
X10470411Y-17184520D02*
X10298983Y-17441663D01*
X10727554Y-17194044D02*
X10746602Y-17194044D01*
X10746602Y-17194044D02*
X10765649Y-17203568D01*
X10765649Y-17203568D02*
X10775173Y-17213091D01*
X10775173Y-17213091D02*
X10784697Y-17232139D01*
X10784697Y-17232139D02*
X10794221Y-17270234D01*
X10794221Y-17270234D02*
X10794221Y-17317853D01*
X10794221Y-17317853D02*
X10784697Y-17355949D01*
X10784697Y-17355949D02*
X10775173Y-17374996D01*
X10775173Y-17374996D02*
X10765649Y-17384520D01*
X10765649Y-17384520D02*
X10746602Y-17394044D01*
X10746602Y-17394044D02*
X10727554Y-17394044D01*
X10727554Y-17394044D02*
X10708507Y-17384520D01*
X10708507Y-17384520D02*
X10698983Y-17374996D01*
X10698983Y-17374996D02*
X10689459Y-17355949D01*
X10689459Y-17355949D02*
X10679935Y-17317853D01*
X10679935Y-17317853D02*
X10679935Y-17270234D01*
X10679935Y-17270234D02*
X10689459Y-17232139D01*
X10689459Y-17232139D02*
X10698983Y-17213091D01*
X10698983Y-17213091D02*
X10708507Y-17203568D01*
X10708507Y-17203568D02*
X10727554Y-17194044D01*
X10879935Y-17374996D02*
X10889459Y-17384520D01*
X10889459Y-17384520D02*
X10879935Y-17394044D01*
X10879935Y-17394044D02*
X10870411Y-17384520D01*
X10870411Y-17384520D02*
X10879935Y-17374996D01*
X10879935Y-17374996D02*
X10879935Y-17394044D01*
X11013268Y-17194044D02*
X11032316Y-17194044D01*
X11032316Y-17194044D02*
X11051364Y-17203568D01*
X11051364Y-17203568D02*
X11060888Y-17213091D01*
X11060888Y-17213091D02*
X11070411Y-17232139D01*
X11070411Y-17232139D02*
X11079935Y-17270234D01*
X11079935Y-17270234D02*
X11079935Y-17317853D01*
X11079935Y-17317853D02*
X11070411Y-17355949D01*
X11070411Y-17355949D02*
X11060888Y-17374996D01*
X11060888Y-17374996D02*
X11051364Y-17384520D01*
X11051364Y-17384520D02*
X11032316Y-17394044D01*
X11032316Y-17394044D02*
X11013268Y-17394044D01*
X11013268Y-17394044D02*
X10994221Y-17384520D01*
X10994221Y-17384520D02*
X10984697Y-17374996D01*
X10984697Y-17374996D02*
X10975173Y-17355949D01*
X10975173Y-17355949D02*
X10965649Y-17317853D01*
X10965649Y-17317853D02*
X10965649Y-17270234D01*
X10965649Y-17270234D02*
X10975173Y-17232139D01*
X10975173Y-17232139D02*
X10984697Y-17213091D01*
X10984697Y-17213091D02*
X10994221Y-17203568D01*
X10994221Y-17203568D02*
X11013268Y-17194044D01*
X11251364Y-17260710D02*
X11251364Y-17394044D01*
X11203745Y-17184520D02*
X11156126Y-17327377D01*
X11156126Y-17327377D02*
X11279935Y-17327377D01*
X11337078Y-17194044D02*
X11470411Y-17194044D01*
X11470411Y-17194044D02*
X11384697Y-17394044D01*
X11537078Y-17213091D02*
X11546602Y-17203568D01*
X11546602Y-17203568D02*
X11565649Y-17194044D01*
X11565649Y-17194044D02*
X11613268Y-17194044D01*
X11613268Y-17194044D02*
X11632316Y-17203568D01*
X11632316Y-17203568D02*
X11641840Y-17213091D01*
X11641840Y-17213091D02*
X11651364Y-17232139D01*
X11651364Y-17232139D02*
X11651364Y-17251187D01*
X11651364Y-17251187D02*
X11641840Y-17279758D01*
X11641840Y-17279758D02*
X11527554Y-17394044D01*
X11527554Y-17394044D02*
X11651364Y-17394044D01*
X11727554Y-17194044D02*
X11727554Y-17232139D01*
X11803745Y-17194044D02*
X11803745Y-17232139D01*
X12098983Y-17470234D02*
X12089459Y-17460710D01*
X12089459Y-17460710D02*
X12070411Y-17432139D01*
X12070411Y-17432139D02*
X12060888Y-17413091D01*
X12060888Y-17413091D02*
X12051364Y-17384520D01*
X12051364Y-17384520D02*
X12041840Y-17336901D01*
X12041840Y-17336901D02*
X12041840Y-17298806D01*
X12041840Y-17298806D02*
X12051364Y-17251187D01*
X12051364Y-17251187D02*
X12060888Y-17222615D01*
X12060888Y-17222615D02*
X12070411Y-17203568D01*
X12070411Y-17203568D02*
X12089459Y-17174996D01*
X12089459Y-17174996D02*
X12098983Y-17165472D01*
X12270411Y-17194044D02*
X12175173Y-17194044D01*
X12175173Y-17194044D02*
X12165649Y-17289282D01*
X12165649Y-17289282D02*
X12175173Y-17279758D01*
X12175173Y-17279758D02*
X12194221Y-17270234D01*
X12194221Y-17270234D02*
X12241840Y-17270234D01*
X12241840Y-17270234D02*
X12260888Y-17279758D01*
X12260888Y-17279758D02*
X12270411Y-17289282D01*
X12270411Y-17289282D02*
X12279935Y-17308330D01*
X12279935Y-17308330D02*
X12279935Y-17355949D01*
X12279935Y-17355949D02*
X12270411Y-17374996D01*
X12270411Y-17374996D02*
X12260888Y-17384520D01*
X12260888Y-17384520D02*
X12241840Y-17394044D01*
X12241840Y-17394044D02*
X12194221Y-17394044D01*
X12194221Y-17394044D02*
X12175173Y-17384520D01*
X12175173Y-17384520D02*
X12165649Y-17374996D01*
X12518030Y-17394044D02*
X12518030Y-17194044D01*
X12603745Y-17394044D02*
X12603745Y-17289282D01*
X12603745Y-17289282D02*
X12594221Y-17270234D01*
X12594221Y-17270234D02*
X12575173Y-17260710D01*
X12575173Y-17260710D02*
X12546602Y-17260710D01*
X12546602Y-17260710D02*
X12527554Y-17270234D01*
X12527554Y-17270234D02*
X12518030Y-17279758D01*
X12727554Y-17394044D02*
X12708507Y-17384520D01*
X12708507Y-17384520D02*
X12698983Y-17374996D01*
X12698983Y-17374996D02*
X12689459Y-17355949D01*
X12689459Y-17355949D02*
X12689459Y-17298806D01*
X12689459Y-17298806D02*
X12698983Y-17279758D01*
X12698983Y-17279758D02*
X12708507Y-17270234D01*
X12708507Y-17270234D02*
X12727554Y-17260710D01*
X12727554Y-17260710D02*
X12756126Y-17260710D01*
X12756126Y-17260710D02*
X12775173Y-17270234D01*
X12775173Y-17270234D02*
X12784697Y-17279758D01*
X12784697Y-17279758D02*
X12794221Y-17298806D01*
X12794221Y-17298806D02*
X12794221Y-17355949D01*
X12794221Y-17355949D02*
X12784697Y-17374996D01*
X12784697Y-17374996D02*
X12775173Y-17384520D01*
X12775173Y-17384520D02*
X12756126Y-17394044D01*
X12756126Y-17394044D02*
X12727554Y-17394044D01*
X12908507Y-17394044D02*
X12889459Y-17384520D01*
X12889459Y-17384520D02*
X12879935Y-17365472D01*
X12879935Y-17365472D02*
X12879935Y-17194044D01*
X13060888Y-17384520D02*
X13041840Y-17394044D01*
X13041840Y-17394044D02*
X13003745Y-17394044D01*
X13003745Y-17394044D02*
X12984697Y-17384520D01*
X12984697Y-17384520D02*
X12975173Y-17365472D01*
X12975173Y-17365472D02*
X12975173Y-17289282D01*
X12975173Y-17289282D02*
X12984697Y-17270234D01*
X12984697Y-17270234D02*
X13003745Y-17260710D01*
X13003745Y-17260710D02*
X13041840Y-17260710D01*
X13041840Y-17260710D02*
X13060888Y-17270234D01*
X13060888Y-17270234D02*
X13070411Y-17289282D01*
X13070411Y-17289282D02*
X13070411Y-17308330D01*
X13070411Y-17308330D02*
X12975173Y-17327377D01*
X13146602Y-17384520D02*
X13165650Y-17394044D01*
X13165650Y-17394044D02*
X13203745Y-17394044D01*
X13203745Y-17394044D02*
X13222792Y-17384520D01*
X13222792Y-17384520D02*
X13232316Y-17365472D01*
X13232316Y-17365472D02*
X13232316Y-17355949D01*
X13232316Y-17355949D02*
X13222792Y-17336901D01*
X13222792Y-17336901D02*
X13203745Y-17327377D01*
X13203745Y-17327377D02*
X13175173Y-17327377D01*
X13175173Y-17327377D02*
X13156126Y-17317853D01*
X13156126Y-17317853D02*
X13146602Y-17298806D01*
X13146602Y-17298806D02*
X13146602Y-17289282D01*
X13146602Y-17289282D02*
X13156126Y-17270234D01*
X13156126Y-17270234D02*
X13175173Y-17260710D01*
X13175173Y-17260710D02*
X13203745Y-17260710D01*
X13203745Y-17260710D02*
X13222792Y-17270234D01*
X13298983Y-17470234D02*
X13308507Y-17460710D01*
X13308507Y-17460710D02*
X13327554Y-17432139D01*
X13327554Y-17432139D02*
X13337078Y-17413091D01*
X13337078Y-17413091D02*
X13346602Y-17384520D01*
X13346602Y-17384520D02*
X13356126Y-17336901D01*
X13356126Y-17336901D02*
X13356126Y-17298806D01*
X13356126Y-17298806D02*
X13346602Y-17251187D01*
X13346602Y-17251187D02*
X13337078Y-17222615D01*
X13337078Y-17222615D02*
X13327554Y-17203568D01*
X13327554Y-17203568D02*
X13308507Y-17174996D01*
X13308507Y-17174996D02*
X13298983Y-17165472D01*
X13660888Y-17470234D02*
X13651364Y-17460710D01*
X13651364Y-17460710D02*
X13632316Y-17432139D01*
X13632316Y-17432139D02*
X13622792Y-17413091D01*
X13622792Y-17413091D02*
X13613269Y-17384520D01*
X13613269Y-17384520D02*
X13603745Y-17336901D01*
X13603745Y-17336901D02*
X13603745Y-17298806D01*
X13603745Y-17298806D02*
X13613269Y-17251187D01*
X13613269Y-17251187D02*
X13622792Y-17222615D01*
X13622792Y-17222615D02*
X13632316Y-17203568D01*
X13632316Y-17203568D02*
X13651364Y-17174996D01*
X13651364Y-17174996D02*
X13660888Y-17165472D01*
X13737078Y-17260710D02*
X13737078Y-17394044D01*
X13737078Y-17279758D02*
X13746602Y-17270234D01*
X13746602Y-17270234D02*
X13765650Y-17260710D01*
X13765650Y-17260710D02*
X13794221Y-17260710D01*
X13794221Y-17260710D02*
X13813269Y-17270234D01*
X13813269Y-17270234D02*
X13822792Y-17289282D01*
X13822792Y-17289282D02*
X13822792Y-17394044D01*
X13946602Y-17394044D02*
X13927554Y-17384520D01*
X13927554Y-17384520D02*
X13918031Y-17374996D01*
X13918031Y-17374996D02*
X13908507Y-17355949D01*
X13908507Y-17355949D02*
X13908507Y-17298806D01*
X13908507Y-17298806D02*
X13918031Y-17279758D01*
X13918031Y-17279758D02*
X13927554Y-17270234D01*
X13927554Y-17270234D02*
X13946602Y-17260710D01*
X13946602Y-17260710D02*
X13975173Y-17260710D01*
X13975173Y-17260710D02*
X13994221Y-17270234D01*
X13994221Y-17270234D02*
X14003745Y-17279758D01*
X14003745Y-17279758D02*
X14013269Y-17298806D01*
X14013269Y-17298806D02*
X14013269Y-17355949D01*
X14013269Y-17355949D02*
X14003745Y-17374996D01*
X14003745Y-17374996D02*
X13994221Y-17384520D01*
X13994221Y-17384520D02*
X13975173Y-17394044D01*
X13975173Y-17394044D02*
X13946602Y-17394044D01*
X14070412Y-17260710D02*
X14146602Y-17260710D01*
X14098983Y-17194044D02*
X14098983Y-17365472D01*
X14098983Y-17365472D02*
X14108507Y-17384520D01*
X14108507Y-17384520D02*
X14127554Y-17394044D01*
X14127554Y-17394044D02*
X14146602Y-17394044D01*
X14365650Y-17260710D02*
X14365650Y-17460710D01*
X14365650Y-17270234D02*
X14384697Y-17260710D01*
X14384697Y-17260710D02*
X14422793Y-17260710D01*
X14422793Y-17260710D02*
X14441840Y-17270234D01*
X14441840Y-17270234D02*
X14451364Y-17279758D01*
X14451364Y-17279758D02*
X14460888Y-17298806D01*
X14460888Y-17298806D02*
X14460888Y-17355949D01*
X14460888Y-17355949D02*
X14451364Y-17374996D01*
X14451364Y-17374996D02*
X14441840Y-17384520D01*
X14441840Y-17384520D02*
X14422793Y-17394044D01*
X14422793Y-17394044D02*
X14384697Y-17394044D01*
X14384697Y-17394044D02*
X14365650Y-17384520D01*
X14575173Y-17394044D02*
X14556126Y-17384520D01*
X14556126Y-17384520D02*
X14546602Y-17365472D01*
X14546602Y-17365472D02*
X14546602Y-17194044D01*
X14737078Y-17394044D02*
X14737078Y-17289282D01*
X14737078Y-17289282D02*
X14727554Y-17270234D01*
X14727554Y-17270234D02*
X14708507Y-17260710D01*
X14708507Y-17260710D02*
X14670412Y-17260710D01*
X14670412Y-17260710D02*
X14651364Y-17270234D01*
X14737078Y-17384520D02*
X14718031Y-17394044D01*
X14718031Y-17394044D02*
X14670412Y-17394044D01*
X14670412Y-17394044D02*
X14651364Y-17384520D01*
X14651364Y-17384520D02*
X14641840Y-17365472D01*
X14641840Y-17365472D02*
X14641840Y-17346425D01*
X14641840Y-17346425D02*
X14651364Y-17327377D01*
X14651364Y-17327377D02*
X14670412Y-17317853D01*
X14670412Y-17317853D02*
X14718031Y-17317853D01*
X14718031Y-17317853D02*
X14737078Y-17308330D01*
X14803745Y-17260710D02*
X14879935Y-17260710D01*
X14832316Y-17194044D02*
X14832316Y-17365472D01*
X14832316Y-17365472D02*
X14841840Y-17384520D01*
X14841840Y-17384520D02*
X14860888Y-17394044D01*
X14860888Y-17394044D02*
X14879935Y-17394044D01*
X15022793Y-17384520D02*
X15003745Y-17394044D01*
X15003745Y-17394044D02*
X14965650Y-17394044D01*
X14965650Y-17394044D02*
X14946602Y-17384520D01*
X14946602Y-17384520D02*
X14937078Y-17365472D01*
X14937078Y-17365472D02*
X14937078Y-17289282D01*
X14937078Y-17289282D02*
X14946602Y-17270234D01*
X14946602Y-17270234D02*
X14965650Y-17260710D01*
X14965650Y-17260710D02*
X15003745Y-17260710D01*
X15003745Y-17260710D02*
X15022793Y-17270234D01*
X15022793Y-17270234D02*
X15032316Y-17289282D01*
X15032316Y-17289282D02*
X15032316Y-17308330D01*
X15032316Y-17308330D02*
X14937078Y-17327377D01*
X15203745Y-17394044D02*
X15203745Y-17194044D01*
X15203745Y-17384520D02*
X15184697Y-17394044D01*
X15184697Y-17394044D02*
X15146602Y-17394044D01*
X15146602Y-17394044D02*
X15127554Y-17384520D01*
X15127554Y-17384520D02*
X15118031Y-17374996D01*
X15118031Y-17374996D02*
X15108507Y-17355949D01*
X15108507Y-17355949D02*
X15108507Y-17298806D01*
X15108507Y-17298806D02*
X15118031Y-17279758D01*
X15118031Y-17279758D02*
X15127554Y-17270234D01*
X15127554Y-17270234D02*
X15146602Y-17260710D01*
X15146602Y-17260710D02*
X15184697Y-17260710D01*
X15184697Y-17260710D02*
X15203745Y-17270234D01*
X15279935Y-17470234D02*
X15289459Y-17460710D01*
X15289459Y-17460710D02*
X15308507Y-17432139D01*
X15308507Y-17432139D02*
X15318031Y-17413091D01*
X15318031Y-17413091D02*
X15327554Y-17384520D01*
X15327554Y-17384520D02*
X15337078Y-17336901D01*
X15337078Y-17336901D02*
X15337078Y-17298806D01*
X15337078Y-17298806D02*
X15327554Y-17251187D01*
X15327554Y-17251187D02*
X15318031Y-17222615D01*
X15318031Y-17222615D02*
X15308507Y-17203568D01*
X15308507Y-17203568D02*
X15289459Y-17174996D01*
X15289459Y-17174996D02*
X15279935Y-17165472D01*
X8494631Y-17637271D02*
X8494631Y-17495849D01*
X8353209Y-17495849D01*
X8353209Y-17637271D01*
X8494631Y-17637271D01*
X8523920Y-17566560D02*
G75*
G03*
X8523920Y-17566560I-100000J0D01*
G01*
X8775173Y-17477091D02*
X8784697Y-17467568D01*
X8784697Y-17467568D02*
X8803744Y-17458044D01*
X8803744Y-17458044D02*
X8851364Y-17458044D01*
X8851364Y-17458044D02*
X8870411Y-17467568D01*
X8870411Y-17467568D02*
X8879935Y-17477091D01*
X8879935Y-17477091D02*
X8889459Y-17496139D01*
X8889459Y-17496139D02*
X8889459Y-17515187D01*
X8889459Y-17515187D02*
X8879935Y-17543758D01*
X8879935Y-17543758D02*
X8765649Y-17658044D01*
X8765649Y-17658044D02*
X8889459Y-17658044D01*
X8975173Y-17638996D02*
X8984697Y-17648520D01*
X8984697Y-17648520D02*
X8975173Y-17658044D01*
X8975173Y-17658044D02*
X8965649Y-17648520D01*
X8965649Y-17648520D02*
X8975173Y-17638996D01*
X8975173Y-17638996D02*
X8975173Y-17658044D01*
X9156125Y-17458044D02*
X9118030Y-17458044D01*
X9118030Y-17458044D02*
X9098983Y-17467568D01*
X9098983Y-17467568D02*
X9089459Y-17477091D01*
X9089459Y-17477091D02*
X9070411Y-17505663D01*
X9070411Y-17505663D02*
X9060887Y-17543758D01*
X9060887Y-17543758D02*
X9060887Y-17619949D01*
X9060887Y-17619949D02*
X9070411Y-17638996D01*
X9070411Y-17638996D02*
X9079935Y-17648520D01*
X9079935Y-17648520D02*
X9098983Y-17658044D01*
X9098983Y-17658044D02*
X9137078Y-17658044D01*
X9137078Y-17658044D02*
X9156125Y-17648520D01*
X9156125Y-17648520D02*
X9165649Y-17638996D01*
X9165649Y-17638996D02*
X9175173Y-17619949D01*
X9175173Y-17619949D02*
X9175173Y-17572330D01*
X9175173Y-17572330D02*
X9165649Y-17553282D01*
X9165649Y-17553282D02*
X9156125Y-17543758D01*
X9156125Y-17543758D02*
X9137078Y-17534234D01*
X9137078Y-17534234D02*
X9098983Y-17534234D01*
X9098983Y-17534234D02*
X9079935Y-17543758D01*
X9079935Y-17543758D02*
X9070411Y-17553282D01*
X9070411Y-17553282D02*
X9060887Y-17572330D01*
X9346602Y-17524710D02*
X9346602Y-17658044D01*
X9298983Y-17448520D02*
X9251364Y-17591377D01*
X9251364Y-17591377D02*
X9375173Y-17591377D01*
X9489459Y-17458044D02*
X9508506Y-17458044D01*
X9508506Y-17458044D02*
X9527554Y-17467568D01*
X9527554Y-17467568D02*
X9537078Y-17477091D01*
X9537078Y-17477091D02*
X9546602Y-17496139D01*
X9546602Y-17496139D02*
X9556125Y-17534234D01*
X9556125Y-17534234D02*
X9556125Y-17581853D01*
X9556125Y-17581853D02*
X9546602Y-17619949D01*
X9546602Y-17619949D02*
X9537078Y-17638996D01*
X9537078Y-17638996D02*
X9527554Y-17648520D01*
X9527554Y-17648520D02*
X9508506Y-17658044D01*
X9508506Y-17658044D02*
X9489459Y-17658044D01*
X9489459Y-17658044D02*
X9470411Y-17648520D01*
X9470411Y-17648520D02*
X9460887Y-17638996D01*
X9460887Y-17638996D02*
X9451364Y-17619949D01*
X9451364Y-17619949D02*
X9441840Y-17581853D01*
X9441840Y-17581853D02*
X9441840Y-17534234D01*
X9441840Y-17534234D02*
X9451364Y-17496139D01*
X9451364Y-17496139D02*
X9460887Y-17477091D01*
X9460887Y-17477091D02*
X9470411Y-17467568D01*
X9470411Y-17467568D02*
X9489459Y-17458044D01*
X9641840Y-17658044D02*
X9641840Y-17524710D01*
X9641840Y-17543758D02*
X9651364Y-17534234D01*
X9651364Y-17534234D02*
X9670411Y-17524710D01*
X9670411Y-17524710D02*
X9698983Y-17524710D01*
X9698983Y-17524710D02*
X9718030Y-17534234D01*
X9718030Y-17534234D02*
X9727554Y-17553282D01*
X9727554Y-17553282D02*
X9727554Y-17658044D01*
X9727554Y-17553282D02*
X9737078Y-17534234D01*
X9737078Y-17534234D02*
X9756125Y-17524710D01*
X9756125Y-17524710D02*
X9784697Y-17524710D01*
X9784697Y-17524710D02*
X9803745Y-17534234D01*
X9803745Y-17534234D02*
X9813268Y-17553282D01*
X9813268Y-17553282D02*
X9813268Y-17658044D01*
X9908506Y-17658044D02*
X9908506Y-17524710D01*
X9908506Y-17543758D02*
X9918030Y-17534234D01*
X9918030Y-17534234D02*
X9937078Y-17524710D01*
X9937078Y-17524710D02*
X9965649Y-17524710D01*
X9965649Y-17524710D02*
X9984697Y-17534234D01*
X9984697Y-17534234D02*
X9994221Y-17553282D01*
X9994221Y-17553282D02*
X9994221Y-17658044D01*
X9994221Y-17553282D02*
X10003745Y-17534234D01*
X10003745Y-17534234D02*
X10022792Y-17524710D01*
X10022792Y-17524710D02*
X10051364Y-17524710D01*
X10051364Y-17524710D02*
X10070411Y-17534234D01*
X10070411Y-17534234D02*
X10079935Y-17553282D01*
X10079935Y-17553282D02*
X10079935Y-17658044D01*
X10470411Y-17448520D02*
X10298983Y-17705663D01*
X10727554Y-17458044D02*
X10746602Y-17458044D01*
X10746602Y-17458044D02*
X10765649Y-17467568D01*
X10765649Y-17467568D02*
X10775173Y-17477091D01*
X10775173Y-17477091D02*
X10784697Y-17496139D01*
X10784697Y-17496139D02*
X10794221Y-17534234D01*
X10794221Y-17534234D02*
X10794221Y-17581853D01*
X10794221Y-17581853D02*
X10784697Y-17619949D01*
X10784697Y-17619949D02*
X10775173Y-17638996D01*
X10775173Y-17638996D02*
X10765649Y-17648520D01*
X10765649Y-17648520D02*
X10746602Y-17658044D01*
X10746602Y-17658044D02*
X10727554Y-17658044D01*
X10727554Y-17658044D02*
X10708507Y-17648520D01*
X10708507Y-17648520D02*
X10698983Y-17638996D01*
X10698983Y-17638996D02*
X10689459Y-17619949D01*
X10689459Y-17619949D02*
X10679935Y-17581853D01*
X10679935Y-17581853D02*
X10679935Y-17534234D01*
X10679935Y-17534234D02*
X10689459Y-17496139D01*
X10689459Y-17496139D02*
X10698983Y-17477091D01*
X10698983Y-17477091D02*
X10708507Y-17467568D01*
X10708507Y-17467568D02*
X10727554Y-17458044D01*
X10879935Y-17638996D02*
X10889459Y-17648520D01*
X10889459Y-17648520D02*
X10879935Y-17658044D01*
X10879935Y-17658044D02*
X10870411Y-17648520D01*
X10870411Y-17648520D02*
X10879935Y-17638996D01*
X10879935Y-17638996D02*
X10879935Y-17658044D01*
X11079935Y-17658044D02*
X10965649Y-17658044D01*
X11022792Y-17658044D02*
X11022792Y-17458044D01*
X11022792Y-17458044D02*
X11003745Y-17486615D01*
X11003745Y-17486615D02*
X10984697Y-17505663D01*
X10984697Y-17505663D02*
X10965649Y-17515187D01*
X11203745Y-17458044D02*
X11222792Y-17458044D01*
X11222792Y-17458044D02*
X11241840Y-17467568D01*
X11241840Y-17467568D02*
X11251364Y-17477091D01*
X11251364Y-17477091D02*
X11260887Y-17496139D01*
X11260887Y-17496139D02*
X11270411Y-17534234D01*
X11270411Y-17534234D02*
X11270411Y-17581853D01*
X11270411Y-17581853D02*
X11260887Y-17619949D01*
X11260887Y-17619949D02*
X11251364Y-17638996D01*
X11251364Y-17638996D02*
X11241840Y-17648520D01*
X11241840Y-17648520D02*
X11222792Y-17658044D01*
X11222792Y-17658044D02*
X11203745Y-17658044D01*
X11203745Y-17658044D02*
X11184697Y-17648520D01*
X11184697Y-17648520D02*
X11175173Y-17638996D01*
X11175173Y-17638996D02*
X11165649Y-17619949D01*
X11165649Y-17619949D02*
X11156126Y-17581853D01*
X11156126Y-17581853D02*
X11156126Y-17534234D01*
X11156126Y-17534234D02*
X11165649Y-17496139D01*
X11165649Y-17496139D02*
X11175173Y-17477091D01*
X11175173Y-17477091D02*
X11184697Y-17467568D01*
X11184697Y-17467568D02*
X11203745Y-17458044D01*
X11337078Y-17458044D02*
X11460887Y-17458044D01*
X11460887Y-17458044D02*
X11394221Y-17534234D01*
X11394221Y-17534234D02*
X11422792Y-17534234D01*
X11422792Y-17534234D02*
X11441840Y-17543758D01*
X11441840Y-17543758D02*
X11451364Y-17553282D01*
X11451364Y-17553282D02*
X11460887Y-17572330D01*
X11460887Y-17572330D02*
X11460887Y-17619949D01*
X11460887Y-17619949D02*
X11451364Y-17638996D01*
X11451364Y-17638996D02*
X11441840Y-17648520D01*
X11441840Y-17648520D02*
X11422792Y-17658044D01*
X11422792Y-17658044D02*
X11365649Y-17658044D01*
X11365649Y-17658044D02*
X11346602Y-17648520D01*
X11346602Y-17648520D02*
X11337078Y-17638996D01*
X11556126Y-17658044D02*
X11594221Y-17658044D01*
X11594221Y-17658044D02*
X11613268Y-17648520D01*
X11613268Y-17648520D02*
X11622792Y-17638996D01*
X11622792Y-17638996D02*
X11641840Y-17610425D01*
X11641840Y-17610425D02*
X11651364Y-17572330D01*
X11651364Y-17572330D02*
X11651364Y-17496139D01*
X11651364Y-17496139D02*
X11641840Y-17477091D01*
X11641840Y-17477091D02*
X11632316Y-17467568D01*
X11632316Y-17467568D02*
X11613268Y-17458044D01*
X11613268Y-17458044D02*
X11575173Y-17458044D01*
X11575173Y-17458044D02*
X11556126Y-17467568D01*
X11556126Y-17467568D02*
X11546602Y-17477091D01*
X11546602Y-17477091D02*
X11537078Y-17496139D01*
X11537078Y-17496139D02*
X11537078Y-17543758D01*
X11537078Y-17543758D02*
X11546602Y-17562806D01*
X11546602Y-17562806D02*
X11556126Y-17572330D01*
X11556126Y-17572330D02*
X11575173Y-17581853D01*
X11575173Y-17581853D02*
X11613268Y-17581853D01*
X11613268Y-17581853D02*
X11632316Y-17572330D01*
X11632316Y-17572330D02*
X11641840Y-17562806D01*
X11641840Y-17562806D02*
X11651364Y-17543758D01*
X11727554Y-17458044D02*
X11727554Y-17496139D01*
X11803745Y-17458044D02*
X11803745Y-17496139D01*
X12098983Y-17734234D02*
X12089459Y-17724710D01*
X12089459Y-17724710D02*
X12070411Y-17696139D01*
X12070411Y-17696139D02*
X12060888Y-17677091D01*
X12060888Y-17677091D02*
X12051364Y-17648520D01*
X12051364Y-17648520D02*
X12041840Y-17600901D01*
X12041840Y-17600901D02*
X12041840Y-17562806D01*
X12041840Y-17562806D02*
X12051364Y-17515187D01*
X12051364Y-17515187D02*
X12060888Y-17486615D01*
X12060888Y-17486615D02*
X12070411Y-17467568D01*
X12070411Y-17467568D02*
X12089459Y-17438996D01*
X12089459Y-17438996D02*
X12098983Y-17429472D01*
X12165649Y-17477091D02*
X12175173Y-17467568D01*
X12175173Y-17467568D02*
X12194221Y-17458044D01*
X12194221Y-17458044D02*
X12241840Y-17458044D01*
X12241840Y-17458044D02*
X12260888Y-17467568D01*
X12260888Y-17467568D02*
X12270411Y-17477091D01*
X12270411Y-17477091D02*
X12279935Y-17496139D01*
X12279935Y-17496139D02*
X12279935Y-17515187D01*
X12279935Y-17515187D02*
X12270411Y-17543758D01*
X12270411Y-17543758D02*
X12156126Y-17658044D01*
X12156126Y-17658044D02*
X12279935Y-17658044D01*
X12518030Y-17658044D02*
X12518030Y-17458044D01*
X12603745Y-17658044D02*
X12603745Y-17553282D01*
X12603745Y-17553282D02*
X12594221Y-17534234D01*
X12594221Y-17534234D02*
X12575173Y-17524710D01*
X12575173Y-17524710D02*
X12546602Y-17524710D01*
X12546602Y-17524710D02*
X12527554Y-17534234D01*
X12527554Y-17534234D02*
X12518030Y-17543758D01*
X12727554Y-17658044D02*
X12708507Y-17648520D01*
X12708507Y-17648520D02*
X12698983Y-17638996D01*
X12698983Y-17638996D02*
X12689459Y-17619949D01*
X12689459Y-17619949D02*
X12689459Y-17562806D01*
X12689459Y-17562806D02*
X12698983Y-17543758D01*
X12698983Y-17543758D02*
X12708507Y-17534234D01*
X12708507Y-17534234D02*
X12727554Y-17524710D01*
X12727554Y-17524710D02*
X12756126Y-17524710D01*
X12756126Y-17524710D02*
X12775173Y-17534234D01*
X12775173Y-17534234D02*
X12784697Y-17543758D01*
X12784697Y-17543758D02*
X12794221Y-17562806D01*
X12794221Y-17562806D02*
X12794221Y-17619949D01*
X12794221Y-17619949D02*
X12784697Y-17638996D01*
X12784697Y-17638996D02*
X12775173Y-17648520D01*
X12775173Y-17648520D02*
X12756126Y-17658044D01*
X12756126Y-17658044D02*
X12727554Y-17658044D01*
X12908507Y-17658044D02*
X12889459Y-17648520D01*
X12889459Y-17648520D02*
X12879935Y-17629472D01*
X12879935Y-17629472D02*
X12879935Y-17458044D01*
X13060888Y-17648520D02*
X13041840Y-17658044D01*
X13041840Y-17658044D02*
X13003745Y-17658044D01*
X13003745Y-17658044D02*
X12984697Y-17648520D01*
X12984697Y-17648520D02*
X12975173Y-17629472D01*
X12975173Y-17629472D02*
X12975173Y-17553282D01*
X12975173Y-17553282D02*
X12984697Y-17534234D01*
X12984697Y-17534234D02*
X13003745Y-17524710D01*
X13003745Y-17524710D02*
X13041840Y-17524710D01*
X13041840Y-17524710D02*
X13060888Y-17534234D01*
X13060888Y-17534234D02*
X13070411Y-17553282D01*
X13070411Y-17553282D02*
X13070411Y-17572330D01*
X13070411Y-17572330D02*
X12975173Y-17591377D01*
X13146602Y-17648520D02*
X13165650Y-17658044D01*
X13165650Y-17658044D02*
X13203745Y-17658044D01*
X13203745Y-17658044D02*
X13222792Y-17648520D01*
X13222792Y-17648520D02*
X13232316Y-17629472D01*
X13232316Y-17629472D02*
X13232316Y-17619949D01*
X13232316Y-17619949D02*
X13222792Y-17600901D01*
X13222792Y-17600901D02*
X13203745Y-17591377D01*
X13203745Y-17591377D02*
X13175173Y-17591377D01*
X13175173Y-17591377D02*
X13156126Y-17581853D01*
X13156126Y-17581853D02*
X13146602Y-17562806D01*
X13146602Y-17562806D02*
X13146602Y-17553282D01*
X13146602Y-17553282D02*
X13156126Y-17534234D01*
X13156126Y-17534234D02*
X13175173Y-17524710D01*
X13175173Y-17524710D02*
X13203745Y-17524710D01*
X13203745Y-17524710D02*
X13222792Y-17534234D01*
X13298983Y-17734234D02*
X13308507Y-17724710D01*
X13308507Y-17724710D02*
X13327554Y-17696139D01*
X13327554Y-17696139D02*
X13337078Y-17677091D01*
X13337078Y-17677091D02*
X13346602Y-17648520D01*
X13346602Y-17648520D02*
X13356126Y-17600901D01*
X13356126Y-17600901D02*
X13356126Y-17562806D01*
X13356126Y-17562806D02*
X13346602Y-17515187D01*
X13346602Y-17515187D02*
X13337078Y-17486615D01*
X13337078Y-17486615D02*
X13327554Y-17467568D01*
X13327554Y-17467568D02*
X13308507Y-17438996D01*
X13308507Y-17438996D02*
X13298983Y-17429472D01*
X13660888Y-17734234D02*
X13651364Y-17724710D01*
X13651364Y-17724710D02*
X13632316Y-17696139D01*
X13632316Y-17696139D02*
X13622792Y-17677091D01*
X13622792Y-17677091D02*
X13613269Y-17648520D01*
X13613269Y-17648520D02*
X13603745Y-17600901D01*
X13603745Y-17600901D02*
X13603745Y-17562806D01*
X13603745Y-17562806D02*
X13613269Y-17515187D01*
X13613269Y-17515187D02*
X13622792Y-17486615D01*
X13622792Y-17486615D02*
X13632316Y-17467568D01*
X13632316Y-17467568D02*
X13651364Y-17438996D01*
X13651364Y-17438996D02*
X13660888Y-17429472D01*
X13737078Y-17524710D02*
X13737078Y-17658044D01*
X13737078Y-17543758D02*
X13746602Y-17534234D01*
X13746602Y-17534234D02*
X13765650Y-17524710D01*
X13765650Y-17524710D02*
X13794221Y-17524710D01*
X13794221Y-17524710D02*
X13813269Y-17534234D01*
X13813269Y-17534234D02*
X13822792Y-17553282D01*
X13822792Y-17553282D02*
X13822792Y-17658044D01*
X13946602Y-17658044D02*
X13927554Y-17648520D01*
X13927554Y-17648520D02*
X13918031Y-17638996D01*
X13918031Y-17638996D02*
X13908507Y-17619949D01*
X13908507Y-17619949D02*
X13908507Y-17562806D01*
X13908507Y-17562806D02*
X13918031Y-17543758D01*
X13918031Y-17543758D02*
X13927554Y-17534234D01*
X13927554Y-17534234D02*
X13946602Y-17524710D01*
X13946602Y-17524710D02*
X13975173Y-17524710D01*
X13975173Y-17524710D02*
X13994221Y-17534234D01*
X13994221Y-17534234D02*
X14003745Y-17543758D01*
X14003745Y-17543758D02*
X14013269Y-17562806D01*
X14013269Y-17562806D02*
X14013269Y-17619949D01*
X14013269Y-17619949D02*
X14003745Y-17638996D01*
X14003745Y-17638996D02*
X13994221Y-17648520D01*
X13994221Y-17648520D02*
X13975173Y-17658044D01*
X13975173Y-17658044D02*
X13946602Y-17658044D01*
X14070412Y-17524710D02*
X14146602Y-17524710D01*
X14098983Y-17458044D02*
X14098983Y-17629472D01*
X14098983Y-17629472D02*
X14108507Y-17648520D01*
X14108507Y-17648520D02*
X14127554Y-17658044D01*
X14127554Y-17658044D02*
X14146602Y-17658044D01*
X14365650Y-17524710D02*
X14365650Y-17724710D01*
X14365650Y-17534234D02*
X14384697Y-17524710D01*
X14384697Y-17524710D02*
X14422793Y-17524710D01*
X14422793Y-17524710D02*
X14441840Y-17534234D01*
X14441840Y-17534234D02*
X14451364Y-17543758D01*
X14451364Y-17543758D02*
X14460888Y-17562806D01*
X14460888Y-17562806D02*
X14460888Y-17619949D01*
X14460888Y-17619949D02*
X14451364Y-17638996D01*
X14451364Y-17638996D02*
X14441840Y-17648520D01*
X14441840Y-17648520D02*
X14422793Y-17658044D01*
X14422793Y-17658044D02*
X14384697Y-17658044D01*
X14384697Y-17658044D02*
X14365650Y-17648520D01*
X14575173Y-17658044D02*
X14556126Y-17648520D01*
X14556126Y-17648520D02*
X14546602Y-17629472D01*
X14546602Y-17629472D02*
X14546602Y-17458044D01*
X14737078Y-17658044D02*
X14737078Y-17553282D01*
X14737078Y-17553282D02*
X14727554Y-17534234D01*
X14727554Y-17534234D02*
X14708507Y-17524710D01*
X14708507Y-17524710D02*
X14670412Y-17524710D01*
X14670412Y-17524710D02*
X14651364Y-17534234D01*
X14737078Y-17648520D02*
X14718031Y-17658044D01*
X14718031Y-17658044D02*
X14670412Y-17658044D01*
X14670412Y-17658044D02*
X14651364Y-17648520D01*
X14651364Y-17648520D02*
X14641840Y-17629472D01*
X14641840Y-17629472D02*
X14641840Y-17610425D01*
X14641840Y-17610425D02*
X14651364Y-17591377D01*
X14651364Y-17591377D02*
X14670412Y-17581853D01*
X14670412Y-17581853D02*
X14718031Y-17581853D01*
X14718031Y-17581853D02*
X14737078Y-17572330D01*
X14803745Y-17524710D02*
X14879935Y-17524710D01*
X14832316Y-17458044D02*
X14832316Y-17629472D01*
X14832316Y-17629472D02*
X14841840Y-17648520D01*
X14841840Y-17648520D02*
X14860888Y-17658044D01*
X14860888Y-17658044D02*
X14879935Y-17658044D01*
X15022793Y-17648520D02*
X15003745Y-17658044D01*
X15003745Y-17658044D02*
X14965650Y-17658044D01*
X14965650Y-17658044D02*
X14946602Y-17648520D01*
X14946602Y-17648520D02*
X14937078Y-17629472D01*
X14937078Y-17629472D02*
X14937078Y-17553282D01*
X14937078Y-17553282D02*
X14946602Y-17534234D01*
X14946602Y-17534234D02*
X14965650Y-17524710D01*
X14965650Y-17524710D02*
X15003745Y-17524710D01*
X15003745Y-17524710D02*
X15022793Y-17534234D01*
X15022793Y-17534234D02*
X15032316Y-17553282D01*
X15032316Y-17553282D02*
X15032316Y-17572330D01*
X15032316Y-17572330D02*
X14937078Y-17591377D01*
X15203745Y-17658044D02*
X15203745Y-17458044D01*
X15203745Y-17648520D02*
X15184697Y-17658044D01*
X15184697Y-17658044D02*
X15146602Y-17658044D01*
X15146602Y-17658044D02*
X15127554Y-17648520D01*
X15127554Y-17648520D02*
X15118031Y-17638996D01*
X15118031Y-17638996D02*
X15108507Y-17619949D01*
X15108507Y-17619949D02*
X15108507Y-17562806D01*
X15108507Y-17562806D02*
X15118031Y-17543758D01*
X15118031Y-17543758D02*
X15127554Y-17534234D01*
X15127554Y-17534234D02*
X15146602Y-17524710D01*
X15146602Y-17524710D02*
X15184697Y-17524710D01*
X15184697Y-17524710D02*
X15203745Y-17534234D01*
X15279935Y-17734234D02*
X15289459Y-17724710D01*
X15289459Y-17724710D02*
X15308507Y-17696139D01*
X15308507Y-17696139D02*
X15318031Y-17677091D01*
X15318031Y-17677091D02*
X15327554Y-17648520D01*
X15327554Y-17648520D02*
X15337078Y-17600901D01*
X15337078Y-17600901D02*
X15337078Y-17562806D01*
X15337078Y-17562806D02*
X15327554Y-17515187D01*
X15327554Y-17515187D02*
X15318031Y-17486615D01*
X15318031Y-17486615D02*
X15308507Y-17467568D01*
X15308507Y-17467568D02*
X15289459Y-17438996D01*
X15289459Y-17438996D02*
X15279935Y-17429472D01*
M02*
