%TF.GenerationSoftware,KiCad,Pcbnew,7.0.9*%
%TF.CreationDate,2024-05-06T14:39:11+08:00*%
%TF.ProjectId,pcb-may05-24,7063622d-6d61-4793-9035-2d32342e6b69,rev?*%
%TF.SameCoordinates,Original*%
%TF.FileFunction,Copper,L2,Bot*%
%TF.FilePolarity,Positive*%
%FSLAX46Y46*%
G04 Gerber Fmt 4.6, Leading zero omitted, Abs format (unit mm)*
G04 Created by KiCad (PCBNEW 7.0.9) date 2024-05-06 14:39:11*
%MOMM*%
%LPD*%
G01*
G04 APERTURE LIST*
%ADD10C,0.500000*%
%TA.AperFunction,NonConductor*%
%ADD11C,0.500000*%
%TD*%
%TA.AperFunction,ComponentPad*%
%ADD12R,2.000000X2.000000*%
%TD*%
%TA.AperFunction,ComponentPad*%
%ADD13C,2.000000*%
%TD*%
%TA.AperFunction,ComponentPad*%
%ADD14R,1.500000X1.500000*%
%TD*%
%TA.AperFunction,ComponentPad*%
%ADD15C,1.500000*%
%TD*%
%TA.AperFunction,ComponentPad*%
%ADD16C,1.600000*%
%TD*%
%TA.AperFunction,ComponentPad*%
%ADD17O,2.200000X3.500000*%
%TD*%
%TA.AperFunction,ComponentPad*%
%ADD18R,1.500000X2.500000*%
%TD*%
%TA.AperFunction,ComponentPad*%
%ADD19O,1.500000X2.500000*%
%TD*%
%TA.AperFunction,ComponentPad*%
%ADD20R,1.600000X1.600000*%
%TD*%
%TA.AperFunction,ComponentPad*%
%ADD21O,1.600000X1.600000*%
%TD*%
%TA.AperFunction,ComponentPad*%
%ADD22O,3.000000X4.100000*%
%TD*%
%TA.AperFunction,ComponentPad*%
%ADD23C,1.650000*%
%TD*%
%TA.AperFunction,ComponentPad*%
%ADD24R,1.650000X1.650000*%
%TD*%
%TA.AperFunction,ComponentPad*%
%ADD25R,1.701800X1.701800*%
%TD*%
%TA.AperFunction,ComponentPad*%
%ADD26C,1.701800*%
%TD*%
%TA.AperFunction,ComponentPad*%
%ADD27O,2.200000X1.200000*%
%TD*%
%TA.AperFunction,ComponentPad*%
%ADD28O,2.300000X1.600000*%
%TD*%
%TA.AperFunction,ComponentPad*%
%ADD29O,1.200000X2.200000*%
%TD*%
%TA.AperFunction,ComponentPad*%
%ADD30O,2.500000X1.600000*%
%TD*%
%TA.AperFunction,Conductor*%
%ADD31C,1.000000*%
%TD*%
G04 APERTURE END LIST*
D10*
D11*
X86356857Y-94328947D02*
X86356857Y-93757518D01*
X86356857Y-93757518D02*
X86499714Y-93471804D01*
X86499714Y-93471804D02*
X86642571Y-93328947D01*
X86642571Y-93328947D02*
X87071142Y-93043232D01*
X87071142Y-93043232D02*
X87642571Y-92900375D01*
X87642571Y-92900375D02*
X88785428Y-92900375D01*
X88785428Y-92900375D02*
X89071142Y-93043232D01*
X89071142Y-93043232D02*
X89214000Y-93186089D01*
X89214000Y-93186089D02*
X89356857Y-93471804D01*
X89356857Y-93471804D02*
X89356857Y-94043232D01*
X89356857Y-94043232D02*
X89214000Y-94328947D01*
X89214000Y-94328947D02*
X89071142Y-94471804D01*
X89071142Y-94471804D02*
X88785428Y-94614661D01*
X88785428Y-94614661D02*
X88071142Y-94614661D01*
X88071142Y-94614661D02*
X87785428Y-94471804D01*
X87785428Y-94471804D02*
X87642571Y-94328947D01*
X87642571Y-94328947D02*
X87499714Y-94043232D01*
X87499714Y-94043232D02*
X87499714Y-93471804D01*
X87499714Y-93471804D02*
X87642571Y-93186089D01*
X87642571Y-93186089D02*
X87785428Y-93043232D01*
X87785428Y-93043232D02*
X88071142Y-92900375D01*
X86356857Y-95614661D02*
X86356857Y-97471804D01*
X86356857Y-97471804D02*
X87499714Y-96471804D01*
X87499714Y-96471804D02*
X87499714Y-96900375D01*
X87499714Y-96900375D02*
X87642571Y-97186090D01*
X87642571Y-97186090D02*
X87785428Y-97328947D01*
X87785428Y-97328947D02*
X88071142Y-97471804D01*
X88071142Y-97471804D02*
X88785428Y-97471804D01*
X88785428Y-97471804D02*
X89071142Y-97328947D01*
X89071142Y-97328947D02*
X89214000Y-97186090D01*
X89214000Y-97186090D02*
X89356857Y-96900375D01*
X89356857Y-96900375D02*
X89356857Y-96043232D01*
X89356857Y-96043232D02*
X89214000Y-95757518D01*
X89214000Y-95757518D02*
X89071142Y-95614661D01*
X86356857Y-100043233D02*
X86356857Y-99471804D01*
X86356857Y-99471804D02*
X86499714Y-99186090D01*
X86499714Y-99186090D02*
X86642571Y-99043233D01*
X86642571Y-99043233D02*
X87071142Y-98757518D01*
X87071142Y-98757518D02*
X87642571Y-98614661D01*
X87642571Y-98614661D02*
X88785428Y-98614661D01*
X88785428Y-98614661D02*
X89071142Y-98757518D01*
X89071142Y-98757518D02*
X89214000Y-98900375D01*
X89214000Y-98900375D02*
X89356857Y-99186090D01*
X89356857Y-99186090D02*
X89356857Y-99757518D01*
X89356857Y-99757518D02*
X89214000Y-100043233D01*
X89214000Y-100043233D02*
X89071142Y-100186090D01*
X89071142Y-100186090D02*
X88785428Y-100328947D01*
X88785428Y-100328947D02*
X88071142Y-100328947D01*
X88071142Y-100328947D02*
X87785428Y-100186090D01*
X87785428Y-100186090D02*
X87642571Y-100043233D01*
X87642571Y-100043233D02*
X87499714Y-99757518D01*
X87499714Y-99757518D02*
X87499714Y-99186090D01*
X87499714Y-99186090D02*
X87642571Y-98900375D01*
X87642571Y-98900375D02*
X87785428Y-98757518D01*
X87785428Y-98757518D02*
X88071142Y-98614661D01*
X86356857Y-103757518D02*
X88499714Y-103757518D01*
X85928285Y-104614661D02*
X89356857Y-104614661D01*
X87214000Y-105471804D02*
X88499714Y-106043232D01*
X88499714Y-106043232D02*
X89071142Y-106757518D01*
X89071142Y-106757518D02*
X89356857Y-107186090D01*
X86071142Y-105614661D02*
X87642571Y-105043232D01*
X87071142Y-106757518D02*
X88356857Y-106186090D01*
X88356857Y-106186090D02*
X89071142Y-105471804D01*
X89071142Y-105471804D02*
X89356857Y-104900375D01*
X86785428Y-105471804D02*
X88214000Y-105900375D01*
X86785428Y-105471804D02*
X86785428Y-107043232D01*
X86785428Y-107043232D02*
X88071142Y-106471804D01*
X88214000Y-104614661D02*
X88499714Y-103471804D01*
X86356857Y-108186089D02*
X86356857Y-111328946D01*
X87356857Y-107900375D02*
X87356857Y-111614661D01*
X88499714Y-108614661D02*
X88499714Y-111043232D01*
X89214000Y-108614661D02*
X89214000Y-111043232D01*
X87928285Y-108614661D02*
X89356857Y-108614661D01*
X85928285Y-109757518D02*
X86356857Y-109757518D01*
X87928285Y-108614661D02*
X87928285Y-111043232D01*
X87928285Y-111043232D02*
X89356857Y-111043232D01*
X86499714Y-108900375D02*
X87071142Y-109043232D01*
X86499714Y-110614661D02*
X87071142Y-110471803D01*
X86785428Y-112471803D02*
X86785428Y-113900374D01*
X89356857Y-115471803D02*
X89356857Y-116043232D01*
X85928285Y-113186089D02*
X89356857Y-113186089D01*
X86214000Y-114328946D02*
X86214000Y-115471803D01*
X86214000Y-115471803D02*
X89356857Y-115471803D01*
X88785428Y-116186089D02*
X89356857Y-116043232D01*
X87356857Y-113186089D02*
X87928285Y-113900374D01*
X86785428Y-113186089D02*
X88499714Y-112471803D01*
X86214000Y-114328946D02*
X87499714Y-114328946D01*
X87499714Y-114328946D02*
X88356857Y-114186089D01*
X88356857Y-114186089D02*
X89356857Y-113757517D01*
X89356857Y-119471802D02*
X86356857Y-119471802D01*
X86356857Y-119471802D02*
X86356857Y-120186088D01*
X86356857Y-120186088D02*
X86499714Y-120614659D01*
X86499714Y-120614659D02*
X86785428Y-120900374D01*
X86785428Y-120900374D02*
X87071142Y-121043231D01*
X87071142Y-121043231D02*
X87642571Y-121186088D01*
X87642571Y-121186088D02*
X88071142Y-121186088D01*
X88071142Y-121186088D02*
X88642571Y-121043231D01*
X88642571Y-121043231D02*
X88928285Y-120900374D01*
X88928285Y-120900374D02*
X89214000Y-120614659D01*
X89214000Y-120614659D02*
X89356857Y-120186088D01*
X89356857Y-120186088D02*
X89356857Y-119471802D01*
X89356857Y-122471802D02*
X86356857Y-122471802D01*
X87928285Y-124471802D02*
X89356857Y-124471802D01*
X86356857Y-123471802D02*
X87928285Y-124471802D01*
X87928285Y-124471802D02*
X86356857Y-125471802D01*
X87356857Y-128471802D02*
X89356857Y-129186088D01*
X89356857Y-129186088D02*
X87356857Y-129900373D01*
X86356857Y-131614659D02*
X86356857Y-131900373D01*
X86356857Y-131900373D02*
X86499714Y-132186087D01*
X86499714Y-132186087D02*
X86642571Y-132328945D01*
X86642571Y-132328945D02*
X86928285Y-132471802D01*
X86928285Y-132471802D02*
X87499714Y-132614659D01*
X87499714Y-132614659D02*
X88214000Y-132614659D01*
X88214000Y-132614659D02*
X88785428Y-132471802D01*
X88785428Y-132471802D02*
X89071142Y-132328945D01*
X89071142Y-132328945D02*
X89214000Y-132186087D01*
X89214000Y-132186087D02*
X89356857Y-131900373D01*
X89356857Y-131900373D02*
X89356857Y-131614659D01*
X89356857Y-131614659D02*
X89214000Y-131328945D01*
X89214000Y-131328945D02*
X89071142Y-131186087D01*
X89071142Y-131186087D02*
X88785428Y-131043230D01*
X88785428Y-131043230D02*
X88214000Y-130900373D01*
X88214000Y-130900373D02*
X87499714Y-130900373D01*
X87499714Y-130900373D02*
X86928285Y-131043230D01*
X86928285Y-131043230D02*
X86642571Y-131186087D01*
X86642571Y-131186087D02*
X86499714Y-131328945D01*
X86499714Y-131328945D02*
X86356857Y-131614659D01*
X89071142Y-133900373D02*
X89214000Y-134043230D01*
X89214000Y-134043230D02*
X89356857Y-133900373D01*
X89356857Y-133900373D02*
X89214000Y-133757516D01*
X89214000Y-133757516D02*
X89071142Y-133900373D01*
X89071142Y-133900373D02*
X89356857Y-133900373D01*
X86642571Y-135186087D02*
X86499714Y-135328944D01*
X86499714Y-135328944D02*
X86356857Y-135614659D01*
X86356857Y-135614659D02*
X86356857Y-136328944D01*
X86356857Y-136328944D02*
X86499714Y-136614659D01*
X86499714Y-136614659D02*
X86642571Y-136757516D01*
X86642571Y-136757516D02*
X86928285Y-136900373D01*
X86928285Y-136900373D02*
X87214000Y-136900373D01*
X87214000Y-136900373D02*
X87642571Y-136757516D01*
X87642571Y-136757516D02*
X89356857Y-135043230D01*
X89356857Y-135043230D02*
X89356857Y-136900373D01*
D12*
%TO.P,Battery1,1,+*%
%TO.N,Net-(Battery1-+)*%
X94200000Y-132800000D03*
D13*
%TO.P,Battery1,2,-*%
%TO.N,Net-(Battery1--)*%
X146190000Y-132800000D03*
%TD*%
D14*
%TO.P,Q1,1,C*%
%TO.N,Net-(Q1-C)*%
X125140000Y-113290000D03*
D15*
%TO.P,Q1,2,B*%
%TO.N,Net-(Q1-B)*%
X125140000Y-110750000D03*
%TO.P,Q1,3,E*%
%TO.N,GND*%
X125140000Y-108210000D03*
%TD*%
D16*
%TO.P,C3,1*%
%TO.N,GND*%
X158100000Y-125250000D03*
%TO.P,C3,2*%
%TO.N,Net-(C3-Pad2)*%
X153100000Y-125250000D03*
%TD*%
D13*
%TO.P,L2,1,1*%
%TO.N,Net-(Q1-C)*%
X147250000Y-112230000D03*
%TO.P,L2,2,2*%
%TO.N,Net-(C5-Pad2)*%
X147250000Y-107150000D03*
%TD*%
D17*
%TO.P,Switch1,*%
%TO.N,*%
X152000000Y-133200000D03*
X160200000Y-133200000D03*
D18*
%TO.P,Switch1,1,A*%
%TO.N,unconnected-(Switch1-A-Pad1)*%
X154100000Y-133200000D03*
D19*
%TO.P,Switch1,2,B*%
%TO.N,Net-(Battery1--)*%
X156100000Y-133200000D03*
%TO.P,Switch1,3,C*%
%TO.N,GND*%
X158100000Y-133200000D03*
%TD*%
D20*
%TO.P,C6,1*%
%TO.N,Net-(C3-Pad2)*%
X148750000Y-120350000D03*
D16*
%TO.P,C6,2*%
%TO.N,Net-(D2-A)*%
X146250000Y-120350000D03*
%TD*%
%TO.P,C5,1*%
%TO.N,Net-(Battery1-+)*%
X161600000Y-108500000D03*
%TO.P,C5,2*%
%TO.N,Net-(C5-Pad2)*%
X156600000Y-108500000D03*
%TD*%
D13*
%TO.P,L1,1,1*%
%TO.N,Net-(C1-Pad1)*%
X170200000Y-102000000D03*
%TO.P,L1,2,2*%
%TO.N,GND*%
X138700000Y-102000000D03*
%TO.P,L1,3,3*%
%TO.N,Net-(C3-Pad2)*%
X132700000Y-102000000D03*
%TO.P,L1,4,4*%
%TO.N,Net-(Q1-B)*%
X127200000Y-102000000D03*
%TO.P,L1,5,5*%
%TO.N,GND*%
X122700000Y-102000000D03*
%TO.P,L1,6,6*%
%TO.N,Net-(C2-Pad1)*%
X119700000Y-102000000D03*
%TD*%
D20*
%TO.P,D2,1,K*%
%TO.N,Net-(D1-A)*%
X126990000Y-120400000D03*
D21*
%TO.P,D2,2,A*%
%TO.N,Net-(D2-A)*%
X134610000Y-120400000D03*
%TD*%
D22*
%TO.P,C1,1,1*%
%TO.N,Net-(C1-Pad1)*%
X112828600Y-104506000D03*
%TO.P,C1,2,2*%
%TO.N,GND*%
X112828600Y-111506000D03*
%TO.P,C1,3,3*%
%TO.N,Net-(C1-Pad1)*%
X112828600Y-118506000D03*
%TD*%
D23*
%TO.P,RV1,3,3*%
%TO.N,Net-(Battery1-+)*%
X160000000Y-118362500D03*
%TO.P,RV1,2,2*%
%TO.N,Net-(R2-Pad2)*%
X157500000Y-113362500D03*
D24*
%TO.P,RV1,1,1*%
X155000000Y-118362500D03*
%TD*%
D16*
%TO.P,R1,1*%
%TO.N,Net-(D2-A)*%
X133270000Y-116100000D03*
D21*
%TO.P,R1,2*%
%TO.N,Net-(C3-Pad2)*%
X143430000Y-116100000D03*
%TD*%
D25*
%TO.P,C2,1*%
%TO.N,Net-(C2-Pad1)*%
X135450000Y-105310000D03*
D26*
%TO.P,C2,2*%
%TO.N,Net-(Q1-C)*%
X135450000Y-110390000D03*
%TD*%
D20*
%TO.P,D1,1,K*%
%TO.N,GND*%
X119900000Y-112990000D03*
D21*
%TO.P,D1,2,A*%
%TO.N,Net-(D1-A)*%
X119900000Y-120610000D03*
%TD*%
D16*
%TO.P,R2,1*%
%TO.N,Net-(C3-Pad2)*%
X153970000Y-103850000D03*
D21*
%TO.P,R2,2*%
%TO.N,Net-(R2-Pad2)*%
X164130000Y-103850000D03*
%TD*%
D27*
%TO.P,J1,R*%
%TO.N,Net-(C5-Pad2)*%
X170869600Y-119982000D03*
D28*
%TO.P,J1,RN*%
%TO.N,N/C*%
X170869600Y-117482000D03*
D29*
%TO.P,J1,S*%
X175869600Y-114982000D03*
D27*
%TO.P,J1,T*%
%TO.N,Net-(Battery1-+)*%
X170869600Y-109982000D03*
D30*
%TO.P,J1,TN*%
%TO.N,N/C*%
X170869600Y-112482000D03*
%TD*%
D16*
%TO.P,C4,1*%
%TO.N,Net-(D1-A)*%
X123600000Y-120600000D03*
%TO.P,C4,2*%
%TO.N,Net-(Q1-C)*%
X123600000Y-115600000D03*
%TD*%
D31*
%TO.N,Net-(R2-Pad2)*%
X157499999Y-113362498D02*
X156774999Y-114087499D01*
X158043750Y-112818750D02*
X157681249Y-113181249D01*
%TO.N,Net-(Q1-B)*%
X127300025Y-108894990D02*
G75*
G03*
X126779359Y-109110642I-25J-736310D01*
G01*
%TO.N,GND*%
X124527891Y-107597879D02*
G75*
G03*
X124195000Y-107460000I-332891J-332921D01*
G01*
%TO.N,Net-(Q1-C)*%
X124177769Y-115022242D02*
G75*
G03*
X124450000Y-114365000I-657269J657242D01*
G01*
X130107142Y-111300017D02*
G75*
G03*
X127705000Y-112295000I-42J-3397083D01*
G01*
X125925000Y-113289986D02*
G75*
G03*
X127265077Y-112734920I0J1895186D01*
G01*
X124722231Y-113707758D02*
G75*
G03*
X124450000Y-114365000I657269J-657242D01*
G01*
X125627903Y-113290002D02*
G75*
G03*
X124795000Y-113635000I-3J-1177898D01*
G01*
%TO.N,Net-(Battery1-+)*%
X111406215Y-135906199D02*
G75*
G03*
X115253963Y-137500000I3847785J3847799D01*
G01*
X109893784Y-134393800D02*
G75*
G03*
X106046036Y-132800000I-3847784J-3847800D01*
G01*
X132192072Y-137499964D02*
G75*
G03*
X136039827Y-135906206I28J5441564D01*
G01*
X142993784Y-134393800D02*
G75*
G03*
X139146036Y-132800000I-3847784J-3847800D01*
G01*
X161806207Y-125306207D02*
X161593792Y-125093792D01*
X159985786Y-138599994D02*
G75*
G03*
X162400000Y-137600000I14J3414194D01*
G01*
X164129932Y-109982000D02*
X170869600Y-109982000D01*
X159999990Y-121246036D02*
G75*
G03*
X161593793Y-125093791I5441610J36D01*
G01*
X160000000Y-121246036D02*
X160000000Y-118928185D01*
X160800000Y-117562500D02*
X160400000Y-117962500D01*
X161970442Y-108870558D02*
G75*
G03*
X161600000Y-109023966I-153442J-153442D01*
G01*
X145606215Y-137006199D02*
G75*
G03*
X149453963Y-138600000I3847785J3847799D01*
G01*
X163400010Y-129153963D02*
G75*
G03*
X161806206Y-125306208I-5441610J-37D01*
G01*
X142993792Y-134393792D02*
X145606207Y-137006207D01*
X160400004Y-117962504D02*
G75*
G03*
X160000000Y-118928185I965696J-965696D01*
G01*
X162340991Y-109241009D02*
G75*
G03*
X164129932Y-109982000I1788909J1788909D01*
G01*
X160799991Y-117562491D02*
G75*
G03*
X161600000Y-115631129I-1931391J1931391D01*
G01*
X106046036Y-132800000D02*
X94200000Y-132800000D01*
X162400004Y-137600004D02*
G75*
G03*
X163400000Y-135185786I-2414204J2414204D01*
G01*
X111406207Y-135906207D02*
X109893792Y-134393792D01*
X115253963Y-137500000D02*
X132192072Y-137500000D01*
X139146036Y-132800000D02*
X136039828Y-135906207D01*
X149453963Y-138600000D02*
X159985786Y-138600000D01*
X162341000Y-109241000D02*
X161970500Y-108870500D01*
X163400000Y-129153963D02*
X163400000Y-135185786D01*
X161600000Y-115631129D02*
X161600000Y-109023966D01*
%TO.N,Net-(Q1-C)*%
X136370007Y-111309993D02*
G75*
G03*
X138591076Y-112230000I2221093J2221093D01*
G01*
X135905000Y-110845000D02*
G75*
G03*
X134995000Y-110845000I-455000J-454997D01*
G01*
X133896532Y-111300013D02*
G75*
G03*
X134995000Y-110845000I-32J1553513D01*
G01*
X138591076Y-112230000D02*
X147250000Y-112230000D01*
X135905000Y-110845000D02*
X136370000Y-111310000D01*
X130107142Y-111300000D02*
X133896532Y-111300000D01*
X127704999Y-112294999D02*
X127265078Y-112734921D01*
X125925000Y-113290000D02*
X125627903Y-113290000D01*
X124722236Y-113707763D02*
X124795000Y-113635000D01*
%TO.N,Net-(Q1-B)*%
X127605025Y-108894974D02*
X127300025Y-108894974D01*
X126779358Y-109110641D02*
X125140000Y-110750000D01*
%TO.N,GND*%
X124000000Y-107460000D02*
X124195000Y-107460000D01*
X124527885Y-107597885D02*
X125140000Y-108210000D01*
%TO.N,Net-(Battery1--)*%
X146190000Y-133845000D02*
X146190000Y-132800000D01*
X156100000Y-135875735D02*
X156100000Y-133200000D01*
X146928926Y-135628926D02*
X147195000Y-135895000D01*
X149621284Y-136900000D02*
X155075735Y-136900000D01*
X146189985Y-133845000D02*
G75*
G03*
X146928926Y-135628926I2522815J0D01*
G01*
X155075735Y-136900014D02*
G75*
G03*
X155799999Y-136599999I-35J1024314D01*
G01*
X147195005Y-135894995D02*
G75*
G03*
X149621284Y-136900000I2426295J2426295D01*
G01*
X155799989Y-136599989D02*
G75*
G03*
X156100000Y-135875735I-724289J724289D01*
G01*
%TO.N,Net-(C2-Pad1)*%
X119700000Y-99143500D02*
X119700000Y-102000000D01*
X121699998Y-97143502D02*
X122633706Y-97143502D01*
X140956207Y-103393792D02*
X140309256Y-104040742D01*
X140379290Y-94000000D02*
X130222791Y-94000000D01*
X142550000Y-99546036D02*
X142550000Y-95899998D01*
X140550001Y-93900000D02*
X140500001Y-93950000D01*
X137245000Y-105310000D02*
X135450000Y-105310000D01*
X121699998Y-97143500D02*
G75*
G03*
X119700000Y-99143500I2J-2000000D01*
G01*
X142550000Y-95899998D02*
G75*
G03*
X140550001Y-93900000I-2000000J-2D01*
G01*
X140379290Y-93999996D02*
G75*
G03*
X140500001Y-93950000I10J170696D01*
G01*
X130222791Y-93999996D02*
G75*
G03*
X126428249Y-95571751I9J-5366304D01*
G01*
X140956200Y-103393785D02*
G75*
G03*
X142550000Y-99546036I-3847800J3847785D01*
G01*
X137245000Y-105310002D02*
G75*
G03*
X140309256Y-104040742I0J4333502D01*
G01*
X122633706Y-97143504D02*
G75*
G03*
X126428249Y-95571751I-6J5366304D01*
G01*
%TO.N,Net-(Q1-C)*%
X124177763Y-115022236D02*
X123600000Y-115600000D01*
%TO.N,GND*%
X156307537Y-129900000D02*
X125753963Y-129900000D01*
X116000000Y-115870571D02*
X116000000Y-120146036D01*
X116905127Y-113772272D02*
X116843699Y-113833699D01*
X158100000Y-133200000D02*
X158100000Y-131692462D01*
X122700000Y-103000000D02*
X122700000Y-101000000D01*
X115156300Y-113833700D02*
X113105326Y-111782726D01*
X118793700Y-112990000D02*
X119900000Y-112990000D01*
X122700000Y-103000000D02*
X122700000Y-100860658D01*
X113611300Y-111506000D02*
X113219950Y-111506000D01*
X114947452Y-110952547D02*
X121111091Y-104788908D01*
X158100000Y-133200000D02*
X158100000Y-125250000D01*
X122700000Y-103000000D02*
X122700000Y-104229289D01*
X138117156Y-98860660D02*
X124699998Y-98860660D01*
X122700000Y-103000000D02*
X122700000Y-104321522D01*
X121906207Y-128306207D02*
X117593792Y-123993792D01*
X138700000Y-98760659D02*
X138700000Y-102000000D01*
X122050000Y-104400000D02*
X122529289Y-104400000D01*
X122050000Y-104399995D02*
G75*
G03*
X121111092Y-104788909I0J-1327805D01*
G01*
X118793700Y-112989987D02*
G75*
G03*
X116905128Y-113772273I0J-2670813D01*
G01*
X116000011Y-115870571D02*
G75*
G03*
X115156300Y-113833700I-2880611J-29D01*
G01*
X115999990Y-120146036D02*
G75*
G03*
X117593793Y-123993791I5441610J36D01*
G01*
X157574989Y-130425011D02*
G75*
G03*
X156307537Y-129900000I-1267489J-1267489D01*
G01*
X122529289Y-104399995D02*
G75*
G03*
X122650000Y-104350000I11J170695D01*
G01*
X122700000Y-103000000D02*
X122700000Y-103000000D01*
X122650003Y-104350003D02*
G75*
G03*
X122700000Y-104229289I-120703J120703D01*
G01*
X124699998Y-98860700D02*
G75*
G03*
X122700000Y-100860658I2J-2000000D01*
G01*
X116843708Y-113833708D02*
G75*
G03*
X116000000Y-115870571I2036892J-2036892D01*
G01*
X138700028Y-98760659D02*
G75*
G03*
X138529290Y-98689950I-100028J-41D01*
G01*
X113219950Y-111506032D02*
G75*
G03*
X113105327Y-111782725I-50J-162068D01*
G01*
X121906215Y-128306199D02*
G75*
G03*
X125753963Y-129900000I3847785J3847799D01*
G01*
X122699991Y-104321522D02*
G75*
G03*
X124000000Y-107460000I4438509J22D01*
G01*
X113611300Y-111506000D02*
G75*
G03*
X114947451Y-110952546I0J1889600D01*
G01*
X158100015Y-131692462D02*
G75*
G03*
X157575000Y-130425000I-1792515J-38D01*
G01*
X115156301Y-113833699D02*
G75*
G03*
X116843699Y-113833699I843699J843699D01*
G01*
X138117156Y-98860624D02*
G75*
G03*
X138529289Y-98689949I44J582824D01*
G01*
%TO.N,Net-(C3-Pad2)*%
X144878302Y-116478302D02*
X148750000Y-120350000D01*
X151520000Y-103100000D02*
X151668959Y-103248959D01*
X141775304Y-109550000D02*
X147547918Y-109550000D01*
X147303963Y-102350000D02*
X149709339Y-102350000D01*
X153120000Y-103850000D02*
X153970000Y-103850000D01*
X150450000Y-118950000D02*
X150450000Y-112452081D01*
X143965000Y-116100000D02*
X143430000Y-116100000D01*
X132903033Y-107603033D02*
X133125000Y-107825000D01*
X132700000Y-107475000D02*
X132700000Y-102000000D01*
X140025000Y-107375000D02*
X143456207Y-103943792D01*
X138274695Y-108100000D02*
X133788908Y-108100000D01*
X152905545Y-124505545D02*
X148750000Y-120350000D01*
X149637867Y-119462132D02*
X148750000Y-120350000D01*
X153100000Y-124975000D02*
X153100000Y-125250000D01*
X150150000Y-119250010D02*
G75*
G03*
X149637867Y-119462132I0J-724290D01*
G01*
X133124997Y-107825003D02*
G75*
G03*
X133788908Y-108100000I663903J663903D01*
G01*
X147303963Y-102349960D02*
G75*
G03*
X143456208Y-103943793I37J-5441540D01*
G01*
X153100002Y-124975000D02*
G75*
G03*
X152905545Y-124505545I-663902J0D01*
G01*
X132700000Y-107475000D02*
G75*
G03*
X132775000Y-107550000I75000J0D01*
G01*
X151668955Y-103248963D02*
G75*
G03*
X153120000Y-103850000I1451045J1451063D01*
G01*
X140025001Y-108824999D02*
G75*
G03*
X138274695Y-108100000I-1750301J-1750301D01*
G01*
X150150000Y-119250000D02*
G75*
G03*
X150450000Y-118950000I0J300000D01*
G01*
X144878301Y-116478303D02*
G75*
G03*
X143965000Y-116100000I-913301J-913297D01*
G01*
X149599995Y-110400005D02*
G75*
G03*
X147547918Y-109550000I-2052095J-2052095D01*
G01*
X132903040Y-107603026D02*
G75*
G03*
X132775000Y-107550000I-128040J-128074D01*
G01*
X150450007Y-112452081D02*
G75*
G03*
X149600000Y-110400000I-2902107J-19D01*
G01*
X140024999Y-108825001D02*
G75*
G03*
X141775304Y-109550000I1750301J1750301D01*
G01*
X151519988Y-103100012D02*
G75*
G03*
X149709339Y-102350000I-1810688J-1810688D01*
G01*
X140025001Y-107375001D02*
G75*
G03*
X140025001Y-108824999I724999J-724999D01*
G01*
X138274695Y-108099997D02*
G75*
G03*
X140024999Y-107374999I5J2475297D01*
G01*
%TO.N,Net-(D1-A)*%
X126890000Y-120500000D02*
X126990000Y-120400000D01*
X123607071Y-120600000D02*
X126648578Y-120600000D01*
X123582928Y-120610000D02*
X119900000Y-120610000D01*
X123582928Y-120610011D02*
G75*
G03*
X123594999Y-120604999I-28J17111D01*
G01*
X126648578Y-120599991D02*
G75*
G03*
X126890000Y-120500000I22J341391D01*
G01*
X123607071Y-120599989D02*
G75*
G03*
X123595001Y-120605001I29J-17111D01*
G01*
%TO.N,Net-(C5-Pad2)*%
X172424020Y-119575979D02*
X172759000Y-119241000D01*
X173597500Y-109147500D02*
X167717677Y-103267677D01*
X156899999Y-105849999D02*
X156700000Y-106050000D01*
X163979720Y-101050000D02*
X163600000Y-101050000D01*
X149298528Y-105950000D02*
X156658578Y-105950000D01*
X171443800Y-119982000D02*
X170869600Y-119982000D01*
X156899999Y-105849999D02*
X160356497Y-102393502D01*
X147850000Y-106550000D02*
X147250000Y-107150000D01*
X173500000Y-117452067D02*
X173500000Y-109577885D01*
X156600000Y-106291421D02*
X156600000Y-108500000D01*
X167632322Y-103182322D02*
X166575000Y-102125000D01*
X156700036Y-106050036D02*
G75*
G03*
X156658578Y-105950000I-41436J41436D01*
G01*
X173597504Y-109342504D02*
G75*
G03*
X173500000Y-109577885I235396J-235396D01*
G01*
X167717686Y-103267668D02*
G75*
G03*
X167675000Y-103250000I-42686J-42732D01*
G01*
X163600000Y-101049998D02*
G75*
G03*
X160356497Y-102393502I0J-4587002D01*
G01*
X167649986Y-103225000D02*
G75*
G03*
X167632321Y-103182323I-60386J0D01*
G01*
X167650000Y-103225000D02*
G75*
G03*
X167675000Y-103250000I25000J0D01*
G01*
X156699994Y-106049994D02*
G75*
G03*
X156600000Y-106291421I241406J-241406D01*
G01*
X166574994Y-102125006D02*
G75*
G03*
X163979720Y-101050000I-2595294J-2595294D01*
G01*
X172759009Y-119241009D02*
G75*
G03*
X173500000Y-117452067I-1788909J1788909D01*
G01*
X171443800Y-119982011D02*
G75*
G03*
X172424020Y-119575979I0J1386211D01*
G01*
X156658578Y-105949989D02*
G75*
G03*
X156899998Y-105849998I22J341389D01*
G01*
X149298528Y-105950012D02*
G75*
G03*
X147850000Y-106550000I-28J-2048488D01*
G01*
X173597499Y-109342499D02*
G75*
G03*
X173597499Y-109147501I-97499J97499D01*
G01*
%TO.N,Net-(D2-A)*%
X133940000Y-116770000D02*
X133270000Y-116100000D01*
X134610000Y-118387523D02*
X134610000Y-120364644D01*
X134695355Y-120350000D02*
X146250000Y-120350000D01*
X134609990Y-118387523D02*
G75*
G03*
X133940000Y-116770000I-2287490J23D01*
G01*
X134609893Y-120364644D02*
G75*
G03*
X134634999Y-120374999I14707J44D01*
G01*
X134695355Y-120349982D02*
G75*
G03*
X134635000Y-120375000I45J-85418D01*
G01*
%TO.N,Net-(C1-Pad1)*%
X111961300Y-104506000D02*
X111867574Y-104506000D01*
X112117300Y-118506000D02*
X112828600Y-118506000D01*
X110703000Y-117803000D02*
X110903034Y-118003034D01*
X112828600Y-103638700D02*
X112828600Y-96572497D01*
X168008147Y-99808147D02*
X170200000Y-102000000D01*
X117901097Y-91500000D02*
X153746036Y-91500000D01*
X110000000Y-116105807D02*
X110000000Y-106373574D01*
X161691852Y-97191852D02*
X157593792Y-93093792D01*
X157593784Y-93093800D02*
G75*
G03*
X153746036Y-91500000I-3847784J-3847800D01*
G01*
X109999997Y-116105807D02*
G75*
G03*
X110703000Y-117803000I2400203J7D01*
G01*
X110903040Y-118003028D02*
G75*
G03*
X112117300Y-118506000I1214260J1214228D01*
G01*
X161691851Y-97191853D02*
G75*
G03*
X164850000Y-98500000I3158149J3158153D01*
G01*
X111867574Y-104505990D02*
G75*
G03*
X110547000Y-105053000I26J-1867610D01*
G01*
X168008148Y-99808146D02*
G75*
G03*
X164850000Y-98500000I-3158148J-3158154D01*
G01*
X114314301Y-92985701D02*
G75*
G03*
X112828600Y-96572497I3586799J-3586799D01*
G01*
X110547007Y-105053007D02*
G75*
G03*
X110000000Y-106373574I1320593J-1320593D01*
G01*
X117901097Y-91499999D02*
G75*
G03*
X114314300Y-92985700I3J-5072501D01*
G01*
X111961300Y-104506000D02*
G75*
G03*
X112828600Y-103638700I0J867300D01*
G01*
%TO.N,Net-(Q1-B)*%
X127200000Y-105463603D02*
X127200000Y-102000000D01*
X128100000Y-107700000D02*
X128100000Y-107636396D01*
X128100001Y-107636396D02*
G75*
G03*
X127650000Y-106550000I-1536401J-4D01*
G01*
X127605036Y-108894985D02*
G75*
G03*
X128100000Y-107700000I-1195036J1194985D01*
G01*
X127199999Y-105463603D02*
G75*
G03*
X127650000Y-106550000I1536401J3D01*
G01*
%TO.N,Net-(R2-Pad2)*%
X155883883Y-114978616D02*
X156774999Y-114087499D01*
X157499999Y-113362498D02*
X157681249Y-113181249D01*
X155000000Y-117112500D02*
X155000000Y-118362500D01*
X158225000Y-112637500D02*
X158043750Y-112818750D01*
X158950000Y-108800609D02*
X158950000Y-110887195D01*
X162990000Y-103850000D02*
X164130000Y-103850000D01*
X160399999Y-105299999D02*
X161043898Y-104656101D01*
X160399997Y-105299997D02*
G75*
G03*
X158950000Y-108800609I3500603J-3500603D01*
G01*
X162990000Y-103849999D02*
G75*
G03*
X161043899Y-104656102I0J-2752201D01*
G01*
X155883877Y-114978610D02*
G75*
G03*
X155000000Y-117112500I2133923J-2133890D01*
G01*
X158225001Y-112637501D02*
G75*
G03*
X158950000Y-110887195I-1750301J1750301D01*
G01*
%TD*%
%TA.AperFunction,NonConductor*%
G36*
X153747532Y-94000575D02*
G01*
X154031251Y-94014515D01*
X154037310Y-94015112D01*
X154316777Y-94056568D01*
X154322748Y-94057756D01*
X154521976Y-94107660D01*
X154596822Y-94126408D01*
X154602622Y-94128168D01*
X154868659Y-94223358D01*
X154874262Y-94225679D01*
X155129677Y-94346482D01*
X155135043Y-94349350D01*
X155174493Y-94372996D01*
X155377369Y-94494595D01*
X155382431Y-94497977D01*
X155609368Y-94666285D01*
X155614074Y-94670147D01*
X155824721Y-94861067D01*
X155826925Y-94863166D01*
X159887413Y-98923654D01*
X159887415Y-98923658D01*
X160099669Y-99135913D01*
X160203368Y-99225768D01*
X160241142Y-99284546D01*
X160241142Y-99354416D01*
X160203368Y-99413194D01*
X160181592Y-99428313D01*
X160023453Y-99514663D01*
X159981151Y-99537763D01*
X159901190Y-99589151D01*
X159555260Y-99811466D01*
X159555261Y-99811465D01*
X159149966Y-100114866D01*
X159149967Y-100114866D01*
X158767361Y-100446395D01*
X158643944Y-100569814D01*
X156644526Y-102569230D01*
X156583203Y-102602715D01*
X156513511Y-102597731D01*
X156457578Y-102555859D01*
X156449463Y-102543556D01*
X156313749Y-102308492D01*
X156313748Y-102308490D01*
X156118954Y-102046837D01*
X156118947Y-102046829D01*
X156118943Y-102046823D01*
X155895077Y-101809538D01*
X155895069Y-101809531D01*
X155895068Y-101809530D01*
X155645184Y-101599852D01*
X155645179Y-101599848D01*
X155645177Y-101599847D01*
X155372623Y-101420586D01*
X155367684Y-101418105D01*
X155081108Y-101274181D01*
X155081102Y-101274178D01*
X154774566Y-101162608D01*
X154774545Y-101162601D01*
X154457141Y-101087374D01*
X154457126Y-101087372D01*
X154133111Y-101049500D01*
X153806889Y-101049500D01*
X153523375Y-101082638D01*
X153482873Y-101087372D01*
X153482871Y-101087372D01*
X153186371Y-101157644D01*
X153116599Y-101153950D01*
X153077243Y-101131276D01*
X152845082Y-100932991D01*
X152523340Y-100699231D01*
X152523339Y-100699231D01*
X152523338Y-100699230D01*
X152184241Y-100491429D01*
X152095852Y-100446392D01*
X151829888Y-100310874D01*
X151829887Y-100310874D01*
X151462466Y-100158679D01*
X151462466Y-100158680D01*
X151462459Y-100158677D01*
X151084223Y-100035777D01*
X150697510Y-99942931D01*
X150304704Y-99880712D01*
X150304702Y-99880711D01*
X150304697Y-99880711D01*
X149908231Y-99849503D01*
X149788004Y-99849501D01*
X149787968Y-99849500D01*
X149787922Y-99849500D01*
X149709377Y-99849500D01*
X149558125Y-99849498D01*
X149558124Y-99849498D01*
X149556236Y-99849498D01*
X149556173Y-99849500D01*
X147457135Y-99849500D01*
X147457103Y-99849499D01*
X147355347Y-99849499D01*
X147355214Y-99849460D01*
X147303946Y-99849460D01*
X147043949Y-99849461D01*
X146934755Y-99856618D01*
X146525073Y-99883473D01*
X146009523Y-99951351D01*
X145883726Y-99976374D01*
X145499523Y-100052801D01*
X145442614Y-100068050D01*
X145193153Y-100134894D01*
X145123303Y-100133231D01*
X145065440Y-100094069D01*
X145037936Y-100029841D01*
X145037325Y-100007017D01*
X145050499Y-99806047D01*
X145050500Y-99546053D01*
X145050501Y-99394800D01*
X145050500Y-99394791D01*
X145050500Y-95821415D01*
X145050500Y-95703500D01*
X145016248Y-95312003D01*
X144948006Y-94924982D01*
X144846292Y-94545381D01*
X144711880Y-94176090D01*
X144711878Y-94176086D01*
X144711876Y-94176080D01*
X144712252Y-94176885D01*
X144701772Y-94107806D01*
X144730303Y-94044027D01*
X144788786Y-94005798D01*
X144824643Y-94000500D01*
X153744489Y-94000500D01*
X153747532Y-94000575D01*
G37*
%TD.AperFunction*%
%TA.AperFunction,NonConductor*%
G36*
X130026652Y-103388389D02*
G01*
X130057386Y-103423859D01*
X130149500Y-103583405D01*
X130182887Y-103641233D01*
X130199500Y-103703233D01*
X130199500Y-105397722D01*
X130179815Y-105464761D01*
X130127011Y-105510516D01*
X130057853Y-105520460D01*
X129994297Y-105491435D01*
X129970925Y-105464356D01*
X129971533Y-105465310D01*
X129873942Y-105325936D01*
X129769339Y-105176548D01*
X129769338Y-105176546D01*
X129729510Y-105129080D01*
X129701497Y-105065071D01*
X129700500Y-105049375D01*
X129700500Y-103703233D01*
X129717113Y-103641233D01*
X129750500Y-103583405D01*
X129842613Y-103423859D01*
X129893180Y-103375644D01*
X129961787Y-103362421D01*
X130026652Y-103388389D01*
G37*
%TD.AperFunction*%
%TA.AperFunction,NonConductor*%
G36*
X115960917Y-95114040D02*
G01*
X115995955Y-95174489D01*
X115999500Y-95203928D01*
X115999500Y-96475467D01*
X115999416Y-96475889D01*
X115999459Y-96500001D01*
X115999500Y-96500099D01*
X115999616Y-96500382D01*
X115999618Y-96500384D01*
X115999808Y-96500462D01*
X116000000Y-96500541D01*
X116000002Y-96500539D01*
X116024616Y-96500524D01*
X116024616Y-96500528D01*
X116024760Y-96500500D01*
X117818350Y-96500500D01*
X117885389Y-96520185D01*
X117931144Y-96572989D01*
X117941088Y-96642147D01*
X117919925Y-96695624D01*
X117900702Y-96723076D01*
X117704203Y-97063424D01*
X117704202Y-97063425D01*
X117538122Y-97419582D01*
X117538118Y-97419593D01*
X117403707Y-97788885D01*
X117403705Y-97788893D01*
X117403704Y-97788893D01*
X117383557Y-97864085D01*
X117301993Y-98168486D01*
X117233751Y-98555508D01*
X117199500Y-98947004D01*
X117199500Y-100296767D01*
X117182887Y-100358767D01*
X117014113Y-100651091D01*
X117014107Y-100651104D01*
X116875674Y-100972027D01*
X116775430Y-101306865D01*
X116775428Y-101306872D01*
X116714739Y-101651061D01*
X116714738Y-101651072D01*
X116694415Y-101999996D01*
X116694415Y-102000003D01*
X116714738Y-102348927D01*
X116714739Y-102348938D01*
X116775428Y-102693127D01*
X116775430Y-102693134D01*
X116875674Y-103027972D01*
X117014107Y-103348895D01*
X117014113Y-103348908D01*
X117188870Y-103651597D01*
X117397584Y-103931949D01*
X117397589Y-103931955D01*
X117445632Y-103982877D01*
X117637442Y-104186183D01*
X117778389Y-104304452D01*
X117827473Y-104345638D01*
X117866175Y-104403809D01*
X117867283Y-104473670D01*
X117835448Y-104528308D01*
X116460248Y-105903508D01*
X116398925Y-105936993D01*
X116329233Y-105932009D01*
X116273300Y-105890137D01*
X116248883Y-105824673D01*
X116251369Y-105789615D01*
X116252938Y-105782362D01*
X116289438Y-105613592D01*
X116329100Y-105242569D01*
X116329100Y-103862787D01*
X116314209Y-103583392D01*
X116254856Y-103215005D01*
X116156683Y-102855014D01*
X116020801Y-102507498D01*
X115848750Y-102176394D01*
X115642480Y-101865453D01*
X115404327Y-101578200D01*
X115366593Y-101541457D01*
X115332295Y-101480585D01*
X115329100Y-101452617D01*
X115329100Y-96574237D01*
X115329198Y-96570760D01*
X115338722Y-96401160D01*
X115345077Y-96287993D01*
X115345853Y-96281104D01*
X115393003Y-96003603D01*
X115394547Y-95996835D01*
X115472471Y-95726355D01*
X115474760Y-95719812D01*
X115582481Y-95459751D01*
X115585488Y-95453509D01*
X115721647Y-95207150D01*
X115725338Y-95201277D01*
X115774371Y-95132172D01*
X115829219Y-95088889D01*
X115898761Y-95082129D01*
X115960917Y-95114040D01*
G37*
%TD.AperFunction*%
%TA.AperFunction,NonConductor*%
G36*
X166503074Y-105589315D02*
G01*
X168183578Y-107269819D01*
X168217063Y-107331142D01*
X168212079Y-107400834D01*
X168170207Y-107456767D01*
X168104743Y-107481184D01*
X168095897Y-107481500D01*
X164292154Y-107481500D01*
X164225115Y-107461815D01*
X164179360Y-107409011D01*
X164178295Y-107406614D01*
X164161705Y-107368154D01*
X164106859Y-107241008D01*
X163943749Y-106958492D01*
X163942183Y-106956389D01*
X163861811Y-106848431D01*
X163837567Y-106782903D01*
X163852599Y-106714669D01*
X163902134Y-106665394D01*
X163963281Y-106651754D01*
X163963281Y-106650500D01*
X164293104Y-106650500D01*
X164293111Y-106650500D01*
X164617126Y-106612628D01*
X164617135Y-106612625D01*
X164617141Y-106612625D01*
X164873176Y-106551942D01*
X164934554Y-106537396D01*
X165241101Y-106425822D01*
X165532623Y-106279414D01*
X165805177Y-106100153D01*
X166055077Y-105890462D01*
X166278943Y-105653177D01*
X166316162Y-105603182D01*
X166371984Y-105561163D01*
X166441662Y-105555993D01*
X166503074Y-105589315D01*
G37*
%TD.AperFunction*%
%TA.AperFunction,NonConductor*%
G36*
X121347574Y-108191177D02*
G01*
X121403508Y-108233049D01*
X121408555Y-108240318D01*
X121435027Y-108281507D01*
X121732063Y-108678300D01*
X122039170Y-109032720D01*
X122056640Y-109052881D01*
X122204093Y-109200333D01*
X122284906Y-109286390D01*
X122302482Y-109300930D01*
X122313006Y-109309636D01*
X122317330Y-109313571D01*
X122338827Y-109335069D01*
X122431722Y-109407848D01*
X122480559Y-109448249D01*
X122527337Y-109486947D01*
X122552895Y-109503167D01*
X122557908Y-109506708D01*
X122574160Y-109519440D01*
X122614793Y-109576280D01*
X122618246Y-109646064D01*
X122610764Y-109667942D01*
X122563538Y-109772873D01*
X122563530Y-109772895D01*
X122464546Y-110090550D01*
X122464544Y-110090556D01*
X122464544Y-110090559D01*
X122425580Y-110303177D01*
X122404563Y-110417863D01*
X122384262Y-110753478D01*
X122360565Y-110819207D01*
X122305095Y-110861690D01*
X122235462Y-110867439D01*
X122173775Y-110834630D01*
X122172807Y-110833672D01*
X122013405Y-110674270D01*
X122013387Y-110674254D01*
X121784317Y-110502775D01*
X121784309Y-110502770D01*
X121533166Y-110365635D01*
X121533167Y-110365635D01*
X121365710Y-110303177D01*
X121265046Y-110265631D01*
X121265043Y-110265630D01*
X121265037Y-110265628D01*
X120985433Y-110204804D01*
X120771448Y-110189500D01*
X119546102Y-110189500D01*
X119479063Y-110169815D01*
X119433308Y-110117011D01*
X119423364Y-110047853D01*
X119452389Y-109984297D01*
X119458421Y-109977819D01*
X119883682Y-109552558D01*
X121216562Y-108219676D01*
X121277883Y-108186193D01*
X121347574Y-108191177D01*
G37*
%TD.AperFunction*%
%TA.AperFunction,NonConductor*%
G36*
X153741922Y-108470185D02*
G01*
X153787677Y-108522989D01*
X153798673Y-108567290D01*
X153813722Y-108825669D01*
X153813723Y-108825680D01*
X153870367Y-109146924D01*
X153870369Y-109146932D01*
X153963931Y-109459452D01*
X154093137Y-109758983D01*
X154093143Y-109758996D01*
X154256251Y-110041509D01*
X154451045Y-110303162D01*
X154451050Y-110303168D01*
X154451057Y-110303177D01*
X154674923Y-110540462D01*
X154674929Y-110540467D01*
X154674930Y-110540468D01*
X154674931Y-110540469D01*
X154924815Y-110750147D01*
X154924818Y-110750149D01*
X154924823Y-110750153D01*
X155197377Y-110929414D01*
X155488899Y-111075822D01*
X155488902Y-111075823D01*
X155524605Y-111088818D01*
X155580870Y-111130243D01*
X155605806Y-111195512D01*
X155591497Y-111263900D01*
X155561906Y-111300326D01*
X155557746Y-111303816D01*
X155557737Y-111303825D01*
X155331875Y-111543223D01*
X155331870Y-111543229D01*
X155135329Y-111807229D01*
X154970764Y-112092264D01*
X154970758Y-112092277D01*
X154840397Y-112394487D01*
X154810329Y-112494919D01*
X154779220Y-112547035D01*
X154219585Y-113106671D01*
X154150118Y-113176139D01*
X154150091Y-113176153D01*
X153962437Y-113363809D01*
X153962438Y-113363808D01*
X153962434Y-113363813D01*
X153680819Y-113693546D01*
X153641663Y-113747440D01*
X153425950Y-114044348D01*
X153425949Y-114044349D01*
X153425946Y-114044353D01*
X153425943Y-114044358D01*
X153216665Y-114385873D01*
X153199374Y-114414090D01*
X153184984Y-114442331D01*
X153137010Y-114493126D01*
X153069189Y-114509921D01*
X153003054Y-114487383D01*
X152959603Y-114432668D01*
X152950500Y-114386035D01*
X152950500Y-112603325D01*
X152950501Y-112603317D01*
X152950500Y-112503432D01*
X152950506Y-112503410D01*
X152950506Y-112452065D01*
X152950507Y-112452065D01*
X152950505Y-112239797D01*
X152938894Y-112092277D01*
X152917195Y-111816580D01*
X152916018Y-111809152D01*
X152850780Y-111397264D01*
X152751673Y-110984460D01*
X152620483Y-110580705D01*
X152538478Y-110382730D01*
X152458021Y-110188491D01*
X152458021Y-110188492D01*
X152458019Y-110188487D01*
X152265284Y-109810224D01*
X152265281Y-109810218D01*
X152265281Y-109810219D01*
X152243616Y-109774866D01*
X152043467Y-109448254D01*
X152043464Y-109448249D01*
X151806453Y-109122032D01*
X151793927Y-109104791D01*
X151555542Y-108825680D01*
X151518215Y-108781976D01*
X151518211Y-108781972D01*
X151518212Y-108781972D01*
X151475078Y-108738838D01*
X151475072Y-108738831D01*
X151475014Y-108738773D01*
X151475003Y-108738761D01*
X151398423Y-108662181D01*
X151364938Y-108600858D01*
X151369922Y-108531166D01*
X151411794Y-108475233D01*
X151477258Y-108450816D01*
X151486104Y-108450500D01*
X153674883Y-108450500D01*
X153741922Y-108470185D01*
G37*
%TD.AperFunction*%
%TA.AperFunction,NonConductor*%
G36*
X147866674Y-115187694D02*
G01*
X147923374Y-115228522D01*
X147948999Y-115293523D01*
X147949500Y-115304658D01*
X147949500Y-115713897D01*
X147929815Y-115780936D01*
X147877011Y-115826691D01*
X147807853Y-115836635D01*
X147744297Y-115807610D01*
X147737819Y-115801578D01*
X147374850Y-115438609D01*
X147341365Y-115377286D01*
X147346349Y-115307594D01*
X147388221Y-115251661D01*
X147448130Y-115227768D01*
X147771914Y-115189923D01*
X147771921Y-115189921D01*
X147771924Y-115189921D01*
X147796902Y-115184001D01*
X147866674Y-115187694D01*
G37*
%TD.AperFunction*%
%TA.AperFunction,NonConductor*%
G36*
X135242092Y-113629105D02*
G01*
X135454366Y-113783331D01*
X135454367Y-113783331D01*
X135454368Y-113783332D01*
X135832354Y-114014964D01*
X135832358Y-114014966D01*
X136227348Y-114216226D01*
X136409978Y-114291874D01*
X136636917Y-114385876D01*
X137058533Y-114522869D01*
X137489597Y-114626361D01*
X137489596Y-114626361D01*
X137927459Y-114695715D01*
X138369397Y-114730499D01*
X138369400Y-114730499D01*
X138509936Y-114730499D01*
X138509960Y-114730500D01*
X138591057Y-114730500D01*
X138742309Y-114730501D01*
X138742317Y-114730500D01*
X140782276Y-114730500D01*
X140849315Y-114750185D01*
X140895070Y-114802989D01*
X140905014Y-114872147D01*
X140896135Y-114903614D01*
X140793931Y-115140547D01*
X140700369Y-115453067D01*
X140700367Y-115453075D01*
X140643723Y-115774319D01*
X140643722Y-115774330D01*
X140624754Y-116099996D01*
X140624754Y-116100003D01*
X140643722Y-116425669D01*
X140643723Y-116425680D01*
X140700367Y-116746924D01*
X140700369Y-116746932D01*
X140793931Y-117059452D01*
X140923137Y-117358983D01*
X140923143Y-117358996D01*
X141086249Y-117641506D01*
X141093653Y-117651450D01*
X141117898Y-117716978D01*
X141102867Y-117785212D01*
X141053332Y-117834488D01*
X140994191Y-117849500D01*
X137190867Y-117849500D01*
X137123828Y-117829815D01*
X137078073Y-117777011D01*
X137068393Y-117744897D01*
X137066209Y-117731110D01*
X137039299Y-117561191D01*
X137022120Y-117452722D01*
X136934291Y-117086875D01*
X136858493Y-116853588D01*
X136818026Y-116729041D01*
X136674044Y-116381435D01*
X136674041Y-116381430D01*
X136674039Y-116381424D01*
X136503236Y-116046201D01*
X136455393Y-115968128D01*
X136306646Y-115725393D01*
X136306643Y-115725389D01*
X136306644Y-115725389D01*
X136085493Y-115421000D01*
X135955502Y-115268801D01*
X135931001Y-115223831D01*
X135920850Y-115189923D01*
X135906069Y-115140549D01*
X135776859Y-114841008D01*
X135668996Y-114654183D01*
X135613748Y-114558490D01*
X135418954Y-114296837D01*
X135418947Y-114296829D01*
X135418943Y-114296823D01*
X135195077Y-114059538D01*
X135195069Y-114059531D01*
X135195068Y-114059530D01*
X134958446Y-113860980D01*
X134919744Y-113802809D01*
X134918636Y-113732948D01*
X134955473Y-113673578D01*
X135006053Y-113646218D01*
X135116775Y-113616549D01*
X135116774Y-113616549D01*
X135116779Y-113616548D01*
X135126790Y-113612904D01*
X135196519Y-113608468D01*
X135242092Y-113629105D01*
G37*
%TD.AperFunction*%
%TA.AperFunction,NonConductor*%
G36*
X118814567Y-115775195D02*
G01*
X118814568Y-115775195D01*
X118814572Y-115775196D01*
X119028552Y-115790500D01*
X120688862Y-115790500D01*
X120755901Y-115810185D01*
X120801656Y-115862989D01*
X120812652Y-115907291D01*
X120813722Y-115925669D01*
X120813723Y-115925680D01*
X120870367Y-116246924D01*
X120870369Y-116246932D01*
X120963931Y-116559452D01*
X121093137Y-116858983D01*
X121093143Y-116858996D01*
X121256251Y-117141509D01*
X121451045Y-117403162D01*
X121451050Y-117403168D01*
X121451057Y-117403177D01*
X121674923Y-117640462D01*
X121674929Y-117640467D01*
X121674930Y-117640468D01*
X121674931Y-117640469D01*
X121924815Y-117850147D01*
X121924818Y-117850149D01*
X121924823Y-117850153D01*
X121973093Y-117881901D01*
X122018286Y-117935184D01*
X122027497Y-118004444D01*
X121997802Y-118067689D01*
X121938628Y-118104840D01*
X121904953Y-118109500D01*
X121190467Y-118109500D01*
X121134816Y-118096310D01*
X121011101Y-118034178D01*
X120856704Y-117977982D01*
X120704566Y-117922608D01*
X120704545Y-117922601D01*
X120387141Y-117847374D01*
X120387126Y-117847372D01*
X120063111Y-117809500D01*
X119736889Y-117809500D01*
X119453375Y-117842638D01*
X119412873Y-117847372D01*
X119412858Y-117847374D01*
X119095454Y-117922601D01*
X119095433Y-117922608D01*
X118788901Y-118034176D01*
X118680151Y-118088793D01*
X118611408Y-118101289D01*
X118546821Y-118074636D01*
X118506897Y-118017296D01*
X118500500Y-117977982D01*
X118500500Y-116021806D01*
X118500501Y-116021798D01*
X118500500Y-115920854D01*
X118501855Y-115916240D01*
X118500802Y-115880475D01*
X118501808Y-115860651D01*
X118503861Y-115845057D01*
X118532128Y-115781165D01*
X118590453Y-115742694D01*
X118653155Y-115740082D01*
X118814567Y-115775195D01*
G37*
%TD.AperFunction*%
%TA.AperFunction,NonConductor*%
G36*
X157418834Y-120525315D02*
G01*
X157474767Y-120567187D01*
X157499184Y-120632651D01*
X157499500Y-120641497D01*
X157499500Y-121092980D01*
X157499499Y-121093017D01*
X157499499Y-121194681D01*
X157499490Y-121194711D01*
X157499490Y-121246053D01*
X157499491Y-121506047D01*
X157533503Y-122024924D01*
X157546344Y-122122454D01*
X157580330Y-122380601D01*
X157569565Y-122449637D01*
X157523185Y-122501893D01*
X157485988Y-122517444D01*
X157295454Y-122562601D01*
X157295433Y-122562608D01*
X156988897Y-122674178D01*
X156988891Y-122674181D01*
X156697380Y-122820584D01*
X156424815Y-122999852D01*
X156174931Y-123209530D01*
X156174930Y-123209531D01*
X156174924Y-123209536D01*
X156174923Y-123209538D01*
X155951057Y-123446823D01*
X155951054Y-123446826D01*
X155951052Y-123446829D01*
X155951045Y-123446837D01*
X155756251Y-123708490D01*
X155707387Y-123793126D01*
X155656820Y-123841342D01*
X155588213Y-123854564D01*
X155523348Y-123828596D01*
X155492613Y-123793126D01*
X155443748Y-123708490D01*
X155248954Y-123446837D01*
X155248947Y-123446829D01*
X155248943Y-123446823D01*
X155159607Y-123352132D01*
X155146711Y-123335943D01*
X155062244Y-123209531D01*
X154980826Y-123087681D01*
X154980815Y-123087667D01*
X154980588Y-123087391D01*
X154939560Y-123037398D01*
X154892001Y-122979447D01*
X154888651Y-122974968D01*
X154885234Y-122969940D01*
X154870233Y-122952925D01*
X154783573Y-122847331D01*
X154756826Y-122820584D01*
X154703469Y-122767227D01*
X153084347Y-121148106D01*
X153050862Y-121086783D01*
X153055846Y-121017091D01*
X153097718Y-120961158D01*
X153163182Y-120936741D01*
X153231455Y-120951593D01*
X153341833Y-121011864D01*
X153341832Y-121011864D01*
X153341836Y-121011865D01*
X153341839Y-121011867D01*
X153609954Y-121111869D01*
X153609960Y-121111870D01*
X153609962Y-121111871D01*
X153889566Y-121172695D01*
X153889568Y-121172695D01*
X153889572Y-121172696D01*
X154103552Y-121188000D01*
X155896448Y-121188000D01*
X156110428Y-121172696D01*
X156230634Y-121146547D01*
X156390037Y-121111871D01*
X156390037Y-121111870D01*
X156390046Y-121111869D01*
X156658161Y-121011867D01*
X156909315Y-120874726D01*
X157138395Y-120703239D01*
X157208983Y-120632651D01*
X157287819Y-120553816D01*
X157349142Y-120520331D01*
X157418834Y-120525315D01*
G37*
%TD.AperFunction*%
%TA.AperFunction,NonConductor*%
G36*
X155562949Y-126868596D02*
G01*
X155596596Y-126929831D01*
X155599500Y-126956509D01*
X155599500Y-127275500D01*
X155579815Y-127342539D01*
X155527011Y-127388294D01*
X155475500Y-127399500D01*
X155209669Y-127399500D01*
X155142630Y-127379815D01*
X155096875Y-127327011D01*
X155086931Y-127257853D01*
X155115956Y-127194297D01*
X155119474Y-127190407D01*
X155185746Y-127120162D01*
X155248943Y-127053177D01*
X155376037Y-126882461D01*
X155431859Y-126840442D01*
X155501538Y-126835274D01*
X155562949Y-126868596D01*
G37*
%TD.AperFunction*%
%TA.AperFunction,NonConductor*%
G36*
X131379984Y-113820185D02*
G01*
X131425739Y-113872989D01*
X131435683Y-113942147D01*
X131406658Y-114005703D01*
X131392651Y-114019489D01*
X131344931Y-114059530D01*
X131344930Y-114059531D01*
X131344924Y-114059536D01*
X131344923Y-114059538D01*
X131121057Y-114296823D01*
X131121054Y-114296826D01*
X131121052Y-114296829D01*
X131121045Y-114296837D01*
X130926251Y-114558490D01*
X130763143Y-114841003D01*
X130763137Y-114841016D01*
X130633931Y-115140547D01*
X130540369Y-115453067D01*
X130540367Y-115453075D01*
X130483723Y-115774319D01*
X130483722Y-115774330D01*
X130464754Y-116099996D01*
X130464754Y-116100003D01*
X130483722Y-116425669D01*
X130483723Y-116425680D01*
X130540367Y-116746924D01*
X130540369Y-116746932D01*
X130633931Y-117059452D01*
X130763137Y-117358983D01*
X130763143Y-117358996D01*
X130926251Y-117641509D01*
X131121045Y-117903162D01*
X131121050Y-117903168D01*
X131121057Y-117903177D01*
X131344923Y-118140462D01*
X131344929Y-118140467D01*
X131344930Y-118140468D01*
X131344931Y-118140469D01*
X131594815Y-118350147D01*
X131594818Y-118350149D01*
X131594823Y-118350153D01*
X131867377Y-118529414D01*
X132041153Y-118616687D01*
X132092225Y-118664363D01*
X132109500Y-118727496D01*
X132109500Y-119100662D01*
X132099359Y-119149775D01*
X132095989Y-119157589D01*
X131973931Y-119440547D01*
X131880369Y-119753067D01*
X131880367Y-119753075D01*
X131823723Y-120074319D01*
X131823722Y-120074330D01*
X131804754Y-120399996D01*
X131804754Y-120400003D01*
X131823722Y-120725669D01*
X131823723Y-120725680D01*
X131880367Y-121046924D01*
X131880369Y-121046932D01*
X131973931Y-121359452D01*
X132103137Y-121658983D01*
X132103143Y-121658996D01*
X132266251Y-121941509D01*
X132461045Y-122203162D01*
X132461050Y-122203168D01*
X132461057Y-122203177D01*
X132684923Y-122440462D01*
X132684929Y-122440467D01*
X132684930Y-122440468D01*
X132684931Y-122440469D01*
X132934815Y-122650147D01*
X132934818Y-122650149D01*
X132934823Y-122650153D01*
X133207377Y-122829414D01*
X133498899Y-122975822D01*
X133805446Y-123087396D01*
X133805452Y-123087397D01*
X133805454Y-123087398D01*
X134122858Y-123162625D01*
X134122865Y-123162626D01*
X134122874Y-123162628D01*
X134446889Y-123200500D01*
X134446896Y-123200500D01*
X134773104Y-123200500D01*
X134773111Y-123200500D01*
X135097126Y-123162628D01*
X135097135Y-123162625D01*
X135097141Y-123162625D01*
X135413385Y-123087673D01*
X135414554Y-123087396D01*
X135721101Y-122975822D01*
X135721104Y-122975820D01*
X135721108Y-122975819D01*
X135944374Y-122863690D01*
X136000025Y-122850500D01*
X144959533Y-122850500D01*
X145015183Y-122863689D01*
X145138899Y-122925822D01*
X145445446Y-123037396D01*
X145445452Y-123037397D01*
X145445454Y-123037398D01*
X145762858Y-123112625D01*
X145762865Y-123112626D01*
X145762874Y-123112628D01*
X146086889Y-123150500D01*
X146086896Y-123150500D01*
X146413104Y-123150500D01*
X146413111Y-123150500D01*
X146737126Y-123112628D01*
X146737135Y-123112625D01*
X146737141Y-123112625D01*
X146870812Y-123080943D01*
X147054554Y-123037396D01*
X147054568Y-123037391D01*
X147128667Y-123010421D01*
X147198396Y-123005988D01*
X147214412Y-123010760D01*
X147384954Y-123074369D01*
X147505077Y-123100500D01*
X147664566Y-123135195D01*
X147664568Y-123135195D01*
X147664572Y-123135196D01*
X147878552Y-123150500D01*
X147962897Y-123150500D01*
X148029936Y-123170185D01*
X148050578Y-123186819D01*
X150272581Y-125408822D01*
X150306066Y-125470145D01*
X150308690Y-125489291D01*
X150313722Y-125575670D01*
X150313723Y-125575680D01*
X150370367Y-125896924D01*
X150370369Y-125896932D01*
X150463931Y-126209452D01*
X150593137Y-126508983D01*
X150593143Y-126508996D01*
X150756251Y-126791509D01*
X150951045Y-127053162D01*
X150951059Y-127053179D01*
X151080526Y-127190407D01*
X151112213Y-127252678D01*
X151105203Y-127322195D01*
X151061722Y-127376887D01*
X150995575Y-127399389D01*
X150990331Y-127399500D01*
X125755510Y-127399500D01*
X125752467Y-127399425D01*
X125468746Y-127385484D01*
X125462688Y-127384887D01*
X125183221Y-127343431D01*
X125177250Y-127342243D01*
X124903185Y-127273593D01*
X124897371Y-127271829D01*
X124631345Y-127176643D01*
X124625733Y-127174318D01*
X124370321Y-127053517D01*
X124364952Y-127050647D01*
X124122630Y-126905404D01*
X124117568Y-126902022D01*
X123890631Y-126733713D01*
X123885925Y-126729851D01*
X123675293Y-126538947D01*
X123673089Y-126536848D01*
X120642645Y-123506404D01*
X120609160Y-123445081D01*
X120614144Y-123375389D01*
X120656016Y-123319456D01*
X120701737Y-123298064D01*
X120704546Y-123297398D01*
X120704547Y-123297397D01*
X120704554Y-123297396D01*
X121011101Y-123185822D01*
X121134816Y-123123689D01*
X121190467Y-123110500D01*
X122329444Y-123110500D01*
X122385095Y-123123689D01*
X122488899Y-123175822D01*
X122795446Y-123287396D01*
X122795452Y-123287397D01*
X122795454Y-123287398D01*
X123112858Y-123362625D01*
X123112865Y-123362626D01*
X123112874Y-123362628D01*
X123436889Y-123400500D01*
X123436896Y-123400500D01*
X123763104Y-123400500D01*
X123763111Y-123400500D01*
X124087126Y-123362628D01*
X124087135Y-123362625D01*
X124087141Y-123362625D01*
X124362365Y-123297395D01*
X124404554Y-123287396D01*
X124711101Y-123175822D01*
X124834816Y-123113689D01*
X124890467Y-123100500D01*
X125538587Y-123100500D01*
X125581919Y-123108317D01*
X125624954Y-123124369D01*
X125745072Y-123150499D01*
X125904566Y-123185195D01*
X125904568Y-123185195D01*
X125904572Y-123185196D01*
X126118552Y-123200500D01*
X127861448Y-123200500D01*
X128075428Y-123185196D01*
X128118525Y-123175821D01*
X128355037Y-123124371D01*
X128355037Y-123124370D01*
X128355046Y-123124369D01*
X128623161Y-123024367D01*
X128874315Y-122887226D01*
X129103395Y-122715739D01*
X129305739Y-122513395D01*
X129477226Y-122284315D01*
X129614367Y-122033161D01*
X129714369Y-121765046D01*
X129714371Y-121765037D01*
X129775195Y-121485433D01*
X129775195Y-121485432D01*
X129775196Y-121485428D01*
X129790500Y-121271448D01*
X129790500Y-119528552D01*
X129775196Y-119314572D01*
X129772228Y-119300930D01*
X129714371Y-119034962D01*
X129714370Y-119034960D01*
X129714369Y-119034954D01*
X129614367Y-118766839D01*
X129602398Y-118744920D01*
X129477229Y-118515690D01*
X129477224Y-118515682D01*
X129305745Y-118286612D01*
X129305729Y-118286594D01*
X129103405Y-118084270D01*
X129103387Y-118084254D01*
X128874317Y-117912775D01*
X128874309Y-117912770D01*
X128623166Y-117775635D01*
X128623167Y-117775635D01*
X128503796Y-117731112D01*
X128355046Y-117675631D01*
X128355043Y-117675630D01*
X128355037Y-117675628D01*
X128075433Y-117614804D01*
X127861448Y-117599500D01*
X126118552Y-117599500D01*
X125904566Y-117614804D01*
X125849033Y-117626885D01*
X125779341Y-117621901D01*
X125723408Y-117580029D01*
X125698991Y-117514565D01*
X125713843Y-117446292D01*
X125732478Y-117420628D01*
X125748943Y-117403177D01*
X125943749Y-117141508D01*
X126106859Y-116858992D01*
X126236069Y-116559451D01*
X126276694Y-116423749D01*
X126292377Y-116390432D01*
X126466082Y-116130458D01*
X126557609Y-115959216D01*
X126606570Y-115909373D01*
X126623628Y-115901490D01*
X126723161Y-115864367D01*
X126974315Y-115727226D01*
X127085925Y-115643675D01*
X127128139Y-115623169D01*
X127169644Y-115612048D01*
X127248043Y-115591043D01*
X127608726Y-115459767D01*
X127608727Y-115459767D01*
X127956603Y-115297553D01*
X128289012Y-115105641D01*
X128482709Y-114970015D01*
X128603427Y-114885491D01*
X128603432Y-114885487D01*
X128603433Y-114885487D01*
X128764683Y-114750185D01*
X128897463Y-114638772D01*
X128976887Y-114559349D01*
X128976953Y-114559286D01*
X128977628Y-114558610D01*
X128977634Y-114558606D01*
X129013371Y-114522869D01*
X129033171Y-114503070D01*
X129141754Y-114394489D01*
X129141805Y-114394432D01*
X129320013Y-114216226D01*
X129418733Y-114117507D01*
X129436473Y-114099765D01*
X129471416Y-114064822D01*
X129474958Y-114061549D01*
X129572691Y-113978078D01*
X129588416Y-113966653D01*
X129691753Y-113903329D01*
X129709074Y-113894504D01*
X129821032Y-113848130D01*
X129839528Y-113842120D01*
X129957371Y-113813830D01*
X129976571Y-113810789D01*
X130066064Y-113803746D01*
X130104903Y-113800691D01*
X130109768Y-113800500D01*
X130258363Y-113800502D01*
X130258371Y-113800500D01*
X130260251Y-113800501D01*
X130260315Y-113800500D01*
X131312945Y-113800500D01*
X131379984Y-113820185D01*
G37*
%TD.AperFunction*%
%TA.AperFunction,NonConductor*%
G36*
X160805703Y-128532750D02*
G01*
X160843477Y-128591528D01*
X160847158Y-128608268D01*
X160884897Y-128862687D01*
X160885494Y-128868745D01*
X160899425Y-129152263D01*
X160899500Y-129155306D01*
X160899500Y-129375085D01*
X160879815Y-129442124D01*
X160827011Y-129487879D01*
X160757853Y-129497823D01*
X160757852Y-129497823D01*
X160706852Y-129490490D01*
X160643297Y-129461464D01*
X160605523Y-129402686D01*
X160600500Y-129367752D01*
X160600500Y-128626463D01*
X160620185Y-128559424D01*
X160672989Y-128513669D01*
X160742147Y-128503725D01*
X160805703Y-128532750D01*
G37*
%TD.AperFunction*%
%TA.AperFunction,NonConductor*%
G36*
X122141862Y-131532417D02*
G01*
X122474460Y-131696436D01*
X122474459Y-131696436D01*
X122474464Y-131696438D01*
X122474468Y-131696440D01*
X122954875Y-131895433D01*
X123439067Y-132059795D01*
X123447283Y-132062584D01*
X123893023Y-132182020D01*
X123949538Y-132197164D01*
X124333743Y-132273589D01*
X124459535Y-132298612D01*
X124459534Y-132298612D01*
X124665752Y-132325762D01*
X124975076Y-132366487D01*
X125493951Y-132400499D01*
X125672336Y-132400499D01*
X125672356Y-132400500D01*
X125753946Y-132400500D01*
X125905198Y-132400501D01*
X125905206Y-132400500D01*
X135709933Y-132400500D01*
X135776972Y-132420185D01*
X135822727Y-132472989D01*
X135832671Y-132542147D01*
X135803646Y-132605703D01*
X135797615Y-132612179D01*
X135000821Y-133408973D01*
X134272820Y-134136974D01*
X134270615Y-134139073D01*
X134060126Y-134329845D01*
X134055420Y-134333707D01*
X133828497Y-134502002D01*
X133823435Y-134505384D01*
X133581097Y-134650632D01*
X133575728Y-134653501D01*
X133320332Y-134774294D01*
X133314707Y-134776624D01*
X133048694Y-134871802D01*
X133042868Y-134873570D01*
X132768811Y-134942215D01*
X132762840Y-134943402D01*
X132483376Y-134984856D01*
X132477317Y-134985452D01*
X132192868Y-134999425D01*
X132189826Y-134999500D01*
X120502805Y-134999500D01*
X120435766Y-134979815D01*
X120390011Y-134927011D01*
X120380067Y-134857853D01*
X120409092Y-134794297D01*
X120467870Y-134756523D01*
X120481254Y-134753388D01*
X120485231Y-134752686D01*
X120661139Y-134728509D01*
X120724082Y-134710872D01*
X120729968Y-134709533D01*
X120738204Y-134708081D01*
X120764232Y-134699623D01*
X120926716Y-134654097D01*
X120990412Y-134626429D01*
X120995924Y-134624342D01*
X121005965Y-134621080D01*
X121026071Y-134611273D01*
X121032304Y-134608234D01*
X121179682Y-134544219D01*
X121179684Y-134544217D01*
X121179688Y-134544216D01*
X121242592Y-134505963D01*
X121247587Y-134503233D01*
X121259013Y-134497661D01*
X121283207Y-134481341D01*
X121285571Y-134479826D01*
X121415341Y-134400912D01*
X121475746Y-134351768D01*
X121480152Y-134348499D01*
X121492420Y-134340225D01*
X121514563Y-134320287D01*
X121516883Y-134318301D01*
X121629286Y-134226855D01*
X121685401Y-134166770D01*
X121689159Y-134163081D01*
X121701646Y-134151838D01*
X121720975Y-134128801D01*
X121723054Y-134126454D01*
X121817538Y-134025287D01*
X121867479Y-133954535D01*
X121870583Y-133950505D01*
X121882617Y-133936165D01*
X121898464Y-133910803D01*
X121900326Y-133908001D01*
X121976589Y-133799962D01*
X122018486Y-133719104D01*
X122020945Y-133714792D01*
X122031810Y-133697405D01*
X122043771Y-133670539D01*
X122045336Y-133667286D01*
X122103478Y-133555079D01*
X122135526Y-133464901D01*
X122137278Y-133460518D01*
X122146323Y-133440205D01*
X122154229Y-133412632D01*
X122155394Y-133408998D01*
X122195839Y-133295199D01*
X122216265Y-133196901D01*
X122217354Y-133192488D01*
X122223926Y-133169571D01*
X122227793Y-133142055D01*
X122228469Y-133138173D01*
X122251953Y-133025162D01*
X122259135Y-132920155D01*
X122259589Y-132915814D01*
X122263109Y-132890770D01*
X122263754Y-132853750D01*
X122263882Y-132850763D01*
X122270775Y-132750000D01*
X122263882Y-132649240D01*
X122263754Y-132646245D01*
X122263109Y-132609230D01*
X122259590Y-132584194D01*
X122259133Y-132579808D01*
X122258469Y-132570105D01*
X122251953Y-132474838D01*
X122228475Y-132361856D01*
X122227786Y-132357900D01*
X122223926Y-132330429D01*
X122217357Y-132307523D01*
X122216265Y-132303099D01*
X122195839Y-132204801D01*
X122155395Y-132091002D01*
X122154225Y-132087354D01*
X122146323Y-132059795D01*
X122137292Y-132039511D01*
X122135517Y-132035070D01*
X122103478Y-131944921D01*
X122045349Y-131832738D01*
X122043760Y-131829434D01*
X122031810Y-131802595D01*
X122020952Y-131785219D01*
X122018481Y-131780886D01*
X121976920Y-131700677D01*
X121963555Y-131632097D01*
X121989389Y-131567179D01*
X122046219Y-131526533D01*
X122116003Y-131523064D01*
X122141862Y-131532417D01*
G37*
%TD.AperFunction*%
%TA.AperFunction,NonConductor*%
G36*
X180231739Y-87215785D02*
G01*
X180277494Y-87268589D01*
X180288700Y-87320100D01*
X180288700Y-112671100D01*
X180269015Y-112738139D01*
X180216211Y-112783894D01*
X180164700Y-112795100D01*
X179340118Y-112795100D01*
X179335968Y-112793881D01*
X179289187Y-112795100D01*
X179286847Y-112795100D01*
X179285645Y-112795201D01*
X179237184Y-112796598D01*
X179137243Y-112825581D01*
X179047883Y-112878884D01*
X179047878Y-112878887D01*
X178974896Y-112953046D01*
X178974893Y-112953050D01*
X178923029Y-113043246D01*
X178923027Y-113043250D01*
X178923027Y-113043252D01*
X178905729Y-113106671D01*
X178895646Y-113143640D01*
X178895487Y-113156050D01*
X178889902Y-113183351D01*
X178891059Y-113183580D01*
X178888700Y-113195498D01*
X178888700Y-116795700D01*
X178888104Y-116848772D01*
X178888105Y-116848780D01*
X178914557Y-116951805D01*
X178914558Y-116951809D01*
X178935791Y-116989360D01*
X178966916Y-117044408D01*
X179041568Y-117120188D01*
X179133370Y-117173928D01*
X179235994Y-117201924D01*
X179275085Y-117202071D01*
X179276303Y-117202213D01*
X179289234Y-117202126D01*
X179289680Y-117202127D01*
X179289680Y-117202126D01*
X179336762Y-117202232D01*
X179340521Y-117201816D01*
X180163955Y-117196853D01*
X180231110Y-117216133D01*
X180277182Y-117268661D01*
X180288700Y-117320851D01*
X180288700Y-142071100D01*
X180269015Y-142138139D01*
X180216211Y-142183894D01*
X180164700Y-142195100D01*
X85413700Y-142195100D01*
X85346661Y-142175415D01*
X85300906Y-142122611D01*
X85289700Y-142071100D01*
X85289700Y-139279771D01*
X85309385Y-139212732D01*
X85362189Y-139166977D01*
X85413700Y-139155771D01*
X86287500Y-139155771D01*
X86354539Y-139175456D01*
X86400294Y-139228260D01*
X86411118Y-139289502D01*
X86406592Y-139346998D01*
X86406019Y-139351833D01*
X86402466Y-139374270D01*
X86402466Y-139396990D01*
X86402275Y-139401856D01*
X86394551Y-139499999D01*
X86402275Y-139598142D01*
X86402466Y-139603008D01*
X86402466Y-139625734D01*
X86406019Y-139648167D01*
X86406592Y-139653002D01*
X86409327Y-139687746D01*
X86414317Y-139751148D01*
X86414317Y-139751151D01*
X86414318Y-139751153D01*
X86437296Y-139846867D01*
X86438246Y-139851642D01*
X86441801Y-139874090D01*
X86448824Y-139895705D01*
X86450146Y-139900390D01*
X86473127Y-139996114D01*
X86510797Y-140087057D01*
X86512482Y-140091623D01*
X86518170Y-140109126D01*
X86519507Y-140113240D01*
X86519508Y-140113243D01*
X86519509Y-140113244D01*
X86529821Y-140133484D01*
X86531858Y-140137904D01*
X86569532Y-140228857D01*
X86620973Y-140312803D01*
X86623351Y-140317048D01*
X86630514Y-140331104D01*
X86633666Y-140337290D01*
X86633667Y-140337292D01*
X86647017Y-140355667D01*
X86649722Y-140359714D01*
X86699021Y-140440163D01*
X86701164Y-140443659D01*
X86701171Y-140443667D01*
X86765094Y-140518511D01*
X86768107Y-140522332D01*
X86781469Y-140540724D01*
X86797547Y-140556802D01*
X86800832Y-140560355D01*
X86864776Y-140635224D01*
X86939639Y-140699163D01*
X86943202Y-140702457D01*
X86959276Y-140718531D01*
X86977654Y-140731883D01*
X86977665Y-140731891D01*
X86981471Y-140734891D01*
X87056341Y-140798836D01*
X87056343Y-140798837D01*
X87056344Y-140798838D01*
X87056345Y-140798839D01*
X87140277Y-140850272D01*
X87144325Y-140852977D01*
X87144335Y-140852984D01*
X87162710Y-140866334D01*
X87182961Y-140876652D01*
X87187179Y-140879014D01*
X87271141Y-140930466D01*
X87271143Y-140930466D01*
X87271145Y-140930468D01*
X87312908Y-140947766D01*
X87362101Y-140968142D01*
X87366515Y-140970178D01*
X87374608Y-140974301D01*
X87386760Y-140980493D01*
X87408380Y-140987517D01*
X87412923Y-140989194D01*
X87503889Y-141026873D01*
X87599627Y-141049857D01*
X87604289Y-141051172D01*
X87625910Y-141058198D01*
X87625911Y-141058198D01*
X87625914Y-141058199D01*
X87634646Y-141059581D01*
X87648367Y-141061754D01*
X87653107Y-141062696D01*
X87748852Y-141085683D01*
X87847024Y-141093409D01*
X87851795Y-141093974D01*
X87874271Y-141097534D01*
X87874275Y-141097534D01*
X87896992Y-141097534D01*
X87901858Y-141097725D01*
X88000000Y-141105449D01*
X88098142Y-141097725D01*
X88103008Y-141097534D01*
X88125725Y-141097534D01*
X88125729Y-141097534D01*
X88148204Y-141093974D01*
X88152975Y-141093409D01*
X88251148Y-141085683D01*
X88346897Y-141062695D01*
X88351627Y-141061755D01*
X88374090Y-141058198D01*
X88395737Y-141051164D01*
X88400351Y-141049862D01*
X88496111Y-141026873D01*
X88587090Y-140989188D01*
X88591599Y-140987524D01*
X88613240Y-140980493D01*
X88633508Y-140970165D01*
X88637863Y-140968157D01*
X88728859Y-140930466D01*
X88812833Y-140879006D01*
X88817018Y-140876662D01*
X88837290Y-140866334D01*
X88855684Y-140852969D01*
X88859707Y-140850281D01*
X88943659Y-140798836D01*
X89018547Y-140734875D01*
X89022314Y-140731906D01*
X89040724Y-140718531D01*
X89056819Y-140702435D01*
X89060347Y-140699174D01*
X89135224Y-140635224D01*
X89199174Y-140560347D01*
X89202435Y-140556819D01*
X89218531Y-140540724D01*
X89231906Y-140522314D01*
X89234875Y-140518547D01*
X89298836Y-140443659D01*
X89350281Y-140359707D01*
X89352969Y-140355684D01*
X89366334Y-140337290D01*
X89376662Y-140317018D01*
X89379006Y-140312833D01*
X89430466Y-140228859D01*
X89468157Y-140137863D01*
X89470165Y-140133508D01*
X89480493Y-140113240D01*
X89487524Y-140091599D01*
X89489188Y-140087090D01*
X89526873Y-139996111D01*
X89549862Y-139900351D01*
X89551164Y-139895737D01*
X89558198Y-139874090D01*
X89561755Y-139851627D01*
X89562695Y-139846897D01*
X89585683Y-139751148D01*
X89593409Y-139652978D01*
X89593974Y-139648201D01*
X89597534Y-139625729D01*
X89598155Y-139594043D01*
X89598334Y-139590401D01*
X89605449Y-139500000D01*
X89598333Y-139409593D01*
X89598155Y-139405946D01*
X89598125Y-139404433D01*
X89597534Y-139374271D01*
X89593974Y-139351798D01*
X89593409Y-139347021D01*
X89588882Y-139289497D01*
X89603248Y-139221120D01*
X89652300Y-139171365D01*
X89712500Y-139155771D01*
X91612255Y-139155771D01*
X91612255Y-135340752D01*
X91631940Y-135273713D01*
X91684744Y-135227958D01*
X91753902Y-135218014D01*
X91817458Y-135247039D01*
X91823936Y-135253071D01*
X91886594Y-135315729D01*
X91886612Y-135315745D01*
X92115682Y-135487224D01*
X92115690Y-135487229D01*
X92366833Y-135624364D01*
X92366832Y-135624364D01*
X92366836Y-135624365D01*
X92366839Y-135624367D01*
X92634954Y-135724369D01*
X92634960Y-135724370D01*
X92634962Y-135724371D01*
X92914566Y-135785195D01*
X92914568Y-135785195D01*
X92914572Y-135785196D01*
X93128552Y-135800500D01*
X95271448Y-135800500D01*
X95485428Y-135785196D01*
X95765046Y-135724369D01*
X96033161Y-135624367D01*
X96284315Y-135487226D01*
X96479982Y-135340752D01*
X96500713Y-135325233D01*
X96566177Y-135300816D01*
X96575023Y-135300500D01*
X106044489Y-135300500D01*
X106047532Y-135300575D01*
X106331251Y-135314515D01*
X106337310Y-135315112D01*
X106616777Y-135356568D01*
X106622748Y-135357756D01*
X106821976Y-135407660D01*
X106896822Y-135426408D01*
X106902622Y-135428168D01*
X107168659Y-135523358D01*
X107174262Y-135525679D01*
X107429677Y-135646482D01*
X107435043Y-135649350D01*
X107661687Y-135785196D01*
X107677369Y-135794595D01*
X107682431Y-135797977D01*
X107909368Y-135966285D01*
X107914074Y-135970147D01*
X108124721Y-136161067D01*
X108126925Y-136163166D01*
X109693641Y-137729883D01*
X109693900Y-137730126D01*
X109821941Y-137858167D01*
X110154395Y-138149720D01*
X110212895Y-138201023D01*
X110625425Y-138517568D01*
X110625426Y-138517568D01*
X111057781Y-138806459D01*
X111508104Y-139066454D01*
X111877977Y-139248856D01*
X111974460Y-139296436D01*
X111974459Y-139296436D01*
X111974464Y-139296438D01*
X111974468Y-139296440D01*
X112454875Y-139495433D01*
X112947268Y-139662579D01*
X112947283Y-139662584D01*
X113393023Y-139782020D01*
X113449538Y-139797164D01*
X113833743Y-139873589D01*
X113959535Y-139898612D01*
X113959534Y-139898612D01*
X114165752Y-139925762D01*
X114475076Y-139966487D01*
X114993951Y-140000499D01*
X115172336Y-140000499D01*
X115172356Y-140000500D01*
X115175380Y-140000500D01*
X115253946Y-140000500D01*
X115405198Y-140000501D01*
X115405206Y-140000500D01*
X132192059Y-140000500D01*
X132270655Y-140000500D01*
X132270659Y-140000499D01*
X132271774Y-140000464D01*
X132450766Y-140000465D01*
X132452050Y-140000466D01*
X132452050Y-140000465D01*
X132452054Y-140000466D01*
X132970930Y-139966460D01*
X133486471Y-139898591D01*
X133500980Y-139895705D01*
X133996461Y-139797151D01*
X133996466Y-139797149D01*
X133996469Y-139797149D01*
X134168133Y-139751153D01*
X134498739Y-139662570D01*
X134991142Y-139495426D01*
X134991141Y-139495426D01*
X135471539Y-139296442D01*
X135471538Y-139296442D01*
X135471544Y-139296440D01*
X135937910Y-139066459D01*
X136388236Y-138806468D01*
X136388237Y-138806467D01*
X136388241Y-138806465D01*
X136820594Y-138517582D01*
X137030344Y-138356638D01*
X137233132Y-138201036D01*
X137361633Y-138088345D01*
X137624086Y-137858186D01*
X137624085Y-137858186D01*
X137751744Y-137730528D01*
X137751811Y-137730465D01*
X137807930Y-137674346D01*
X137916265Y-137566013D01*
X137916297Y-137565977D01*
X139985019Y-135497256D01*
X140046340Y-135463773D01*
X140114471Y-135468187D01*
X140268663Y-135523359D01*
X140274261Y-135525678D01*
X140274262Y-135525679D01*
X140274265Y-135525680D01*
X140529677Y-135646482D01*
X140535043Y-135649350D01*
X140761687Y-135785196D01*
X140777369Y-135794595D01*
X140782431Y-135797977D01*
X141009368Y-135966285D01*
X141014074Y-135970147D01*
X141224721Y-136161067D01*
X141226925Y-136163166D01*
X142451661Y-137387902D01*
X142485146Y-137449225D01*
X142480162Y-137518917D01*
X142446207Y-137568398D01*
X142293668Y-137703535D01*
X142293664Y-137703539D01*
X142133299Y-137899951D01*
X142133295Y-137899956D01*
X142006515Y-138119546D01*
X141916598Y-138356640D01*
X141865879Y-138605074D01*
X141865878Y-138605084D01*
X141855668Y-138858436D01*
X141855668Y-138858437D01*
X141886232Y-139110163D01*
X141956779Y-139353717D01*
X142065480Y-139582800D01*
X142065486Y-139582810D01*
X142209520Y-139791481D01*
X142209524Y-139791486D01*
X142209525Y-139791487D01*
X142385178Y-139974360D01*
X142491967Y-140054607D01*
X142587885Y-140126685D01*
X142587887Y-140126686D01*
X142587891Y-140126689D01*
X142663657Y-140166454D01*
X142812411Y-140244527D01*
X142812413Y-140244527D01*
X142812414Y-140244528D01*
X142905989Y-140275768D01*
X143052931Y-140324825D01*
X143303213Y-140365500D01*
X143303216Y-140365500D01*
X143493287Y-140365500D01*
X143619591Y-140355303D01*
X143682745Y-140350205D01*
X143928945Y-140289523D01*
X144162222Y-140190132D01*
X144376535Y-140054609D01*
X144566333Y-139886463D01*
X144726701Y-139690048D01*
X144726704Y-139690041D01*
X144728579Y-139687746D01*
X144786225Y-139648266D01*
X144856065Y-139646220D01*
X144893517Y-139663065D01*
X145257781Y-139906459D01*
X145708104Y-140166454D01*
X146013477Y-140317048D01*
X146174460Y-140396436D01*
X146174459Y-140396436D01*
X146174464Y-140396438D01*
X146174468Y-140396440D01*
X146654875Y-140595433D01*
X147056865Y-140731891D01*
X147147283Y-140762584D01*
X147572987Y-140876652D01*
X147649538Y-140897164D01*
X148006343Y-140968139D01*
X148159535Y-140998612D01*
X148159534Y-140998612D01*
X148365752Y-141025762D01*
X148675076Y-141066487D01*
X149193951Y-141100499D01*
X149372336Y-141100499D01*
X149372356Y-141100500D01*
X149375380Y-141100500D01*
X149453946Y-141100500D01*
X149605198Y-141100501D01*
X149605206Y-141100500D01*
X159985776Y-141100500D01*
X160064369Y-141100500D01*
X160064371Y-141100499D01*
X160064544Y-141100494D01*
X160197021Y-141100495D01*
X160197022Y-141100495D01*
X160618438Y-141070356D01*
X161036625Y-141010231D01*
X161449459Y-140920426D01*
X161854821Y-140801403D01*
X161854832Y-140801398D01*
X161854835Y-140801398D01*
X162250687Y-140653753D01*
X162300472Y-140631017D01*
X162634995Y-140478247D01*
X162634995Y-140478246D01*
X162634998Y-140478245D01*
X163005809Y-140275768D01*
X163175905Y-140166454D01*
X163361226Y-140047356D01*
X163361225Y-140047357D01*
X163699456Y-139794162D01*
X163699456Y-139794161D01*
X163862348Y-139653014D01*
X164018747Y-139517493D01*
X164036241Y-139499999D01*
X175894551Y-139499999D01*
X175902275Y-139598142D01*
X175902466Y-139603008D01*
X175902466Y-139625734D01*
X175906019Y-139648167D01*
X175906592Y-139653002D01*
X175909327Y-139687746D01*
X175914317Y-139751148D01*
X175914317Y-139751151D01*
X175914318Y-139751153D01*
X175937296Y-139846867D01*
X175938246Y-139851642D01*
X175941801Y-139874090D01*
X175948824Y-139895705D01*
X175950146Y-139900390D01*
X175973127Y-139996114D01*
X176010797Y-140087057D01*
X176012482Y-140091623D01*
X176018170Y-140109126D01*
X176019507Y-140113240D01*
X176019508Y-140113243D01*
X176019509Y-140113244D01*
X176029821Y-140133484D01*
X176031858Y-140137904D01*
X176069532Y-140228857D01*
X176120973Y-140312803D01*
X176123351Y-140317048D01*
X176130514Y-140331104D01*
X176133666Y-140337290D01*
X176133667Y-140337292D01*
X176147017Y-140355667D01*
X176149722Y-140359714D01*
X176199021Y-140440163D01*
X176201164Y-140443659D01*
X176201171Y-140443667D01*
X176265094Y-140518511D01*
X176268107Y-140522332D01*
X176281469Y-140540724D01*
X176297547Y-140556802D01*
X176300832Y-140560355D01*
X176364776Y-140635224D01*
X176439639Y-140699163D01*
X176443202Y-140702457D01*
X176459276Y-140718531D01*
X176477654Y-140731883D01*
X176477665Y-140731891D01*
X176481471Y-140734891D01*
X176556341Y-140798836D01*
X176556343Y-140798837D01*
X176556344Y-140798838D01*
X176556345Y-140798839D01*
X176640277Y-140850272D01*
X176644325Y-140852977D01*
X176644335Y-140852984D01*
X176662710Y-140866334D01*
X176682961Y-140876652D01*
X176687179Y-140879014D01*
X176771141Y-140930466D01*
X176771143Y-140930466D01*
X176771145Y-140930468D01*
X176812908Y-140947766D01*
X176862101Y-140968142D01*
X176866515Y-140970178D01*
X176874608Y-140974301D01*
X176886760Y-140980493D01*
X176908380Y-140987517D01*
X176912923Y-140989194D01*
X177003889Y-141026873D01*
X177099627Y-141049857D01*
X177104289Y-141051172D01*
X177125910Y-141058198D01*
X177125911Y-141058198D01*
X177125914Y-141058199D01*
X177134646Y-141059581D01*
X177148367Y-141061754D01*
X177153107Y-141062696D01*
X177248852Y-141085683D01*
X177347024Y-141093409D01*
X177351795Y-141093974D01*
X177374271Y-141097534D01*
X177374275Y-141097534D01*
X177396992Y-141097534D01*
X177401858Y-141097725D01*
X177500000Y-141105449D01*
X177598142Y-141097725D01*
X177603008Y-141097534D01*
X177625725Y-141097534D01*
X177625729Y-141097534D01*
X177648204Y-141093974D01*
X177652975Y-141093409D01*
X177751148Y-141085683D01*
X177846897Y-141062695D01*
X177851627Y-141061755D01*
X177874090Y-141058198D01*
X177895737Y-141051164D01*
X177900351Y-141049862D01*
X177996111Y-141026873D01*
X178087090Y-140989188D01*
X178091599Y-140987524D01*
X178113240Y-140980493D01*
X178133508Y-140970165D01*
X178137863Y-140968157D01*
X178228859Y-140930466D01*
X178312833Y-140879006D01*
X178317018Y-140876662D01*
X178337290Y-140866334D01*
X178355684Y-140852969D01*
X178359707Y-140850281D01*
X178443659Y-140798836D01*
X178518547Y-140734875D01*
X178522314Y-140731906D01*
X178540724Y-140718531D01*
X178556819Y-140702435D01*
X178560347Y-140699174D01*
X178635224Y-140635224D01*
X178699174Y-140560347D01*
X178702435Y-140556819D01*
X178718531Y-140540724D01*
X178731906Y-140522314D01*
X178734875Y-140518547D01*
X178798836Y-140443659D01*
X178850281Y-140359707D01*
X178852969Y-140355684D01*
X178866334Y-140337290D01*
X178876662Y-140317018D01*
X178879006Y-140312833D01*
X178930466Y-140228859D01*
X178968157Y-140137863D01*
X178970165Y-140133508D01*
X178980493Y-140113240D01*
X178987524Y-140091599D01*
X178989188Y-140087090D01*
X179026873Y-139996111D01*
X179049862Y-139900351D01*
X179051164Y-139895737D01*
X179058198Y-139874090D01*
X179061755Y-139851627D01*
X179062695Y-139846897D01*
X179085683Y-139751148D01*
X179093409Y-139652978D01*
X179093974Y-139648201D01*
X179097534Y-139625729D01*
X179098155Y-139594043D01*
X179098334Y-139590401D01*
X179105449Y-139500000D01*
X179098333Y-139409593D01*
X179098155Y-139405946D01*
X179098125Y-139404433D01*
X179097534Y-139374271D01*
X179093974Y-139351798D01*
X179093409Y-139347021D01*
X179085683Y-139248852D01*
X179062696Y-139153107D01*
X179061753Y-139148357D01*
X179058198Y-139125913D01*
X179058198Y-139125911D01*
X179058195Y-139125903D01*
X179051172Y-139104289D01*
X179049857Y-139099627D01*
X179026873Y-139003889D01*
X178989194Y-138912923D01*
X178987517Y-138908380D01*
X178980493Y-138886760D01*
X178970178Y-138866515D01*
X178968139Y-138862093D01*
X178966627Y-138858443D01*
X178945095Y-138806459D01*
X178930468Y-138771145D01*
X178930466Y-138771141D01*
X178879014Y-138687179D01*
X178876649Y-138682955D01*
X178866337Y-138662716D01*
X178866334Y-138662710D01*
X178858039Y-138651293D01*
X178852977Y-138644325D01*
X178850272Y-138640277D01*
X178798839Y-138556345D01*
X178798838Y-138556344D01*
X178798837Y-138556343D01*
X178798836Y-138556341D01*
X178734891Y-138481471D01*
X178731891Y-138477665D01*
X178718531Y-138459276D01*
X178702453Y-138443198D01*
X178699163Y-138439639D01*
X178635224Y-138364776D01*
X178560355Y-138300832D01*
X178556799Y-138297544D01*
X178540724Y-138281469D01*
X178522332Y-138268107D01*
X178518511Y-138265094D01*
X178443667Y-138201171D01*
X178443659Y-138201164D01*
X178443654Y-138201161D01*
X178443653Y-138201160D01*
X178359714Y-138149722D01*
X178355667Y-138147017D01*
X178337292Y-138133667D01*
X178337290Y-138133666D01*
X178331104Y-138130514D01*
X178317048Y-138123351D01*
X178312803Y-138120973D01*
X178228857Y-138069532D01*
X178137904Y-138031858D01*
X178133484Y-138029821D01*
X178113244Y-138019509D01*
X178113243Y-138019508D01*
X178113240Y-138019507D01*
X178109126Y-138018170D01*
X178091623Y-138012482D01*
X178087057Y-138010797D01*
X177996114Y-137973127D01*
X177900390Y-137950146D01*
X177895705Y-137948824D01*
X177874090Y-137941801D01*
X177851642Y-137938246D01*
X177846867Y-137937296D01*
X177751152Y-137914318D01*
X177751153Y-137914318D01*
X177751151Y-137914317D01*
X177751148Y-137914317D01*
X177703959Y-137910603D01*
X177653002Y-137906592D01*
X177648167Y-137906019D01*
X177625734Y-137902466D01*
X177625729Y-137902466D01*
X177603008Y-137902466D01*
X177598142Y-137902275D01*
X177500000Y-137894551D01*
X177401858Y-137902275D01*
X177396992Y-137902466D01*
X177374271Y-137902466D01*
X177351833Y-137906019D01*
X177346998Y-137906592D01*
X177248851Y-137914317D01*
X177248844Y-137914318D01*
X177153132Y-137937296D01*
X177148357Y-137938246D01*
X177125913Y-137941801D01*
X177125903Y-137941803D01*
X177104299Y-137948823D01*
X177099612Y-137950145D01*
X177003891Y-137973125D01*
X176912938Y-138010799D01*
X176908373Y-138012483D01*
X176886757Y-138019507D01*
X176866515Y-138029820D01*
X176862098Y-138031856D01*
X176771141Y-138069534D01*
X176687201Y-138120970D01*
X176682958Y-138123347D01*
X176662716Y-138133662D01*
X176662708Y-138133667D01*
X176644330Y-138147018D01*
X176640286Y-138149720D01*
X176556339Y-138201165D01*
X176481482Y-138265098D01*
X176477660Y-138268111D01*
X176459276Y-138281469D01*
X176443198Y-138297544D01*
X176439626Y-138300846D01*
X176364775Y-138364775D01*
X176300846Y-138439626D01*
X176297544Y-138443198D01*
X176281469Y-138459276D01*
X176268111Y-138477660D01*
X176265098Y-138481482D01*
X176201165Y-138556339D01*
X176149720Y-138640286D01*
X176147018Y-138644330D01*
X176133667Y-138662708D01*
X176133662Y-138662716D01*
X176123347Y-138682958D01*
X176120970Y-138687201D01*
X176069534Y-138771141D01*
X176031856Y-138862098D01*
X176029820Y-138866515D01*
X176019507Y-138886757D01*
X176012483Y-138908373D01*
X176010799Y-138912938D01*
X175973125Y-139003891D01*
X175950145Y-139099612D01*
X175948823Y-139104299D01*
X175941803Y-139125903D01*
X175941801Y-139125913D01*
X175938246Y-139148357D01*
X175937296Y-139153132D01*
X175914318Y-139248844D01*
X175914317Y-139248851D01*
X175906592Y-139346998D01*
X175906019Y-139351833D01*
X175902466Y-139374270D01*
X175902466Y-139396990D01*
X175902275Y-139401856D01*
X175894551Y-139499999D01*
X164036241Y-139499999D01*
X164061164Y-139475075D01*
X164061169Y-139475072D01*
X164131800Y-139404441D01*
X164131814Y-139404433D01*
X164168123Y-139368123D01*
X164168124Y-139368124D01*
X164317497Y-139218752D01*
X164322714Y-139212732D01*
X164594165Y-138899460D01*
X164594166Y-138899460D01*
X164847362Y-138561228D01*
X165075774Y-138205810D01*
X165078383Y-138201033D01*
X165150186Y-138069534D01*
X165278253Y-137834998D01*
X165453756Y-137450697D01*
X165453756Y-137450696D01*
X165453759Y-137450690D01*
X165601403Y-137054837D01*
X165720431Y-136649460D01*
X165810237Y-136236625D01*
X165820978Y-136161916D01*
X165870362Y-135818439D01*
X165900501Y-135397022D01*
X165900501Y-135397021D01*
X165900500Y-135185776D01*
X165900500Y-129305206D01*
X165900501Y-129305198D01*
X165900500Y-129205316D01*
X165900509Y-129205283D01*
X165900509Y-129153946D01*
X165900510Y-129153946D01*
X165900509Y-128893951D01*
X165866497Y-128375075D01*
X165798622Y-127859534D01*
X165697174Y-127349536D01*
X165650848Y-127176648D01*
X165562594Y-126847280D01*
X165560273Y-126840442D01*
X165395442Y-126354871D01*
X165196449Y-125874464D01*
X164966463Y-125408100D01*
X164706468Y-124957775D01*
X164706465Y-124957770D01*
X164706465Y-124957769D01*
X164417577Y-124525420D01*
X164417577Y-124525419D01*
X164101031Y-124112889D01*
X163983725Y-123979127D01*
X163758174Y-123721935D01*
X163631003Y-123594764D01*
X163630963Y-123594722D01*
X163363006Y-123326765D01*
X163360907Y-123324561D01*
X163336286Y-123297396D01*
X163170129Y-123114069D01*
X163166279Y-123109377D01*
X162997967Y-122882433D01*
X162994590Y-122877379D01*
X162976583Y-122847337D01*
X162849341Y-122635048D01*
X162846473Y-122629682D01*
X162759701Y-122446219D01*
X162725669Y-122374265D01*
X162723350Y-122368667D01*
X162628155Y-122102618D01*
X162626396Y-122096816D01*
X162610452Y-122033166D01*
X162605111Y-122011843D01*
X162557746Y-121822750D01*
X162556558Y-121816779D01*
X162515102Y-121537311D01*
X162514505Y-121531252D01*
X162500575Y-121247734D01*
X162500500Y-121244691D01*
X162500500Y-119715732D01*
X162517114Y-119653731D01*
X162529235Y-119632737D01*
X162529237Y-119632733D01*
X162538059Y-119612282D01*
X162659601Y-119330516D01*
X162689982Y-119229033D01*
X162714477Y-119184074D01*
X162980465Y-118872643D01*
X162980468Y-118872640D01*
X163222114Y-118540044D01*
X163222114Y-118540043D01*
X163222115Y-118540042D01*
X163436925Y-118189507D01*
X163490180Y-118084989D01*
X163623570Y-117823200D01*
X163780897Y-117443383D01*
X163780900Y-117443376D01*
X163907945Y-117052380D01*
X164003922Y-116652622D01*
X164003922Y-116652623D01*
X164064233Y-116271851D01*
X164068238Y-116246565D01*
X164069076Y-116235925D01*
X164100498Y-115836719D01*
X164100498Y-115774319D01*
X164100499Y-115709724D01*
X164100500Y-115709712D01*
X164100500Y-115555571D01*
X164100501Y-115479903D01*
X164100500Y-115479894D01*
X164100500Y-112606500D01*
X164120185Y-112539461D01*
X164172989Y-112493706D01*
X164224500Y-112482500D01*
X167497506Y-112482500D01*
X167564545Y-112502185D01*
X167610300Y-112554989D01*
X167621451Y-112602823D01*
X167623476Y-112671100D01*
X167625255Y-112731112D01*
X167647315Y-112878884D01*
X167661910Y-112976656D01*
X167674331Y-113059857D01*
X167674332Y-113059862D01*
X167761945Y-113380494D01*
X167761946Y-113380498D01*
X167886864Y-113688511D01*
X167886869Y-113688522D01*
X167954697Y-113811554D01*
X168047342Y-113979603D01*
X168072715Y-114014964D01*
X168241120Y-114249667D01*
X168241129Y-114249677D01*
X168463841Y-114493126D01*
X168465477Y-114494914D01*
X168717266Y-114711906D01*
X168717271Y-114711909D01*
X168717277Y-114711914D01*
X168848723Y-114800449D01*
X168992953Y-114897595D01*
X169004462Y-114903502D01*
X169055115Y-114951626D01*
X169071709Y-115019497D01*
X169048976Y-115085564D01*
X169010898Y-115120588D01*
X168952359Y-115155161D01*
X168952348Y-115155169D01*
X168688153Y-115356859D01*
X168688144Y-115356867D01*
X168449660Y-115588386D01*
X168449659Y-115588387D01*
X168240224Y-115846497D01*
X168108940Y-116054458D01*
X168074676Y-116108735D01*
X168062789Y-116127564D01*
X168062786Y-116127569D01*
X167919841Y-116427639D01*
X167919837Y-116427650D01*
X167813384Y-116742524D01*
X167744919Y-117067789D01*
X167744919Y-117067794D01*
X167715405Y-117398853D01*
X167715405Y-117398862D01*
X167715405Y-117398866D01*
X167720776Y-117580029D01*
X167725255Y-117731112D01*
X167753842Y-117922608D01*
X167770497Y-118034178D01*
X167774331Y-118059857D01*
X167774332Y-118059862D01*
X167861945Y-118380494D01*
X167861946Y-118380498D01*
X167972932Y-118654157D01*
X167986867Y-118688517D01*
X168017962Y-118744921D01*
X168033089Y-118813132D01*
X168023563Y-118853118D01*
X167976259Y-118964880D01*
X167912266Y-119116069D01*
X167912264Y-119116072D01*
X167912264Y-119116075D01*
X167912260Y-119116086D01*
X167824479Y-119424602D01*
X167824478Y-119424607D01*
X167775272Y-119741592D01*
X167775271Y-119741603D01*
X167765393Y-120062236D01*
X167794991Y-120381651D01*
X167794992Y-120381657D01*
X167863618Y-120695013D01*
X167928283Y-120878517D01*
X167954034Y-120951593D01*
X167970235Y-120997566D01*
X168113221Y-121284721D01*
X168280592Y-121537311D01*
X168290412Y-121552130D01*
X168401877Y-121682232D01*
X168499117Y-121795731D01*
X168499117Y-121795732D01*
X168499120Y-121795734D01*
X168499122Y-121795737D01*
X168528754Y-121822750D01*
X168659026Y-121941509D01*
X168736186Y-122011849D01*
X168736189Y-122011851D01*
X168998005Y-122197187D01*
X168998015Y-122197193D01*
X169280616Y-122348948D01*
X169280622Y-122348950D01*
X169280629Y-122348954D01*
X169442087Y-122411503D01*
X169579744Y-122464832D01*
X169579747Y-122464832D01*
X169579753Y-122464835D01*
X169890851Y-122543079D01*
X170010234Y-122557861D01*
X170209202Y-122582500D01*
X170209207Y-122582500D01*
X171449719Y-122582500D01*
X171449726Y-122582500D01*
X171689778Y-122567694D01*
X172005103Y-122508750D01*
X172310794Y-122411502D01*
X172427164Y-122357962D01*
X172446873Y-122350845D01*
X172613700Y-122306144D01*
X172613699Y-122306144D01*
X172613704Y-122306143D01*
X172613703Y-122306143D01*
X172932635Y-122190058D01*
X173240237Y-122046616D01*
X173534167Y-121876910D01*
X173615734Y-121819795D01*
X173812188Y-121682232D01*
X174072184Y-121464061D01*
X174177059Y-121359181D01*
X174470825Y-121065417D01*
X174490793Y-121045449D01*
X174490832Y-121045427D01*
X174527129Y-121009129D01*
X174527130Y-121009130D01*
X174666888Y-120869371D01*
X174885472Y-120613440D01*
X174943976Y-120575249D01*
X175013844Y-120574750D01*
X175072890Y-120612104D01*
X175075621Y-120615319D01*
X175081174Y-120622087D01*
X175084795Y-120626969D01*
X175094090Y-120640878D01*
X175094092Y-120640881D01*
X175105910Y-120652698D01*
X175110001Y-120657211D01*
X175158586Y-120716413D01*
X175217787Y-120764998D01*
X175222288Y-120769076D01*
X175234123Y-120780911D01*
X175248026Y-120790201D01*
X175252917Y-120793828D01*
X175312116Y-120842412D01*
X175312119Y-120842414D01*
X175379664Y-120878517D01*
X175384885Y-120881646D01*
X175398786Y-120890934D01*
X175414236Y-120897333D01*
X175419715Y-120899924D01*
X175487280Y-120936039D01*
X175487282Y-120936040D01*
X175515619Y-120944635D01*
X175560583Y-120958275D01*
X175566294Y-120960318D01*
X175581749Y-120966720D01*
X175598158Y-120969984D01*
X175604047Y-120971459D01*
X175658334Y-120987927D01*
X175677339Y-120993692D01*
X175677341Y-120993693D01*
X175753557Y-121001200D01*
X175759562Y-121002090D01*
X175775981Y-121005356D01*
X175775983Y-121005356D01*
X175792707Y-121005356D01*
X175798788Y-121005655D01*
X175819602Y-121007704D01*
X175875000Y-121013161D01*
X175930397Y-121007704D01*
X175951212Y-121005655D01*
X175957293Y-121005356D01*
X175974018Y-121005356D01*
X175974019Y-121005356D01*
X175990434Y-121002090D01*
X175996444Y-121001200D01*
X176072658Y-120993693D01*
X176145952Y-120971459D01*
X176151846Y-120969983D01*
X176168251Y-120966720D01*
X176183720Y-120960312D01*
X176189396Y-120958281D01*
X176262720Y-120936039D01*
X176330291Y-120899921D01*
X176335746Y-120897341D01*
X176351214Y-120890934D01*
X176365115Y-120881646D01*
X176370322Y-120878524D01*
X176437882Y-120842413D01*
X176497105Y-120793809D01*
X176501939Y-120790223D01*
X176515877Y-120780911D01*
X176527707Y-120769080D01*
X176532199Y-120765008D01*
X176591413Y-120716413D01*
X176640008Y-120657199D01*
X176644080Y-120652707D01*
X176655911Y-120640877D01*
X176665223Y-120626939D01*
X176668809Y-120622105D01*
X176717413Y-120562882D01*
X176753524Y-120495322D01*
X176756652Y-120490105D01*
X176765934Y-120476214D01*
X176772341Y-120460746D01*
X176774921Y-120455291D01*
X176811039Y-120387720D01*
X176833281Y-120314396D01*
X176835312Y-120308720D01*
X176841720Y-120293251D01*
X176844984Y-120276844D01*
X176846460Y-120270951D01*
X176846462Y-120270945D01*
X176868693Y-120197658D01*
X176876200Y-120121432D01*
X176877089Y-120115442D01*
X176880356Y-120099019D01*
X176880945Y-120074938D01*
X176881219Y-120070471D01*
X176888161Y-120000000D01*
X177361839Y-120000000D01*
X177361943Y-120001052D01*
X177369345Y-120076211D01*
X177369644Y-120082292D01*
X177369644Y-120099021D01*
X177372906Y-120115419D01*
X177373799Y-120121438D01*
X177381306Y-120197658D01*
X177403537Y-120270945D01*
X177405015Y-120276844D01*
X177408278Y-120293246D01*
X177408281Y-120293255D01*
X177414675Y-120308691D01*
X177416725Y-120314420D01*
X177438961Y-120387722D01*
X177475065Y-120455266D01*
X177477667Y-120460768D01*
X177484065Y-120476214D01*
X177493351Y-120490112D01*
X177496480Y-120495332D01*
X177520502Y-120540274D01*
X177530841Y-120559616D01*
X177532589Y-120562885D01*
X177581168Y-120622079D01*
X177584793Y-120626967D01*
X177594089Y-120640877D01*
X177594092Y-120640881D01*
X177605910Y-120652698D01*
X177610001Y-120657211D01*
X177658586Y-120716413D01*
X177717787Y-120764998D01*
X177722288Y-120769076D01*
X177734123Y-120780911D01*
X177748026Y-120790201D01*
X177752917Y-120793828D01*
X177812116Y-120842412D01*
X177812119Y-120842414D01*
X177879664Y-120878517D01*
X177884885Y-120881646D01*
X177898786Y-120890934D01*
X177914236Y-120897333D01*
X177919715Y-120899924D01*
X177987280Y-120936039D01*
X177987282Y-120936040D01*
X178015619Y-120944635D01*
X178060583Y-120958275D01*
X178066294Y-120960318D01*
X178081749Y-120966720D01*
X178098158Y-120969984D01*
X178104047Y-120971459D01*
X178158334Y-120987927D01*
X178177339Y-120993692D01*
X178177341Y-120993693D01*
X178253557Y-121001200D01*
X178259562Y-121002090D01*
X178275981Y-121005356D01*
X178275983Y-121005356D01*
X178292707Y-121005356D01*
X178298788Y-121005655D01*
X178319602Y-121007704D01*
X178375000Y-121013161D01*
X178430397Y-121007704D01*
X178451212Y-121005655D01*
X178457293Y-121005356D01*
X178474018Y-121005356D01*
X178474019Y-121005356D01*
X178490434Y-121002090D01*
X178496444Y-121001200D01*
X178572658Y-120993693D01*
X178645952Y-120971459D01*
X178651846Y-120969983D01*
X178668251Y-120966720D01*
X178683720Y-120960312D01*
X178689396Y-120958281D01*
X178762720Y-120936039D01*
X178830291Y-120899921D01*
X178835746Y-120897341D01*
X178851214Y-120890934D01*
X178865115Y-120881646D01*
X178870322Y-120878524D01*
X178937882Y-120842413D01*
X178997105Y-120793809D01*
X179001939Y-120790223D01*
X179015877Y-120780911D01*
X179027707Y-120769080D01*
X179032199Y-120765008D01*
X179091413Y-120716413D01*
X179140008Y-120657199D01*
X179144080Y-120652707D01*
X179155911Y-120640877D01*
X179165223Y-120626939D01*
X179168809Y-120622105D01*
X179217413Y-120562882D01*
X179253524Y-120495322D01*
X179256652Y-120490105D01*
X179265934Y-120476214D01*
X179272341Y-120460746D01*
X179274921Y-120455291D01*
X179311039Y-120387720D01*
X179333281Y-120314396D01*
X179335312Y-120308720D01*
X179341720Y-120293251D01*
X179344984Y-120276844D01*
X179346460Y-120270951D01*
X179346462Y-120270945D01*
X179368693Y-120197658D01*
X179376200Y-120121432D01*
X179377089Y-120115442D01*
X179380356Y-120099019D01*
X179380945Y-120074938D01*
X179381219Y-120070471D01*
X179388161Y-120000000D01*
X179381220Y-119929529D01*
X179380945Y-119925059D01*
X179380356Y-119900981D01*
X179377090Y-119884565D01*
X179376200Y-119878556D01*
X179368693Y-119802341D01*
X179368692Y-119802339D01*
X179347729Y-119733232D01*
X179346459Y-119729047D01*
X179344984Y-119723158D01*
X179341720Y-119706749D01*
X179335318Y-119691294D01*
X179333275Y-119685583D01*
X179319635Y-119640619D01*
X179311040Y-119612282D01*
X179311038Y-119612279D01*
X179274925Y-119544715D01*
X179272329Y-119539226D01*
X179265934Y-119523786D01*
X179256646Y-119509885D01*
X179253517Y-119504664D01*
X179252037Y-119501896D01*
X179248284Y-119494874D01*
X179217414Y-119437119D01*
X179217412Y-119437116D01*
X179168828Y-119377917D01*
X179165201Y-119373026D01*
X179155911Y-119359123D01*
X179155906Y-119359118D01*
X179144076Y-119347288D01*
X179139998Y-119342787D01*
X179091413Y-119283586D01*
X179032211Y-119235001D01*
X179027698Y-119230910D01*
X179015881Y-119219092D01*
X179015877Y-119219089D01*
X179001967Y-119209793D01*
X178997079Y-119206168D01*
X178937885Y-119157589D01*
X178937883Y-119157588D01*
X178937882Y-119157587D01*
X178906865Y-119141008D01*
X178870332Y-119121480D01*
X178865112Y-119118351D01*
X178851214Y-119109065D01*
X178835768Y-119102667D01*
X178830266Y-119100065D01*
X178762722Y-119063961D01*
X178689420Y-119041725D01*
X178683691Y-119039675D01*
X178668255Y-119033281D01*
X178668246Y-119033278D01*
X178651844Y-119030015D01*
X178645945Y-119028537D01*
X178572658Y-119006306D01*
X178496438Y-118998799D01*
X178490419Y-118997906D01*
X178474021Y-118994644D01*
X178474019Y-118994644D01*
X178457293Y-118994644D01*
X178451212Y-118994345D01*
X178375000Y-118986839D01*
X178298788Y-118994345D01*
X178292707Y-118994644D01*
X178275986Y-118994644D01*
X178275981Y-118994644D01*
X178275977Y-118994644D01*
X178275974Y-118994645D01*
X178259567Y-118997907D01*
X178253554Y-118998799D01*
X178177341Y-119006306D01*
X178104047Y-119028539D01*
X178098146Y-119030017D01*
X178081751Y-119033279D01*
X178081750Y-119033279D01*
X178066301Y-119039678D01*
X178060571Y-119041728D01*
X177987283Y-119063959D01*
X177987279Y-119063961D01*
X177919723Y-119100069D01*
X177914226Y-119102669D01*
X177898787Y-119109065D01*
X177898779Y-119109070D01*
X177884881Y-119118355D01*
X177879667Y-119121479D01*
X177826731Y-119149776D01*
X177812118Y-119157587D01*
X177812116Y-119157588D01*
X177812115Y-119157589D01*
X177752917Y-119206170D01*
X177748032Y-119209793D01*
X177734129Y-119219084D01*
X177734118Y-119219093D01*
X177722297Y-119230915D01*
X177717788Y-119235001D01*
X177658587Y-119283587D01*
X177610001Y-119342788D01*
X177605915Y-119347297D01*
X177594093Y-119359118D01*
X177594084Y-119359129D01*
X177584793Y-119373032D01*
X177581170Y-119377917D01*
X177532589Y-119437115D01*
X177532588Y-119437116D01*
X177532587Y-119437118D01*
X177530754Y-119440547D01*
X177496479Y-119504667D01*
X177493355Y-119509881D01*
X177484070Y-119523779D01*
X177484065Y-119523787D01*
X177477669Y-119539226D01*
X177475069Y-119544723D01*
X177438961Y-119612279D01*
X177438959Y-119612283D01*
X177416728Y-119685571D01*
X177414678Y-119691301D01*
X177408279Y-119706750D01*
X177408279Y-119706751D01*
X177405017Y-119723146D01*
X177403539Y-119729047D01*
X177381306Y-119802341D01*
X177373799Y-119878554D01*
X177372907Y-119884567D01*
X177369645Y-119900974D01*
X177369645Y-119900979D01*
X177369644Y-119900986D01*
X177369644Y-119917707D01*
X177369345Y-119923788D01*
X177363610Y-119982020D01*
X177361839Y-120000000D01*
X176888161Y-120000000D01*
X176881220Y-119929529D01*
X176880945Y-119925059D01*
X176880356Y-119900981D01*
X176877090Y-119884565D01*
X176876200Y-119878556D01*
X176868693Y-119802341D01*
X176868692Y-119802339D01*
X176847729Y-119733232D01*
X176846459Y-119729047D01*
X176844984Y-119723158D01*
X176841720Y-119706749D01*
X176835318Y-119691294D01*
X176833275Y-119685583D01*
X176819635Y-119640619D01*
X176811040Y-119612282D01*
X176811038Y-119612279D01*
X176774925Y-119544715D01*
X176772329Y-119539226D01*
X176765934Y-119523786D01*
X176756646Y-119509885D01*
X176753517Y-119504664D01*
X176752037Y-119501896D01*
X176748284Y-119494874D01*
X176717414Y-119437119D01*
X176717412Y-119437116D01*
X176668828Y-119377917D01*
X176665201Y-119373026D01*
X176655911Y-119359123D01*
X176655906Y-119359118D01*
X176644076Y-119347288D01*
X176639998Y-119342787D01*
X176591413Y-119283586D01*
X176532211Y-119235001D01*
X176527698Y-119230910D01*
X176515881Y-119219092D01*
X176515877Y-119219089D01*
X176501967Y-119209793D01*
X176497079Y-119206168D01*
X176437885Y-119157589D01*
X176437883Y-119157588D01*
X176437882Y-119157587D01*
X176406865Y-119141008D01*
X176370332Y-119121480D01*
X176365112Y-119118351D01*
X176351214Y-119109065D01*
X176335768Y-119102667D01*
X176330266Y-119100065D01*
X176262722Y-119063961D01*
X176189420Y-119041725D01*
X176183691Y-119039675D01*
X176168255Y-119033281D01*
X176168246Y-119033278D01*
X176151844Y-119030015D01*
X176145945Y-119028537D01*
X176072658Y-119006306D01*
X175996438Y-118998799D01*
X175990419Y-118997906D01*
X175974021Y-118994644D01*
X175974019Y-118994644D01*
X175957293Y-118994644D01*
X175951212Y-118994345D01*
X175917664Y-118991041D01*
X175852877Y-118964880D01*
X175812518Y-118907845D01*
X175809402Y-118838045D01*
X175811889Y-118829317D01*
X175815382Y-118818566D01*
X175815382Y-118818567D01*
X175907659Y-118434190D01*
X175907658Y-118434191D01*
X175947887Y-118180170D01*
X175977816Y-118117037D01*
X176037127Y-118080105D01*
X176058916Y-118076097D01*
X176269253Y-118056608D01*
X176582613Y-117987981D01*
X176885164Y-117881366D01*
X177172321Y-117738379D01*
X177411296Y-117580029D01*
X177439726Y-117561191D01*
X177439726Y-117561190D01*
X177439730Y-117561188D01*
X177683337Y-117352478D01*
X177899449Y-117115414D01*
X178084791Y-116853588D01*
X178131478Y-116766646D01*
X178236548Y-116570983D01*
X178236549Y-116570980D01*
X178236554Y-116570971D01*
X178352435Y-116271847D01*
X178430679Y-115960749D01*
X178452945Y-115780936D01*
X178470100Y-115642397D01*
X178470100Y-114401881D01*
X178469644Y-114394489D01*
X178455294Y-114161822D01*
X178396350Y-113846497D01*
X178299102Y-113540806D01*
X178165026Y-113249382D01*
X178068620Y-113093680D01*
X177996162Y-112976656D01*
X177996148Y-112976636D01*
X177795048Y-112726728D01*
X177794964Y-112726647D01*
X177564748Y-112503415D01*
X177564746Y-112503413D01*
X177308752Y-112310095D01*
X177186986Y-112239794D01*
X177030945Y-112149704D01*
X177030941Y-112149702D01*
X177030939Y-112149701D01*
X176735537Y-112024668D01*
X176735513Y-112024660D01*
X176426997Y-111936879D01*
X176426992Y-111936878D01*
X176106224Y-111887085D01*
X176106488Y-111885383D01*
X176047996Y-111862070D01*
X176007381Y-111805217D01*
X176000500Y-111764483D01*
X176000500Y-111095750D01*
X176020185Y-111028711D01*
X176072989Y-110982956D01*
X176088499Y-110977090D01*
X176149333Y-110958637D01*
X176155201Y-110957167D01*
X176171928Y-110953840D01*
X176187671Y-110947318D01*
X176193371Y-110945278D01*
X176267578Y-110922768D01*
X176335969Y-110886212D01*
X176341418Y-110883634D01*
X176357185Y-110877104D01*
X176371359Y-110867632D01*
X176376550Y-110864521D01*
X176444936Y-110827969D01*
X176504880Y-110778773D01*
X176509726Y-110775179D01*
X176523912Y-110765701D01*
X176535981Y-110753631D01*
X176540444Y-110749586D01*
X176600390Y-110700390D01*
X176649586Y-110640444D01*
X176653631Y-110635981D01*
X176665701Y-110623912D01*
X176675179Y-110609726D01*
X176678773Y-110604880D01*
X176727969Y-110544936D01*
X176764521Y-110476550D01*
X176767632Y-110471359D01*
X176777104Y-110457185D01*
X176783634Y-110441418D01*
X176786212Y-110435969D01*
X176822768Y-110367578D01*
X176845278Y-110293371D01*
X176847320Y-110287668D01*
X176853840Y-110271928D01*
X176857167Y-110255201D01*
X176858637Y-110249333D01*
X176881145Y-110175135D01*
X176888746Y-110097955D01*
X176889633Y-110091982D01*
X176892960Y-110075260D01*
X176893559Y-110050783D01*
X176893835Y-110046286D01*
X176900857Y-109975000D01*
X176900857Y-109974999D01*
X177349143Y-109974999D01*
X177356741Y-110052145D01*
X177357040Y-110058226D01*
X177357040Y-110075260D01*
X177358917Y-110084700D01*
X177360362Y-110091963D01*
X177361255Y-110097982D01*
X177368854Y-110175132D01*
X177368855Y-110175137D01*
X177391357Y-110249319D01*
X177392836Y-110255221D01*
X177396158Y-110271923D01*
X177396159Y-110271925D01*
X177402679Y-110287668D01*
X177404729Y-110293398D01*
X177427232Y-110367578D01*
X177463775Y-110435945D01*
X177466378Y-110441449D01*
X177472894Y-110457181D01*
X177472900Y-110457192D01*
X177482358Y-110471348D01*
X177485487Y-110476568D01*
X177506971Y-110516761D01*
X177522031Y-110544936D01*
X177569765Y-110603100D01*
X177571206Y-110604855D01*
X177574832Y-110609744D01*
X177584298Y-110623911D01*
X177584302Y-110623916D01*
X177596342Y-110635955D01*
X177600432Y-110640467D01*
X177649612Y-110700392D01*
X177709532Y-110749567D01*
X177714032Y-110753645D01*
X177726088Y-110765701D01*
X177740250Y-110775163D01*
X177745137Y-110778787D01*
X177805064Y-110827969D01*
X177805065Y-110827969D01*
X177805067Y-110827971D01*
X177817526Y-110834630D01*
X177873430Y-110864511D01*
X177878649Y-110867639D01*
X177883831Y-110871101D01*
X177892815Y-110877104D01*
X177908577Y-110883632D01*
X177914033Y-110886214D01*
X177982422Y-110922768D01*
X178056608Y-110945272D01*
X178062330Y-110947319D01*
X178078072Y-110953840D01*
X178094783Y-110957164D01*
X178100676Y-110958640D01*
X178138538Y-110970125D01*
X178174863Y-110981145D01*
X178252013Y-110988744D01*
X178258026Y-110989635D01*
X178274740Y-110992960D01*
X178274741Y-110992960D01*
X178291773Y-110992960D01*
X178297854Y-110993259D01*
X178314691Y-110994917D01*
X178375000Y-111000857D01*
X178435309Y-110994917D01*
X178452146Y-110993259D01*
X178458227Y-110992960D01*
X178475259Y-110992960D01*
X178475260Y-110992960D01*
X178491979Y-110989634D01*
X178497978Y-110988744D01*
X178575135Y-110981145D01*
X178649333Y-110958637D01*
X178655201Y-110957167D01*
X178671928Y-110953840D01*
X178687671Y-110947318D01*
X178693371Y-110945278D01*
X178767578Y-110922768D01*
X178835969Y-110886212D01*
X178841418Y-110883634D01*
X178857185Y-110877104D01*
X178871359Y-110867632D01*
X178876550Y-110864521D01*
X178944936Y-110827969D01*
X179004880Y-110778773D01*
X179009726Y-110775179D01*
X179023912Y-110765701D01*
X179035981Y-110753631D01*
X179040444Y-110749586D01*
X179100390Y-110700390D01*
X179149586Y-110640444D01*
X179153631Y-110635981D01*
X179165701Y-110623912D01*
X179175179Y-110609726D01*
X179178773Y-110604880D01*
X179227969Y-110544936D01*
X179264521Y-110476550D01*
X179267632Y-110471359D01*
X179277104Y-110457185D01*
X179283634Y-110441418D01*
X179286212Y-110435969D01*
X179322768Y-110367578D01*
X179345278Y-110293371D01*
X179347320Y-110287668D01*
X179353840Y-110271928D01*
X179357167Y-110255201D01*
X179358637Y-110249333D01*
X179381145Y-110175135D01*
X179388746Y-110097955D01*
X179389633Y-110091982D01*
X179392960Y-110075260D01*
X179393559Y-110050783D01*
X179393835Y-110046286D01*
X179400857Y-109975000D01*
X179393838Y-109903744D01*
X179393559Y-109899189D01*
X179393377Y-109891773D01*
X179392960Y-109874740D01*
X179389634Y-109858023D01*
X179388745Y-109852030D01*
X179381145Y-109774865D01*
X179358640Y-109700676D01*
X179357163Y-109694779D01*
X179353841Y-109678077D01*
X179353840Y-109678076D01*
X179353840Y-109678072D01*
X179347319Y-109662329D01*
X179345271Y-109656605D01*
X179322768Y-109582422D01*
X179286214Y-109514033D01*
X179283632Y-109508577D01*
X179277104Y-109492815D01*
X179267639Y-109478649D01*
X179264509Y-109473427D01*
X179257039Y-109459452D01*
X179227969Y-109405064D01*
X179178787Y-109345136D01*
X179175160Y-109340245D01*
X179165701Y-109326088D01*
X179163100Y-109323487D01*
X179153645Y-109314032D01*
X179149567Y-109309532D01*
X179100392Y-109249612D01*
X179100388Y-109249609D01*
X179040467Y-109200432D01*
X179035955Y-109196342D01*
X179023916Y-109184302D01*
X179023911Y-109184298D01*
X179009744Y-109174832D01*
X179004855Y-109171206D01*
X178975277Y-109146932D01*
X178944936Y-109122031D01*
X178897790Y-109096831D01*
X178876568Y-109085487D01*
X178871348Y-109082358D01*
X178857192Y-109072900D01*
X178857181Y-109072894D01*
X178841449Y-109066378D01*
X178835951Y-109063778D01*
X178767578Y-109027232D01*
X178693398Y-109004729D01*
X178687668Y-109002679D01*
X178675873Y-108997794D01*
X178671928Y-108996160D01*
X178671926Y-108996159D01*
X178671925Y-108996159D01*
X178671923Y-108996158D01*
X178655221Y-108992836D01*
X178649319Y-108991357D01*
X178575137Y-108968855D01*
X178575132Y-108968854D01*
X178497982Y-108961255D01*
X178491963Y-108960362D01*
X178484329Y-108958844D01*
X178475260Y-108957040D01*
X178475257Y-108957040D01*
X178458227Y-108957040D01*
X178452146Y-108956741D01*
X178375000Y-108949143D01*
X178297854Y-108956741D01*
X178291773Y-108957040D01*
X178274735Y-108957040D01*
X178258025Y-108960363D01*
X178252011Y-108961255D01*
X178174866Y-108968854D01*
X178174862Y-108968855D01*
X178100681Y-108991357D01*
X178094779Y-108992836D01*
X178078076Y-108996158D01*
X178078072Y-108996159D01*
X178062329Y-109002679D01*
X178056603Y-109004728D01*
X177982421Y-109027232D01*
X177914050Y-109063775D01*
X177908551Y-109066376D01*
X177892815Y-109072895D01*
X177878651Y-109082358D01*
X177873435Y-109085484D01*
X177815275Y-109116573D01*
X177805064Y-109122031D01*
X177805062Y-109122032D01*
X177805061Y-109122033D01*
X177745142Y-109171206D01*
X177740258Y-109174829D01*
X177726092Y-109184295D01*
X177726078Y-109184307D01*
X177714039Y-109196346D01*
X177709531Y-109200432D01*
X177649610Y-109249609D01*
X177649609Y-109249610D01*
X177600432Y-109309531D01*
X177596346Y-109314039D01*
X177584307Y-109326078D01*
X177584295Y-109326092D01*
X177574829Y-109340258D01*
X177571206Y-109345142D01*
X177524597Y-109401937D01*
X177522031Y-109405064D01*
X177520543Y-109407848D01*
X177485484Y-109473435D01*
X177482358Y-109478651D01*
X177472895Y-109492815D01*
X177466376Y-109508551D01*
X177463775Y-109514050D01*
X177427232Y-109582421D01*
X177404728Y-109656603D01*
X177402679Y-109662329D01*
X177396159Y-109678072D01*
X177396158Y-109678076D01*
X177392836Y-109694779D01*
X177391357Y-109700681D01*
X177368855Y-109774862D01*
X177368854Y-109774866D01*
X177361255Y-109852011D01*
X177360363Y-109858025D01*
X177357040Y-109874735D01*
X177357040Y-109891773D01*
X177356741Y-109897854D01*
X177349143Y-109974999D01*
X176900857Y-109974999D01*
X176893838Y-109903744D01*
X176893559Y-109899189D01*
X176893377Y-109891773D01*
X176892960Y-109874740D01*
X176889634Y-109858023D01*
X176888745Y-109852030D01*
X176881145Y-109774865D01*
X176858640Y-109700676D01*
X176857163Y-109694779D01*
X176853841Y-109678077D01*
X176853840Y-109678076D01*
X176853840Y-109678072D01*
X176847319Y-109662329D01*
X176845271Y-109656605D01*
X176822768Y-109582422D01*
X176786214Y-109514033D01*
X176783632Y-109508577D01*
X176777104Y-109492815D01*
X176767639Y-109478649D01*
X176764509Y-109473427D01*
X176757039Y-109459452D01*
X176727969Y-109405064D01*
X176678787Y-109345136D01*
X176675160Y-109340245D01*
X176665701Y-109326088D01*
X176663100Y-109323487D01*
X176653645Y-109314032D01*
X176649567Y-109309532D01*
X176600392Y-109249612D01*
X176600388Y-109249609D01*
X176540467Y-109200432D01*
X176535955Y-109196342D01*
X176523916Y-109184302D01*
X176523911Y-109184298D01*
X176509744Y-109174832D01*
X176504855Y-109171206D01*
X176475277Y-109146932D01*
X176444936Y-109122031D01*
X176397790Y-109096831D01*
X176376568Y-109085487D01*
X176371348Y-109082358D01*
X176357192Y-109072900D01*
X176357181Y-109072894D01*
X176341449Y-109066378D01*
X176335951Y-109063778D01*
X176267578Y-109027232D01*
X176203780Y-109007878D01*
X176145342Y-108969580D01*
X176116886Y-108905767D01*
X176116557Y-108903101D01*
X176105208Y-108802371D01*
X176105206Y-108802366D01*
X176105206Y-108802358D01*
X176039264Y-108513451D01*
X175941390Y-108233743D01*
X175941387Y-108233738D01*
X175941385Y-108233731D01*
X175812818Y-107966758D01*
X175812813Y-107966750D01*
X175758460Y-107880246D01*
X175755715Y-107875409D01*
X175754045Y-107872133D01*
X175754040Y-107872123D01*
X175744961Y-107858764D01*
X175655154Y-107715837D01*
X175607049Y-107655516D01*
X175604265Y-107651737D01*
X175577189Y-107611895D01*
X175526571Y-107554479D01*
X175524631Y-107552166D01*
X175516349Y-107541781D01*
X175500331Y-107521694D01*
X175470397Y-107484157D01*
X175424207Y-107437967D01*
X175424204Y-107437962D01*
X175365620Y-107379379D01*
X175365621Y-107379379D01*
X175258669Y-107272428D01*
X172303969Y-104317728D01*
X172270484Y-104256405D01*
X172275468Y-104186713D01*
X172301454Y-104144954D01*
X172502412Y-103931953D01*
X172711130Y-103651596D01*
X172885889Y-103348904D01*
X173024326Y-103027971D01*
X173124569Y-102693136D01*
X173125815Y-102686073D01*
X173185260Y-102348938D01*
X173185259Y-102348938D01*
X173185262Y-102348927D01*
X173205585Y-102000000D01*
X173185262Y-101651073D01*
X173185260Y-101651061D01*
X173124571Y-101306872D01*
X173124569Y-101306865D01*
X173085317Y-101175753D01*
X173024326Y-100972029D01*
X172885889Y-100651096D01*
X172711130Y-100348404D01*
X172672688Y-100296767D01*
X172502415Y-100068050D01*
X172502410Y-100068044D01*
X172325669Y-99880711D01*
X172262558Y-99813817D01*
X172114488Y-99689572D01*
X171994813Y-99589152D01*
X171994805Y-99589146D01*
X171702796Y-99397088D01*
X171390458Y-99240226D01*
X171390452Y-99240223D01*
X171062012Y-99120681D01*
X171062009Y-99120680D01*
X170827434Y-99065085D01*
X170768349Y-99032108D01*
X169812586Y-98076345D01*
X169812583Y-98076340D01*
X169600329Y-97864085D01*
X169224239Y-97538202D01*
X169224239Y-97538201D01*
X168825848Y-97239970D01*
X168825849Y-97239971D01*
X168407210Y-96970929D01*
X167972083Y-96733332D01*
X167922678Y-96683927D01*
X167907826Y-96615654D01*
X167932243Y-96550190D01*
X167988176Y-96508318D01*
X168031510Y-96500500D01*
X173475240Y-96500500D01*
X173475383Y-96500528D01*
X173475384Y-96500524D01*
X173499997Y-96500539D01*
X173500000Y-96500541D01*
X173500383Y-96500383D01*
X173500500Y-96500099D01*
X173500541Y-96500000D01*
X173500540Y-96499997D01*
X173500583Y-96475889D01*
X173500500Y-96475467D01*
X173500500Y-92524759D01*
X173500528Y-92524616D01*
X173500524Y-92524616D01*
X173500539Y-92500002D01*
X173500541Y-92500000D01*
X173500462Y-92499808D01*
X173500384Y-92499618D01*
X173500382Y-92499616D01*
X173500099Y-92499500D01*
X173500000Y-92499459D01*
X173475446Y-92499459D01*
X173475240Y-92499500D01*
X165524760Y-92499500D01*
X165524554Y-92499459D01*
X165500000Y-92499459D01*
X165499901Y-92499500D01*
X165499617Y-92499616D01*
X165499615Y-92499618D01*
X165499459Y-92499999D01*
X165499476Y-92524616D01*
X165499471Y-92524616D01*
X165499500Y-92524759D01*
X165499500Y-95894971D01*
X165479815Y-95962010D01*
X165427011Y-96007765D01*
X165366654Y-96018655D01*
X165098820Y-95999500D01*
X164851742Y-95999500D01*
X164848264Y-95999402D01*
X164633378Y-95987334D01*
X164626464Y-95986555D01*
X164416004Y-95950796D01*
X164409221Y-95949248D01*
X164204085Y-95890150D01*
X164197518Y-95887852D01*
X164098905Y-95847005D01*
X164000288Y-95806157D01*
X163994023Y-95803140D01*
X163807172Y-95699871D01*
X163801301Y-95696182D01*
X163627181Y-95572637D01*
X163621752Y-95568308D01*
X163461276Y-95424898D01*
X163458749Y-95422508D01*
X159306345Y-91270103D01*
X159306064Y-91269839D01*
X159253804Y-91217579D01*
X159178057Y-91141832D01*
X158787108Y-90798980D01*
X158695725Y-90728859D01*
X158374574Y-90482430D01*
X158374573Y-90482430D01*
X157942224Y-90193543D01*
X157942223Y-90193543D01*
X157863688Y-90148201D01*
X157606995Y-89999999D01*
X175894551Y-89999999D01*
X175902275Y-90098142D01*
X175902466Y-90103008D01*
X175902466Y-90125734D01*
X175906019Y-90148167D01*
X175906592Y-90153002D01*
X175909783Y-90193540D01*
X175914317Y-90251148D01*
X175914317Y-90251151D01*
X175914318Y-90251153D01*
X175937296Y-90346867D01*
X175938246Y-90351642D01*
X175941801Y-90374090D01*
X175948824Y-90395705D01*
X175950146Y-90400390D01*
X175973127Y-90496114D01*
X176010797Y-90587057D01*
X176012482Y-90591623D01*
X176018170Y-90609126D01*
X176019507Y-90613240D01*
X176019508Y-90613243D01*
X176019509Y-90613244D01*
X176029821Y-90633484D01*
X176031858Y-90637904D01*
X176069532Y-90728857D01*
X176120973Y-90812803D01*
X176123351Y-90817048D01*
X176130514Y-90831104D01*
X176133666Y-90837290D01*
X176133667Y-90837292D01*
X176147017Y-90855667D01*
X176149722Y-90859714D01*
X176199021Y-90940163D01*
X176201164Y-90943659D01*
X176201171Y-90943667D01*
X176265094Y-91018511D01*
X176268107Y-91022332D01*
X176281469Y-91040724D01*
X176297547Y-91056802D01*
X176300832Y-91060355D01*
X176364776Y-91135224D01*
X176439639Y-91199163D01*
X176443202Y-91202457D01*
X176459276Y-91218531D01*
X176477654Y-91231883D01*
X176477665Y-91231891D01*
X176481471Y-91234891D01*
X176556341Y-91298836D01*
X176556343Y-91298837D01*
X176556344Y-91298838D01*
X176556345Y-91298839D01*
X176640277Y-91350272D01*
X176644325Y-91352977D01*
X176644335Y-91352984D01*
X176662710Y-91366334D01*
X176682961Y-91376652D01*
X176687179Y-91379014D01*
X176771141Y-91430466D01*
X176771143Y-91430466D01*
X176771145Y-91430468D01*
X176812908Y-91447766D01*
X176862101Y-91468142D01*
X176866515Y-91470178D01*
X176874608Y-91474301D01*
X176886760Y-91480493D01*
X176908380Y-91487517D01*
X176912923Y-91489194D01*
X177003889Y-91526873D01*
X177099627Y-91549857D01*
X177104289Y-91551172D01*
X177125910Y-91558198D01*
X177125911Y-91558198D01*
X177125914Y-91558199D01*
X177134646Y-91559581D01*
X177148367Y-91561754D01*
X177153107Y-91562696D01*
X177248852Y-91585683D01*
X177347024Y-91593409D01*
X177351795Y-91593974D01*
X177374271Y-91597534D01*
X177374275Y-91597534D01*
X177396992Y-91597534D01*
X177401858Y-91597725D01*
X177500000Y-91605449D01*
X177598142Y-91597725D01*
X177603008Y-91597534D01*
X177625725Y-91597534D01*
X177625729Y-91597534D01*
X177648204Y-91593974D01*
X177652975Y-91593409D01*
X177751148Y-91585683D01*
X177846897Y-91562695D01*
X177851627Y-91561755D01*
X177874090Y-91558198D01*
X177895737Y-91551164D01*
X177900351Y-91549862D01*
X177996111Y-91526873D01*
X178087090Y-91489188D01*
X178091599Y-91487524D01*
X178113240Y-91480493D01*
X178133508Y-91470165D01*
X178137863Y-91468157D01*
X178228859Y-91430466D01*
X178312833Y-91379006D01*
X178317018Y-91376662D01*
X178337290Y-91366334D01*
X178355684Y-91352969D01*
X178359707Y-91350281D01*
X178443659Y-91298836D01*
X178518547Y-91234875D01*
X178522314Y-91231906D01*
X178540724Y-91218531D01*
X178556819Y-91202435D01*
X178560347Y-91199174D01*
X178635224Y-91135224D01*
X178699174Y-91060347D01*
X178702435Y-91056819D01*
X178718531Y-91040724D01*
X178731906Y-91022314D01*
X178734875Y-91018547D01*
X178798836Y-90943659D01*
X178850281Y-90859707D01*
X178852969Y-90855684D01*
X178866334Y-90837290D01*
X178876662Y-90817018D01*
X178879006Y-90812833D01*
X178930466Y-90728859D01*
X178968157Y-90637863D01*
X178970165Y-90633508D01*
X178980493Y-90613240D01*
X178987524Y-90591599D01*
X178989188Y-90587090D01*
X179026873Y-90496111D01*
X179049862Y-90400351D01*
X179051164Y-90395737D01*
X179058198Y-90374090D01*
X179061755Y-90351627D01*
X179062695Y-90346897D01*
X179085683Y-90251148D01*
X179093409Y-90152978D01*
X179093974Y-90148201D01*
X179097534Y-90125729D01*
X179098155Y-90094043D01*
X179098334Y-90090401D01*
X179105449Y-90000000D01*
X179098333Y-89909593D01*
X179098155Y-89905946D01*
X179097979Y-89896990D01*
X179097534Y-89874271D01*
X179093974Y-89851798D01*
X179093409Y-89847021D01*
X179085683Y-89748852D01*
X179062696Y-89653107D01*
X179061753Y-89648357D01*
X179058198Y-89625913D01*
X179058198Y-89625911D01*
X179058195Y-89625903D01*
X179051172Y-89604289D01*
X179049857Y-89599627D01*
X179026873Y-89503889D01*
X178989194Y-89412923D01*
X178987517Y-89408380D01*
X178980493Y-89386760D01*
X178970178Y-89366515D01*
X178968139Y-89362093D01*
X178957919Y-89337420D01*
X178930466Y-89271141D01*
X178879014Y-89187179D01*
X178876649Y-89182955D01*
X178866337Y-89162716D01*
X178866334Y-89162710D01*
X178858039Y-89151293D01*
X178852977Y-89144325D01*
X178850272Y-89140277D01*
X178798839Y-89056345D01*
X178798838Y-89056344D01*
X178798837Y-89056343D01*
X178798836Y-89056341D01*
X178734891Y-88981471D01*
X178731891Y-88977665D01*
X178718531Y-88959276D01*
X178702453Y-88943198D01*
X178699163Y-88939639D01*
X178635224Y-88864776D01*
X178560355Y-88800832D01*
X178556799Y-88797544D01*
X178540724Y-88781469D01*
X178522332Y-88768107D01*
X178518511Y-88765094D01*
X178443667Y-88701171D01*
X178443659Y-88701164D01*
X178443654Y-88701161D01*
X178443653Y-88701160D01*
X178359714Y-88649722D01*
X178355667Y-88647017D01*
X178337292Y-88633667D01*
X178337290Y-88633666D01*
X178331104Y-88630514D01*
X178317048Y-88623351D01*
X178312803Y-88620973D01*
X178228857Y-88569532D01*
X178137904Y-88531858D01*
X178133484Y-88529821D01*
X178113244Y-88519509D01*
X178113243Y-88519508D01*
X178113240Y-88519507D01*
X178109126Y-88518170D01*
X178091623Y-88512482D01*
X178087057Y-88510797D01*
X177996114Y-88473127D01*
X177900390Y-88450146D01*
X177895705Y-88448824D01*
X177874090Y-88441801D01*
X177851642Y-88438246D01*
X177846867Y-88437296D01*
X177751152Y-88414318D01*
X177751153Y-88414318D01*
X177751151Y-88414317D01*
X177751148Y-88414317D01*
X177703959Y-88410603D01*
X177653002Y-88406592D01*
X177648167Y-88406019D01*
X177625734Y-88402466D01*
X177625729Y-88402466D01*
X177603008Y-88402466D01*
X177598142Y-88402275D01*
X177500000Y-88394551D01*
X177401858Y-88402275D01*
X177396992Y-88402466D01*
X177374271Y-88402466D01*
X177351833Y-88406019D01*
X177346998Y-88406592D01*
X177248851Y-88414317D01*
X177248844Y-88414318D01*
X177153132Y-88437296D01*
X177148357Y-88438246D01*
X177125913Y-88441801D01*
X177125903Y-88441803D01*
X177104299Y-88448823D01*
X177099612Y-88450145D01*
X177003891Y-88473125D01*
X176912938Y-88510799D01*
X176908373Y-88512483D01*
X176886757Y-88519507D01*
X176866515Y-88529820D01*
X176862098Y-88531856D01*
X176771141Y-88569534D01*
X176687201Y-88620970D01*
X176682958Y-88623347D01*
X176662716Y-88633662D01*
X176662708Y-88633667D01*
X176644330Y-88647018D01*
X176640286Y-88649720D01*
X176556339Y-88701165D01*
X176481482Y-88765098D01*
X176477660Y-88768111D01*
X176459276Y-88781469D01*
X176443198Y-88797544D01*
X176439626Y-88800846D01*
X176364775Y-88864775D01*
X176300846Y-88939626D01*
X176297544Y-88943198D01*
X176281469Y-88959276D01*
X176268111Y-88977660D01*
X176265098Y-88981482D01*
X176201165Y-89056339D01*
X176149720Y-89140286D01*
X176147018Y-89144330D01*
X176133667Y-89162708D01*
X176133662Y-89162716D01*
X176123347Y-89182958D01*
X176120970Y-89187201D01*
X176069534Y-89271141D01*
X176031856Y-89362098D01*
X176029820Y-89366515D01*
X176019507Y-89386757D01*
X176012483Y-89408373D01*
X176010799Y-89412938D01*
X175973125Y-89503891D01*
X175950145Y-89599612D01*
X175948823Y-89604299D01*
X175941803Y-89625903D01*
X175941801Y-89625913D01*
X175938246Y-89648357D01*
X175937296Y-89653132D01*
X175914318Y-89748844D01*
X175914317Y-89748851D01*
X175906592Y-89846998D01*
X175906019Y-89851833D01*
X175902466Y-89874270D01*
X175902466Y-89896990D01*
X175902275Y-89901856D01*
X175894551Y-89999999D01*
X157606995Y-89999999D01*
X157491894Y-89933545D01*
X157025538Y-89703563D01*
X157025539Y-89703563D01*
X157025533Y-89703560D01*
X157025530Y-89703559D01*
X156545123Y-89504567D01*
X156052731Y-89337420D01*
X155550460Y-89202835D01*
X155235967Y-89140277D01*
X155040465Y-89101388D01*
X154834247Y-89074238D01*
X154524923Y-89033513D01*
X154006047Y-88999501D01*
X153824623Y-88999500D01*
X153746053Y-88999500D01*
X153594800Y-88999499D01*
X153594799Y-88999499D01*
X153592894Y-88999499D01*
X153592863Y-88999500D01*
X117952459Y-88999500D01*
X117952456Y-88999499D01*
X117901096Y-88999499D01*
X117653181Y-88999499D01*
X117158415Y-89031928D01*
X116830690Y-89075074D01*
X116666827Y-89096647D01*
X116180531Y-89193377D01*
X115701594Y-89321707D01*
X115701595Y-89321707D01*
X115232073Y-89481089D01*
X114773992Y-89670833D01*
X114329297Y-89890132D01*
X114329298Y-89890132D01*
X113921234Y-90125729D01*
X113899893Y-90138050D01*
X113899892Y-90138050D01*
X113487632Y-90413514D01*
X113487631Y-90413514D01*
X113219485Y-90619270D01*
X113094265Y-90715355D01*
X112744246Y-91022314D01*
X112721471Y-91042287D01*
X112721472Y-91042287D01*
X112646064Y-91117694D01*
X112646061Y-91117696D01*
X112580223Y-91183534D01*
X112546179Y-91217579D01*
X112469736Y-91294023D01*
X112439224Y-91324535D01*
X112370887Y-91392873D01*
X112370887Y-91392872D01*
X112370879Y-91392880D01*
X112370878Y-91392882D01*
X112191236Y-91597725D01*
X112043952Y-91765670D01*
X111742115Y-92159032D01*
X111742115Y-92159033D01*
X111466650Y-92571293D01*
X111466650Y-92571294D01*
X111466647Y-92571299D01*
X111218733Y-93000699D01*
X111218733Y-93000698D01*
X110999431Y-93445397D01*
X110999432Y-93445397D01*
X110809690Y-93903473D01*
X110650308Y-94372996D01*
X110650308Y-94372995D01*
X110571236Y-94668097D01*
X110523244Y-94847208D01*
X110521978Y-94851931D01*
X110425248Y-95338227D01*
X110409247Y-95459770D01*
X110360529Y-95829815D01*
X110330498Y-96288005D01*
X110328100Y-96324585D01*
X110328100Y-101455549D01*
X110308415Y-101522588D01*
X110295212Y-101539659D01*
X110129979Y-101718646D01*
X110129971Y-101718656D01*
X109907452Y-102018166D01*
X109907447Y-102018173D01*
X109907445Y-102018177D01*
X109736380Y-102308490D01*
X109718018Y-102339652D01*
X109718011Y-102339664D01*
X109592342Y-102616611D01*
X109546715Y-102669525D01*
X109541428Y-102672757D01*
X109518370Y-102686070D01*
X109518368Y-102686071D01*
X109310070Y-102831924D01*
X109205922Y-102904850D01*
X109205921Y-102904851D01*
X109205921Y-102904850D01*
X108960745Y-103110578D01*
X108913734Y-103150026D01*
X108885831Y-103177928D01*
X108778879Y-103284879D01*
X108670725Y-103393032D01*
X108670480Y-103393291D01*
X108644034Y-103419739D01*
X108644034Y-103419740D01*
X108398858Y-103711927D01*
X108398859Y-103711927D01*
X108398858Y-103711928D01*
X108377944Y-103741796D01*
X108180081Y-104024373D01*
X108180082Y-104024372D01*
X107989369Y-104354692D01*
X107989369Y-104354691D01*
X107908768Y-104527537D01*
X107830830Y-104694675D01*
X107828168Y-104700383D01*
X107727060Y-104978170D01*
X107697712Y-105058800D01*
X107598989Y-105427227D01*
X107532751Y-105802855D01*
X107507100Y-106096008D01*
X107499503Y-106182825D01*
X107499501Y-106294877D01*
X107499500Y-106294918D01*
X107499500Y-106294991D01*
X107499500Y-106344705D01*
X107499500Y-106373539D01*
X107499499Y-106487514D01*
X107499498Y-106526680D01*
X107499500Y-106526744D01*
X107499500Y-116054448D01*
X107499497Y-116054458D01*
X107499498Y-116298366D01*
X107529712Y-116682265D01*
X107529713Y-116682272D01*
X107589956Y-117062628D01*
X107679856Y-117437084D01*
X107798858Y-117803333D01*
X107840209Y-117903162D01*
X107938504Y-118140468D01*
X107946229Y-118159116D01*
X108068964Y-118399995D01*
X108121063Y-118502245D01*
X108259098Y-118727496D01*
X108322273Y-118830588D01*
X108469538Y-119033281D01*
X108548629Y-119142141D01*
X108627939Y-119235001D01*
X108798727Y-119434968D01*
X108858633Y-119494874D01*
X108917436Y-119553677D01*
X108917438Y-119553680D01*
X108934879Y-119571120D01*
X108934879Y-119571121D01*
X108990076Y-119626317D01*
X109190480Y-119826721D01*
X109190493Y-119826732D01*
X109190642Y-119826872D01*
X109264742Y-119900974D01*
X109265114Y-119901346D01*
X109265114Y-119901345D01*
X109293374Y-119925059D01*
X109450250Y-120056698D01*
X109488951Y-120114870D01*
X109490173Y-120119057D01*
X109500517Y-120156986D01*
X109636399Y-120504502D01*
X109713406Y-120652698D01*
X109784867Y-120790223D01*
X109808450Y-120835606D01*
X109871471Y-120930607D01*
X110014716Y-121146541D01*
X110014722Y-121146550D01*
X110191232Y-121359451D01*
X110252873Y-121433800D01*
X110520209Y-121694113D01*
X110610546Y-121765037D01*
X110813695Y-121924530D01*
X110813705Y-121924537D01*
X111130016Y-122122451D01*
X111130019Y-122122452D01*
X111130022Y-122122454D01*
X111465589Y-122285630D01*
X111465592Y-122285631D01*
X111465594Y-122285632D01*
X111522471Y-122306143D01*
X111816600Y-122412212D01*
X112179076Y-122500768D01*
X112548912Y-122550293D01*
X112921917Y-122560226D01*
X113293865Y-122530455D01*
X113660541Y-122461316D01*
X113708923Y-122446726D01*
X113778790Y-122446219D01*
X113837842Y-122483564D01*
X113862141Y-122525588D01*
X113926686Y-122715729D01*
X114004557Y-122945127D01*
X114203550Y-123425534D01*
X114226566Y-123472207D01*
X114433536Y-123891900D01*
X114433536Y-123891899D01*
X114693534Y-124342228D01*
X114693534Y-124342229D01*
X114982422Y-124774579D01*
X114982422Y-124774580D01*
X115298968Y-125187109D01*
X115298972Y-125187114D01*
X115641824Y-125578064D01*
X115770097Y-125706337D01*
X115770105Y-125706346D01*
X116899033Y-126835274D01*
X120193641Y-130129883D01*
X120193900Y-130130126D01*
X120321941Y-130258167D01*
X120600935Y-130502837D01*
X120642512Y-130539299D01*
X120679936Y-130598301D01*
X120679520Y-130668169D01*
X120641397Y-130726721D01*
X120577670Y-130755368D01*
X120543869Y-130755372D01*
X120485239Y-130747314D01*
X120468405Y-130744346D01*
X120460941Y-130743030D01*
X120460939Y-130743029D01*
X120460934Y-130743029D01*
X120454880Y-130742818D01*
X120448600Y-130742278D01*
X120387905Y-130733936D01*
X120387903Y-130733936D01*
X120200533Y-130733936D01*
X120200012Y-130733917D01*
X120179580Y-130733203D01*
X120178362Y-130733331D01*
X120175829Y-130733597D01*
X120169355Y-130733936D01*
X120112095Y-130733936D01*
X119915446Y-130760964D01*
X119899577Y-130762632D01*
X119899549Y-130762637D01*
X119898202Y-130762973D01*
X119891672Y-130764231D01*
X119843654Y-130770832D01*
X119838861Y-130771491D01*
X119801464Y-130781969D01*
X119635391Y-130828500D01*
X119626392Y-130830744D01*
X119620171Y-130832765D01*
X119581639Y-130843561D01*
X119573284Y-130845903D01*
X119573282Y-130845903D01*
X119573281Y-130845904D01*
X119365617Y-130936104D01*
X119365331Y-130936220D01*
X119365185Y-130936291D01*
X119320314Y-130955782D01*
X119084659Y-131099087D01*
X118870720Y-131273139D01*
X118870714Y-131273144D01*
X118682456Y-131474719D01*
X118523415Y-131700030D01*
X118523411Y-131700036D01*
X118396519Y-131944927D01*
X118396518Y-131944929D01*
X118304162Y-132204795D01*
X118304161Y-132204798D01*
X118248046Y-132474843D01*
X118229225Y-132750000D01*
X118248046Y-133025156D01*
X118304161Y-133295201D01*
X118304162Y-133295204D01*
X118396518Y-133555070D01*
X118396519Y-133555072D01*
X118396520Y-133555075D01*
X118396522Y-133555079D01*
X118454647Y-133667254D01*
X118523411Y-133799963D01*
X118523415Y-133799969D01*
X118682456Y-134025280D01*
X118682460Y-134025284D01*
X118682462Y-134025287D01*
X118870714Y-134226855D01*
X119084659Y-134400912D01*
X119084661Y-134400913D01*
X119084662Y-134400914D01*
X119311974Y-134539146D01*
X119320312Y-134544216D01*
X119365226Y-134563724D01*
X119365346Y-134563783D01*
X119365356Y-134563789D01*
X119365587Y-134563882D01*
X119365601Y-134563888D01*
X119430180Y-134591938D01*
X119573282Y-134654096D01*
X119573284Y-134654097D01*
X119620202Y-134667242D01*
X119626383Y-134669250D01*
X119626396Y-134669256D01*
X119635367Y-134671492D01*
X119771136Y-134709533D01*
X119838845Y-134728505D01*
X119838850Y-134728505D01*
X119838861Y-134728509D01*
X119891672Y-134735767D01*
X119898224Y-134737030D01*
X119899574Y-134737367D01*
X119915431Y-134739033D01*
X120014539Y-134752655D01*
X120078273Y-134781285D01*
X120116412Y-134839827D01*
X120116846Y-134909696D01*
X120079437Y-134968707D01*
X120016063Y-134998126D01*
X119997654Y-134999500D01*
X115255510Y-134999500D01*
X115252467Y-134999425D01*
X114968746Y-134985484D01*
X114962688Y-134984887D01*
X114683221Y-134943431D01*
X114677250Y-134942243D01*
X114403185Y-134873593D01*
X114397371Y-134871829D01*
X114131345Y-134776643D01*
X114125733Y-134774318D01*
X113870321Y-134653517D01*
X113864952Y-134650647D01*
X113622630Y-134505404D01*
X113617568Y-134502022D01*
X113390631Y-134333713D01*
X113385925Y-134329851D01*
X113175293Y-134138947D01*
X113173089Y-134136848D01*
X111606345Y-132570103D01*
X111606064Y-132569839D01*
X111578372Y-132542147D01*
X111478057Y-132441832D01*
X111087108Y-132098980D01*
X111087103Y-132098976D01*
X110674574Y-131782430D01*
X110674573Y-131782430D01*
X110242224Y-131493543D01*
X110242223Y-131493543D01*
X109791894Y-131233545D01*
X109325538Y-131003563D01*
X109325539Y-131003563D01*
X109325533Y-131003560D01*
X109325530Y-131003559D01*
X108845123Y-130804567D01*
X108352731Y-130637420D01*
X107850460Y-130502835D01*
X107542268Y-130441530D01*
X107340465Y-130401388D01*
X107134247Y-130374238D01*
X106824923Y-130333513D01*
X106306047Y-130299501D01*
X106124623Y-130299500D01*
X106046053Y-130299500D01*
X105894800Y-130299499D01*
X105894799Y-130299499D01*
X105892894Y-130299499D01*
X105892863Y-130299500D01*
X96575023Y-130299500D01*
X96507984Y-130279815D01*
X96500713Y-130274767D01*
X96284317Y-130112775D01*
X96284309Y-130112770D01*
X96033166Y-129975635D01*
X96033167Y-129975635D01*
X95925915Y-129935632D01*
X95765046Y-129875631D01*
X95765043Y-129875630D01*
X95765037Y-129875628D01*
X95485433Y-129814804D01*
X95271448Y-129799500D01*
X93128552Y-129799500D01*
X92914566Y-129814804D01*
X92634962Y-129875628D01*
X92366833Y-129975635D01*
X92115690Y-130112770D01*
X92115682Y-130112775D01*
X91886612Y-130284254D01*
X91886594Y-130284270D01*
X91823936Y-130346929D01*
X91762613Y-130380414D01*
X91692921Y-130375430D01*
X91636988Y-130333558D01*
X91612571Y-130268094D01*
X91612255Y-130259248D01*
X91612255Y-126868437D01*
X95375668Y-126868437D01*
X95406232Y-127120163D01*
X95476779Y-127363717D01*
X95585480Y-127592800D01*
X95585486Y-127592810D01*
X95729520Y-127801481D01*
X95729524Y-127801486D01*
X95729525Y-127801487D01*
X95905178Y-127984360D01*
X95963890Y-128028479D01*
X96107885Y-128136685D01*
X96107887Y-128136686D01*
X96107891Y-128136689D01*
X96224806Y-128198050D01*
X96332411Y-128254527D01*
X96332413Y-128254527D01*
X96332414Y-128254528D01*
X96452673Y-128294676D01*
X96572931Y-128334825D01*
X96823213Y-128375500D01*
X96823216Y-128375500D01*
X97013287Y-128375500D01*
X97139591Y-128365303D01*
X97202745Y-128360205D01*
X97448945Y-128299523D01*
X97682222Y-128200132D01*
X97896535Y-128064609D01*
X98086333Y-127896463D01*
X98246701Y-127700048D01*
X98373485Y-127480452D01*
X98463401Y-127243362D01*
X98514121Y-126994919D01*
X98524331Y-126741557D01*
X98499475Y-126536848D01*
X98493767Y-126489836D01*
X98423220Y-126246282D01*
X98314519Y-126017199D01*
X98314513Y-126017189D01*
X98170479Y-125808518D01*
X98170475Y-125808513D01*
X97994822Y-125625640D01*
X97913924Y-125564849D01*
X97792114Y-125473314D01*
X97792110Y-125473311D01*
X97792109Y-125473311D01*
X97764187Y-125458656D01*
X97567588Y-125355472D01*
X97567584Y-125355471D01*
X97327068Y-125275174D01*
X97076787Y-125234500D01*
X97076784Y-125234500D01*
X96886715Y-125234500D01*
X96886713Y-125234500D01*
X96697255Y-125249794D01*
X96451052Y-125310477D01*
X96217783Y-125409865D01*
X96217782Y-125409865D01*
X96003462Y-125545392D01*
X95813668Y-125713535D01*
X95813664Y-125713539D01*
X95653299Y-125909951D01*
X95653295Y-125909956D01*
X95526515Y-126129546D01*
X95436598Y-126366640D01*
X95385879Y-126615074D01*
X95385878Y-126615084D01*
X95375668Y-126868436D01*
X95375668Y-126868437D01*
X91612255Y-126868437D01*
X91612255Y-118400004D01*
X100219732Y-118400004D01*
X100238777Y-118654154D01*
X100295103Y-118900936D01*
X100295492Y-118902637D01*
X100384723Y-119129993D01*
X100388608Y-119139890D01*
X100401648Y-119162476D01*
X100516041Y-119360612D01*
X100674950Y-119559877D01*
X100861783Y-119733232D01*
X101072366Y-119876805D01*
X101072371Y-119876807D01*
X101072372Y-119876808D01*
X101072373Y-119876809D01*
X101169927Y-119923788D01*
X101301996Y-119987389D01*
X101343417Y-120000165D01*
X101346075Y-120001052D01*
X101349517Y-120002288D01*
X101349526Y-120002292D01*
X101356707Y-120004265D01*
X101545542Y-120062513D01*
X101545547Y-120062513D01*
X101545548Y-120062514D01*
X101593109Y-120069683D01*
X101600301Y-120071207D01*
X101600573Y-120071281D01*
X101600859Y-120071360D01*
X101600864Y-120071360D01*
X101600866Y-120071361D01*
X101603836Y-120071703D01*
X101615287Y-120073025D01*
X101797565Y-120100500D01*
X101797571Y-120100500D01*
X101849704Y-120100500D01*
X101856819Y-120100909D01*
X101859789Y-120101252D01*
X101859789Y-120101251D01*
X101859790Y-120101252D01*
X101879410Y-120100500D01*
X102052431Y-120100500D01*
X102052435Y-120100500D01*
X102108035Y-120092119D01*
X102114885Y-120091474D01*
X102120249Y-120091269D01*
X102143152Y-120086826D01*
X102304458Y-120062513D01*
X102362169Y-120044711D01*
X102368563Y-120043110D01*
X102376131Y-120041643D01*
X102376138Y-120041640D01*
X102376140Y-120041640D01*
X102380392Y-120040112D01*
X102399264Y-120033334D01*
X102401855Y-120032469D01*
X102548004Y-119987389D01*
X102606179Y-119959373D01*
X102612082Y-119956899D01*
X102621440Y-119953539D01*
X102644499Y-119940999D01*
X102647117Y-119939658D01*
X102777634Y-119876805D01*
X102834499Y-119838034D01*
X102839783Y-119834807D01*
X102850425Y-119829021D01*
X102872100Y-119812498D01*
X102874633Y-119810671D01*
X102988217Y-119733232D01*
X103041870Y-119683449D01*
X103046418Y-119679621D01*
X103057718Y-119671008D01*
X103076896Y-119651080D01*
X103079304Y-119648715D01*
X103175050Y-119559877D01*
X103223445Y-119499191D01*
X103227229Y-119494874D01*
X103238461Y-119483204D01*
X103254335Y-119460634D01*
X103256555Y-119457672D01*
X103324059Y-119373026D01*
X103333960Y-119360611D01*
X103368416Y-119300930D01*
X103375035Y-119289464D01*
X103378006Y-119284813D01*
X103388419Y-119270010D01*
X103400512Y-119245584D01*
X103402336Y-119242177D01*
X103461393Y-119139888D01*
X103493103Y-119059092D01*
X103495246Y-119054253D01*
X103504074Y-119036424D01*
X103512088Y-119011100D01*
X103513458Y-119007227D01*
X103554508Y-118902637D01*
X103574887Y-118813346D01*
X103576208Y-118808488D01*
X103582718Y-118787921D01*
X103586628Y-118762604D01*
X103587445Y-118758328D01*
X103611222Y-118654157D01*
X103618436Y-118557889D01*
X103618977Y-118553170D01*
X103622506Y-118530325D01*
X103623161Y-118496090D01*
X103623318Y-118492734D01*
X103630268Y-118400000D01*
X103623318Y-118307269D01*
X103623161Y-118303906D01*
X103622506Y-118269675D01*
X103618978Y-118246838D01*
X103618435Y-118242102D01*
X103611222Y-118145843D01*
X103587445Y-118041671D01*
X103586628Y-118037395D01*
X103582718Y-118012079D01*
X103576204Y-117991497D01*
X103574889Y-117986661D01*
X103554508Y-117897363D01*
X103513460Y-117792776D01*
X103512087Y-117788896D01*
X103504074Y-117763576D01*
X103495235Y-117745725D01*
X103493107Y-117740918D01*
X103461393Y-117660112D01*
X103402353Y-117557851D01*
X103400498Y-117554386D01*
X103388419Y-117529990D01*
X103378001Y-117515179D01*
X103375036Y-117510536D01*
X103333959Y-117439388D01*
X103256560Y-117342333D01*
X103254335Y-117339365D01*
X103238461Y-117316796D01*
X103227239Y-117305135D01*
X103223438Y-117300799D01*
X103175051Y-117240124D01*
X103079359Y-117151334D01*
X103076857Y-117148878D01*
X103057720Y-117128994D01*
X103057717Y-117128991D01*
X103046441Y-117120396D01*
X103041853Y-117116535D01*
X103040651Y-117115420D01*
X103030685Y-117106172D01*
X102988217Y-117066767D01*
X102874681Y-116989360D01*
X102872021Y-116987441D01*
X102850425Y-116970979D01*
X102850421Y-116970976D01*
X102850420Y-116970976D01*
X102839795Y-116965198D01*
X102834487Y-116961956D01*
X102777634Y-116923195D01*
X102777631Y-116923193D01*
X102647172Y-116860368D01*
X102644454Y-116858975D01*
X102621435Y-116846458D01*
X102612094Y-116843103D01*
X102606152Y-116840613D01*
X102548006Y-116812612D01*
X102548004Y-116812611D01*
X102506595Y-116799838D01*
X102401894Y-116767541D01*
X102399212Y-116766646D01*
X102376131Y-116758357D01*
X102368594Y-116756895D01*
X102362123Y-116755274D01*
X102304462Y-116737488D01*
X102304460Y-116737487D01*
X102304458Y-116737487D01*
X102193893Y-116720821D01*
X102143169Y-116713176D01*
X102134110Y-116711419D01*
X102120249Y-116708731D01*
X102120247Y-116708730D01*
X102120242Y-116708730D01*
X102114881Y-116708524D01*
X102108015Y-116707877D01*
X102052442Y-116699500D01*
X102052435Y-116699500D01*
X101879410Y-116699500D01*
X101859789Y-116698747D01*
X101856819Y-116699091D01*
X101849704Y-116699500D01*
X101797559Y-116699500D01*
X101615289Y-116726974D01*
X101600857Y-116728640D01*
X101600837Y-116728644D01*
X101600274Y-116728799D01*
X101593115Y-116730315D01*
X101545541Y-116737486D01*
X101356718Y-116795731D01*
X101349520Y-116797709D01*
X101346060Y-116798951D01*
X101343400Y-116799838D01*
X101301997Y-116812610D01*
X101072370Y-116923192D01*
X100861782Y-117066768D01*
X100674952Y-117240121D01*
X100674950Y-117240123D01*
X100516041Y-117439388D01*
X100388608Y-117660109D01*
X100295492Y-117897362D01*
X100295490Y-117897369D01*
X100238777Y-118145845D01*
X100219732Y-118399995D01*
X100219732Y-118400004D01*
X91612255Y-118400004D01*
X91612255Y-111649999D01*
X97183821Y-111649999D01*
X97191784Y-111822239D01*
X97191850Y-111825103D01*
X97191850Y-111867173D01*
X97191849Y-111867176D01*
X97195731Y-111909074D01*
X97195930Y-111911929D01*
X97203894Y-112084175D01*
X97203896Y-112084187D01*
X97227713Y-112254928D01*
X97228043Y-112257773D01*
X97231926Y-112299680D01*
X97239660Y-112341056D01*
X97240121Y-112343881D01*
X97259458Y-112482500D01*
X97261190Y-112494919D01*
X97263941Y-112514636D01*
X97263942Y-112514642D01*
X97303413Y-112682463D01*
X97304004Y-112685264D01*
X97311738Y-112726635D01*
X97311741Y-112726647D01*
X97323256Y-112767117D01*
X97323975Y-112769889D01*
X97363447Y-112937713D01*
X97363449Y-112937721D01*
X97363451Y-112937727D01*
X97368586Y-112953048D01*
X97418242Y-113101204D01*
X97419089Y-113103939D01*
X97430607Y-113144416D01*
X97445804Y-113183645D01*
X97446777Y-113186339D01*
X97501571Y-113349824D01*
X97501575Y-113349834D01*
X97515113Y-113380494D01*
X97571219Y-113507560D01*
X97572309Y-113510193D01*
X97587515Y-113549443D01*
X97606293Y-113587155D01*
X97607480Y-113589685D01*
X97677132Y-113747431D01*
X97697129Y-113783332D01*
X97761036Y-113898070D01*
X97762372Y-113900603D01*
X97781122Y-113938259D01*
X97781126Y-113938266D01*
X97803271Y-113974032D01*
X97804722Y-113976501D01*
X97888622Y-114127130D01*
X97888626Y-114127137D01*
X97986064Y-114269380D01*
X97987627Y-114271779D01*
X98009784Y-114307562D01*
X98009786Y-114307565D01*
X98035154Y-114341158D01*
X98036827Y-114343483D01*
X98134255Y-114485710D01*
X98194787Y-114558606D01*
X98244392Y-114618343D01*
X98246170Y-114620587D01*
X98271542Y-114654184D01*
X98299895Y-114685286D01*
X98301774Y-114687446D01*
X98337525Y-114730499D01*
X98411920Y-114820089D01*
X98533847Y-114942016D01*
X98535796Y-114944057D01*
X98564165Y-114975177D01*
X98595275Y-115003537D01*
X98597323Y-115005492D01*
X98677395Y-115085564D01*
X98719250Y-115127419D01*
X98719258Y-115127426D01*
X98851894Y-115237566D01*
X98854054Y-115239446D01*
X98867454Y-115251661D01*
X98885159Y-115267801D01*
X98885162Y-115267803D01*
X98885165Y-115267806D01*
X98918752Y-115293170D01*
X98920971Y-115294926D01*
X99053632Y-115405087D01*
X99102568Y-115438609D01*
X99195885Y-115502533D01*
X99198174Y-115504179D01*
X99231782Y-115529559D01*
X99267586Y-115551728D01*
X99269952Y-115553270D01*
X99325094Y-115591043D01*
X99412204Y-115650715D01*
X99562842Y-115734619D01*
X99565286Y-115736055D01*
X99601080Y-115758218D01*
X99633415Y-115774319D01*
X99638745Y-115776973D01*
X99641279Y-115778309D01*
X99791900Y-115862204D01*
X99791911Y-115862210D01*
X99949702Y-115931881D01*
X99952179Y-115933044D01*
X99989895Y-115951825D01*
X99989899Y-115951827D01*
X99989906Y-115951830D01*
X100029147Y-115967032D01*
X100031768Y-115968117D01*
X100153284Y-116021771D01*
X100189507Y-116037766D01*
X100189523Y-116037772D01*
X100229707Y-116051240D01*
X100353023Y-116092571D01*
X100355651Y-116093520D01*
X100390511Y-116107025D01*
X100394914Y-116108731D01*
X100394925Y-116108735D01*
X100435427Y-116120258D01*
X100438125Y-116121094D01*
X100601615Y-116175891D01*
X100769484Y-116215373D01*
X100772186Y-116216074D01*
X100799829Y-116223940D01*
X100812677Y-116227596D01*
X100812683Y-116227597D01*
X100812700Y-116227602D01*
X100854109Y-116235342D01*
X100856833Y-116235917D01*
X101024705Y-116275401D01*
X101195535Y-116299230D01*
X101198232Y-116299670D01*
X101239660Y-116307415D01*
X101239663Y-116307415D01*
X101239667Y-116307416D01*
X101255673Y-116308898D01*
X101281584Y-116311299D01*
X101284385Y-116311624D01*
X101455171Y-116335448D01*
X101627483Y-116343414D01*
X101630204Y-116343603D01*
X101672164Y-116347492D01*
X101672170Y-116347492D01*
X101714238Y-116347492D01*
X101717102Y-116347558D01*
X101740971Y-116348661D01*
X101889342Y-116355521D01*
X102037712Y-116348661D01*
X102061582Y-116347558D01*
X102064446Y-116347492D01*
X102106514Y-116347492D01*
X102106520Y-116347492D01*
X102148488Y-116343603D01*
X102151195Y-116343414D01*
X102323513Y-116335448D01*
X102494293Y-116311625D01*
X102497104Y-116311299D01*
X102539024Y-116307415D01*
X102580431Y-116299674D01*
X102583163Y-116299228D01*
X102753979Y-116275401D01*
X102921868Y-116235913D01*
X102924574Y-116235342D01*
X102965984Y-116227602D01*
X103006496Y-116216075D01*
X103009201Y-116215373D01*
X103177069Y-116175891D01*
X103340565Y-116121092D01*
X103343274Y-116120254D01*
X103345396Y-116119650D01*
X103383759Y-116108735D01*
X103423043Y-116093516D01*
X103425603Y-116092590D01*
X103589172Y-116037768D01*
X103746953Y-115968100D01*
X103749500Y-115967045D01*
X103788785Y-115951827D01*
X103826528Y-115933033D01*
X103829008Y-115931869D01*
X103986773Y-115862210D01*
X104137437Y-115778290D01*
X104139914Y-115776984D01*
X104177604Y-115758218D01*
X104213447Y-115736024D01*
X104215780Y-115734653D01*
X104366480Y-115650715D01*
X104508790Y-115553229D01*
X104511055Y-115551753D01*
X104546902Y-115529559D01*
X104580541Y-115504155D01*
X104582764Y-115502556D01*
X104725052Y-115405087D01*
X104857768Y-115294880D01*
X104859881Y-115293207D01*
X104893525Y-115267801D01*
X104924641Y-115239434D01*
X104926786Y-115237569D01*
X104943330Y-115223831D01*
X105059431Y-115127422D01*
X105181357Y-115005495D01*
X105183376Y-115003566D01*
X105214519Y-114975177D01*
X105242908Y-114944034D01*
X105244837Y-114942015D01*
X105366764Y-114820089D01*
X105476913Y-114687441D01*
X105478776Y-114685299D01*
X105507143Y-114654183D01*
X105532549Y-114620539D01*
X105534222Y-114618426D01*
X105644429Y-114485710D01*
X105741898Y-114343422D01*
X105743497Y-114341199D01*
X105768901Y-114307560D01*
X105791095Y-114271713D01*
X105792571Y-114269448D01*
X105890057Y-114127138D01*
X105973995Y-113976438D01*
X105975366Y-113974105D01*
X105997560Y-113938262D01*
X106016326Y-113900572D01*
X106017632Y-113898095D01*
X106101552Y-113747431D01*
X106171211Y-113589666D01*
X106172375Y-113587186D01*
X106191169Y-113549443D01*
X106206387Y-113510158D01*
X106207442Y-113507611D01*
X106277110Y-113349830D01*
X106331932Y-113186261D01*
X106332858Y-113183701D01*
X106348077Y-113144417D01*
X106359596Y-113103932D01*
X106360441Y-113101204D01*
X106415233Y-112937727D01*
X106454715Y-112769859D01*
X106455417Y-112767154D01*
X106466944Y-112726642D01*
X106474684Y-112685232D01*
X106475255Y-112682526D01*
X106514743Y-112514637D01*
X106538570Y-112343821D01*
X106539016Y-112341089D01*
X106546757Y-112299682D01*
X106550641Y-112257762D01*
X106550969Y-112254937D01*
X106550971Y-112254928D01*
X106574790Y-112084171D01*
X106582756Y-111911853D01*
X106582945Y-111909146D01*
X106586834Y-111867178D01*
X106587503Y-111809178D01*
X106594863Y-111650000D01*
X106587503Y-111490821D01*
X106586834Y-111432822D01*
X106582945Y-111390862D01*
X106582756Y-111388141D01*
X106574790Y-111215829D01*
X106550966Y-111045043D01*
X106550640Y-111042225D01*
X106546757Y-111000318D01*
X106539012Y-110958890D01*
X106538572Y-110956193D01*
X106514743Y-110785363D01*
X106475259Y-110617491D01*
X106474684Y-110614767D01*
X106466944Y-110573358D01*
X106466939Y-110573340D01*
X106466938Y-110573335D01*
X106463282Y-110560487D01*
X106455416Y-110532844D01*
X106454710Y-110530119D01*
X106415233Y-110362273D01*
X106360436Y-110198783D01*
X106359597Y-110196073D01*
X106348077Y-110155583D01*
X106332862Y-110116309D01*
X106331913Y-110113681D01*
X106277110Y-109950170D01*
X106277106Y-109950162D01*
X106233770Y-109852015D01*
X106207459Y-109792426D01*
X106206374Y-109789805D01*
X106191172Y-109750564D01*
X106191169Y-109750557D01*
X106172386Y-109712837D01*
X106171223Y-109710360D01*
X106101552Y-109552569D01*
X106074034Y-109503164D01*
X106017651Y-109401937D01*
X106016315Y-109399403D01*
X106015513Y-109397793D01*
X105997560Y-109361738D01*
X105975397Y-109325944D01*
X105973961Y-109323500D01*
X105890057Y-109172862D01*
X105792612Y-109030610D01*
X105791070Y-109028244D01*
X105768901Y-108992440D01*
X105743521Y-108958832D01*
X105741875Y-108956543D01*
X105644435Y-108814299D01*
X105644429Y-108814290D01*
X105534268Y-108681629D01*
X105532512Y-108679410D01*
X105507148Y-108645823D01*
X105507135Y-108645809D01*
X105497327Y-108635050D01*
X105478788Y-108614712D01*
X105476908Y-108612552D01*
X105366768Y-108479916D01*
X105366761Y-108479908D01*
X105337353Y-108450500D01*
X105244834Y-108357981D01*
X105242879Y-108355933D01*
X105214519Y-108324823D01*
X105183399Y-108296454D01*
X105181358Y-108294505D01*
X105059431Y-108172578D01*
X104985123Y-108110873D01*
X104926788Y-108062432D01*
X104924628Y-108060553D01*
X104893526Y-108032200D01*
X104893519Y-108032195D01*
X104859946Y-108006841D01*
X104859929Y-108006828D01*
X104857685Y-108005050D01*
X104725054Y-107894915D01*
X104725052Y-107894913D01*
X104582818Y-107797480D01*
X104580500Y-107795812D01*
X104546907Y-107770444D01*
X104546904Y-107770442D01*
X104511121Y-107748285D01*
X104508722Y-107746722D01*
X104366479Y-107649284D01*
X104366472Y-107649280D01*
X104215843Y-107565380D01*
X104213374Y-107563929D01*
X104177608Y-107541784D01*
X104177601Y-107541780D01*
X104139945Y-107523030D01*
X104137412Y-107521694D01*
X104020843Y-107456767D01*
X103986773Y-107437790D01*
X103829027Y-107368138D01*
X103826497Y-107366951D01*
X103788785Y-107348173D01*
X103749535Y-107332967D01*
X103746925Y-107331886D01*
X103670335Y-107298069D01*
X103589176Y-107262233D01*
X103589166Y-107262229D01*
X103425681Y-107207435D01*
X103422987Y-107206462D01*
X103421334Y-107205821D01*
X103383759Y-107191265D01*
X103375055Y-107188788D01*
X103343281Y-107179747D01*
X103340546Y-107178900D01*
X103217618Y-107137699D01*
X103177069Y-107124109D01*
X103177063Y-107124107D01*
X103177055Y-107124105D01*
X103009231Y-107084633D01*
X103006459Y-107083914D01*
X102965989Y-107072399D01*
X102965977Y-107072396D01*
X102924606Y-107064662D01*
X102921805Y-107064071D01*
X102753984Y-107024600D01*
X102753981Y-107024599D01*
X102753979Y-107024599D01*
X102726609Y-107020781D01*
X102583223Y-107000779D01*
X102580398Y-107000318D01*
X102539022Y-106992584D01*
X102497115Y-106988701D01*
X102494270Y-106988371D01*
X102323529Y-106964554D01*
X102323517Y-106964552D01*
X102151271Y-106956588D01*
X102148416Y-106956389D01*
X102106521Y-106952508D01*
X102106520Y-106952508D01*
X102064446Y-106952508D01*
X102061582Y-106952442D01*
X101889342Y-106944479D01*
X101717102Y-106952442D01*
X101714238Y-106952508D01*
X101672163Y-106952508D01*
X101630267Y-106956389D01*
X101627411Y-106956588D01*
X101522428Y-106961442D01*
X101455171Y-106964552D01*
X101455165Y-106964552D01*
X101455161Y-106964553D01*
X101284412Y-106988371D01*
X101281567Y-106988701D01*
X101239663Y-106992584D01*
X101198289Y-107000318D01*
X101195463Y-107000779D01*
X101024709Y-107024598D01*
X100856858Y-107064075D01*
X100854057Y-107064666D01*
X100812706Y-107072396D01*
X100812682Y-107072402D01*
X100772232Y-107083911D01*
X100769461Y-107084630D01*
X100601624Y-107124106D01*
X100601606Y-107124112D01*
X100438148Y-107178896D01*
X100435415Y-107179742D01*
X100394934Y-107191261D01*
X100355682Y-107206467D01*
X100352990Y-107207439D01*
X100252836Y-107241008D01*
X100189512Y-107262232D01*
X100189509Y-107262233D01*
X100189504Y-107262235D01*
X100031771Y-107331880D01*
X100029127Y-107332975D01*
X99989900Y-107348172D01*
X99952211Y-107366938D01*
X99949620Y-107368154D01*
X99791906Y-107437792D01*
X99641271Y-107521694D01*
X99638739Y-107523028D01*
X99601095Y-107541774D01*
X99601081Y-107541781D01*
X99565300Y-107563934D01*
X99562833Y-107565384D01*
X99412203Y-107649285D01*
X99412194Y-107649291D01*
X99269955Y-107746726D01*
X99267557Y-107748288D01*
X99231790Y-107770435D01*
X99231775Y-107770446D01*
X99198186Y-107795809D01*
X99195864Y-107797480D01*
X99053631Y-107894913D01*
X98920981Y-108005063D01*
X98918736Y-108006841D01*
X98885162Y-108032195D01*
X98885151Y-108032204D01*
X98854061Y-108060546D01*
X98851903Y-108062423D01*
X98719256Y-108172575D01*
X98719244Y-108172586D01*
X98597344Y-108294485D01*
X98595275Y-108296460D01*
X98564165Y-108324823D01*
X98535802Y-108355933D01*
X98533827Y-108358002D01*
X98411928Y-108479902D01*
X98411917Y-108479914D01*
X98301765Y-108612561D01*
X98299888Y-108614719D01*
X98271546Y-108645809D01*
X98271537Y-108645820D01*
X98246183Y-108679394D01*
X98244405Y-108681639D01*
X98134255Y-108814289D01*
X98036822Y-108956522D01*
X98035151Y-108958844D01*
X98009788Y-108992433D01*
X98009777Y-108992448D01*
X97987630Y-109028215D01*
X97986068Y-109030613D01*
X97888633Y-109172852D01*
X97888627Y-109172861D01*
X97804726Y-109323491D01*
X97803276Y-109325958D01*
X97781123Y-109361739D01*
X97781116Y-109361753D01*
X97762370Y-109399397D01*
X97761036Y-109401929D01*
X97677134Y-109552564D01*
X97607496Y-109710278D01*
X97606280Y-109712869D01*
X97587514Y-109750558D01*
X97572317Y-109789785D01*
X97571222Y-109792429D01*
X97501577Y-109950162D01*
X97501576Y-109950165D01*
X97501574Y-109950170D01*
X97493252Y-109974999D01*
X97446781Y-110113648D01*
X97445809Y-110116340D01*
X97430603Y-110155592D01*
X97419084Y-110196073D01*
X97418238Y-110198806D01*
X97363454Y-110362264D01*
X97363448Y-110362282D01*
X97323972Y-110530119D01*
X97323253Y-110532890D01*
X97311744Y-110573340D01*
X97311738Y-110573364D01*
X97304008Y-110614715D01*
X97303417Y-110617516D01*
X97263940Y-110785367D01*
X97240121Y-110956121D01*
X97239660Y-110958947D01*
X97231926Y-111000321D01*
X97228043Y-111042225D01*
X97227713Y-111045070D01*
X97206728Y-111195512D01*
X97203894Y-111215829D01*
X97201672Y-111263900D01*
X97195930Y-111388069D01*
X97195731Y-111390925D01*
X97191850Y-111432821D01*
X97191850Y-111474895D01*
X97191784Y-111477759D01*
X97183821Y-111649999D01*
X91612255Y-111649999D01*
X91612255Y-104825004D01*
X100169732Y-104825004D01*
X100188777Y-105079154D01*
X100245103Y-105325936D01*
X100245492Y-105327637D01*
X100338607Y-105564888D01*
X100466041Y-105785612D01*
X100624950Y-105984877D01*
X100811783Y-106158232D01*
X101022366Y-106301805D01*
X101022371Y-106301807D01*
X101022372Y-106301808D01*
X101022373Y-106301809D01*
X101152821Y-106364629D01*
X101251996Y-106412389D01*
X101293417Y-106425165D01*
X101296075Y-106426052D01*
X101299517Y-106427288D01*
X101299526Y-106427292D01*
X101306707Y-106429265D01*
X101495542Y-106487513D01*
X101495547Y-106487513D01*
X101495548Y-106487514D01*
X101543109Y-106494683D01*
X101550301Y-106496207D01*
X101550573Y-106496281D01*
X101550859Y-106496360D01*
X101550864Y-106496360D01*
X101550866Y-106496361D01*
X101553836Y-106496703D01*
X101565287Y-106498025D01*
X101747565Y-106525500D01*
X101747571Y-106525500D01*
X101799704Y-106525500D01*
X101806819Y-106525909D01*
X101809789Y-106526252D01*
X101809789Y-106526251D01*
X101809790Y-106526252D01*
X101829410Y-106525500D01*
X102002431Y-106525500D01*
X102002435Y-106525500D01*
X102058035Y-106517119D01*
X102064885Y-106516474D01*
X102070249Y-106516269D01*
X102093152Y-106511826D01*
X102254458Y-106487513D01*
X102312169Y-106469711D01*
X102318563Y-106468110D01*
X102326131Y-106466643D01*
X102326138Y-106466640D01*
X102326140Y-106466640D01*
X102330392Y-106465112D01*
X102349264Y-106458334D01*
X102351855Y-106457469D01*
X102498004Y-106412389D01*
X102556179Y-106384373D01*
X102562082Y-106381899D01*
X102571440Y-106378539D01*
X102594499Y-106365999D01*
X102597117Y-106364658D01*
X102727634Y-106301805D01*
X102784499Y-106263034D01*
X102789783Y-106259807D01*
X102800425Y-106254021D01*
X102822100Y-106237498D01*
X102824633Y-106235671D01*
X102938217Y-106158232D01*
X102991870Y-106108449D01*
X102996418Y-106104621D01*
X103007718Y-106096008D01*
X103026896Y-106076080D01*
X103029304Y-106073715D01*
X103125050Y-105984877D01*
X103173445Y-105924191D01*
X103177229Y-105919874D01*
X103188461Y-105908204D01*
X103204335Y-105885634D01*
X103206555Y-105882672D01*
X103283959Y-105785612D01*
X103285836Y-105782362D01*
X103300540Y-105756890D01*
X103325035Y-105714464D01*
X103328006Y-105709813D01*
X103338419Y-105695010D01*
X103350512Y-105670584D01*
X103352336Y-105667177D01*
X103411393Y-105564888D01*
X103443103Y-105484092D01*
X103445246Y-105479253D01*
X103454074Y-105461424D01*
X103462088Y-105436100D01*
X103463458Y-105432227D01*
X103504508Y-105327637D01*
X103524887Y-105238346D01*
X103526208Y-105233488D01*
X103532718Y-105212921D01*
X103536628Y-105187604D01*
X103537445Y-105183328D01*
X103561222Y-105079157D01*
X103568436Y-104982889D01*
X103568977Y-104978170D01*
X103572506Y-104955325D01*
X103573161Y-104921090D01*
X103573318Y-104917734D01*
X103580268Y-104825000D01*
X103573318Y-104732269D01*
X103573161Y-104728906D01*
X103572506Y-104694675D01*
X103568978Y-104671838D01*
X103568435Y-104667102D01*
X103561222Y-104570843D01*
X103537445Y-104466671D01*
X103536628Y-104462395D01*
X103532718Y-104437079D01*
X103526204Y-104416497D01*
X103524889Y-104411661D01*
X103504508Y-104322363D01*
X103463460Y-104217776D01*
X103462087Y-104213896D01*
X103454074Y-104188576D01*
X103445235Y-104170725D01*
X103443107Y-104165918D01*
X103411393Y-104085112D01*
X103352353Y-103982851D01*
X103350498Y-103979386D01*
X103338419Y-103954990D01*
X103328001Y-103940179D01*
X103325036Y-103935536D01*
X103283959Y-103864388D01*
X103206560Y-103767333D01*
X103204335Y-103764365D01*
X103188461Y-103741796D01*
X103177239Y-103730135D01*
X103173438Y-103725799D01*
X103125051Y-103665124D01*
X103029359Y-103576334D01*
X103026857Y-103573878D01*
X103007720Y-103553994D01*
X103007717Y-103553991D01*
X102996441Y-103545396D01*
X102991853Y-103541535D01*
X102938217Y-103491767D01*
X102824681Y-103414360D01*
X102822021Y-103412441D01*
X102800425Y-103395979D01*
X102800421Y-103395976D01*
X102800420Y-103395976D01*
X102789795Y-103390198D01*
X102784487Y-103386956D01*
X102727634Y-103348195D01*
X102727631Y-103348193D01*
X102597172Y-103285368D01*
X102594454Y-103283975D01*
X102571435Y-103271458D01*
X102562094Y-103268103D01*
X102556152Y-103265613D01*
X102498006Y-103237612D01*
X102498004Y-103237611D01*
X102456595Y-103224838D01*
X102351894Y-103192541D01*
X102349212Y-103191646D01*
X102326131Y-103183357D01*
X102318594Y-103181895D01*
X102312123Y-103180274D01*
X102254462Y-103162488D01*
X102254460Y-103162487D01*
X102254458Y-103162487D01*
X102143893Y-103145821D01*
X102093169Y-103138176D01*
X102084110Y-103136419D01*
X102070249Y-103133731D01*
X102070247Y-103133730D01*
X102070242Y-103133730D01*
X102064881Y-103133524D01*
X102058015Y-103132877D01*
X102002442Y-103124500D01*
X102002435Y-103124500D01*
X101829410Y-103124500D01*
X101809789Y-103123747D01*
X101806819Y-103124091D01*
X101799704Y-103124500D01*
X101747559Y-103124500D01*
X101565289Y-103151974D01*
X101550857Y-103153640D01*
X101550837Y-103153644D01*
X101550274Y-103153799D01*
X101543115Y-103155315D01*
X101495541Y-103162486D01*
X101306718Y-103220731D01*
X101299520Y-103222709D01*
X101296060Y-103223951D01*
X101293400Y-103224838D01*
X101251997Y-103237610D01*
X101022370Y-103348192D01*
X100811782Y-103491768D01*
X100624952Y-103665121D01*
X100624950Y-103665123D01*
X100466041Y-103864388D01*
X100338608Y-104085109D01*
X100245492Y-104322362D01*
X100245490Y-104322369D01*
X100188777Y-104570845D01*
X100169732Y-104824995D01*
X100169732Y-104825004D01*
X91612255Y-104825004D01*
X91612255Y-90645618D01*
X89648273Y-90645618D01*
X89581234Y-90625933D01*
X89535479Y-90573129D01*
X89525535Y-90503971D01*
X89527699Y-90492673D01*
X89532875Y-90471109D01*
X89549862Y-90400351D01*
X89551164Y-90395737D01*
X89558198Y-90374090D01*
X89561755Y-90351627D01*
X89562695Y-90346897D01*
X89585683Y-90251148D01*
X89593409Y-90152978D01*
X89593974Y-90148201D01*
X89597534Y-90125729D01*
X89598155Y-90094043D01*
X89598334Y-90090401D01*
X89605449Y-90000000D01*
X89598333Y-89909593D01*
X89598155Y-89905946D01*
X89597979Y-89896990D01*
X89597534Y-89874271D01*
X89593974Y-89851798D01*
X89593409Y-89847021D01*
X89585683Y-89748852D01*
X89562696Y-89653107D01*
X89561753Y-89648357D01*
X89558198Y-89625913D01*
X89558198Y-89625911D01*
X89558195Y-89625903D01*
X89551172Y-89604289D01*
X89549857Y-89599627D01*
X89526873Y-89503889D01*
X89489194Y-89412923D01*
X89487517Y-89408380D01*
X89480493Y-89386760D01*
X89470178Y-89366515D01*
X89468139Y-89362093D01*
X89457919Y-89337420D01*
X89430466Y-89271141D01*
X89379014Y-89187179D01*
X89376649Y-89182955D01*
X89366337Y-89162716D01*
X89366334Y-89162710D01*
X89358039Y-89151293D01*
X89352977Y-89144325D01*
X89350272Y-89140277D01*
X89298839Y-89056345D01*
X89298838Y-89056344D01*
X89298837Y-89056343D01*
X89298836Y-89056341D01*
X89234891Y-88981471D01*
X89231891Y-88977665D01*
X89218531Y-88959276D01*
X89202453Y-88943198D01*
X89199163Y-88939639D01*
X89135224Y-88864776D01*
X89060355Y-88800832D01*
X89056799Y-88797544D01*
X89040724Y-88781469D01*
X89022332Y-88768107D01*
X89018511Y-88765094D01*
X88943667Y-88701171D01*
X88943659Y-88701164D01*
X88943654Y-88701161D01*
X88943653Y-88701160D01*
X88859714Y-88649722D01*
X88855667Y-88647017D01*
X88837292Y-88633667D01*
X88837290Y-88633666D01*
X88831104Y-88630514D01*
X88817048Y-88623351D01*
X88812803Y-88620973D01*
X88728857Y-88569532D01*
X88637904Y-88531858D01*
X88633484Y-88529821D01*
X88613244Y-88519509D01*
X88613243Y-88519508D01*
X88613240Y-88519507D01*
X88609126Y-88518170D01*
X88591623Y-88512482D01*
X88587057Y-88510797D01*
X88496114Y-88473127D01*
X88400390Y-88450146D01*
X88395705Y-88448824D01*
X88374090Y-88441801D01*
X88351642Y-88438246D01*
X88346867Y-88437296D01*
X88251152Y-88414318D01*
X88251153Y-88414318D01*
X88251151Y-88414317D01*
X88251148Y-88414317D01*
X88203959Y-88410603D01*
X88153002Y-88406592D01*
X88148167Y-88406019D01*
X88125734Y-88402466D01*
X88125729Y-88402466D01*
X88103008Y-88402466D01*
X88098142Y-88402275D01*
X88000000Y-88394551D01*
X87901858Y-88402275D01*
X87896992Y-88402466D01*
X87874271Y-88402466D01*
X87851833Y-88406019D01*
X87846998Y-88406592D01*
X87748851Y-88414317D01*
X87748844Y-88414318D01*
X87653132Y-88437296D01*
X87648357Y-88438246D01*
X87625913Y-88441801D01*
X87625903Y-88441803D01*
X87604299Y-88448823D01*
X87599612Y-88450145D01*
X87503891Y-88473125D01*
X87412938Y-88510799D01*
X87408373Y-88512483D01*
X87386757Y-88519507D01*
X87366515Y-88529820D01*
X87362098Y-88531856D01*
X87271141Y-88569534D01*
X87187201Y-88620970D01*
X87182958Y-88623347D01*
X87162716Y-88633662D01*
X87162708Y-88633667D01*
X87144330Y-88647018D01*
X87140286Y-88649720D01*
X87056339Y-88701165D01*
X86981482Y-88765098D01*
X86977660Y-88768111D01*
X86959276Y-88781469D01*
X86943198Y-88797544D01*
X86939626Y-88800846D01*
X86864775Y-88864775D01*
X86800846Y-88939626D01*
X86797544Y-88943198D01*
X86781469Y-88959276D01*
X86768111Y-88977660D01*
X86765098Y-88981482D01*
X86701165Y-89056339D01*
X86649720Y-89140286D01*
X86647018Y-89144330D01*
X86633667Y-89162708D01*
X86633662Y-89162716D01*
X86623347Y-89182958D01*
X86620970Y-89187201D01*
X86569534Y-89271141D01*
X86531856Y-89362098D01*
X86529820Y-89366515D01*
X86519507Y-89386757D01*
X86512483Y-89408373D01*
X86510799Y-89412938D01*
X86473125Y-89503891D01*
X86450145Y-89599612D01*
X86448823Y-89604299D01*
X86441803Y-89625903D01*
X86441801Y-89625913D01*
X86438246Y-89648357D01*
X86437296Y-89653132D01*
X86414318Y-89748844D01*
X86414317Y-89748851D01*
X86406592Y-89846998D01*
X86406019Y-89851833D01*
X86402466Y-89874270D01*
X86402466Y-89896990D01*
X86402275Y-89901856D01*
X86394551Y-89999999D01*
X86402275Y-90098142D01*
X86402466Y-90103008D01*
X86402466Y-90125734D01*
X86406019Y-90148167D01*
X86406592Y-90153002D01*
X86409783Y-90193540D01*
X86414317Y-90251148D01*
X86414317Y-90251151D01*
X86414318Y-90251153D01*
X86437296Y-90346867D01*
X86438246Y-90351642D01*
X86441801Y-90374090D01*
X86448824Y-90395705D01*
X86450146Y-90400390D01*
X86472301Y-90492670D01*
X86468810Y-90562453D01*
X86428147Y-90619270D01*
X86363221Y-90645084D01*
X86351727Y-90645618D01*
X85413700Y-90645618D01*
X85346661Y-90625933D01*
X85300906Y-90573129D01*
X85289700Y-90521618D01*
X85289700Y-87320100D01*
X85309385Y-87253061D01*
X85362189Y-87207306D01*
X85413700Y-87196100D01*
X180164700Y-87196100D01*
X180231739Y-87215785D01*
G37*
%TD.AperFunction*%
M02*
