M48
; DRILL file {KiCad 7.0.9} date Monday, May 06, 2024 at 02:39:20 PM
; FORMAT={-:-/ absolute / inch / decimal}
; #@! TF.CreationDate,2024-05-06T14:39:20+08:00
; #@! TF.GenerationSoftware,Kicad,Pcbnew,7.0.9
; #@! TF.FileFunction,MixedPlating,1,2
FMAT,2
INCH
; #@! TA.AperFunction,Plated,PTH,ComponentDrill
T1C0.0157
; #@! TA.AperFunction,Plated,PTH,ComponentDrill
T2C0.0315
; #@! TA.AperFunction,Plated,PTH,ComponentDrill
T3C0.0354
; #@! TA.AperFunction,Plated,PTH,ComponentDrill
T4C0.0394
; #@! TA.AperFunction,Plated,PTH,ComponentDrill
T5C0.0402
; #@! TA.AperFunction,Plated,PTH,ComponentDrill
T6C0.0433
; #@! TA.AperFunction,Plated,PTH,ComponentDrill
T7C0.0470
; #@! TA.AperFunction,Plated,PTH,ComponentDrill
T8C0.0591
; #@! TA.AperFunction,Plated,PTH,ComponentDrill
T9C0.0787
; #@! TA.AperFunction,NonPlated,NPTH,ComponentDrill
T10C0.0472
; #@! TA.AperFunction,NonPlated,NPTH,ComponentDrill
T11C0.1039
%
G90
G05
T2
X4.7205Y-4.4484
X4.7205Y-4.7484
X4.8661Y-4.5512
X4.8661Y-4.748
X4.9268Y-4.2602
X4.9268Y-4.3602
X4.9268Y-4.4602
X4.9996Y-4.7402
X5.2469Y-4.5709
X5.2996Y-4.7402
X5.6469Y-4.5709
X5.7579Y-4.7382
X5.7972Y-4.2185
X5.7972Y-4.4185
X5.8563Y-4.7382
X6.0276Y-4.9311
X6.0618Y-4.0886
X6.1654Y-4.2717
X6.2244Y-4.9311
X6.3622Y-4.2717
X6.4618Y-4.0886
T3
X6.0669Y-5.2441
X6.1457Y-5.2441
X6.2244Y-5.2441
T4
X4.7126Y-4.0157
X4.8307Y-4.0157
X5.0079Y-4.0157
X5.2244Y-4.0157
X5.4606Y-4.0157
X6.7008Y-4.0157
T5
X3.7087Y-5.2283
X5.7555Y-5.2283
T6
X6.1024Y-4.6599
X6.2008Y-4.4631
X6.2992Y-4.6599
T7
X5.3327Y-4.1461
X5.3327Y-4.3461
T8
X5.9843Y-5.2441
X6.3071Y-5.2441
T10
X6.7271Y-4.5269
X6.924Y-4.33
X6.924Y-4.7237
X7.0224Y-4.33
X7.0224Y-4.7237
T11
X3.8169Y-4.9923
X5.6469Y-5.4644
T1
G00X6.7468Y-4.33
M15
G01X6.7075Y-4.33
M16
G05
G00X6.7075Y-4.7237
M15
G01X6.7468Y-4.7237
M16
G05
G00X6.924Y-4.5465
M15
G01X6.924Y-4.5072
M16
G05
T2
G00X6.7409Y-4.4284
M15
G01X6.7134Y-4.4284
M16
G05
G00X6.7134Y-4.6253
M15
G01X6.7409Y-4.6253
M16
G05
T9
G00X4.4421Y-4.1361
M15
G01X4.4421Y-4.0928
M16
G05
G00X4.4421Y-4.4117
M15
G01X4.4421Y-4.3683
M16
G05
G00X4.4421Y-4.6872
M15
G01X4.4421Y-4.6439
M16
G05
T0
M30
